G04 #@! TF.GenerationSoftware,KiCad,Pcbnew,7.0.7*
G04 #@! TF.CreationDate,2023-10-16T20:45:54+02:00*
G04 #@! TF.ProjectId,HeatPumpControl,48656174-5075-46d7-9043-6f6e74726f6c,2.0*
G04 #@! TF.SameCoordinates,Original*
G04 #@! TF.FileFunction,Copper,L1,Top*
G04 #@! TF.FilePolarity,Positive*
%FSLAX46Y46*%
G04 Gerber Fmt 4.6, Leading zero omitted, Abs format (unit mm)*
G04 Created by KiCad (PCBNEW 7.0.7) date 2023-10-16 20:45:54*
%MOMM*%
%LPD*%
G01*
G04 APERTURE LIST*
G04 Aperture macros list*
%AMRoundRect*
0 Rectangle with rounded corners*
0 $1 Rounding radius*
0 $2 $3 $4 $5 $6 $7 $8 $9 X,Y pos of 4 corners*
0 Add a 4 corners polygon primitive as box body*
4,1,4,$2,$3,$4,$5,$6,$7,$8,$9,$2,$3,0*
0 Add four circle primitives for the rounded corners*
1,1,$1+$1,$2,$3*
1,1,$1+$1,$4,$5*
1,1,$1+$1,$6,$7*
1,1,$1+$1,$8,$9*
0 Add four rect primitives between the rounded corners*
20,1,$1+$1,$2,$3,$4,$5,0*
20,1,$1+$1,$4,$5,$6,$7,0*
20,1,$1+$1,$6,$7,$8,$9,0*
20,1,$1+$1,$8,$9,$2,$3,0*%
G04 Aperture macros list end*
G04 #@! TA.AperFunction,ComponentPad*
%ADD10C,1.800000*%
G04 #@! TD*
G04 #@! TA.AperFunction,ComponentPad*
%ADD11R,1.800000X1.800000*%
G04 #@! TD*
G04 #@! TA.AperFunction,SMDPad,CuDef*
%ADD12RoundRect,0.250000X-0.262500X-0.450000X0.262500X-0.450000X0.262500X0.450000X-0.262500X0.450000X0*%
G04 #@! TD*
G04 #@! TA.AperFunction,ComponentPad*
%ADD13C,5.500000*%
G04 #@! TD*
G04 #@! TA.AperFunction,ComponentPad*
%ADD14R,1.700000X1.700000*%
G04 #@! TD*
G04 #@! TA.AperFunction,ComponentPad*
%ADD15O,1.700000X1.700000*%
G04 #@! TD*
G04 #@! TA.AperFunction,SMDPad,CuDef*
%ADD16RoundRect,0.243750X0.456250X-0.243750X0.456250X0.243750X-0.456250X0.243750X-0.456250X-0.243750X0*%
G04 #@! TD*
G04 #@! TA.AperFunction,ComponentPad*
%ADD17C,1.500000*%
G04 #@! TD*
G04 #@! TA.AperFunction,SMDPad,CuDef*
%ADD18RoundRect,0.250000X0.400000X0.600000X-0.400000X0.600000X-0.400000X-0.600000X0.400000X-0.600000X0*%
G04 #@! TD*
G04 #@! TA.AperFunction,SMDPad,CuDef*
%ADD19RoundRect,0.250000X0.262500X0.450000X-0.262500X0.450000X-0.262500X-0.450000X0.262500X-0.450000X0*%
G04 #@! TD*
G04 #@! TA.AperFunction,SMDPad,CuDef*
%ADD20RoundRect,0.250000X0.450000X-0.262500X0.450000X0.262500X-0.450000X0.262500X-0.450000X-0.262500X0*%
G04 #@! TD*
G04 #@! TA.AperFunction,SMDPad,CuDef*
%ADD21RoundRect,0.250000X-0.400000X-0.600000X0.400000X-0.600000X0.400000X0.600000X-0.400000X0.600000X0*%
G04 #@! TD*
G04 #@! TA.AperFunction,SMDPad,CuDef*
%ADD22RoundRect,0.243750X-0.456250X0.243750X-0.456250X-0.243750X0.456250X-0.243750X0.456250X0.243750X0*%
G04 #@! TD*
G04 #@! TA.AperFunction,ComponentPad*
%ADD23R,1.600000X1.600000*%
G04 #@! TD*
G04 #@! TA.AperFunction,ComponentPad*
%ADD24C,1.600000*%
G04 #@! TD*
G04 #@! TA.AperFunction,ComponentPad*
%ADD25RoundRect,0.248400X-0.651600X0.651600X-0.651600X-0.651600X0.651600X-0.651600X0.651600X0.651600X0*%
G04 #@! TD*
G04 #@! TA.AperFunction,SMDPad,CuDef*
%ADD26RoundRect,0.250000X-0.450000X0.262500X-0.450000X-0.262500X0.450000X-0.262500X0.450000X0.262500X0*%
G04 #@! TD*
G04 #@! TA.AperFunction,SMDPad,CuDef*
%ADD27RoundRect,0.150000X0.587500X0.150000X-0.587500X0.150000X-0.587500X-0.150000X0.587500X-0.150000X0*%
G04 #@! TD*
G04 #@! TA.AperFunction,SMDPad,CuDef*
%ADD28RoundRect,0.250000X-0.600000X0.400000X-0.600000X-0.400000X0.600000X-0.400000X0.600000X0.400000X0*%
G04 #@! TD*
G04 #@! TA.AperFunction,ViaPad*
%ADD29C,0.600000*%
G04 #@! TD*
G04 #@! TA.AperFunction,Conductor*
%ADD30C,1.000000*%
G04 #@! TD*
G04 #@! TA.AperFunction,Conductor*
%ADD31C,0.500000*%
G04 #@! TD*
G04 APERTURE END LIST*
D10*
X139192000Y-125857000D03*
D11*
X139192000Y-128397000D03*
D12*
X148185500Y-139065000D03*
X150010500Y-139065000D03*
D13*
X139954000Y-108839000D03*
X165862000Y-138811000D03*
D14*
X148092000Y-104070000D03*
D15*
X150632000Y-104070000D03*
X153172000Y-104070000D03*
X155712000Y-104070000D03*
D16*
X152828600Y-111047400D03*
X152828600Y-109172400D03*
D17*
X160433300Y-130317700D03*
X160433300Y-127777700D03*
X160433300Y-125237700D03*
X160433300Y-122697700D03*
X160433300Y-120157700D03*
X160433300Y-117617700D03*
X160433300Y-115077700D03*
X144268300Y-115077700D03*
X144268300Y-117617700D03*
X144268300Y-120157700D03*
X144268300Y-122697700D03*
X144268300Y-125237700D03*
X144268300Y-127777700D03*
X144268300Y-130317700D03*
D12*
X150217500Y-107061000D03*
X152042500Y-107061000D03*
D11*
X139192000Y-133731000D03*
D10*
X139192000Y-131191000D03*
D18*
X155900000Y-136271000D03*
X152400000Y-136271000D03*
D19*
X146200500Y-134493000D03*
X144375500Y-134493000D03*
D20*
X163068000Y-126769500D03*
X163068000Y-124944500D03*
D14*
X166116000Y-125603000D03*
D15*
X166116000Y-128143000D03*
X166116000Y-130683000D03*
X166116000Y-133223000D03*
D21*
X152428000Y-138811000D03*
X155928000Y-138811000D03*
D22*
X138176000Y-120855500D03*
X138176000Y-122730500D03*
D18*
X162278000Y-104267000D03*
X158778000Y-104267000D03*
D23*
X160020000Y-136335900D03*
D24*
X160020000Y-138835900D03*
D20*
X155448000Y-111021500D03*
X155448000Y-109196500D03*
D25*
X139999000Y-113411000D03*
D10*
X139999000Y-115951000D03*
X139999000Y-118491000D03*
D26*
X150622000Y-109222400D03*
X150622000Y-111047400D03*
D13*
X139954000Y-138811000D03*
D21*
X161262000Y-110617000D03*
X157762000Y-110617000D03*
D26*
X145542000Y-108180500D03*
X145542000Y-110005500D03*
D18*
X161262000Y-107823000D03*
X157762000Y-107823000D03*
D14*
X166116000Y-113919000D03*
D15*
X166116000Y-116459000D03*
X166116000Y-118999000D03*
X166116000Y-121539000D03*
D12*
X148185500Y-137033000D03*
X150010500Y-137033000D03*
D27*
X146050000Y-138425000D03*
X146050000Y-136525000D03*
X144175000Y-137475000D03*
D13*
X165862000Y-108839000D03*
D20*
X163068000Y-134239000D03*
X163068000Y-132414000D03*
D12*
X154027500Y-107061000D03*
X155852500Y-107061000D03*
D26*
X163068000Y-128500500D03*
X163068000Y-130325500D03*
D20*
X163068000Y-118133500D03*
X163068000Y-116308500D03*
X140462000Y-122705500D03*
X140462000Y-120880500D03*
D28*
X148082000Y-107343000D03*
X148082000Y-110843000D03*
D29*
X161798000Y-129413000D03*
X151216000Y-112591400D03*
X154114500Y-109248100D03*
X148964300Y-133124700D03*
X158750000Y-113411000D03*
D30*
X163933500Y-118999000D02*
X163068000Y-118133500D01*
X138176000Y-122730500D02*
X138176000Y-124841000D01*
X154027500Y-107061000D02*
X154027500Y-104925500D01*
X154027500Y-104925500D02*
X153172000Y-104070000D01*
X138176000Y-124841000D02*
X139192000Y-125857000D01*
X166116000Y-118999000D02*
X163933500Y-118999000D01*
X139999000Y-115951000D02*
X142269500Y-115951000D01*
X144274100Y-124794400D02*
X155448000Y-113620500D01*
X150217500Y-108817900D02*
X150217500Y-108701400D01*
X161570000Y-136335900D02*
X161570000Y-135737000D01*
X144018000Y-110871000D02*
X142269500Y-112619500D01*
X144268300Y-124800200D02*
X144274100Y-124794400D01*
X150622000Y-109222400D02*
X150217500Y-108817900D01*
X144018000Y-109093000D02*
X144018000Y-110871000D01*
X142269500Y-115951000D02*
X142269500Y-122789900D01*
X145542000Y-108180500D02*
X146062900Y-108701400D01*
X164516000Y-133061300D02*
X164516000Y-130683000D01*
X160020000Y-136335900D02*
X161570000Y-136335900D01*
X164516000Y-130683000D02*
X164516000Y-129705000D01*
X142269500Y-122789900D02*
X144274100Y-124794400D01*
X163068000Y-128500500D02*
X163068000Y-126769500D01*
X150217500Y-108701400D02*
X150217500Y-107061000D01*
X163068000Y-134239000D02*
X163338300Y-134239000D01*
X163338300Y-134239000D02*
X164516000Y-133061300D01*
X146062900Y-108701400D02*
X150217500Y-108701400D01*
X161570000Y-135737000D02*
X163068000Y-134239000D01*
X164516000Y-129705000D02*
X163311500Y-128500500D01*
X163311500Y-128500500D02*
X163068000Y-128500500D01*
X145542000Y-108180500D02*
X144930500Y-108180500D01*
X144268300Y-125237700D02*
X144268300Y-124800200D01*
X166116000Y-130683000D02*
X164516000Y-130683000D01*
X155448000Y-113620500D02*
X155448000Y-111021500D01*
X142269500Y-112619500D02*
X142269500Y-115951000D01*
X144930500Y-108180500D02*
X144018000Y-109093000D01*
D31*
X163068000Y-130325500D02*
X162710500Y-130325500D01*
X162710500Y-130325500D02*
X161798000Y-129413000D01*
X164107500Y-124944500D02*
X164766000Y-125603000D01*
X166116000Y-125603000D02*
X164766000Y-125603000D01*
X163068000Y-124944500D02*
X164107500Y-124944500D01*
D30*
X139192000Y-131191000D02*
X139192000Y-128397000D01*
D31*
X155928000Y-138811000D02*
X155900000Y-138783000D01*
X155900000Y-138783000D02*
X155900000Y-136271000D01*
D30*
X140842000Y-123085500D02*
X140842000Y-133731000D01*
X144175000Y-137475000D02*
X140842000Y-134142000D01*
X140842000Y-134142000D02*
X140842000Y-133731000D01*
X139192000Y-133731000D02*
X140842000Y-133731000D01*
X140462000Y-122705500D02*
X140842000Y-123085500D01*
X138176000Y-120855500D02*
X140437000Y-120855500D01*
X140437000Y-120855500D02*
X140462000Y-120880500D01*
D31*
X146587700Y-135866200D02*
X146168200Y-136285700D01*
X146168200Y-136285700D02*
X146168200Y-136406800D01*
X151995200Y-135866200D02*
X146587700Y-135866200D01*
X146168200Y-136285700D02*
X144375500Y-134493000D01*
X152400000Y-136271000D02*
X151995200Y-135866200D01*
X146168200Y-136406800D02*
X146050000Y-136525000D01*
X151216000Y-112591400D02*
X151284600Y-112591400D01*
X151284600Y-112591400D02*
X152828600Y-111047400D01*
X150953600Y-111047400D02*
X150622000Y-111047400D01*
X152828600Y-109172400D02*
X150953600Y-111047400D01*
X156388500Y-109196500D02*
X155448000Y-109196500D01*
X154166100Y-109196500D02*
X154114500Y-109248100D01*
X155448000Y-109196500D02*
X154166100Y-109196500D01*
X157762000Y-107823000D02*
X156388500Y-109196500D01*
X158384700Y-115077700D02*
X160433300Y-115077700D01*
X157762000Y-114455000D02*
X158384700Y-115077700D01*
X157762000Y-110617000D02*
X157762000Y-114455000D01*
D30*
X148185500Y-139065000D02*
X148185500Y-137033000D01*
X146690000Y-139065000D02*
X148185500Y-139065000D01*
X146050000Y-138425000D02*
X146690000Y-139065000D01*
D31*
X155086300Y-133124700D02*
X160433300Y-127777700D01*
X148964300Y-133124700D02*
X155086300Y-133124700D01*
X164592000Y-113919000D02*
X166116000Y-113919000D01*
X162362000Y-111689000D02*
X164592000Y-113919000D01*
X162362000Y-109403000D02*
X162362000Y-111689000D01*
X161262000Y-108303000D02*
X162362000Y-109403000D01*
X161262000Y-107823000D02*
X161262000Y-108303000D01*
X163068000Y-115189000D02*
X161262000Y-113383000D01*
X163068000Y-116308500D02*
X163068000Y-115189000D01*
X166116000Y-116459000D02*
X164766000Y-116459000D01*
X161262000Y-113383000D02*
X161262000Y-110617000D01*
X164615500Y-116308500D02*
X164766000Y-116459000D01*
X163068000Y-116308500D02*
X164615500Y-116308500D01*
X155455800Y-125237700D02*
X146200500Y-134493000D01*
X160433300Y-125237700D02*
X155455800Y-125237700D01*
X160433300Y-130317700D02*
X162529600Y-132414000D01*
X162529600Y-132414000D02*
X163068000Y-132414000D01*
X148082000Y-110843000D02*
X146379500Y-110843000D01*
X146379500Y-120586500D02*
X144268300Y-122697700D01*
X146379500Y-110843000D02*
X146379500Y-120586500D01*
X146379500Y-110843000D02*
X145542000Y-110005500D01*
X159512000Y-112649000D02*
X159512000Y-106299000D01*
X159512000Y-106299000D02*
X161544000Y-104267000D01*
X161544000Y-104267000D02*
X162278000Y-104267000D01*
X158750000Y-113411000D02*
X159512000Y-112649000D01*
X148092000Y-104070000D02*
X148092000Y-105420000D01*
X148082000Y-107343000D02*
X148082000Y-105430000D01*
X148082000Y-105430000D02*
X148092000Y-105420000D01*
X155984000Y-107061000D02*
X155852500Y-107061000D01*
X155852500Y-107061000D02*
X154679700Y-108233800D01*
X150632000Y-105420000D02*
X152042500Y-106830500D01*
X153215300Y-108233800D02*
X152042500Y-107061000D01*
X152042500Y-106830500D02*
X152042500Y-107061000D01*
X150632000Y-104070000D02*
X150632000Y-105420000D01*
X158778000Y-104267000D02*
X155984000Y-107061000D01*
X154679700Y-108233800D02*
X153215300Y-108233800D01*
G04 #@! TA.AperFunction,Conductor*
G36*
X138690404Y-139819550D02*
G01*
X138742181Y-139855773D01*
X138817080Y-139943470D01*
X138819130Y-139945870D01*
X138909222Y-140022816D01*
X138948031Y-140082267D01*
X138948537Y-140153262D01*
X138916486Y-140207722D01*
X137833870Y-141290337D01*
X137841713Y-141297766D01*
X137841719Y-141297771D01*
X138122969Y-141511572D01*
X138337308Y-141640536D01*
X138385365Y-141692795D01*
X138397541Y-141762740D01*
X138369968Y-141828164D01*
X138311402Y-141868295D01*
X138272348Y-141874500D01*
X137016500Y-141874500D01*
X136948379Y-141854498D01*
X136901886Y-141800842D01*
X136890500Y-141748500D01*
X136890500Y-140494751D01*
X136910502Y-140426630D01*
X136964158Y-140380137D01*
X137034432Y-140370033D01*
X137099012Y-140399527D01*
X137127823Y-140435732D01*
X137158256Y-140493137D01*
X137158258Y-140493140D01*
X137356518Y-140785551D01*
X137356517Y-140785551D01*
X137477640Y-140928148D01*
X138557277Y-139848511D01*
X138619589Y-139814486D01*
X138690404Y-139819550D01*
G37*
G04 #@! TD.AperFunction*
G04 #@! TA.AperFunction,Conductor*
G36*
X164598404Y-109847550D02*
G01*
X164650181Y-109883773D01*
X164706668Y-109949912D01*
X164727130Y-109973870D01*
X164817222Y-110050816D01*
X164856031Y-110110267D01*
X164856537Y-110181262D01*
X164824486Y-110235722D01*
X163741870Y-111318337D01*
X163749713Y-111325766D01*
X163749719Y-111325771D01*
X164030969Y-111539572D01*
X164333678Y-111721706D01*
X164654316Y-111870049D01*
X164654320Y-111870051D01*
X164989103Y-111982852D01*
X164989117Y-111982856D01*
X165334127Y-112058800D01*
X165334151Y-112058804D01*
X165685348Y-112096999D01*
X165685364Y-112097000D01*
X166038636Y-112097000D01*
X166038651Y-112096999D01*
X166389848Y-112058804D01*
X166389872Y-112058800D01*
X166734882Y-111982856D01*
X166734896Y-111982852D01*
X167069679Y-111870051D01*
X167069683Y-111870049D01*
X167390321Y-111721706D01*
X167693030Y-111539572D01*
X167974276Y-111325774D01*
X167974282Y-111325769D01*
X167982127Y-111318338D01*
X167982127Y-111318336D01*
X166899512Y-110235722D01*
X166865487Y-110173410D01*
X166870551Y-110102595D01*
X166906774Y-110050818D01*
X166996870Y-109973870D01*
X167073818Y-109883775D01*
X167133265Y-109844968D01*
X167204260Y-109844460D01*
X167258722Y-109876512D01*
X168338357Y-110956148D01*
X168459482Y-110813551D01*
X168657741Y-110521140D01*
X168657743Y-110521136D01*
X168823223Y-110209005D01*
X168823227Y-110208996D01*
X168936449Y-109924833D01*
X168980244Y-109868954D01*
X169047298Y-109845623D01*
X169116321Y-109862248D01*
X169165398Y-109913550D01*
X169179500Y-109971470D01*
X169179500Y-137678529D01*
X169159498Y-137746650D01*
X169105842Y-137793143D01*
X169035568Y-137803247D01*
X168970988Y-137773753D01*
X168936449Y-137725167D01*
X168823225Y-137440997D01*
X168823223Y-137440994D01*
X168657743Y-137128863D01*
X168657741Y-137128859D01*
X168459481Y-136836448D01*
X168459482Y-136836448D01*
X168338357Y-136693850D01*
X167258722Y-137773486D01*
X167196410Y-137807512D01*
X167125595Y-137802447D01*
X167073816Y-137766222D01*
X166996870Y-137676130D01*
X166984839Y-137665855D01*
X166906774Y-137599181D01*
X166867967Y-137539733D01*
X166867459Y-137468739D01*
X166899511Y-137414276D01*
X167982127Y-136331661D01*
X167974286Y-136324233D01*
X167974280Y-136324228D01*
X167693030Y-136110427D01*
X167390321Y-135928293D01*
X167069683Y-135779950D01*
X167069679Y-135779948D01*
X166734896Y-135667147D01*
X166734882Y-135667143D01*
X166389872Y-135591199D01*
X166389848Y-135591195D01*
X166038651Y-135553000D01*
X165685348Y-135553000D01*
X165334151Y-135591195D01*
X165334127Y-135591199D01*
X164989117Y-135667143D01*
X164989103Y-135667147D01*
X164654320Y-135779948D01*
X164654316Y-135779950D01*
X164333678Y-135928293D01*
X164030969Y-136110427D01*
X163749715Y-136324231D01*
X163749709Y-136324237D01*
X163741870Y-136331661D01*
X164824487Y-137414277D01*
X164858512Y-137476589D01*
X164853448Y-137547404D01*
X164817223Y-137599183D01*
X164727130Y-137676130D01*
X164650183Y-137766223D01*
X164590732Y-137805032D01*
X164519737Y-137805538D01*
X164465277Y-137773487D01*
X163385641Y-136693850D01*
X163264517Y-136836449D01*
X163066258Y-137128859D01*
X163066256Y-137128863D01*
X162900776Y-137440994D01*
X162900772Y-137441003D01*
X162770010Y-137769188D01*
X162770009Y-137769191D01*
X162675496Y-138109598D01*
X162675496Y-138109601D01*
X162618342Y-138458230D01*
X162599215Y-138810997D01*
X162599215Y-138811002D01*
X162618342Y-139163769D01*
X162675496Y-139512398D01*
X162675496Y-139512401D01*
X162770009Y-139852808D01*
X162770010Y-139852811D01*
X162900772Y-140180996D01*
X162900776Y-140181005D01*
X163066256Y-140493136D01*
X163066258Y-140493140D01*
X163264518Y-140785551D01*
X163264517Y-140785551D01*
X163385640Y-140928148D01*
X164465277Y-139848511D01*
X164527589Y-139814486D01*
X164598404Y-139819550D01*
X164650181Y-139855773D01*
X164725080Y-139943470D01*
X164727130Y-139945870D01*
X164817222Y-140022816D01*
X164856031Y-140082267D01*
X164856537Y-140153262D01*
X164824486Y-140207722D01*
X163741870Y-141290337D01*
X163749713Y-141297766D01*
X163749719Y-141297771D01*
X164030969Y-141511572D01*
X164245308Y-141640536D01*
X164293365Y-141692795D01*
X164305541Y-141762740D01*
X164277968Y-141828164D01*
X164219402Y-141868295D01*
X164180348Y-141874500D01*
X141635652Y-141874500D01*
X141567531Y-141854498D01*
X141521038Y-141800842D01*
X141510934Y-141730568D01*
X141540428Y-141665988D01*
X141570692Y-141640536D01*
X141785030Y-141511572D01*
X142066276Y-141297774D01*
X142066282Y-141297769D01*
X142074127Y-141290338D01*
X142074127Y-141290336D01*
X140991512Y-140207722D01*
X140957487Y-140145410D01*
X140962551Y-140074595D01*
X140998774Y-140022818D01*
X141088870Y-139945870D01*
X141165818Y-139855775D01*
X141225265Y-139816968D01*
X141296260Y-139816460D01*
X141350722Y-139848512D01*
X142430357Y-140928148D01*
X142551482Y-140785551D01*
X142749741Y-140493140D01*
X142749743Y-140493136D01*
X142915223Y-140181005D01*
X142915227Y-140180996D01*
X143045989Y-139852811D01*
X143045990Y-139852808D01*
X143140503Y-139512401D01*
X143140503Y-139512398D01*
X143197657Y-139163769D01*
X143216784Y-138811002D01*
X143216784Y-138810997D01*
X143197657Y-138458233D01*
X143185083Y-138381534D01*
X143193800Y-138311074D01*
X143239227Y-138256513D01*
X143306940Y-138235172D01*
X143344568Y-138240150D01*
X143483669Y-138280562D01*
X143491134Y-138281149D01*
X143520994Y-138283500D01*
X143520998Y-138283500D01*
X143525369Y-138283500D01*
X143593490Y-138303502D01*
X143605292Y-138312093D01*
X143611997Y-138317595D01*
X143787197Y-138411241D01*
X143977299Y-138468909D01*
X143977305Y-138468909D01*
X143977307Y-138468910D01*
X144174996Y-138488380D01*
X144175000Y-138488380D01*
X144175004Y-138488380D01*
X144372692Y-138468910D01*
X144372693Y-138468909D01*
X144372701Y-138468909D01*
X144562804Y-138411241D01*
X144618605Y-138381414D01*
X144688109Y-138366943D01*
X144754406Y-138392346D01*
X144796444Y-138449559D01*
X144804000Y-138492537D01*
X144804000Y-138641506D01*
X144806937Y-138678829D01*
X144853356Y-138838605D01*
X144938044Y-138981803D01*
X144938049Y-138981810D01*
X145055689Y-139099450D01*
X145055696Y-139099455D01*
X145198894Y-139184143D01*
X145198897Y-139184143D01*
X145198899Y-139184145D01*
X145358669Y-139230562D01*
X145389027Y-139232951D01*
X145455365Y-139258235D01*
X145468233Y-139269467D01*
X145939659Y-139740893D01*
X145943801Y-139745463D01*
X145973432Y-139781568D01*
X146126996Y-139907595D01*
X146249338Y-139972988D01*
X146302196Y-140001241D01*
X146302201Y-140001243D01*
X146331170Y-140010031D01*
X146492296Y-140058908D01*
X146492297Y-140058908D01*
X146492300Y-140058909D01*
X146492304Y-140058909D01*
X146492308Y-140058910D01*
X146689996Y-140078380D01*
X146690000Y-140078380D01*
X146690003Y-140078380D01*
X146736465Y-140073804D01*
X146742644Y-140073500D01*
X147356627Y-140073500D01*
X147424748Y-140093502D01*
X147445722Y-140110405D01*
X147449341Y-140114024D01*
X147449347Y-140114029D01*
X147449348Y-140114030D01*
X147600262Y-140207115D01*
X147768574Y-140262887D01*
X147872455Y-140273500D01*
X148498544Y-140273499D01*
X148602426Y-140262887D01*
X148770738Y-140207115D01*
X148921652Y-140114030D01*
X149009260Y-140026421D01*
X149071570Y-139992398D01*
X149142386Y-139997462D01*
X149187450Y-140026423D01*
X149274659Y-140113633D01*
X149274660Y-140113634D01*
X149425474Y-140206657D01*
X149593678Y-140262393D01*
X149593681Y-140262394D01*
X149697483Y-140272999D01*
X149697483Y-140273000D01*
X149756500Y-140273000D01*
X149756500Y-136905000D01*
X149776502Y-136836879D01*
X149830158Y-136790386D01*
X149882500Y-136779000D01*
X151034821Y-136779000D01*
X151088718Y-136749569D01*
X151159533Y-136754634D01*
X151216369Y-136797181D01*
X151241180Y-136863701D01*
X151241501Y-136872690D01*
X151241501Y-136921544D01*
X151252112Y-137025425D01*
X151286388Y-137128863D01*
X151307885Y-137193738D01*
X151400970Y-137344652D01*
X151522577Y-137466259D01*
X151556601Y-137528569D01*
X151551537Y-137599385D01*
X151522577Y-137644448D01*
X151429365Y-137737660D01*
X151336342Y-137888474D01*
X151280606Y-138056678D01*
X151280605Y-138056681D01*
X151270000Y-138160483D01*
X151270000Y-138436159D01*
X151249998Y-138504280D01*
X151196342Y-138550773D01*
X151126068Y-138560877D01*
X151061488Y-138531383D01*
X151023104Y-138471657D01*
X151020791Y-138462534D01*
X151020393Y-138460676D01*
X150964657Y-138292474D01*
X150871634Y-138141661D01*
X150868074Y-138138101D01*
X150834045Y-138075790D01*
X150839106Y-138004974D01*
X150868074Y-137959899D01*
X150871634Y-137956338D01*
X150964657Y-137805525D01*
X151020393Y-137637321D01*
X151020394Y-137637318D01*
X151030999Y-137533516D01*
X151031000Y-137533516D01*
X151031000Y-137287000D01*
X150264500Y-137287000D01*
X150264500Y-140273000D01*
X150323517Y-140273000D01*
X150323516Y-140272999D01*
X150427318Y-140262394D01*
X150427321Y-140262393D01*
X150595525Y-140206657D01*
X150746339Y-140113634D01*
X150746345Y-140113629D01*
X150871629Y-139988345D01*
X150871634Y-139988339D01*
X150964657Y-139837525D01*
X151020393Y-139669324D01*
X151030464Y-139570745D01*
X151057286Y-139505010D01*
X151115389Y-139464211D01*
X151186326Y-139461302D01*
X151247575Y-139497206D01*
X151278758Y-139558686D01*
X151279167Y-139558599D01*
X151279497Y-139560143D01*
X151279690Y-139560523D01*
X151279918Y-139562109D01*
X151280606Y-139565321D01*
X151336342Y-139733525D01*
X151429365Y-139884339D01*
X151429370Y-139884345D01*
X151554654Y-140009629D01*
X151554660Y-140009634D01*
X151705474Y-140102657D01*
X151873678Y-140158393D01*
X151873681Y-140158394D01*
X151977483Y-140168999D01*
X151977483Y-140169000D01*
X152174000Y-140169000D01*
X152174000Y-139065000D01*
X152682000Y-139065000D01*
X152682000Y-140169000D01*
X152878517Y-140169000D01*
X152878516Y-140168999D01*
X152982318Y-140158394D01*
X152982321Y-140158393D01*
X153150525Y-140102657D01*
X153301339Y-140009634D01*
X153301345Y-140009629D01*
X153426629Y-139884345D01*
X153426634Y-139884339D01*
X153519657Y-139733525D01*
X153575393Y-139565321D01*
X153575394Y-139565318D01*
X153585999Y-139461516D01*
X153586000Y-139461516D01*
X153586000Y-139065000D01*
X152682000Y-139065000D01*
X152174000Y-139065000D01*
X152174000Y-138683000D01*
X152194002Y-138614879D01*
X152247658Y-138568386D01*
X152300000Y-138557000D01*
X153586000Y-138557000D01*
X153586000Y-138160483D01*
X153575394Y-138056681D01*
X153575393Y-138056678D01*
X153519657Y-137888474D01*
X153426634Y-137737660D01*
X153426629Y-137737654D01*
X153305424Y-137616449D01*
X153271398Y-137554137D01*
X153276463Y-137483322D01*
X153305424Y-137438259D01*
X153399024Y-137344658D01*
X153399030Y-137344652D01*
X153492115Y-137193738D01*
X153547887Y-137025426D01*
X153558500Y-136921545D01*
X153558500Y-136921544D01*
X154741500Y-136921544D01*
X154752112Y-137025425D01*
X154807885Y-137193738D01*
X154900970Y-137344652D01*
X154900975Y-137344658D01*
X155022222Y-137465905D01*
X155056248Y-137528217D01*
X155051183Y-137599032D01*
X155022222Y-137644095D01*
X154928975Y-137737341D01*
X154928970Y-137737347D01*
X154835885Y-137888262D01*
X154780113Y-138056572D01*
X154780112Y-138056579D01*
X154769500Y-138160446D01*
X154769500Y-139461544D01*
X154780112Y-139565425D01*
X154835885Y-139733738D01*
X154928970Y-139884652D01*
X154928975Y-139884658D01*
X155054341Y-140010024D01*
X155054347Y-140010029D01*
X155054348Y-140010030D01*
X155205262Y-140103115D01*
X155373574Y-140158887D01*
X155477455Y-140169500D01*
X156378544Y-140169499D01*
X156482426Y-140158887D01*
X156650738Y-140103115D01*
X156801652Y-140010030D01*
X156927030Y-139884652D01*
X157020115Y-139733738D01*
X157075887Y-139565426D01*
X157086500Y-139461545D01*
X157086499Y-138160456D01*
X157075887Y-138056574D01*
X157020115Y-137888262D01*
X156927030Y-137737348D01*
X156927029Y-137737347D01*
X156927024Y-137737341D01*
X156805778Y-137616095D01*
X156771752Y-137553783D01*
X156776817Y-137482968D01*
X156805778Y-137437905D01*
X156899024Y-137344658D01*
X156899030Y-137344652D01*
X156992115Y-137193738D01*
X157047887Y-137025426D01*
X157058500Y-136921545D01*
X157058499Y-135620456D01*
X157057357Y-135609281D01*
X157047887Y-135516574D01*
X157038170Y-135487250D01*
X156992115Y-135348262D01*
X156899030Y-135197348D01*
X156899029Y-135197347D01*
X156899024Y-135197341D01*
X156773658Y-135071975D01*
X156773652Y-135071970D01*
X156736078Y-135048794D01*
X156622738Y-134978885D01*
X156538582Y-134950998D01*
X156454427Y-134923113D01*
X156454420Y-134923112D01*
X156350553Y-134912500D01*
X155449455Y-134912500D01*
X155345574Y-134923112D01*
X155177261Y-134978885D01*
X155026347Y-135071970D01*
X155026341Y-135071975D01*
X154900975Y-135197341D01*
X154900970Y-135197347D01*
X154807885Y-135348262D01*
X154752113Y-135516572D01*
X154752112Y-135516579D01*
X154741500Y-135620446D01*
X154741500Y-136921544D01*
X153558500Y-136921544D01*
X153558499Y-135620456D01*
X153557357Y-135609281D01*
X153547887Y-135516574D01*
X153538170Y-135487250D01*
X153492115Y-135348262D01*
X153399030Y-135197348D01*
X153399029Y-135197347D01*
X153399024Y-135197341D01*
X153273658Y-135071975D01*
X153273652Y-135071970D01*
X153236078Y-135048794D01*
X153122738Y-134978885D01*
X153038581Y-134950998D01*
X152954427Y-134923113D01*
X152954420Y-134923112D01*
X152850553Y-134912500D01*
X151949455Y-134912500D01*
X151845574Y-134923112D01*
X151677261Y-134978885D01*
X151526347Y-135071970D01*
X151520590Y-135076523D01*
X151519517Y-135075166D01*
X151465210Y-135104821D01*
X151438427Y-135107700D01*
X147347500Y-135107700D01*
X147279379Y-135087698D01*
X147232886Y-135034042D01*
X147221500Y-134981700D01*
X147221500Y-134806495D01*
X147221499Y-134596869D01*
X147241501Y-134528750D01*
X147258399Y-134507780D01*
X148142426Y-133623753D01*
X148204736Y-133589729D01*
X148275551Y-133594794D01*
X148321825Y-133628337D01*
X148323185Y-133626978D01*
X148457018Y-133760811D01*
X148457020Y-133760812D01*
X148611281Y-133857741D01*
X148611282Y-133857741D01*
X148611285Y-133857743D01*
X148783253Y-133917917D01*
X148964300Y-133938316D01*
X149145347Y-133917917D01*
X149224355Y-133890270D01*
X149265970Y-133883200D01*
X155021859Y-133883200D01*
X155040119Y-133884530D01*
X155045015Y-133885247D01*
X155064089Y-133888041D01*
X155097446Y-133885122D01*
X155116685Y-133883440D01*
X155122178Y-133883200D01*
X155130476Y-133883200D01*
X155130480Y-133883200D01*
X155156812Y-133880121D01*
X155163396Y-133879352D01*
X155170161Y-133878760D01*
X155240726Y-133872587D01*
X155240732Y-133872584D01*
X155247918Y-133871102D01*
X155247931Y-133871168D01*
X155255287Y-133869536D01*
X155255272Y-133869471D01*
X155262404Y-133867779D01*
X155262413Y-133867779D01*
X155335365Y-133841226D01*
X155409038Y-133816814D01*
X155409040Y-133816812D01*
X155415689Y-133813712D01*
X155415718Y-133813774D01*
X155422503Y-133810489D01*
X155422473Y-133810429D01*
X155429028Y-133807136D01*
X155429032Y-133807135D01*
X155493905Y-133764466D01*
X155559951Y-133723730D01*
X155559960Y-133723720D01*
X155565708Y-133719177D01*
X155565750Y-133719231D01*
X155571589Y-133714475D01*
X155571546Y-133714423D01*
X155577165Y-133709706D01*
X155577174Y-133709701D01*
X155630463Y-133653217D01*
X158962516Y-130321163D01*
X159024826Y-130287140D01*
X159095641Y-130292204D01*
X159152477Y-130334751D01*
X159177130Y-130399278D01*
X159189185Y-130537070D01*
X159241442Y-130732096D01*
X159246180Y-130749776D01*
X159339244Y-130949354D01*
X159462662Y-131125612D01*
X159465551Y-131129738D01*
X159465554Y-131129742D01*
X159621257Y-131285445D01*
X159621261Y-131285448D01*
X159621262Y-131285449D01*
X159801646Y-131411756D01*
X160001224Y-131504820D01*
X160213929Y-131561815D01*
X160433300Y-131581007D01*
X160433302Y-131581006D01*
X160433305Y-131581007D01*
X160550059Y-131570792D01*
X160619664Y-131584780D01*
X160650136Y-131607217D01*
X161847145Y-132804226D01*
X161877654Y-132853688D01*
X161925883Y-132999234D01*
X161925884Y-132999236D01*
X161925885Y-132999238D01*
X162006846Y-133130496D01*
X162018970Y-133150152D01*
X162018975Y-133150158D01*
X162106222Y-133237405D01*
X162140248Y-133299717D01*
X162135183Y-133370532D01*
X162106222Y-133415595D01*
X162018975Y-133502841D01*
X162018970Y-133502847D01*
X161925885Y-133653762D01*
X161870113Y-133822072D01*
X161870112Y-133822079D01*
X161859500Y-133925946D01*
X161859500Y-133969074D01*
X161839498Y-134037195D01*
X161822595Y-134058169D01*
X160894116Y-134986649D01*
X160889538Y-134990799D01*
X160884670Y-134994794D01*
X160879801Y-134998790D01*
X160814459Y-135026551D01*
X160799858Y-135027400D01*
X159171350Y-135027400D01*
X159110803Y-135033909D01*
X159110795Y-135033911D01*
X158973797Y-135085010D01*
X158973792Y-135085012D01*
X158856738Y-135172638D01*
X158769112Y-135289692D01*
X158769110Y-135289697D01*
X158718011Y-135426695D01*
X158718009Y-135426703D01*
X158711500Y-135487250D01*
X158711500Y-137184549D01*
X158718009Y-137245096D01*
X158718011Y-137245104D01*
X158769110Y-137382102D01*
X158769112Y-137382107D01*
X158856738Y-137499161D01*
X158973792Y-137586787D01*
X158973794Y-137586788D01*
X158973796Y-137586789D01*
X159007028Y-137599184D01*
X159110795Y-137637888D01*
X159110803Y-137637890D01*
X159174717Y-137644761D01*
X159174604Y-137645806D01*
X159237435Y-137667959D01*
X159281000Y-137724018D01*
X159283316Y-137740006D01*
X159837934Y-138294623D01*
X159871959Y-138356936D01*
X159866895Y-138427751D01*
X159824348Y-138484587D01*
X159806043Y-138495985D01*
X159781956Y-138508258D01*
X159781951Y-138508261D01*
X159692361Y-138597851D01*
X159692358Y-138597856D01*
X159680085Y-138621943D01*
X159631337Y-138673558D01*
X159562422Y-138690623D01*
X159495220Y-138667722D01*
X159478723Y-138653834D01*
X158932899Y-138108009D01*
X158882913Y-138179400D01*
X158786188Y-138386826D01*
X158786186Y-138386831D01*
X158726951Y-138607897D01*
X158707004Y-138835899D01*
X158726951Y-139063902D01*
X158786186Y-139284968D01*
X158786188Y-139284973D01*
X158882913Y-139492401D01*
X158932899Y-139563788D01*
X159478722Y-139017965D01*
X159541035Y-138983940D01*
X159611850Y-138989004D01*
X159668686Y-139031551D01*
X159680084Y-139049855D01*
X159692359Y-139073945D01*
X159692361Y-139073948D01*
X159781951Y-139163538D01*
X159781953Y-139163539D01*
X159781955Y-139163541D01*
X159806042Y-139175813D01*
X159857656Y-139224561D01*
X159874722Y-139293476D01*
X159851821Y-139360678D01*
X159837933Y-139377175D01*
X159292110Y-139922997D01*
X159292110Y-139923000D01*
X159363498Y-139972986D01*
X159570926Y-140069711D01*
X159570931Y-140069713D01*
X159791999Y-140128948D01*
X159791995Y-140128948D01*
X160020000Y-140148895D01*
X160248002Y-140128948D01*
X160469068Y-140069713D01*
X160469073Y-140069711D01*
X160676497Y-139972988D01*
X160747888Y-139922999D01*
X160747888Y-139922998D01*
X160202065Y-139377176D01*
X160168040Y-139314863D01*
X160173104Y-139244048D01*
X160215651Y-139187212D01*
X160233951Y-139175817D01*
X160258045Y-139163541D01*
X160347641Y-139073945D01*
X160359914Y-139049857D01*
X160408658Y-138998244D01*
X160477573Y-138981175D01*
X160544775Y-139004075D01*
X160561276Y-139017965D01*
X161107098Y-139563788D01*
X161107099Y-139563788D01*
X161157088Y-139492397D01*
X161253811Y-139284973D01*
X161253813Y-139284968D01*
X161313048Y-139063902D01*
X161332995Y-138835899D01*
X161313048Y-138607897D01*
X161253813Y-138386831D01*
X161253811Y-138386826D01*
X161157086Y-138179398D01*
X161107100Y-138108010D01*
X161107097Y-138108010D01*
X160561275Y-138653833D01*
X160498963Y-138687859D01*
X160428148Y-138682794D01*
X160371312Y-138640247D01*
X160359913Y-138621941D01*
X160356315Y-138614879D01*
X160347641Y-138597855D01*
X160347639Y-138597853D01*
X160347638Y-138597851D01*
X160258048Y-138508261D01*
X160258045Y-138508259D01*
X160233955Y-138495984D01*
X160182341Y-138447234D01*
X160165276Y-138378319D01*
X160188178Y-138311118D01*
X160202065Y-138294622D01*
X160759569Y-137737118D01*
X160764709Y-137711549D01*
X160814108Y-137660557D01*
X160865369Y-137645567D01*
X160865283Y-137644761D01*
X160929196Y-137637890D01*
X160929199Y-137637889D01*
X160929201Y-137637889D01*
X160930443Y-137637426D01*
X160948045Y-137630860D01*
X161066204Y-137586789D01*
X161072061Y-137582405D01*
X161183261Y-137499161D01*
X161261317Y-137394891D01*
X161318153Y-137352344D01*
X161362185Y-137344400D01*
X161517359Y-137344400D01*
X161523539Y-137344704D01*
X161569998Y-137349280D01*
X161570000Y-137349280D01*
X161570003Y-137349280D01*
X161767694Y-137329809D01*
X161767695Y-137329808D01*
X161767701Y-137329808D01*
X161957804Y-137272141D01*
X162133004Y-137178495D01*
X162286568Y-137052468D01*
X162412595Y-136898904D01*
X162506241Y-136723704D01*
X162563908Y-136533601D01*
X162567386Y-136498294D01*
X162578500Y-136385447D01*
X162583380Y-136335901D01*
X162583380Y-136335897D01*
X162578804Y-136289436D01*
X162578500Y-136283257D01*
X162578500Y-136206924D01*
X162598502Y-136138803D01*
X162615405Y-136117829D01*
X163436330Y-135296904D01*
X163498642Y-135262878D01*
X163525425Y-135259999D01*
X163568544Y-135259999D01*
X163672426Y-135249387D01*
X163840738Y-135193615D01*
X163991652Y-135100530D01*
X164117030Y-134975152D01*
X164210115Y-134824238D01*
X164215994Y-134806494D01*
X164246502Y-134757030D01*
X164901278Y-134102254D01*
X164963587Y-134068232D01*
X165034402Y-134073296D01*
X165083071Y-134106015D01*
X165193093Y-134225531D01*
X165370698Y-134363767D01*
X165370699Y-134363768D01*
X165568628Y-134470882D01*
X165568630Y-134470883D01*
X165781483Y-134543955D01*
X165781492Y-134543957D01*
X165862000Y-134557391D01*
X165862000Y-133837033D01*
X165882002Y-133768912D01*
X165935658Y-133722419D01*
X166005926Y-133712315D01*
X166080237Y-133723000D01*
X166151763Y-133723000D01*
X166226069Y-133712316D01*
X166296341Y-133722419D01*
X166349997Y-133768911D01*
X166370000Y-133837031D01*
X166370000Y-134557390D01*
X166450507Y-134543957D01*
X166450516Y-134543955D01*
X166663369Y-134470883D01*
X166663371Y-134470882D01*
X166861300Y-134363768D01*
X166861301Y-134363767D01*
X167038902Y-134225534D01*
X167191325Y-134059958D01*
X167314419Y-133871548D01*
X167404820Y-133665456D01*
X167404823Y-133665449D01*
X167452544Y-133477000D01*
X166730844Y-133477000D01*
X166662723Y-133456998D01*
X166616230Y-133403342D01*
X166606126Y-133333068D01*
X166609947Y-133315504D01*
X166615934Y-133295113D01*
X166616000Y-133294889D01*
X166616000Y-133151111D01*
X166609946Y-133130496D01*
X166609948Y-133059500D01*
X166648333Y-132999774D01*
X166712914Y-132970282D01*
X166730844Y-132969000D01*
X167452544Y-132969000D01*
X167452544Y-132968999D01*
X167404823Y-132780550D01*
X167404820Y-132780543D01*
X167314419Y-132574451D01*
X167191325Y-132386041D01*
X167038902Y-132220465D01*
X166861301Y-132082232D01*
X166861300Y-132082231D01*
X166827791Y-132064097D01*
X166777401Y-132014083D01*
X166762050Y-131944766D01*
X166786612Y-131878153D01*
X166827790Y-131842472D01*
X166861576Y-131824189D01*
X167039240Y-131685906D01*
X167191722Y-131520268D01*
X167314860Y-131331791D01*
X167405296Y-131125616D01*
X167460564Y-130907368D01*
X167479156Y-130683000D01*
X167460564Y-130458632D01*
X167460562Y-130458624D01*
X167405297Y-130240387D01*
X167405296Y-130240386D01*
X167405296Y-130240384D01*
X167314860Y-130034209D01*
X167308140Y-130023924D01*
X167191724Y-129845734D01*
X167191720Y-129845729D01*
X167039237Y-129680091D01*
X166957382Y-129616381D01*
X166861576Y-129541811D01*
X166828319Y-129523813D01*
X166777929Y-129473802D01*
X166762576Y-129404485D01*
X166787136Y-129337872D01*
X166828320Y-129302186D01*
X166861576Y-129284189D01*
X167039240Y-129145906D01*
X167191722Y-128980268D01*
X167314860Y-128791791D01*
X167405296Y-128585616D01*
X167460564Y-128367368D01*
X167479156Y-128143000D01*
X167460564Y-127918632D01*
X167454443Y-127894461D01*
X167405297Y-127700387D01*
X167405296Y-127700386D01*
X167405296Y-127700384D01*
X167314860Y-127494209D01*
X167284899Y-127448350D01*
X167191724Y-127305734D01*
X167191719Y-127305729D01*
X167180019Y-127293020D01*
X167048524Y-127150179D01*
X167017103Y-127086514D01*
X167025090Y-127015968D01*
X167069948Y-126960939D01*
X167097183Y-126946789D01*
X167212204Y-126903889D01*
X167329261Y-126816261D01*
X167396455Y-126726501D01*
X167416887Y-126699207D01*
X167416887Y-126699206D01*
X167416889Y-126699204D01*
X167467989Y-126562201D01*
X167471066Y-126533585D01*
X167474499Y-126501649D01*
X167474500Y-126501632D01*
X167474500Y-124704367D01*
X167474499Y-124704350D01*
X167467990Y-124643803D01*
X167467988Y-124643795D01*
X167425819Y-124530738D01*
X167416889Y-124506796D01*
X167416888Y-124506794D01*
X167416887Y-124506792D01*
X167329261Y-124389738D01*
X167212207Y-124302112D01*
X167212202Y-124302110D01*
X167075204Y-124251011D01*
X167075196Y-124251009D01*
X167014649Y-124244500D01*
X167014638Y-124244500D01*
X165217362Y-124244500D01*
X165217350Y-124244500D01*
X165156803Y-124251009D01*
X165156795Y-124251011D01*
X165019797Y-124302110D01*
X165019792Y-124302112D01*
X164902740Y-124389737D01*
X164872209Y-124430522D01*
X164815372Y-124473068D01*
X164744557Y-124478132D01*
X164682245Y-124444107D01*
X164670274Y-124430255D01*
X164662969Y-124420442D01*
X164662967Y-124420440D01*
X164622524Y-124386503D01*
X164618470Y-124382789D01*
X164612607Y-124376925D01*
X164586604Y-124356364D01*
X164527136Y-124306465D01*
X164521006Y-124302433D01*
X164521041Y-124302378D01*
X164514687Y-124298329D01*
X164514653Y-124298386D01*
X164508406Y-124294533D01*
X164438040Y-124261720D01*
X164403751Y-124244500D01*
X164368688Y-124226891D01*
X164368686Y-124226890D01*
X164368683Y-124226889D01*
X164361789Y-124224380D01*
X164361811Y-124224317D01*
X164354689Y-124221841D01*
X164354669Y-124221904D01*
X164347709Y-124219597D01*
X164271650Y-124203892D01*
X164196152Y-124185999D01*
X164188867Y-124185148D01*
X164188874Y-124185080D01*
X164181377Y-124184314D01*
X164181372Y-124184381D01*
X164174058Y-124183741D01*
X164174057Y-124183741D01*
X164149055Y-124184468D01*
X164080382Y-124166454D01*
X164056299Y-124147616D01*
X163991658Y-124082975D01*
X163991652Y-124082970D01*
X163989909Y-124081895D01*
X163840738Y-123989885D01*
X163695670Y-123941815D01*
X163672427Y-123934113D01*
X163672420Y-123934112D01*
X163568553Y-123923500D01*
X162567455Y-123923500D01*
X162463574Y-123934112D01*
X162295261Y-123989885D01*
X162144347Y-124082970D01*
X162144341Y-124082975D01*
X162018975Y-124208341D01*
X162018970Y-124208347D01*
X161925885Y-124359262D01*
X161870113Y-124527572D01*
X161870112Y-124527579D01*
X161859500Y-124631446D01*
X161859500Y-124749983D01*
X161839498Y-124818104D01*
X161785842Y-124864597D01*
X161715568Y-124874701D01*
X161650988Y-124845207D01*
X161619305Y-124803233D01*
X161615249Y-124794534D01*
X161527356Y-124606047D01*
X161401049Y-124425662D01*
X161245338Y-124269951D01*
X161064954Y-124143644D01*
X161064948Y-124143641D01*
X161064948Y-124143640D01*
X160932532Y-124081895D01*
X160879246Y-124034978D01*
X160859785Y-123966701D01*
X160880326Y-123898741D01*
X160932532Y-123853505D01*
X161064948Y-123791759D01*
X161064948Y-123791758D01*
X161064954Y-123791756D01*
X161245338Y-123665449D01*
X161401049Y-123509738D01*
X161527356Y-123329354D01*
X161620420Y-123129776D01*
X161677415Y-122917071D01*
X161696607Y-122697700D01*
X161677415Y-122478329D01*
X161620420Y-122265624D01*
X161527356Y-122066047D01*
X161401049Y-121885662D01*
X161245338Y-121729951D01*
X161225328Y-121715940D01*
X161193058Y-121693344D01*
X161064954Y-121603644D01*
X161064948Y-121603641D01*
X161064948Y-121603640D01*
X160932532Y-121541895D01*
X160879246Y-121494978D01*
X160859785Y-121426701D01*
X160880326Y-121358741D01*
X160932532Y-121313505D01*
X161064948Y-121251759D01*
X161064948Y-121251758D01*
X161064954Y-121251756D01*
X161245338Y-121125449D01*
X161401049Y-120969738D01*
X161527356Y-120789354D01*
X161620420Y-120589776D01*
X161677415Y-120377071D01*
X161696607Y-120157700D01*
X161677415Y-119938329D01*
X161620420Y-119725624D01*
X161527356Y-119526047D01*
X161401049Y-119345662D01*
X161245338Y-119189951D01*
X161225328Y-119175940D01*
X161179551Y-119143886D01*
X161064954Y-119063644D01*
X161064950Y-119063642D01*
X160932531Y-119001894D01*
X160879246Y-118954977D01*
X160859785Y-118886699D01*
X160880327Y-118818739D01*
X160932529Y-118773505D01*
X161064954Y-118711756D01*
X161245338Y-118585449D01*
X161401049Y-118429738D01*
X161527356Y-118249354D01*
X161568215Y-118161732D01*
X161619305Y-118052167D01*
X161666222Y-117998881D01*
X161734499Y-117979420D01*
X161802459Y-117999961D01*
X161848525Y-118053984D01*
X161859500Y-118105416D01*
X161859500Y-118446544D01*
X161870112Y-118550425D01*
X161925885Y-118718738D01*
X162018970Y-118869652D01*
X162018975Y-118869658D01*
X162144341Y-118995024D01*
X162144347Y-118995029D01*
X162144348Y-118995030D01*
X162295262Y-119088115D01*
X162463574Y-119143887D01*
X162567455Y-119154500D01*
X162610573Y-119154499D01*
X162678693Y-119174500D01*
X162699670Y-119191404D01*
X163183159Y-119674893D01*
X163187301Y-119679463D01*
X163216932Y-119715568D01*
X163370496Y-119841595D01*
X163545696Y-119935241D01*
X163589942Y-119948662D01*
X163735799Y-119992909D01*
X163735805Y-119992909D01*
X163735807Y-119992910D01*
X163933496Y-120012380D01*
X163933500Y-120012380D01*
X163933503Y-120012380D01*
X163979965Y-120007804D01*
X163986144Y-120007500D01*
X165156691Y-120007500D01*
X165224812Y-120027502D01*
X165234082Y-120034069D01*
X165340230Y-120116688D01*
X165370424Y-120140189D01*
X165404205Y-120158470D01*
X165454596Y-120208482D01*
X165469949Y-120277799D01*
X165445389Y-120344412D01*
X165404209Y-120380096D01*
X165370704Y-120398228D01*
X165370698Y-120398232D01*
X165193097Y-120536465D01*
X165040674Y-120702041D01*
X164917580Y-120890451D01*
X164827179Y-121096543D01*
X164827176Y-121096550D01*
X164779455Y-121284999D01*
X164779456Y-121285000D01*
X165501156Y-121285000D01*
X165569277Y-121305002D01*
X165615770Y-121358658D01*
X165625874Y-121428932D01*
X165622053Y-121446496D01*
X165616000Y-121467111D01*
X165616000Y-121610888D01*
X165622053Y-121631504D01*
X165622052Y-121702500D01*
X165583667Y-121762226D01*
X165519086Y-121791718D01*
X165501156Y-121793000D01*
X164779455Y-121793000D01*
X164827176Y-121981449D01*
X164827179Y-121981456D01*
X164917580Y-122187548D01*
X165040674Y-122375958D01*
X165193097Y-122541534D01*
X165370698Y-122679767D01*
X165370699Y-122679768D01*
X165568628Y-122786882D01*
X165568630Y-122786883D01*
X165781483Y-122859955D01*
X165781492Y-122859957D01*
X165862000Y-122873391D01*
X165862000Y-122153033D01*
X165882002Y-122084912D01*
X165935658Y-122038419D01*
X166005926Y-122028315D01*
X166080237Y-122039000D01*
X166151763Y-122039000D01*
X166226069Y-122028316D01*
X166296341Y-122038419D01*
X166349997Y-122084911D01*
X166370000Y-122153031D01*
X166370000Y-122873390D01*
X166450507Y-122859957D01*
X166450516Y-122859955D01*
X166663369Y-122786883D01*
X166663371Y-122786882D01*
X166861300Y-122679768D01*
X166861301Y-122679767D01*
X167038902Y-122541534D01*
X167191325Y-122375958D01*
X167314419Y-122187548D01*
X167404820Y-121981456D01*
X167404823Y-121981449D01*
X167452544Y-121793000D01*
X166730844Y-121793000D01*
X166662723Y-121772998D01*
X166616230Y-121719342D01*
X166606126Y-121649068D01*
X166609947Y-121631504D01*
X166616000Y-121610888D01*
X166616000Y-121467111D01*
X166609947Y-121446496D01*
X166609948Y-121375500D01*
X166648333Y-121315774D01*
X166712914Y-121286282D01*
X166730844Y-121285000D01*
X167452544Y-121285000D01*
X167452544Y-121284999D01*
X167404823Y-121096550D01*
X167404820Y-121096543D01*
X167314419Y-120890451D01*
X167191325Y-120702041D01*
X167038902Y-120536465D01*
X166861301Y-120398232D01*
X166861300Y-120398231D01*
X166827791Y-120380097D01*
X166777401Y-120330083D01*
X166762050Y-120260766D01*
X166786612Y-120194153D01*
X166827790Y-120158472D01*
X166861576Y-120140189D01*
X167039240Y-120001906D01*
X167191722Y-119836268D01*
X167314860Y-119647791D01*
X167405296Y-119441616D01*
X167460564Y-119223368D01*
X167479156Y-118999000D01*
X167460564Y-118774632D01*
X167416204Y-118599459D01*
X167405297Y-118556387D01*
X167405296Y-118556386D01*
X167405296Y-118556384D01*
X167314860Y-118350209D01*
X167298220Y-118324740D01*
X167191724Y-118161734D01*
X167191720Y-118161729D01*
X167042800Y-117999961D01*
X167039240Y-117996094D01*
X167039239Y-117996093D01*
X167039237Y-117996091D01*
X166957382Y-117932381D01*
X166861576Y-117857811D01*
X166861569Y-117857807D01*
X166828318Y-117839812D01*
X166777928Y-117789798D01*
X166762576Y-117720481D01*
X166787137Y-117653869D01*
X166828315Y-117618188D01*
X166861576Y-117600189D01*
X167039240Y-117461906D01*
X167191722Y-117296268D01*
X167314860Y-117107791D01*
X167405296Y-116901616D01*
X167460564Y-116683368D01*
X167479156Y-116459000D01*
X167460564Y-116234632D01*
X167405296Y-116016384D01*
X167314860Y-115810209D01*
X167260932Y-115727666D01*
X167191724Y-115621734D01*
X167191719Y-115621729D01*
X167173333Y-115601757D01*
X167048524Y-115466179D01*
X167017103Y-115402514D01*
X167025090Y-115331968D01*
X167069948Y-115276939D01*
X167097183Y-115262789D01*
X167212204Y-115219889D01*
X167223793Y-115211214D01*
X167329261Y-115132261D01*
X167416887Y-115015207D01*
X167416887Y-115015206D01*
X167416889Y-115015204D01*
X167467989Y-114878201D01*
X167468622Y-114872320D01*
X167474499Y-114817649D01*
X167474500Y-114817632D01*
X167474500Y-113020367D01*
X167474499Y-113020350D01*
X167467990Y-112959803D01*
X167467988Y-112959795D01*
X167416889Y-112822797D01*
X167416887Y-112822792D01*
X167329261Y-112705738D01*
X167212207Y-112618112D01*
X167212202Y-112618110D01*
X167075204Y-112567011D01*
X167075196Y-112567009D01*
X167014649Y-112560500D01*
X167014638Y-112560500D01*
X165217362Y-112560500D01*
X165217350Y-112560500D01*
X165156803Y-112567009D01*
X165156795Y-112567011D01*
X165019797Y-112618110D01*
X165019792Y-112618112D01*
X164902738Y-112705738D01*
X164815112Y-112822792D01*
X164810795Y-112830701D01*
X164808576Y-112829489D01*
X164774073Y-112875573D01*
X164707551Y-112900380D01*
X164638178Y-112885283D01*
X164609476Y-112863795D01*
X163918745Y-112173064D01*
X163157405Y-111411723D01*
X163123379Y-111349411D01*
X163120500Y-111322628D01*
X163120500Y-110986967D01*
X163140502Y-110918846D01*
X163194158Y-110872353D01*
X163264432Y-110862249D01*
X163329012Y-110891743D01*
X163342533Y-110905397D01*
X163385640Y-110956148D01*
X164465277Y-109876511D01*
X164527589Y-109842486D01*
X164598404Y-109847550D01*
G37*
G04 #@! TD.AperFunction*
G04 #@! TA.AperFunction,Conductor*
G36*
X167258722Y-139848512D02*
G01*
X168338357Y-140928148D01*
X168459482Y-140785551D01*
X168657741Y-140493140D01*
X168657743Y-140493136D01*
X168823223Y-140181005D01*
X168823227Y-140180996D01*
X168936449Y-139896833D01*
X168980244Y-139840954D01*
X169047298Y-139817623D01*
X169116321Y-139834248D01*
X169165398Y-139885550D01*
X169179500Y-139943470D01*
X169179500Y-141748500D01*
X169159498Y-141816621D01*
X169105842Y-141863114D01*
X169053500Y-141874500D01*
X167543652Y-141874500D01*
X167475531Y-141854498D01*
X167429038Y-141800842D01*
X167418934Y-141730568D01*
X167448428Y-141665988D01*
X167478692Y-141640536D01*
X167693030Y-141511572D01*
X167974276Y-141297774D01*
X167974282Y-141297769D01*
X167982127Y-141290338D01*
X167982127Y-141290336D01*
X166899512Y-140207722D01*
X166865487Y-140145410D01*
X166870551Y-140074595D01*
X166906774Y-140022818D01*
X166996870Y-139945870D01*
X167073818Y-139855775D01*
X167133265Y-139816968D01*
X167204260Y-139816460D01*
X167258722Y-139848512D01*
G37*
G04 #@! TD.AperFunction*
G04 #@! TA.AperFunction,Conductor*
G36*
X137099012Y-123411815D02*
G01*
X137123739Y-123440890D01*
X137125656Y-123443998D01*
X137130592Y-123448934D01*
X137164619Y-123511243D01*
X137167500Y-123538032D01*
X137167500Y-124788355D01*
X137167196Y-124794534D01*
X137162620Y-124840996D01*
X137162620Y-124841004D01*
X137182089Y-125038692D01*
X137182091Y-125038701D01*
X137224626Y-125178918D01*
X137239758Y-125228803D01*
X137239759Y-125228805D01*
X137333405Y-125404004D01*
X137397548Y-125482163D01*
X137459432Y-125557568D01*
X137495531Y-125587194D01*
X137500100Y-125591334D01*
X137676669Y-125767903D01*
X137747178Y-125838412D01*
X137781204Y-125900724D01*
X137783653Y-125917101D01*
X137794328Y-126045932D01*
X137797950Y-126089633D01*
X137855249Y-126315903D01*
X137855252Y-126315910D01*
X137949015Y-126529668D01*
X138049895Y-126684077D01*
X138076686Y-126725083D01*
X138161842Y-126817587D01*
X138193263Y-126881251D01*
X138185276Y-126951797D01*
X138140417Y-127006826D01*
X138113175Y-127020979D01*
X138045795Y-127046111D01*
X138045792Y-127046112D01*
X137928738Y-127133738D01*
X137841112Y-127250792D01*
X137841110Y-127250797D01*
X137790011Y-127387795D01*
X137790009Y-127387803D01*
X137783500Y-127448350D01*
X137783500Y-129345649D01*
X137790009Y-129406196D01*
X137790011Y-129406204D01*
X137841110Y-129543202D01*
X137841112Y-129543207D01*
X137928738Y-129660261D01*
X138045791Y-129747886D01*
X138045792Y-129747886D01*
X138045796Y-129747889D01*
X138101535Y-129768679D01*
X138158368Y-129811224D01*
X138183179Y-129877744D01*
X138183500Y-129886733D01*
X138183500Y-130157721D01*
X138163498Y-130225842D01*
X138150203Y-130243055D01*
X138109621Y-130287140D01*
X138076683Y-130322920D01*
X137949015Y-130518331D01*
X137855252Y-130732089D01*
X137855249Y-130732096D01*
X137797950Y-130958366D01*
X137797949Y-130958372D01*
X137797949Y-130958374D01*
X137778673Y-131191000D01*
X137796965Y-131411756D01*
X137797950Y-131423633D01*
X137855249Y-131649903D01*
X137855252Y-131649910D01*
X137949015Y-131863668D01*
X138040988Y-132004444D01*
X138076686Y-132059083D01*
X138161842Y-132151587D01*
X138193263Y-132215251D01*
X138185276Y-132285797D01*
X138140417Y-132340826D01*
X138113175Y-132354979D01*
X138045795Y-132380111D01*
X138045792Y-132380112D01*
X137928738Y-132467738D01*
X137841112Y-132584792D01*
X137841110Y-132584797D01*
X137790011Y-132721795D01*
X137790009Y-132721803D01*
X137783500Y-132782350D01*
X137783500Y-134679649D01*
X137790009Y-134740196D01*
X137790011Y-134740204D01*
X137841110Y-134877202D01*
X137841112Y-134877207D01*
X137928738Y-134994261D01*
X138045792Y-135081887D01*
X138045794Y-135081888D01*
X138045796Y-135081889D01*
X138087452Y-135097426D01*
X138182795Y-135132988D01*
X138182803Y-135132990D01*
X138243350Y-135139499D01*
X138243355Y-135139499D01*
X138243362Y-135139500D01*
X138243368Y-135139500D01*
X140140632Y-135139500D01*
X140140638Y-135139500D01*
X140140645Y-135139499D01*
X140140649Y-135139499D01*
X140201196Y-135132990D01*
X140201199Y-135132989D01*
X140201201Y-135132989D01*
X140275046Y-135105445D01*
X140345858Y-135100380D01*
X140408168Y-135134402D01*
X140408172Y-135134406D01*
X140668273Y-135394507D01*
X140702299Y-135456819D01*
X140697234Y-135527634D01*
X140654687Y-135584470D01*
X140588167Y-135609281D01*
X140552092Y-135606656D01*
X140481876Y-135591200D01*
X140481848Y-135591195D01*
X140130651Y-135553000D01*
X139777348Y-135553000D01*
X139426151Y-135591195D01*
X139426127Y-135591199D01*
X139081117Y-135667143D01*
X139081103Y-135667147D01*
X138746320Y-135779948D01*
X138746316Y-135779950D01*
X138425678Y-135928293D01*
X138122969Y-136110427D01*
X137841715Y-136324231D01*
X137841709Y-136324237D01*
X137833870Y-136331661D01*
X138916487Y-137414277D01*
X138950512Y-137476589D01*
X138945448Y-137547404D01*
X138909223Y-137599183D01*
X138819130Y-137676130D01*
X138742183Y-137766223D01*
X138682732Y-137805032D01*
X138611737Y-137805538D01*
X138557277Y-137773487D01*
X137477641Y-136693850D01*
X137356517Y-136836449D01*
X137158258Y-137128859D01*
X137158252Y-137128869D01*
X137127822Y-137186268D01*
X137078242Y-137237084D01*
X137009059Y-137253028D01*
X136942238Y-137229038D01*
X136898995Y-137172730D01*
X136890500Y-137127248D01*
X136890500Y-123507039D01*
X136910502Y-123438918D01*
X136964158Y-123392425D01*
X137034432Y-123382321D01*
X137099012Y-123411815D01*
G37*
G04 #@! TD.AperFunction*
G04 #@! TA.AperFunction,Conductor*
G36*
X156731398Y-111651849D02*
G01*
X156757904Y-111682438D01*
X156762970Y-111690652D01*
X156762975Y-111690658D01*
X156888341Y-111816024D01*
X156888345Y-111816027D01*
X156888348Y-111816030D01*
X156888350Y-111816031D01*
X156943646Y-111850138D01*
X156991125Y-111902923D01*
X157003500Y-111957379D01*
X157003500Y-114390559D01*
X157002170Y-114408819D01*
X156998659Y-114432786D01*
X156998659Y-114432794D01*
X157003260Y-114485372D01*
X157003500Y-114490866D01*
X157003500Y-114499182D01*
X157007347Y-114532094D01*
X157014112Y-114609419D01*
X157015596Y-114616606D01*
X157015531Y-114616619D01*
X157017165Y-114623989D01*
X157017229Y-114623975D01*
X157018921Y-114631116D01*
X157029567Y-114660364D01*
X157045473Y-114704065D01*
X157049212Y-114715349D01*
X157069885Y-114777736D01*
X157072987Y-114784388D01*
X157072926Y-114784416D01*
X157076211Y-114791202D01*
X157076270Y-114791173D01*
X157079560Y-114797724D01*
X157079564Y-114797731D01*
X157079565Y-114797732D01*
X157092665Y-114817649D01*
X157122233Y-114862605D01*
X157162967Y-114928648D01*
X157167522Y-114934408D01*
X157167468Y-114934450D01*
X157172228Y-114940292D01*
X157172279Y-114940250D01*
X157176993Y-114945868D01*
X157176998Y-114945873D01*
X157176999Y-114945874D01*
X157233482Y-114999163D01*
X157802798Y-115568479D01*
X157814765Y-115582327D01*
X157815710Y-115583597D01*
X157829231Y-115601758D01*
X157855137Y-115623496D01*
X157869675Y-115635694D01*
X157873721Y-115639402D01*
X157879600Y-115645281D01*
X157905595Y-115665835D01*
X157965060Y-115715732D01*
X157965066Y-115715735D01*
X157971195Y-115719767D01*
X157971158Y-115719822D01*
X157977511Y-115723869D01*
X157977547Y-115723813D01*
X157983792Y-115727665D01*
X157983795Y-115727667D01*
X158054152Y-115760475D01*
X158123512Y-115795309D01*
X158123513Y-115795309D01*
X158123517Y-115795311D01*
X158130413Y-115797821D01*
X158130389Y-115797885D01*
X158137505Y-115800359D01*
X158137527Y-115800295D01*
X158144491Y-115802603D01*
X158220549Y-115818307D01*
X158254566Y-115826369D01*
X158296044Y-115836200D01*
X158296050Y-115836200D01*
X158303333Y-115837052D01*
X158303325Y-115837119D01*
X158310822Y-115837885D01*
X158310828Y-115837819D01*
X158318135Y-115838457D01*
X158318142Y-115838459D01*
X158395780Y-115836200D01*
X159362472Y-115836200D01*
X159430593Y-115856202D01*
X159461524Y-115885932D01*
X159462013Y-115885522D01*
X159465554Y-115889742D01*
X159621257Y-116045445D01*
X159621261Y-116045448D01*
X159621262Y-116045449D01*
X159801646Y-116171756D01*
X159827102Y-116183626D01*
X159934068Y-116233505D01*
X159987353Y-116280422D01*
X160006814Y-116348699D01*
X159986272Y-116416659D01*
X159934068Y-116461895D01*
X159801646Y-116523644D01*
X159621265Y-116649948D01*
X159621259Y-116649953D01*
X159465553Y-116805659D01*
X159465548Y-116805665D01*
X159339244Y-116986046D01*
X159246181Y-117185620D01*
X159246179Y-117185626D01*
X159212299Y-117312068D01*
X159189185Y-117398329D01*
X159169993Y-117617700D01*
X159189185Y-117837071D01*
X159209798Y-117914000D01*
X159246179Y-118049773D01*
X159246181Y-118049779D01*
X159298386Y-118161734D01*
X159339244Y-118249354D01*
X159443000Y-118397532D01*
X159465551Y-118429738D01*
X159465554Y-118429742D01*
X159621257Y-118585445D01*
X159621261Y-118585448D01*
X159621262Y-118585449D01*
X159801646Y-118711756D01*
X159851281Y-118734901D01*
X159934068Y-118773505D01*
X159987353Y-118820422D01*
X160006814Y-118888699D01*
X159986272Y-118956659D01*
X159934068Y-119001895D01*
X159801646Y-119063644D01*
X159621265Y-119189948D01*
X159621259Y-119189953D01*
X159465553Y-119345659D01*
X159465548Y-119345665D01*
X159339244Y-119526046D01*
X159246181Y-119725620D01*
X159246179Y-119725626D01*
X159214299Y-119844603D01*
X159189185Y-119938329D01*
X159169993Y-120157700D01*
X159177835Y-120247342D01*
X159189185Y-120377070D01*
X159246179Y-120589773D01*
X159246181Y-120589779D01*
X159339242Y-120789350D01*
X159339244Y-120789354D01*
X159443000Y-120937532D01*
X159465551Y-120969738D01*
X159465554Y-120969742D01*
X159621257Y-121125445D01*
X159621261Y-121125448D01*
X159621262Y-121125449D01*
X159801646Y-121251756D01*
X159872939Y-121285000D01*
X159934068Y-121313505D01*
X159987353Y-121360422D01*
X160006814Y-121428699D01*
X159986272Y-121496659D01*
X159934068Y-121541895D01*
X159801646Y-121603644D01*
X159621265Y-121729948D01*
X159621259Y-121729953D01*
X159465553Y-121885659D01*
X159465548Y-121885665D01*
X159339244Y-122066046D01*
X159246181Y-122265620D01*
X159246179Y-122265626D01*
X159200360Y-122436625D01*
X159189185Y-122478329D01*
X159169993Y-122697700D01*
X159189185Y-122917071D01*
X159246180Y-123129776D01*
X159339244Y-123329354D01*
X159419519Y-123443998D01*
X159465551Y-123509738D01*
X159465554Y-123509742D01*
X159621257Y-123665445D01*
X159621261Y-123665448D01*
X159621262Y-123665449D01*
X159801646Y-123791756D01*
X159816956Y-123798895D01*
X159934068Y-123853505D01*
X159987353Y-123900422D01*
X160006814Y-123968699D01*
X159986272Y-124036659D01*
X159934068Y-124081895D01*
X159801646Y-124143644D01*
X159621265Y-124269948D01*
X159465549Y-124425663D01*
X159462013Y-124429878D01*
X159461113Y-124429122D01*
X159410235Y-124469796D01*
X159362472Y-124479200D01*
X155520241Y-124479200D01*
X155501982Y-124477870D01*
X155478012Y-124474359D01*
X155478011Y-124474359D01*
X155471573Y-124474922D01*
X155425415Y-124478960D01*
X155419922Y-124479200D01*
X155411617Y-124479200D01*
X155378704Y-124483047D01*
X155301374Y-124489812D01*
X155294189Y-124491296D01*
X155294176Y-124491233D01*
X155286803Y-124492868D01*
X155286818Y-124492931D01*
X155279681Y-124494622D01*
X155223888Y-124514929D01*
X155206734Y-124521173D01*
X155169897Y-124533379D01*
X155133061Y-124545586D01*
X155126412Y-124548687D01*
X155126383Y-124548626D01*
X155119592Y-124551914D01*
X155119622Y-124551973D01*
X155113069Y-124555263D01*
X155048194Y-124597932D01*
X154982151Y-124638668D01*
X154976388Y-124643225D01*
X154976347Y-124643173D01*
X154970504Y-124647933D01*
X154970546Y-124647983D01*
X154964928Y-124652696D01*
X154911636Y-124709182D01*
X146373222Y-133247595D01*
X146310910Y-133281621D01*
X146284127Y-133284500D01*
X145887455Y-133284500D01*
X145783574Y-133295112D01*
X145615261Y-133350885D01*
X145464347Y-133443970D01*
X145377094Y-133531223D01*
X145314782Y-133565248D01*
X145243966Y-133560182D01*
X145198905Y-133531223D01*
X145111652Y-133443970D01*
X144960738Y-133350885D01*
X144853963Y-133315504D01*
X144792427Y-133295113D01*
X144792420Y-133295112D01*
X144688553Y-133284500D01*
X144062455Y-133284500D01*
X143958574Y-133295112D01*
X143790261Y-133350885D01*
X143639347Y-133443970D01*
X143639341Y-133443975D01*
X143513975Y-133569341D01*
X143513970Y-133569347D01*
X143420885Y-133720262D01*
X143365113Y-133888572D01*
X143365112Y-133888579D01*
X143354500Y-133992446D01*
X143354500Y-134924076D01*
X143334498Y-134992197D01*
X143280842Y-135038690D01*
X143210568Y-135048794D01*
X143145988Y-135019300D01*
X143139405Y-135013171D01*
X141887405Y-133761171D01*
X141853379Y-133698859D01*
X141850500Y-133672076D01*
X141850500Y-124101299D01*
X141870502Y-124033178D01*
X141924158Y-123986685D01*
X141994432Y-123976581D01*
X142059012Y-124006075D01*
X142065588Y-124012197D01*
X142272999Y-124219597D01*
X142986464Y-124933027D01*
X143020491Y-124995339D01*
X143022892Y-125033106D01*
X143010136Y-125178918D01*
X143004993Y-125237700D01*
X143024185Y-125457071D01*
X143057091Y-125579878D01*
X143081179Y-125669773D01*
X143081181Y-125669779D01*
X143161669Y-125842387D01*
X143174244Y-125869354D01*
X143263063Y-125996200D01*
X143300551Y-126049738D01*
X143300554Y-126049742D01*
X143456257Y-126205445D01*
X143456261Y-126205448D01*
X143456262Y-126205449D01*
X143636646Y-126331756D01*
X143636651Y-126331758D01*
X143636651Y-126331759D01*
X143769658Y-126393780D01*
X143822944Y-126440697D01*
X143842405Y-126508974D01*
X143821864Y-126576934D01*
X143769660Y-126622169D01*
X143636900Y-126684077D01*
X143576311Y-126726501D01*
X144010872Y-127161062D01*
X144044898Y-127223374D01*
X144039833Y-127294189D01*
X144001154Y-127345857D01*
X144002011Y-127346847D01*
X143997464Y-127350786D01*
X143997286Y-127351025D01*
X143996798Y-127351363D01*
X143886538Y-127446902D01*
X143850475Y-127503018D01*
X143796819Y-127549511D01*
X143726545Y-127559614D01*
X143661964Y-127530121D01*
X143655382Y-127523992D01*
X143217101Y-127085711D01*
X143174678Y-127146298D01*
X143081652Y-127345792D01*
X143081650Y-127345796D01*
X143024680Y-127558412D01*
X143005495Y-127777700D01*
X143024680Y-127996987D01*
X143081650Y-128209603D01*
X143081652Y-128209607D01*
X143174678Y-128409102D01*
X143217101Y-128469686D01*
X143655380Y-128031406D01*
X143717693Y-127997381D01*
X143788508Y-128002445D01*
X143845344Y-128044992D01*
X143850474Y-128052380D01*
X143850475Y-128052382D01*
X143886539Y-128108498D01*
X143995200Y-128202652D01*
X143995201Y-128202652D01*
X144002011Y-128208553D01*
X143999986Y-128210889D01*
X144036384Y-128252887D01*
X144046495Y-128323160D01*
X144017009Y-128387743D01*
X144010872Y-128394336D01*
X143576312Y-128828897D01*
X143636900Y-128871322D01*
X143769659Y-128933229D01*
X143822944Y-128980146D01*
X143842405Y-129048424D01*
X143821863Y-129116384D01*
X143769659Y-129161619D01*
X143636646Y-129223644D01*
X143456265Y-129349948D01*
X143456259Y-129349953D01*
X143300553Y-129505659D01*
X143300548Y-129505665D01*
X143174244Y-129686046D01*
X143081181Y-129885620D01*
X143081179Y-129885626D01*
X143024185Y-130098329D01*
X143004993Y-130317700D01*
X143024185Y-130537070D01*
X143076442Y-130732096D01*
X143081180Y-130749776D01*
X143174244Y-130949354D01*
X143297662Y-131125612D01*
X143300551Y-131129738D01*
X143300554Y-131129742D01*
X143456257Y-131285445D01*
X143456261Y-131285448D01*
X143456262Y-131285449D01*
X143636646Y-131411756D01*
X143836224Y-131504820D01*
X144048929Y-131561815D01*
X144268300Y-131581007D01*
X144487671Y-131561815D01*
X144700376Y-131504820D01*
X144899954Y-131411756D01*
X145080338Y-131285449D01*
X145236049Y-131129738D01*
X145362356Y-130949354D01*
X145455420Y-130749776D01*
X145512415Y-130537071D01*
X145531607Y-130317700D01*
X145512415Y-130098329D01*
X145455420Y-129885624D01*
X145362356Y-129686047D01*
X145236049Y-129505662D01*
X145080338Y-129349951D01*
X145074194Y-129345649D01*
X144986425Y-129284192D01*
X144899954Y-129223644D01*
X144766940Y-129161619D01*
X144713655Y-129114702D01*
X144694194Y-129046425D01*
X144714736Y-128978465D01*
X144766940Y-128933229D01*
X144899710Y-128871316D01*
X144899712Y-128871315D01*
X144960286Y-128828898D01*
X144960286Y-128828896D01*
X144525727Y-128394337D01*
X144491701Y-128332025D01*
X144496766Y-128261210D01*
X144535445Y-128209540D01*
X144534589Y-128208553D01*
X144539130Y-128204617D01*
X144539313Y-128204374D01*
X144539810Y-128204028D01*
X144541395Y-128202653D01*
X144541400Y-128202652D01*
X144650061Y-128108498D01*
X144686126Y-128052379D01*
X144739777Y-128005888D01*
X144810051Y-127995783D01*
X144874632Y-128025275D01*
X144881218Y-128031406D01*
X145319497Y-128469686D01*
X145319498Y-128469686D01*
X145361915Y-128409112D01*
X145361919Y-128409105D01*
X145454945Y-128209612D01*
X145454949Y-128209603D01*
X145511919Y-127996987D01*
X145531104Y-127777700D01*
X145511919Y-127558412D01*
X145454949Y-127345796D01*
X145454947Y-127345792D01*
X145361921Y-127146298D01*
X145319498Y-127085712D01*
X145319496Y-127085712D01*
X144881217Y-127523992D01*
X144818905Y-127558018D01*
X144748090Y-127552953D01*
X144691254Y-127510406D01*
X144686124Y-127503017D01*
X144650062Y-127446903D01*
X144581856Y-127387803D01*
X144541400Y-127352748D01*
X144541398Y-127352747D01*
X144534589Y-127346847D01*
X144536610Y-127344513D01*
X144500202Y-127302486D01*
X144490107Y-127232211D01*
X144519607Y-127167633D01*
X144525727Y-127161062D01*
X144960286Y-126726502D01*
X144960286Y-126726500D01*
X144899701Y-126684078D01*
X144899702Y-126684078D01*
X144766940Y-126622170D01*
X144713655Y-126575252D01*
X144694194Y-126506975D01*
X144714736Y-126439015D01*
X144766939Y-126393781D01*
X144874539Y-126343607D01*
X144899948Y-126331759D01*
X144899948Y-126331758D01*
X144899954Y-126331756D01*
X145080338Y-126205449D01*
X145236049Y-126049738D01*
X145362356Y-125869354D01*
X145455420Y-125669776D01*
X145512415Y-125457071D01*
X145531607Y-125237700D01*
X145514638Y-125043742D01*
X145528627Y-124974140D01*
X145551061Y-124943671D01*
X156123907Y-114370825D01*
X156128445Y-114366711D01*
X156164568Y-114337068D01*
X156290595Y-114183504D01*
X156384241Y-114008304D01*
X156402741Y-113947319D01*
X156441909Y-113818201D01*
X156447874Y-113757638D01*
X156461380Y-113620504D01*
X156461380Y-113620496D01*
X156456804Y-113574034D01*
X156456500Y-113567855D01*
X156456500Y-111850372D01*
X156476502Y-111782251D01*
X156493405Y-111761276D01*
X156497030Y-111757652D01*
X156543423Y-111682436D01*
X156596208Y-111634960D01*
X156666283Y-111623557D01*
X156731398Y-111651849D01*
G37*
G04 #@! TD.AperFunction*
G04 #@! TA.AperFunction,Conductor*
G36*
X138690404Y-109847550D02*
G01*
X138742181Y-109883773D01*
X138798668Y-109949912D01*
X138819130Y-109973870D01*
X138909222Y-110050816D01*
X138948031Y-110110267D01*
X138948537Y-110181262D01*
X138916486Y-110235722D01*
X137833870Y-111318337D01*
X137841713Y-111325766D01*
X137841719Y-111325771D01*
X138122969Y-111539572D01*
X138425678Y-111721706D01*
X138746316Y-111870049D01*
X138746320Y-111870051D01*
X138880704Y-111915330D01*
X138938872Y-111956036D01*
X138965799Y-112021728D01*
X138952935Y-112091549D01*
X138906620Y-112141974D01*
X138874747Y-112161633D01*
X138749635Y-112286745D01*
X138656745Y-112437342D01*
X138601090Y-112605301D01*
X138601090Y-112605304D01*
X138590500Y-112708951D01*
X138590500Y-114113036D01*
X138601090Y-114216701D01*
X138627986Y-114297868D01*
X138656745Y-114384658D01*
X138714788Y-114478759D01*
X138749635Y-114535254D01*
X138874745Y-114660364D01*
X138874747Y-114660365D01*
X138874748Y-114660366D01*
X138998544Y-114736726D01*
X139046021Y-114789510D01*
X139057424Y-114859585D01*
X139029131Y-114924701D01*
X139025098Y-114929302D01*
X138883683Y-115082920D01*
X138756015Y-115278331D01*
X138662252Y-115492089D01*
X138662249Y-115492096D01*
X138604950Y-115718366D01*
X138604949Y-115718372D01*
X138604949Y-115718374D01*
X138585673Y-115951000D01*
X138603965Y-116171756D01*
X138604950Y-116183633D01*
X138662249Y-116409903D01*
X138662252Y-116409910D01*
X138756015Y-116623668D01*
X138883685Y-116819083D01*
X139041772Y-116990811D01*
X139041778Y-116990816D01*
X139041780Y-116990818D01*
X139210174Y-117121885D01*
X139251644Y-117179508D01*
X139255378Y-117250406D01*
X139220188Y-117312068D01*
X139210173Y-117320747D01*
X139197681Y-117330469D01*
X139778768Y-117911556D01*
X139812793Y-117973869D01*
X139807729Y-118044684D01*
X139765182Y-118101520D01*
X139744347Y-118114172D01*
X139742646Y-118114991D01*
X139742644Y-118114992D01*
X139643201Y-118207261D01*
X139620200Y-118247101D01*
X139568817Y-118296094D01*
X139499103Y-118309529D01*
X139433192Y-118283142D01*
X139421986Y-118273196D01*
X138839796Y-117691007D01*
X138839795Y-117691007D01*
X138756461Y-117818560D01*
X138756454Y-117818574D01*
X138662726Y-118032252D01*
X138662724Y-118032256D01*
X138605444Y-118258450D01*
X138586174Y-118490999D01*
X138605444Y-118723549D01*
X138662724Y-118949743D01*
X138662726Y-118949747D01*
X138756454Y-119163425D01*
X138756461Y-119163439D01*
X138839795Y-119290991D01*
X139419721Y-118711066D01*
X139482034Y-118677041D01*
X139552849Y-118682105D01*
X139607328Y-118721602D01*
X139689462Y-118824597D01*
X139689465Y-118824599D01*
X139752859Y-118867821D01*
X139763093Y-118874798D01*
X139808109Y-118929699D01*
X139816298Y-119000222D01*
X139785059Y-119063976D01*
X139781210Y-119067999D01*
X139197680Y-119651528D01*
X139199279Y-119677277D01*
X139200660Y-119679196D01*
X139204392Y-119750095D01*
X139169200Y-119811756D01*
X139106259Y-119844603D01*
X139081797Y-119847000D01*
X138126444Y-119847000D01*
X138002616Y-119859196D01*
X137996438Y-119859500D01*
X137669625Y-119859500D01*
X137566600Y-119870025D01*
X137566597Y-119870025D01*
X137566596Y-119870026D01*
X137483885Y-119897433D01*
X137399670Y-119925339D01*
X137250001Y-120017656D01*
X137249995Y-120017661D01*
X137125661Y-120141995D01*
X137125657Y-120142000D01*
X137123740Y-120145109D01*
X137121869Y-120146791D01*
X137121106Y-120147757D01*
X137120940Y-120147626D01*
X137070953Y-120192586D01*
X137000878Y-120203988D01*
X136935763Y-120175694D01*
X136896281Y-120116688D01*
X136890500Y-120078960D01*
X136890500Y-110522751D01*
X136910502Y-110454630D01*
X136964158Y-110408137D01*
X137034432Y-110398033D01*
X137099012Y-110427527D01*
X137127823Y-110463732D01*
X137158256Y-110521137D01*
X137158258Y-110521140D01*
X137356518Y-110813551D01*
X137356517Y-110813551D01*
X137477640Y-110956148D01*
X138557277Y-109876511D01*
X138619589Y-109842486D01*
X138690404Y-109847550D01*
G37*
G04 #@! TD.AperFunction*
G04 #@! TA.AperFunction,Conductor*
G36*
X140564804Y-118698855D02*
G01*
X140576013Y-118708803D01*
X141170983Y-119303771D01*
X141191819Y-119307611D01*
X141243601Y-119356183D01*
X141261000Y-119420073D01*
X141261000Y-119760098D01*
X141240998Y-119828219D01*
X141187342Y-119874712D01*
X141117068Y-119884816D01*
X141095370Y-119879703D01*
X141066433Y-119870115D01*
X141066429Y-119870114D01*
X141066426Y-119870113D01*
X141066423Y-119870112D01*
X141066420Y-119870112D01*
X140962553Y-119859500D01*
X140962545Y-119859500D01*
X140900140Y-119859500D01*
X140832019Y-119839498D01*
X140785526Y-119785842D01*
X140775422Y-119715568D01*
X140799633Y-119662554D01*
X140800317Y-119651529D01*
X140219231Y-119070443D01*
X140185206Y-119008130D01*
X140190270Y-118937315D01*
X140232817Y-118880479D01*
X140253658Y-118867825D01*
X140255357Y-118867007D01*
X140354798Y-118774740D01*
X140377800Y-118734898D01*
X140429179Y-118685907D01*
X140498893Y-118672469D01*
X140564804Y-118698855D01*
G37*
G04 #@! TD.AperFunction*
G04 #@! TA.AperFunction,Conductor*
G36*
X141203121Y-116979502D02*
G01*
X141249614Y-117033158D01*
X141261000Y-117085500D01*
X141261000Y-117561924D01*
X141240998Y-117630045D01*
X141187342Y-117676538D01*
X141169793Y-117679415D01*
X140578277Y-118270932D01*
X140515965Y-118304958D01*
X140445150Y-118299893D01*
X140390671Y-118260396D01*
X140308537Y-118157402D01*
X140278676Y-118137043D01*
X140234903Y-118107199D01*
X140189889Y-118052301D01*
X140181700Y-117981778D01*
X140212939Y-117918023D01*
X140216789Y-117914000D01*
X140800318Y-117330470D01*
X140787827Y-117320748D01*
X140746356Y-117263123D01*
X140742622Y-117192225D01*
X140777812Y-117130562D01*
X140787827Y-117121885D01*
X140960333Y-116987617D01*
X140961506Y-116989124D01*
X141017749Y-116961375D01*
X141039406Y-116959500D01*
X141135000Y-116959500D01*
X141203121Y-116979502D01*
G37*
G04 #@! TD.AperFunction*
G04 #@! TA.AperFunction,Conductor*
G36*
X146681760Y-103001502D02*
G01*
X146728253Y-103055158D01*
X146738917Y-103120967D01*
X146733501Y-103171347D01*
X146733500Y-103171367D01*
X146733500Y-104968649D01*
X146740009Y-105029196D01*
X146740011Y-105029204D01*
X146791110Y-105166202D01*
X146791112Y-105166207D01*
X146878738Y-105283261D01*
X146995792Y-105370887D01*
X146995794Y-105370888D01*
X146995796Y-105370889D01*
X147049600Y-105390957D01*
X147132795Y-105421988D01*
X147132803Y-105421990D01*
X147193350Y-105428499D01*
X147193355Y-105428499D01*
X147193362Y-105428500D01*
X147197500Y-105428500D01*
X147265621Y-105448502D01*
X147312114Y-105502158D01*
X147323500Y-105554500D01*
X147323500Y-106105476D01*
X147303498Y-106173597D01*
X147249842Y-106220090D01*
X147237134Y-106225080D01*
X147159264Y-106250884D01*
X147008347Y-106343970D01*
X147008341Y-106343975D01*
X146882975Y-106469341D01*
X146882970Y-106469347D01*
X146789885Y-106620262D01*
X146734113Y-106788572D01*
X146734112Y-106788579D01*
X146723500Y-106892446D01*
X146723500Y-107272627D01*
X146703498Y-107340748D01*
X146649842Y-107387241D01*
X146579568Y-107397345D01*
X146514988Y-107367851D01*
X146508405Y-107361722D01*
X146465658Y-107318975D01*
X146465652Y-107318970D01*
X146455331Y-107312604D01*
X146314738Y-107225885D01*
X146230582Y-107197998D01*
X146146427Y-107170113D01*
X146146420Y-107170112D01*
X146042553Y-107159500D01*
X145041453Y-107159500D01*
X144961586Y-107167658D01*
X144936450Y-107167705D01*
X144930503Y-107167120D01*
X144930495Y-107167120D01*
X144732807Y-107186589D01*
X144732799Y-107186591D01*
X144603267Y-107225885D01*
X144560033Y-107239000D01*
X144542695Y-107244259D01*
X144367495Y-107337905D01*
X144213930Y-107463933D01*
X144184303Y-107500032D01*
X144180150Y-107504615D01*
X143371476Y-108313288D01*
X143309164Y-108347314D01*
X143238349Y-108342249D01*
X143181513Y-108299702D01*
X143158041Y-108244577D01*
X143140503Y-108137601D01*
X143140503Y-108137598D01*
X143045990Y-107797191D01*
X143045989Y-107797188D01*
X142915227Y-107469003D01*
X142915223Y-107468994D01*
X142749743Y-107156863D01*
X142749741Y-107156859D01*
X142551481Y-106864448D01*
X142551482Y-106864448D01*
X142430357Y-106721850D01*
X141350722Y-107801486D01*
X141288410Y-107835512D01*
X141217595Y-107830447D01*
X141165816Y-107794222D01*
X141088870Y-107704130D01*
X141075721Y-107692900D01*
X140998774Y-107627181D01*
X140959967Y-107567733D01*
X140959459Y-107496739D01*
X140991511Y-107442276D01*
X142074127Y-106359661D01*
X142066286Y-106352233D01*
X142066280Y-106352228D01*
X141785030Y-106138427D01*
X141482321Y-105956293D01*
X141161683Y-105807950D01*
X141161679Y-105807948D01*
X140826896Y-105695147D01*
X140826882Y-105695143D01*
X140481872Y-105619199D01*
X140481848Y-105619195D01*
X140130651Y-105581000D01*
X139777348Y-105581000D01*
X139426151Y-105619195D01*
X139426127Y-105619199D01*
X139081117Y-105695143D01*
X139081103Y-105695147D01*
X138746320Y-105807948D01*
X138746316Y-105807950D01*
X138425678Y-105956293D01*
X138122969Y-106138427D01*
X137841715Y-106352231D01*
X137841709Y-106352237D01*
X137833870Y-106359661D01*
X138916487Y-107442277D01*
X138950512Y-107504589D01*
X138945448Y-107575404D01*
X138909223Y-107627183D01*
X138819130Y-107704130D01*
X138742183Y-107794223D01*
X138682732Y-107833032D01*
X138611737Y-107833538D01*
X138557277Y-107801487D01*
X137477641Y-106721850D01*
X137356517Y-106864449D01*
X137158258Y-107156859D01*
X137158252Y-107156869D01*
X137127822Y-107214268D01*
X137078242Y-107265084D01*
X137009059Y-107281028D01*
X136942238Y-107257038D01*
X136898995Y-107200730D01*
X136890500Y-107155248D01*
X136890500Y-103107500D01*
X136910502Y-103039379D01*
X136964158Y-102992886D01*
X137016500Y-102981500D01*
X146613639Y-102981500D01*
X146681760Y-103001502D01*
G37*
G04 #@! TD.AperFunction*
G04 #@! TA.AperFunction,Conductor*
G36*
X169121621Y-103001502D02*
G01*
X169168114Y-103055158D01*
X169179500Y-103107500D01*
X169179500Y-107706529D01*
X169159498Y-107774650D01*
X169105842Y-107821143D01*
X169035568Y-107831247D01*
X168970988Y-107801753D01*
X168936449Y-107753167D01*
X168823225Y-107468997D01*
X168823223Y-107468994D01*
X168657743Y-107156863D01*
X168657741Y-107156859D01*
X168459481Y-106864448D01*
X168459482Y-106864448D01*
X168338357Y-106721850D01*
X167258722Y-107801486D01*
X167196410Y-107835512D01*
X167125595Y-107830447D01*
X167073816Y-107794222D01*
X166996870Y-107704130D01*
X166983721Y-107692900D01*
X166906774Y-107627181D01*
X166867967Y-107567733D01*
X166867459Y-107496739D01*
X166899511Y-107442276D01*
X167982127Y-106359661D01*
X167974286Y-106352233D01*
X167974280Y-106352228D01*
X167693030Y-106138427D01*
X167390321Y-105956293D01*
X167069683Y-105807950D01*
X167069679Y-105807948D01*
X166734896Y-105695147D01*
X166734882Y-105695143D01*
X166389872Y-105619199D01*
X166389848Y-105619195D01*
X166038651Y-105581000D01*
X165685348Y-105581000D01*
X165334151Y-105619195D01*
X165334127Y-105619199D01*
X164989117Y-105695143D01*
X164989103Y-105695147D01*
X164654320Y-105807948D01*
X164654316Y-105807950D01*
X164333678Y-105956293D01*
X164030969Y-106138427D01*
X163749715Y-106352231D01*
X163749709Y-106352237D01*
X163741870Y-106359661D01*
X164824487Y-107442277D01*
X164858512Y-107504589D01*
X164853448Y-107575404D01*
X164817223Y-107627183D01*
X164727130Y-107704130D01*
X164650183Y-107794223D01*
X164590732Y-107833032D01*
X164519737Y-107833538D01*
X164465277Y-107801487D01*
X163385641Y-106721850D01*
X163264517Y-106864449D01*
X163066258Y-107156859D01*
X163066256Y-107156863D01*
X162900776Y-107468994D01*
X162900772Y-107469003D01*
X162770010Y-107797188D01*
X162770009Y-107797191D01*
X162675496Y-108137598D01*
X162675496Y-108137601D01*
X162670839Y-108166009D01*
X162640080Y-108229997D01*
X162579610Y-108267197D01*
X162508627Y-108265799D01*
X162449668Y-108226246D01*
X162421453Y-108161097D01*
X162420499Y-108145625D01*
X162420499Y-107172455D01*
X162409887Y-107068574D01*
X162409887Y-107068573D01*
X162354115Y-106900262D01*
X162261030Y-106749348D01*
X162261029Y-106749347D01*
X162261024Y-106749341D01*
X162135658Y-106623975D01*
X162135652Y-106623970D01*
X162089688Y-106595619D01*
X161984738Y-106530885D01*
X161900582Y-106502998D01*
X161816427Y-106475113D01*
X161816420Y-106475112D01*
X161712553Y-106464500D01*
X160811454Y-106464500D01*
X160726882Y-106473140D01*
X160657081Y-106460164D01*
X160605377Y-106411510D01*
X160588184Y-106342627D01*
X160610962Y-106275383D01*
X160624973Y-106258707D01*
X161342130Y-105541549D01*
X161404439Y-105507527D01*
X161475254Y-105512591D01*
X161497370Y-105523407D01*
X161555256Y-105559112D01*
X161555258Y-105559112D01*
X161555262Y-105559115D01*
X161723574Y-105614887D01*
X161827455Y-105625500D01*
X162728544Y-105625499D01*
X162832426Y-105614887D01*
X163000738Y-105559115D01*
X163151652Y-105466030D01*
X163277030Y-105340652D01*
X163370115Y-105189738D01*
X163425887Y-105021426D01*
X163436500Y-104917545D01*
X163436499Y-103616456D01*
X163433121Y-103583393D01*
X163425887Y-103512574D01*
X163393617Y-103415189D01*
X163370115Y-103344262D01*
X163277030Y-103193348D01*
X163277029Y-103193347D01*
X163272477Y-103187590D01*
X163274491Y-103185997D01*
X163246252Y-103134283D01*
X163251317Y-103063468D01*
X163293864Y-103006632D01*
X163360384Y-102981821D01*
X163369373Y-102981500D01*
X169053500Y-102981500D01*
X169121621Y-103001502D01*
G37*
G04 #@! TD.AperFunction*
G04 #@! TA.AperFunction,Conductor*
G36*
X155676237Y-104570000D02*
G01*
X155747763Y-104570000D01*
X155822069Y-104559316D01*
X155892341Y-104569419D01*
X155945997Y-104615911D01*
X155966000Y-104684031D01*
X155966000Y-105404390D01*
X156046507Y-105390957D01*
X156046516Y-105390955D01*
X156259369Y-105317883D01*
X156259375Y-105317880D01*
X156359825Y-105263519D01*
X156429255Y-105248688D01*
X156495682Y-105273748D01*
X156538015Y-105330743D01*
X156542814Y-105401577D01*
X156508890Y-105463427D01*
X156156722Y-105815595D01*
X156094410Y-105849621D01*
X156067627Y-105852500D01*
X155539455Y-105852500D01*
X155435574Y-105863112D01*
X155330006Y-105898094D01*
X155267262Y-105918885D01*
X155267260Y-105918885D01*
X155267260Y-105918886D01*
X155228145Y-105943012D01*
X155159666Y-105961748D01*
X155091927Y-105940488D01*
X155046436Y-105885980D01*
X155036000Y-105835770D01*
X155036000Y-105450198D01*
X155056002Y-105382077D01*
X155109658Y-105335584D01*
X155179932Y-105325480D01*
X155202912Y-105331025D01*
X155377483Y-105390955D01*
X155377492Y-105390957D01*
X155458000Y-105404391D01*
X155458000Y-104684033D01*
X155478002Y-104615912D01*
X155531658Y-104569419D01*
X155601926Y-104559315D01*
X155676237Y-104570000D01*
G37*
G04 #@! TD.AperFunction*
G04 #@! TA.AperFunction,Conductor*
G36*
X157754748Y-103001502D02*
G01*
X157801241Y-103055158D01*
X157811345Y-103125432D01*
X157783107Y-103187261D01*
X157783523Y-103187590D01*
X157782183Y-103189284D01*
X157781851Y-103190012D01*
X157780239Y-103191743D01*
X157778970Y-103193347D01*
X157685885Y-103344262D01*
X157630113Y-103512572D01*
X157630112Y-103512579D01*
X157619500Y-103616446D01*
X157619500Y-104300627D01*
X157599498Y-104368748D01*
X157582595Y-104389722D01*
X157115559Y-104856758D01*
X157053247Y-104890784D01*
X156982432Y-104885719D01*
X156925596Y-104843172D01*
X156900785Y-104776652D01*
X156911077Y-104717049D01*
X157000820Y-104512456D01*
X157000823Y-104512449D01*
X157048544Y-104324000D01*
X156326844Y-104324000D01*
X156258723Y-104303998D01*
X156212230Y-104250342D01*
X156202126Y-104180068D01*
X156205947Y-104162504D01*
X156212000Y-104141888D01*
X156212000Y-103998111D01*
X156205947Y-103977496D01*
X156205948Y-103906500D01*
X156244333Y-103846774D01*
X156308914Y-103817282D01*
X156326844Y-103816000D01*
X157048544Y-103816000D01*
X157048544Y-103815999D01*
X157000823Y-103627550D01*
X157000820Y-103627543D01*
X156910419Y-103421451D01*
X156787325Y-103233041D01*
X156750315Y-103192838D01*
X156718894Y-103129173D01*
X156726881Y-103058627D01*
X156771740Y-103003598D01*
X156839228Y-102981557D01*
X156843016Y-102981500D01*
X157686627Y-102981500D01*
X157754748Y-103001502D01*
G37*
G04 #@! TD.AperFunction*
M02*
