G04 #@! TF.GenerationSoftware,KiCad,Pcbnew,8.0.3*
G04 #@! TF.CreationDate,2024-06-21T14:32:02+02:00*
G04 #@! TF.ProjectId,HeatPumpControl,48656174-5075-46d7-9043-6f6e74726f6c,2.0*
G04 #@! TF.SameCoordinates,Original*
G04 #@! TF.FileFunction,Legend,Bot*
G04 #@! TF.FilePolarity,Positive*
%FSLAX46Y46*%
G04 Gerber Fmt 4.6, Leading zero omitted, Abs format (unit mm)*
G04 Created by KiCad (PCBNEW 8.0.3) date 2024-06-21 14:32:02*
%MOMM*%
%LPD*%
G01*
G04 APERTURE LIST*
%ADD10C,0.150000*%
G04 APERTURE END LIST*
D10*
X147827999Y-106753819D02*
X147827999Y-105753819D01*
X150717237Y-105753819D02*
X150526761Y-105753819D01*
X150526761Y-105753819D02*
X150431523Y-105801438D01*
X150431523Y-105801438D02*
X150336285Y-105896676D01*
X150336285Y-105896676D02*
X150288666Y-106087152D01*
X150288666Y-106087152D02*
X150288666Y-106420485D01*
X150288666Y-106420485D02*
X150336285Y-106610961D01*
X150336285Y-106610961D02*
X150431523Y-106706200D01*
X150431523Y-106706200D02*
X150526761Y-106753819D01*
X150526761Y-106753819D02*
X150717237Y-106753819D01*
X150717237Y-106753819D02*
X150812475Y-106706200D01*
X150812475Y-106706200D02*
X150907713Y-106610961D01*
X150907713Y-106610961D02*
X150955332Y-106420485D01*
X150955332Y-106420485D02*
X150955332Y-106087152D01*
X150955332Y-106087152D02*
X150907713Y-105896676D01*
X150907713Y-105896676D02*
X150812475Y-105801438D01*
X150812475Y-105801438D02*
X150717237Y-105753819D01*
X153352476Y-106007819D02*
X153828666Y-106007819D01*
X153828666Y-106007819D02*
X153876285Y-106484009D01*
X153876285Y-106484009D02*
X153828666Y-106436390D01*
X153828666Y-106436390D02*
X153733428Y-106388771D01*
X153733428Y-106388771D02*
X153495333Y-106388771D01*
X153495333Y-106388771D02*
X153400095Y-106436390D01*
X153400095Y-106436390D02*
X153352476Y-106484009D01*
X153352476Y-106484009D02*
X153304857Y-106579247D01*
X153304857Y-106579247D02*
X153304857Y-106817342D01*
X153304857Y-106817342D02*
X153352476Y-106912580D01*
X153352476Y-106912580D02*
X153400095Y-106960200D01*
X153400095Y-106960200D02*
X153495333Y-107007819D01*
X153495333Y-107007819D02*
X153733428Y-107007819D01*
X153733428Y-107007819D02*
X153828666Y-106960200D01*
X153828666Y-106960200D02*
X153876285Y-106912580D01*
X153019142Y-106007819D02*
X152685809Y-107007819D01*
X152685809Y-107007819D02*
X152352476Y-106007819D01*
X155186095Y-106309438D02*
X155281333Y-106261819D01*
X155281333Y-106261819D02*
X155424190Y-106261819D01*
X155424190Y-106261819D02*
X155567047Y-106309438D01*
X155567047Y-106309438D02*
X155662285Y-106404676D01*
X155662285Y-106404676D02*
X155709904Y-106499914D01*
X155709904Y-106499914D02*
X155757523Y-106690390D01*
X155757523Y-106690390D02*
X155757523Y-106833247D01*
X155757523Y-106833247D02*
X155709904Y-107023723D01*
X155709904Y-107023723D02*
X155662285Y-107118961D01*
X155662285Y-107118961D02*
X155567047Y-107214200D01*
X155567047Y-107214200D02*
X155424190Y-107261819D01*
X155424190Y-107261819D02*
X155328952Y-107261819D01*
X155328952Y-107261819D02*
X155186095Y-107214200D01*
X155186095Y-107214200D02*
X155138476Y-107166580D01*
X155138476Y-107166580D02*
X155138476Y-106833247D01*
X155138476Y-106833247D02*
X155328952Y-106833247D01*
X150693853Y-116452046D02*
X149693853Y-116452046D01*
X150170043Y-116452046D02*
X150170043Y-117023474D01*
X150693853Y-117023474D02*
X149693853Y-117023474D01*
X150646234Y-117880617D02*
X150693853Y-117785379D01*
X150693853Y-117785379D02*
X150693853Y-117594903D01*
X150693853Y-117594903D02*
X150646234Y-117499665D01*
X150646234Y-117499665D02*
X150550995Y-117452046D01*
X150550995Y-117452046D02*
X150170043Y-117452046D01*
X150170043Y-117452046D02*
X150074805Y-117499665D01*
X150074805Y-117499665D02*
X150027186Y-117594903D01*
X150027186Y-117594903D02*
X150027186Y-117785379D01*
X150027186Y-117785379D02*
X150074805Y-117880617D01*
X150074805Y-117880617D02*
X150170043Y-117928236D01*
X150170043Y-117928236D02*
X150265281Y-117928236D01*
X150265281Y-117928236D02*
X150360519Y-117452046D01*
X150693853Y-118785379D02*
X150170043Y-118785379D01*
X150170043Y-118785379D02*
X150074805Y-118737760D01*
X150074805Y-118737760D02*
X150027186Y-118642522D01*
X150027186Y-118642522D02*
X150027186Y-118452046D01*
X150027186Y-118452046D02*
X150074805Y-118356808D01*
X150646234Y-118785379D02*
X150693853Y-118690141D01*
X150693853Y-118690141D02*
X150693853Y-118452046D01*
X150693853Y-118452046D02*
X150646234Y-118356808D01*
X150646234Y-118356808D02*
X150550995Y-118309189D01*
X150550995Y-118309189D02*
X150455757Y-118309189D01*
X150455757Y-118309189D02*
X150360519Y-118356808D01*
X150360519Y-118356808D02*
X150312900Y-118452046D01*
X150312900Y-118452046D02*
X150312900Y-118690141D01*
X150312900Y-118690141D02*
X150265281Y-118785379D01*
X150027186Y-119118713D02*
X150027186Y-119499665D01*
X149693853Y-119261570D02*
X150550995Y-119261570D01*
X150550995Y-119261570D02*
X150646234Y-119309189D01*
X150646234Y-119309189D02*
X150693853Y-119404427D01*
X150693853Y-119404427D02*
X150693853Y-119499665D01*
X150027186Y-120594904D02*
X151027186Y-120594904D01*
X150074805Y-120594904D02*
X150027186Y-120690142D01*
X150027186Y-120690142D02*
X150027186Y-120880618D01*
X150027186Y-120880618D02*
X150074805Y-120975856D01*
X150074805Y-120975856D02*
X150122424Y-121023475D01*
X150122424Y-121023475D02*
X150217662Y-121071094D01*
X150217662Y-121071094D02*
X150503376Y-121071094D01*
X150503376Y-121071094D02*
X150598614Y-121023475D01*
X150598614Y-121023475D02*
X150646234Y-120975856D01*
X150646234Y-120975856D02*
X150693853Y-120880618D01*
X150693853Y-120880618D02*
X150693853Y-120690142D01*
X150693853Y-120690142D02*
X150646234Y-120594904D01*
X150027186Y-121928237D02*
X150693853Y-121928237D01*
X150027186Y-121499666D02*
X150550995Y-121499666D01*
X150550995Y-121499666D02*
X150646234Y-121547285D01*
X150646234Y-121547285D02*
X150693853Y-121642523D01*
X150693853Y-121642523D02*
X150693853Y-121785380D01*
X150693853Y-121785380D02*
X150646234Y-121880618D01*
X150646234Y-121880618D02*
X150598614Y-121928237D01*
X150693853Y-122404428D02*
X150027186Y-122404428D01*
X150122424Y-122404428D02*
X150074805Y-122452047D01*
X150074805Y-122452047D02*
X150027186Y-122547285D01*
X150027186Y-122547285D02*
X150027186Y-122690142D01*
X150027186Y-122690142D02*
X150074805Y-122785380D01*
X150074805Y-122785380D02*
X150170043Y-122832999D01*
X150170043Y-122832999D02*
X150693853Y-122832999D01*
X150170043Y-122832999D02*
X150074805Y-122880618D01*
X150074805Y-122880618D02*
X150027186Y-122975856D01*
X150027186Y-122975856D02*
X150027186Y-123118713D01*
X150027186Y-123118713D02*
X150074805Y-123213952D01*
X150074805Y-123213952D02*
X150170043Y-123261571D01*
X150170043Y-123261571D02*
X150693853Y-123261571D01*
X150027186Y-123737761D02*
X151027186Y-123737761D01*
X150074805Y-123737761D02*
X150027186Y-123832999D01*
X150027186Y-123832999D02*
X150027186Y-124023475D01*
X150027186Y-124023475D02*
X150074805Y-124118713D01*
X150074805Y-124118713D02*
X150122424Y-124166332D01*
X150122424Y-124166332D02*
X150217662Y-124213951D01*
X150217662Y-124213951D02*
X150503376Y-124213951D01*
X150503376Y-124213951D02*
X150598614Y-124166332D01*
X150598614Y-124166332D02*
X150646234Y-124118713D01*
X150646234Y-124118713D02*
X150693853Y-124023475D01*
X150693853Y-124023475D02*
X150693853Y-123832999D01*
X150693853Y-123832999D02*
X150646234Y-123737761D01*
X150646234Y-125832999D02*
X150693853Y-125737761D01*
X150693853Y-125737761D02*
X150693853Y-125547285D01*
X150693853Y-125547285D02*
X150646234Y-125452047D01*
X150646234Y-125452047D02*
X150598614Y-125404428D01*
X150598614Y-125404428D02*
X150503376Y-125356809D01*
X150503376Y-125356809D02*
X150217662Y-125356809D01*
X150217662Y-125356809D02*
X150122424Y-125404428D01*
X150122424Y-125404428D02*
X150074805Y-125452047D01*
X150074805Y-125452047D02*
X150027186Y-125547285D01*
X150027186Y-125547285D02*
X150027186Y-125737761D01*
X150027186Y-125737761D02*
X150074805Y-125832999D01*
X150693853Y-126404428D02*
X150646234Y-126309190D01*
X150646234Y-126309190D02*
X150598614Y-126261571D01*
X150598614Y-126261571D02*
X150503376Y-126213952D01*
X150503376Y-126213952D02*
X150217662Y-126213952D01*
X150217662Y-126213952D02*
X150122424Y-126261571D01*
X150122424Y-126261571D02*
X150074805Y-126309190D01*
X150074805Y-126309190D02*
X150027186Y-126404428D01*
X150027186Y-126404428D02*
X150027186Y-126547285D01*
X150027186Y-126547285D02*
X150074805Y-126642523D01*
X150074805Y-126642523D02*
X150122424Y-126690142D01*
X150122424Y-126690142D02*
X150217662Y-126737761D01*
X150217662Y-126737761D02*
X150503376Y-126737761D01*
X150503376Y-126737761D02*
X150598614Y-126690142D01*
X150598614Y-126690142D02*
X150646234Y-126642523D01*
X150646234Y-126642523D02*
X150693853Y-126547285D01*
X150693853Y-126547285D02*
X150693853Y-126404428D01*
X150027186Y-127166333D02*
X150693853Y-127166333D01*
X150122424Y-127166333D02*
X150074805Y-127213952D01*
X150074805Y-127213952D02*
X150027186Y-127309190D01*
X150027186Y-127309190D02*
X150027186Y-127452047D01*
X150027186Y-127452047D02*
X150074805Y-127547285D01*
X150074805Y-127547285D02*
X150170043Y-127594904D01*
X150170043Y-127594904D02*
X150693853Y-127594904D01*
X150027186Y-127928238D02*
X150027186Y-128309190D01*
X149693853Y-128071095D02*
X150550995Y-128071095D01*
X150550995Y-128071095D02*
X150646234Y-128118714D01*
X150646234Y-128118714D02*
X150693853Y-128213952D01*
X150693853Y-128213952D02*
X150693853Y-128309190D01*
X150693853Y-128642524D02*
X150027186Y-128642524D01*
X150217662Y-128642524D02*
X150122424Y-128690143D01*
X150122424Y-128690143D02*
X150074805Y-128737762D01*
X150074805Y-128737762D02*
X150027186Y-128833000D01*
X150027186Y-128833000D02*
X150027186Y-128928238D01*
X150693853Y-129404429D02*
X150646234Y-129309191D01*
X150646234Y-129309191D02*
X150598614Y-129261572D01*
X150598614Y-129261572D02*
X150503376Y-129213953D01*
X150503376Y-129213953D02*
X150217662Y-129213953D01*
X150217662Y-129213953D02*
X150122424Y-129261572D01*
X150122424Y-129261572D02*
X150074805Y-129309191D01*
X150074805Y-129309191D02*
X150027186Y-129404429D01*
X150027186Y-129404429D02*
X150027186Y-129547286D01*
X150027186Y-129547286D02*
X150074805Y-129642524D01*
X150074805Y-129642524D02*
X150122424Y-129690143D01*
X150122424Y-129690143D02*
X150217662Y-129737762D01*
X150217662Y-129737762D02*
X150503376Y-129737762D01*
X150503376Y-129737762D02*
X150598614Y-129690143D01*
X150598614Y-129690143D02*
X150646234Y-129642524D01*
X150646234Y-129642524D02*
X150693853Y-129547286D01*
X150693853Y-129547286D02*
X150693853Y-129404429D01*
X150693853Y-130309191D02*
X150646234Y-130213953D01*
X150646234Y-130213953D02*
X150550995Y-130166334D01*
X150550995Y-130166334D02*
X149693853Y-130166334D01*
X150693853Y-130833001D02*
X150646234Y-130737763D01*
X150646234Y-130737763D02*
X150550995Y-130690144D01*
X150550995Y-130690144D02*
X149693853Y-130690144D01*
X150646234Y-131594906D02*
X150693853Y-131499668D01*
X150693853Y-131499668D02*
X150693853Y-131309192D01*
X150693853Y-131309192D02*
X150646234Y-131213954D01*
X150646234Y-131213954D02*
X150550995Y-131166335D01*
X150550995Y-131166335D02*
X150170043Y-131166335D01*
X150170043Y-131166335D02*
X150074805Y-131213954D01*
X150074805Y-131213954D02*
X150027186Y-131309192D01*
X150027186Y-131309192D02*
X150027186Y-131499668D01*
X150027186Y-131499668D02*
X150074805Y-131594906D01*
X150074805Y-131594906D02*
X150170043Y-131642525D01*
X150170043Y-131642525D02*
X150265281Y-131642525D01*
X150265281Y-131642525D02*
X150360519Y-131166335D01*
X150693853Y-132071097D02*
X150027186Y-132071097D01*
X150217662Y-132071097D02*
X150122424Y-132118716D01*
X150122424Y-132118716D02*
X150074805Y-132166335D01*
X150074805Y-132166335D02*
X150027186Y-132261573D01*
X150027186Y-132261573D02*
X150027186Y-132356811D01*
X152303797Y-121166333D02*
X151637130Y-121166333D01*
X151827606Y-121166333D02*
X151732368Y-121213952D01*
X151732368Y-121213952D02*
X151684749Y-121261571D01*
X151684749Y-121261571D02*
X151637130Y-121356809D01*
X151637130Y-121356809D02*
X151637130Y-121452047D01*
X152256178Y-122166333D02*
X152303797Y-122071095D01*
X152303797Y-122071095D02*
X152303797Y-121880619D01*
X152303797Y-121880619D02*
X152256178Y-121785381D01*
X152256178Y-121785381D02*
X152160939Y-121737762D01*
X152160939Y-121737762D02*
X151779987Y-121737762D01*
X151779987Y-121737762D02*
X151684749Y-121785381D01*
X151684749Y-121785381D02*
X151637130Y-121880619D01*
X151637130Y-121880619D02*
X151637130Y-122071095D01*
X151637130Y-122071095D02*
X151684749Y-122166333D01*
X151684749Y-122166333D02*
X151779987Y-122213952D01*
X151779987Y-122213952D02*
X151875225Y-122213952D01*
X151875225Y-122213952D02*
X151970463Y-121737762D01*
X151637130Y-122547286D02*
X152303797Y-122785381D01*
X152303797Y-122785381D02*
X151637130Y-123023476D01*
X151399035Y-124118715D02*
X151351416Y-124166334D01*
X151351416Y-124166334D02*
X151303797Y-124261572D01*
X151303797Y-124261572D02*
X151303797Y-124499667D01*
X151303797Y-124499667D02*
X151351416Y-124594905D01*
X151351416Y-124594905D02*
X151399035Y-124642524D01*
X151399035Y-124642524D02*
X151494273Y-124690143D01*
X151494273Y-124690143D02*
X151589511Y-124690143D01*
X151589511Y-124690143D02*
X151732368Y-124642524D01*
X151732368Y-124642524D02*
X152303797Y-124071096D01*
X152303797Y-124071096D02*
X152303797Y-124690143D01*
X152208558Y-125118715D02*
X152256178Y-125166334D01*
X152256178Y-125166334D02*
X152303797Y-125118715D01*
X152303797Y-125118715D02*
X152256178Y-125071096D01*
X152256178Y-125071096D02*
X152208558Y-125118715D01*
X152208558Y-125118715D02*
X152303797Y-125118715D01*
X151303797Y-125785381D02*
X151303797Y-125880619D01*
X151303797Y-125880619D02*
X151351416Y-125975857D01*
X151351416Y-125975857D02*
X151399035Y-126023476D01*
X151399035Y-126023476D02*
X151494273Y-126071095D01*
X151494273Y-126071095D02*
X151684749Y-126118714D01*
X151684749Y-126118714D02*
X151922844Y-126118714D01*
X151922844Y-126118714D02*
X152113320Y-126071095D01*
X152113320Y-126071095D02*
X152208558Y-126023476D01*
X152208558Y-126023476D02*
X152256178Y-125975857D01*
X152256178Y-125975857D02*
X152303797Y-125880619D01*
X152303797Y-125880619D02*
X152303797Y-125785381D01*
X152303797Y-125785381D02*
X152256178Y-125690143D01*
X152256178Y-125690143D02*
X152208558Y-125642524D01*
X152208558Y-125642524D02*
X152113320Y-125594905D01*
X152113320Y-125594905D02*
X151922844Y-125547286D01*
X151922844Y-125547286D02*
X151684749Y-125547286D01*
X151684749Y-125547286D02*
X151494273Y-125594905D01*
X151494273Y-125594905D02*
X151399035Y-125642524D01*
X151399035Y-125642524D02*
X151351416Y-125690143D01*
X151351416Y-125690143D02*
X151303797Y-125785381D01*
X152208558Y-126547286D02*
X152256178Y-126594905D01*
X152256178Y-126594905D02*
X152303797Y-126547286D01*
X152303797Y-126547286D02*
X152256178Y-126499667D01*
X152256178Y-126499667D02*
X152208558Y-126547286D01*
X152208558Y-126547286D02*
X152303797Y-126547286D01*
X152303797Y-127547285D02*
X152303797Y-126975857D01*
X152303797Y-127261571D02*
X151303797Y-127261571D01*
X151303797Y-127261571D02*
X151446654Y-127166333D01*
X151446654Y-127166333D02*
X151541892Y-127071095D01*
X151541892Y-127071095D02*
X151589511Y-126975857D01*
X154294693Y-114213951D02*
X154247074Y-114166332D01*
X154247074Y-114166332D02*
X154104217Y-114071094D01*
X154104217Y-114071094D02*
X154008979Y-114023475D01*
X154008979Y-114023475D02*
X153866122Y-113975856D01*
X153866122Y-113975856D02*
X153628026Y-113928237D01*
X153628026Y-113928237D02*
X153437550Y-113928237D01*
X153437550Y-113928237D02*
X153199455Y-113975856D01*
X153199455Y-113975856D02*
X153056598Y-114023475D01*
X153056598Y-114023475D02*
X152961360Y-114071094D01*
X152961360Y-114071094D02*
X152818502Y-114166332D01*
X152818502Y-114166332D02*
X152770883Y-114213951D01*
X153818502Y-115166332D02*
X153866122Y-115118713D01*
X153866122Y-115118713D02*
X153913741Y-114975856D01*
X153913741Y-114975856D02*
X153913741Y-114880618D01*
X153913741Y-114880618D02*
X153866122Y-114737761D01*
X153866122Y-114737761D02*
X153770883Y-114642523D01*
X153770883Y-114642523D02*
X153675645Y-114594904D01*
X153675645Y-114594904D02*
X153485169Y-114547285D01*
X153485169Y-114547285D02*
X153342312Y-114547285D01*
X153342312Y-114547285D02*
X153151836Y-114594904D01*
X153151836Y-114594904D02*
X153056598Y-114642523D01*
X153056598Y-114642523D02*
X152961360Y-114737761D01*
X152961360Y-114737761D02*
X152913741Y-114880618D01*
X152913741Y-114880618D02*
X152913741Y-114975856D01*
X152913741Y-114975856D02*
X152961360Y-115118713D01*
X152961360Y-115118713D02*
X153008979Y-115166332D01*
X154294693Y-115499666D02*
X154247074Y-115547285D01*
X154247074Y-115547285D02*
X154104217Y-115642523D01*
X154104217Y-115642523D02*
X154008979Y-115690142D01*
X154008979Y-115690142D02*
X153866122Y-115737761D01*
X153866122Y-115737761D02*
X153628026Y-115785380D01*
X153628026Y-115785380D02*
X153437550Y-115785380D01*
X153437550Y-115785380D02*
X153199455Y-115737761D01*
X153199455Y-115737761D02*
X153056598Y-115690142D01*
X153056598Y-115690142D02*
X152961360Y-115642523D01*
X152961360Y-115642523D02*
X152818502Y-115547285D01*
X152818502Y-115547285D02*
X152770883Y-115499666D01*
X153008979Y-116975857D02*
X152961360Y-117023476D01*
X152961360Y-117023476D02*
X152913741Y-117118714D01*
X152913741Y-117118714D02*
X152913741Y-117356809D01*
X152913741Y-117356809D02*
X152961360Y-117452047D01*
X152961360Y-117452047D02*
X153008979Y-117499666D01*
X153008979Y-117499666D02*
X153104217Y-117547285D01*
X153104217Y-117547285D02*
X153199455Y-117547285D01*
X153199455Y-117547285D02*
X153342312Y-117499666D01*
X153342312Y-117499666D02*
X153913741Y-116928238D01*
X153913741Y-116928238D02*
X153913741Y-117547285D01*
X152913741Y-118166333D02*
X152913741Y-118261571D01*
X152913741Y-118261571D02*
X152961360Y-118356809D01*
X152961360Y-118356809D02*
X153008979Y-118404428D01*
X153008979Y-118404428D02*
X153104217Y-118452047D01*
X153104217Y-118452047D02*
X153294693Y-118499666D01*
X153294693Y-118499666D02*
X153532788Y-118499666D01*
X153532788Y-118499666D02*
X153723264Y-118452047D01*
X153723264Y-118452047D02*
X153818502Y-118404428D01*
X153818502Y-118404428D02*
X153866122Y-118356809D01*
X153866122Y-118356809D02*
X153913741Y-118261571D01*
X153913741Y-118261571D02*
X153913741Y-118166333D01*
X153913741Y-118166333D02*
X153866122Y-118071095D01*
X153866122Y-118071095D02*
X153818502Y-118023476D01*
X153818502Y-118023476D02*
X153723264Y-117975857D01*
X153723264Y-117975857D02*
X153532788Y-117928238D01*
X153532788Y-117928238D02*
X153294693Y-117928238D01*
X153294693Y-117928238D02*
X153104217Y-117975857D01*
X153104217Y-117975857D02*
X153008979Y-118023476D01*
X153008979Y-118023476D02*
X152961360Y-118071095D01*
X152961360Y-118071095D02*
X152913741Y-118166333D01*
X153008979Y-118880619D02*
X152961360Y-118928238D01*
X152961360Y-118928238D02*
X152913741Y-119023476D01*
X152913741Y-119023476D02*
X152913741Y-119261571D01*
X152913741Y-119261571D02*
X152961360Y-119356809D01*
X152961360Y-119356809D02*
X153008979Y-119404428D01*
X153008979Y-119404428D02*
X153104217Y-119452047D01*
X153104217Y-119452047D02*
X153199455Y-119452047D01*
X153199455Y-119452047D02*
X153342312Y-119404428D01*
X153342312Y-119404428D02*
X153913741Y-118833000D01*
X153913741Y-118833000D02*
X153913741Y-119452047D01*
X152913741Y-119785381D02*
X152913741Y-120404428D01*
X152913741Y-120404428D02*
X153294693Y-120071095D01*
X153294693Y-120071095D02*
X153294693Y-120213952D01*
X153294693Y-120213952D02*
X153342312Y-120309190D01*
X153342312Y-120309190D02*
X153389931Y-120356809D01*
X153389931Y-120356809D02*
X153485169Y-120404428D01*
X153485169Y-120404428D02*
X153723264Y-120404428D01*
X153723264Y-120404428D02*
X153818502Y-120356809D01*
X153818502Y-120356809D02*
X153866122Y-120309190D01*
X153866122Y-120309190D02*
X153913741Y-120213952D01*
X153913741Y-120213952D02*
X153913741Y-119928238D01*
X153913741Y-119928238D02*
X153866122Y-119833000D01*
X153866122Y-119833000D02*
X153818502Y-119785381D01*
X153532788Y-121594905D02*
X153532788Y-122356810D01*
X153913741Y-123594905D02*
X152913741Y-123594905D01*
X153389931Y-123594905D02*
X153389931Y-124166333D01*
X153913741Y-124166333D02*
X152913741Y-124166333D01*
X153913741Y-125071095D02*
X153389931Y-125071095D01*
X153389931Y-125071095D02*
X153294693Y-125023476D01*
X153294693Y-125023476D02*
X153247074Y-124928238D01*
X153247074Y-124928238D02*
X153247074Y-124737762D01*
X153247074Y-124737762D02*
X153294693Y-124642524D01*
X153866122Y-125071095D02*
X153913741Y-124975857D01*
X153913741Y-124975857D02*
X153913741Y-124737762D01*
X153913741Y-124737762D02*
X153866122Y-124642524D01*
X153866122Y-124642524D02*
X153770883Y-124594905D01*
X153770883Y-124594905D02*
X153675645Y-124594905D01*
X153675645Y-124594905D02*
X153580407Y-124642524D01*
X153580407Y-124642524D02*
X153532788Y-124737762D01*
X153532788Y-124737762D02*
X153532788Y-124975857D01*
X153532788Y-124975857D02*
X153485169Y-125071095D01*
X153247074Y-125547286D02*
X153913741Y-125547286D01*
X153342312Y-125547286D02*
X153294693Y-125594905D01*
X153294693Y-125594905D02*
X153247074Y-125690143D01*
X153247074Y-125690143D02*
X153247074Y-125833000D01*
X153247074Y-125833000D02*
X153294693Y-125928238D01*
X153294693Y-125928238D02*
X153389931Y-125975857D01*
X153389931Y-125975857D02*
X153913741Y-125975857D01*
X153866122Y-126404429D02*
X153913741Y-126499667D01*
X153913741Y-126499667D02*
X153913741Y-126690143D01*
X153913741Y-126690143D02*
X153866122Y-126785381D01*
X153866122Y-126785381D02*
X153770883Y-126833000D01*
X153770883Y-126833000D02*
X153723264Y-126833000D01*
X153723264Y-126833000D02*
X153628026Y-126785381D01*
X153628026Y-126785381D02*
X153580407Y-126690143D01*
X153580407Y-126690143D02*
X153580407Y-126547286D01*
X153580407Y-126547286D02*
X153532788Y-126452048D01*
X153532788Y-126452048D02*
X153437550Y-126404429D01*
X153437550Y-126404429D02*
X153389931Y-126404429D01*
X153389931Y-126404429D02*
X153294693Y-126452048D01*
X153294693Y-126452048D02*
X153247074Y-126547286D01*
X153247074Y-126547286D02*
X153247074Y-126690143D01*
X153247074Y-126690143D02*
X153294693Y-126785381D01*
X153913741Y-128594905D02*
X153437550Y-128261572D01*
X153913741Y-128023477D02*
X152913741Y-128023477D01*
X152913741Y-128023477D02*
X152913741Y-128404429D01*
X152913741Y-128404429D02*
X152961360Y-128499667D01*
X152961360Y-128499667D02*
X153008979Y-128547286D01*
X153008979Y-128547286D02*
X153104217Y-128594905D01*
X153104217Y-128594905D02*
X153247074Y-128594905D01*
X153247074Y-128594905D02*
X153342312Y-128547286D01*
X153342312Y-128547286D02*
X153389931Y-128499667D01*
X153389931Y-128499667D02*
X153437550Y-128404429D01*
X153437550Y-128404429D02*
X153437550Y-128023477D01*
X153247074Y-129452048D02*
X153913741Y-129452048D01*
X153247074Y-129023477D02*
X153770883Y-129023477D01*
X153770883Y-129023477D02*
X153866122Y-129071096D01*
X153866122Y-129071096D02*
X153913741Y-129166334D01*
X153913741Y-129166334D02*
X153913741Y-129309191D01*
X153913741Y-129309191D02*
X153866122Y-129404429D01*
X153866122Y-129404429D02*
X153818502Y-129452048D01*
X153247074Y-129928239D02*
X153913741Y-129928239D01*
X153342312Y-129928239D02*
X153294693Y-129975858D01*
X153294693Y-129975858D02*
X153247074Y-130071096D01*
X153247074Y-130071096D02*
X153247074Y-130213953D01*
X153247074Y-130213953D02*
X153294693Y-130309191D01*
X153294693Y-130309191D02*
X153389931Y-130356810D01*
X153389931Y-130356810D02*
X153913741Y-130356810D01*
X153866122Y-131213953D02*
X153913741Y-131118715D01*
X153913741Y-131118715D02*
X153913741Y-130928239D01*
X153913741Y-130928239D02*
X153866122Y-130833001D01*
X153866122Y-130833001D02*
X153770883Y-130785382D01*
X153770883Y-130785382D02*
X153389931Y-130785382D01*
X153389931Y-130785382D02*
X153294693Y-130833001D01*
X153294693Y-130833001D02*
X153247074Y-130928239D01*
X153247074Y-130928239D02*
X153247074Y-131118715D01*
X153247074Y-131118715D02*
X153294693Y-131213953D01*
X153294693Y-131213953D02*
X153389931Y-131261572D01*
X153389931Y-131261572D02*
X153485169Y-131261572D01*
X153485169Y-131261572D02*
X153580407Y-130785382D01*
X153389931Y-132785382D02*
X153437550Y-132928239D01*
X153437550Y-132928239D02*
X153485169Y-132975858D01*
X153485169Y-132975858D02*
X153580407Y-133023477D01*
X153580407Y-133023477D02*
X153723264Y-133023477D01*
X153723264Y-133023477D02*
X153818502Y-132975858D01*
X153818502Y-132975858D02*
X153866122Y-132928239D01*
X153866122Y-132928239D02*
X153913741Y-132833001D01*
X153913741Y-132833001D02*
X153913741Y-132452049D01*
X153913741Y-132452049D02*
X152913741Y-132452049D01*
X152913741Y-132452049D02*
X152913741Y-132785382D01*
X152913741Y-132785382D02*
X152961360Y-132880620D01*
X152961360Y-132880620D02*
X153008979Y-132928239D01*
X153008979Y-132928239D02*
X153104217Y-132975858D01*
X153104217Y-132975858D02*
X153199455Y-132975858D01*
X153199455Y-132975858D02*
X153294693Y-132928239D01*
X153294693Y-132928239D02*
X153342312Y-132880620D01*
X153342312Y-132880620D02*
X153389931Y-132785382D01*
X153389931Y-132785382D02*
X153389931Y-132452049D01*
X153247074Y-133880620D02*
X153913741Y-133880620D01*
X153247074Y-133452049D02*
X153770883Y-133452049D01*
X153770883Y-133452049D02*
X153866122Y-133499668D01*
X153866122Y-133499668D02*
X153913741Y-133594906D01*
X153913741Y-133594906D02*
X153913741Y-133737763D01*
X153913741Y-133737763D02*
X153866122Y-133833001D01*
X153866122Y-133833001D02*
X153818502Y-133880620D01*
X153866122Y-134737763D02*
X153913741Y-134642525D01*
X153913741Y-134642525D02*
X153913741Y-134452049D01*
X153913741Y-134452049D02*
X153866122Y-134356811D01*
X153866122Y-134356811D02*
X153770883Y-134309192D01*
X153770883Y-134309192D02*
X153389931Y-134309192D01*
X153389931Y-134309192D02*
X153294693Y-134356811D01*
X153294693Y-134356811D02*
X153247074Y-134452049D01*
X153247074Y-134452049D02*
X153247074Y-134642525D01*
X153247074Y-134642525D02*
X153294693Y-134737763D01*
X153294693Y-134737763D02*
X153389931Y-134785382D01*
X153389931Y-134785382D02*
X153485169Y-134785382D01*
X153485169Y-134785382D02*
X153580407Y-134309192D01*
X154857018Y-116594905D02*
X155142732Y-115833000D01*
X155142732Y-115833000D02*
X155428446Y-116594905D01*
X155476066Y-117452047D02*
X155523685Y-117356809D01*
X155523685Y-117356809D02*
X155523685Y-117166333D01*
X155523685Y-117166333D02*
X155476066Y-117071095D01*
X155476066Y-117071095D02*
X155380827Y-117023476D01*
X155380827Y-117023476D02*
X154999875Y-117023476D01*
X154999875Y-117023476D02*
X154904637Y-117071095D01*
X154904637Y-117071095D02*
X154857018Y-117166333D01*
X154857018Y-117166333D02*
X154857018Y-117356809D01*
X154857018Y-117356809D02*
X154904637Y-117452047D01*
X154904637Y-117452047D02*
X154999875Y-117499666D01*
X154999875Y-117499666D02*
X155095113Y-117499666D01*
X155095113Y-117499666D02*
X155190351Y-117023476D01*
X155523685Y-117928238D02*
X154857018Y-117928238D01*
X154952256Y-117928238D02*
X154904637Y-117975857D01*
X154904637Y-117975857D02*
X154857018Y-118071095D01*
X154857018Y-118071095D02*
X154857018Y-118213952D01*
X154857018Y-118213952D02*
X154904637Y-118309190D01*
X154904637Y-118309190D02*
X154999875Y-118356809D01*
X154999875Y-118356809D02*
X155523685Y-118356809D01*
X154999875Y-118356809D02*
X154904637Y-118404428D01*
X154904637Y-118404428D02*
X154857018Y-118499666D01*
X154857018Y-118499666D02*
X154857018Y-118642523D01*
X154857018Y-118642523D02*
X154904637Y-118737762D01*
X154904637Y-118737762D02*
X154999875Y-118785381D01*
X154999875Y-118785381D02*
X155523685Y-118785381D01*
X155523685Y-119690142D02*
X154999875Y-119690142D01*
X154999875Y-119690142D02*
X154904637Y-119642523D01*
X154904637Y-119642523D02*
X154857018Y-119547285D01*
X154857018Y-119547285D02*
X154857018Y-119356809D01*
X154857018Y-119356809D02*
X154904637Y-119261571D01*
X155476066Y-119690142D02*
X155523685Y-119594904D01*
X155523685Y-119594904D02*
X155523685Y-119356809D01*
X155523685Y-119356809D02*
X155476066Y-119261571D01*
X155476066Y-119261571D02*
X155380827Y-119213952D01*
X155380827Y-119213952D02*
X155285589Y-119213952D01*
X155285589Y-119213952D02*
X155190351Y-119261571D01*
X155190351Y-119261571D02*
X155142732Y-119356809D01*
X155142732Y-119356809D02*
X155142732Y-119594904D01*
X155142732Y-119594904D02*
X155095113Y-119690142D01*
X155523685Y-120166333D02*
X154857018Y-120166333D01*
X154523685Y-120166333D02*
X154571304Y-120118714D01*
X154571304Y-120118714D02*
X154618923Y-120166333D01*
X154618923Y-120166333D02*
X154571304Y-120213952D01*
X154571304Y-120213952D02*
X154523685Y-120166333D01*
X154523685Y-120166333D02*
X154618923Y-120166333D01*
X155523685Y-120785380D02*
X155476066Y-120690142D01*
X155476066Y-120690142D02*
X155380827Y-120642523D01*
X155380827Y-120642523D02*
X154523685Y-120642523D01*
X155047494Y-121785380D02*
X154999875Y-121737761D01*
X154999875Y-121737761D02*
X154952256Y-121642523D01*
X154952256Y-121642523D02*
X154952256Y-121547285D01*
X154952256Y-121547285D02*
X154999875Y-121452047D01*
X154999875Y-121452047D02*
X155047494Y-121404428D01*
X155047494Y-121404428D02*
X155142732Y-121356809D01*
X155142732Y-121356809D02*
X155237970Y-121356809D01*
X155237970Y-121356809D02*
X155333208Y-121404428D01*
X155333208Y-121404428D02*
X155380827Y-121452047D01*
X155380827Y-121452047D02*
X155428446Y-121547285D01*
X155428446Y-121547285D02*
X155428446Y-121642523D01*
X155428446Y-121642523D02*
X155380827Y-121737761D01*
X155380827Y-121737761D02*
X155333208Y-121785380D01*
X154952256Y-121785380D02*
X155333208Y-121785380D01*
X155333208Y-121785380D02*
X155380827Y-121832999D01*
X155380827Y-121832999D02*
X155380827Y-121880618D01*
X155380827Y-121880618D02*
X155333208Y-121975857D01*
X155333208Y-121975857D02*
X155237970Y-122023476D01*
X155237970Y-122023476D02*
X154999875Y-122023476D01*
X154999875Y-122023476D02*
X154857018Y-121928238D01*
X154857018Y-121928238D02*
X154761780Y-121785380D01*
X154761780Y-121785380D02*
X154714161Y-121594904D01*
X154714161Y-121594904D02*
X154761780Y-121404428D01*
X154761780Y-121404428D02*
X154857018Y-121261571D01*
X154857018Y-121261571D02*
X154999875Y-121166333D01*
X154999875Y-121166333D02*
X155190351Y-121118714D01*
X155190351Y-121118714D02*
X155380827Y-121166333D01*
X155380827Y-121166333D02*
X155523685Y-121261571D01*
X155523685Y-121261571D02*
X155618923Y-121404428D01*
X155618923Y-121404428D02*
X155666542Y-121594904D01*
X155666542Y-121594904D02*
X155618923Y-121785380D01*
X155618923Y-121785380D02*
X155523685Y-121928238D01*
X155523685Y-122452047D02*
X154523685Y-122452047D01*
X155523685Y-122880618D02*
X154999875Y-122880618D01*
X154999875Y-122880618D02*
X154904637Y-122832999D01*
X154904637Y-122832999D02*
X154857018Y-122737761D01*
X154857018Y-122737761D02*
X154857018Y-122594904D01*
X154857018Y-122594904D02*
X154904637Y-122499666D01*
X154904637Y-122499666D02*
X154952256Y-122452047D01*
X155523685Y-123785380D02*
X154999875Y-123785380D01*
X154999875Y-123785380D02*
X154904637Y-123737761D01*
X154904637Y-123737761D02*
X154857018Y-123642523D01*
X154857018Y-123642523D02*
X154857018Y-123452047D01*
X154857018Y-123452047D02*
X154904637Y-123356809D01*
X155476066Y-123785380D02*
X155523685Y-123690142D01*
X155523685Y-123690142D02*
X155523685Y-123452047D01*
X155523685Y-123452047D02*
X155476066Y-123356809D01*
X155476066Y-123356809D02*
X155380827Y-123309190D01*
X155380827Y-123309190D02*
X155285589Y-123309190D01*
X155285589Y-123309190D02*
X155190351Y-123356809D01*
X155190351Y-123356809D02*
X155142732Y-123452047D01*
X155142732Y-123452047D02*
X155142732Y-123690142D01*
X155142732Y-123690142D02*
X155095113Y-123785380D01*
X154857018Y-124261571D02*
X155523685Y-124261571D01*
X154952256Y-124261571D02*
X154904637Y-124309190D01*
X154904637Y-124309190D02*
X154857018Y-124404428D01*
X154857018Y-124404428D02*
X154857018Y-124547285D01*
X154857018Y-124547285D02*
X154904637Y-124642523D01*
X154904637Y-124642523D02*
X154999875Y-124690142D01*
X154999875Y-124690142D02*
X155523685Y-124690142D01*
X155476066Y-125118714D02*
X155523685Y-125213952D01*
X155523685Y-125213952D02*
X155523685Y-125404428D01*
X155523685Y-125404428D02*
X155476066Y-125499666D01*
X155476066Y-125499666D02*
X155380827Y-125547285D01*
X155380827Y-125547285D02*
X155333208Y-125547285D01*
X155333208Y-125547285D02*
X155237970Y-125499666D01*
X155237970Y-125499666D02*
X155190351Y-125404428D01*
X155190351Y-125404428D02*
X155190351Y-125261571D01*
X155190351Y-125261571D02*
X155142732Y-125166333D01*
X155142732Y-125166333D02*
X155047494Y-125118714D01*
X155047494Y-125118714D02*
X154999875Y-125118714D01*
X154999875Y-125118714D02*
X154904637Y-125166333D01*
X154904637Y-125166333D02*
X154857018Y-125261571D01*
X154857018Y-125261571D02*
X154857018Y-125404428D01*
X154857018Y-125404428D02*
X154904637Y-125499666D01*
X155523685Y-125975857D02*
X154857018Y-125975857D01*
X155047494Y-125975857D02*
X154952256Y-126023476D01*
X154952256Y-126023476D02*
X154904637Y-126071095D01*
X154904637Y-126071095D02*
X154857018Y-126166333D01*
X154857018Y-126166333D02*
X154857018Y-126261571D01*
X154857018Y-127023476D02*
X155523685Y-127023476D01*
X154857018Y-126594905D02*
X155380827Y-126594905D01*
X155380827Y-126594905D02*
X155476066Y-126642524D01*
X155476066Y-126642524D02*
X155523685Y-126737762D01*
X155523685Y-126737762D02*
X155523685Y-126880619D01*
X155523685Y-126880619D02*
X155476066Y-126975857D01*
X155476066Y-126975857D02*
X155428446Y-127023476D01*
X154857018Y-127499667D02*
X155523685Y-127499667D01*
X154952256Y-127499667D02*
X154904637Y-127547286D01*
X154904637Y-127547286D02*
X154857018Y-127642524D01*
X154857018Y-127642524D02*
X154857018Y-127785381D01*
X154857018Y-127785381D02*
X154904637Y-127880619D01*
X154904637Y-127880619D02*
X154999875Y-127928238D01*
X154999875Y-127928238D02*
X155523685Y-127928238D01*
X155476066Y-128785381D02*
X155523685Y-128690143D01*
X155523685Y-128690143D02*
X155523685Y-128499667D01*
X155523685Y-128499667D02*
X155476066Y-128404429D01*
X155476066Y-128404429D02*
X155380827Y-128356810D01*
X155380827Y-128356810D02*
X154999875Y-128356810D01*
X154999875Y-128356810D02*
X154904637Y-128404429D01*
X154904637Y-128404429D02*
X154857018Y-128499667D01*
X154857018Y-128499667D02*
X154857018Y-128690143D01*
X154857018Y-128690143D02*
X154904637Y-128785381D01*
X154904637Y-128785381D02*
X154999875Y-128833000D01*
X154999875Y-128833000D02*
X155095113Y-128833000D01*
X155095113Y-128833000D02*
X155190351Y-128356810D01*
X155428446Y-129261572D02*
X155476066Y-129309191D01*
X155476066Y-129309191D02*
X155523685Y-129261572D01*
X155523685Y-129261572D02*
X155476066Y-129213953D01*
X155476066Y-129213953D02*
X155428446Y-129261572D01*
X155428446Y-129261572D02*
X155523685Y-129261572D01*
X154857018Y-129737762D02*
X155523685Y-129737762D01*
X154952256Y-129737762D02*
X154904637Y-129785381D01*
X154904637Y-129785381D02*
X154857018Y-129880619D01*
X154857018Y-129880619D02*
X154857018Y-130023476D01*
X154857018Y-130023476D02*
X154904637Y-130118714D01*
X154904637Y-130118714D02*
X154999875Y-130166333D01*
X154999875Y-130166333D02*
X155523685Y-130166333D01*
X155476066Y-131023476D02*
X155523685Y-130928238D01*
X155523685Y-130928238D02*
X155523685Y-130737762D01*
X155523685Y-130737762D02*
X155476066Y-130642524D01*
X155476066Y-130642524D02*
X155380827Y-130594905D01*
X155380827Y-130594905D02*
X154999875Y-130594905D01*
X154999875Y-130594905D02*
X154904637Y-130642524D01*
X154904637Y-130642524D02*
X154857018Y-130737762D01*
X154857018Y-130737762D02*
X154857018Y-130928238D01*
X154857018Y-130928238D02*
X154904637Y-131023476D01*
X154904637Y-131023476D02*
X154999875Y-131071095D01*
X154999875Y-131071095D02*
X155095113Y-131071095D01*
X155095113Y-131071095D02*
X155190351Y-130594905D01*
X154857018Y-131356810D02*
X154857018Y-131737762D01*
X154523685Y-131499667D02*
X155380827Y-131499667D01*
X155380827Y-131499667D02*
X155476066Y-131547286D01*
X155476066Y-131547286D02*
X155523685Y-131642524D01*
X155523685Y-131642524D02*
X155523685Y-131737762D01*
X154857018Y-132071096D02*
X155142732Y-132833001D01*
X155142732Y-132833001D02*
X155428446Y-132071096D01*
M02*
