G04 #@! TF.GenerationSoftware,KiCad,Pcbnew,8.0.3*
G04 #@! TF.CreationDate,2024-06-21T14:32:02+02:00*
G04 #@! TF.ProjectId,HeatPumpControl,48656174-5075-46d7-9043-6f6e74726f6c,2.0*
G04 #@! TF.SameCoordinates,Original*
G04 #@! TF.FileFunction,Copper,L2,Bot*
G04 #@! TF.FilePolarity,Positive*
%FSLAX46Y46*%
G04 Gerber Fmt 4.6, Leading zero omitted, Abs format (unit mm)*
G04 Created by KiCad (PCBNEW 8.0.3) date 2024-06-21 14:32:02*
%MOMM*%
%LPD*%
G01*
G04 APERTURE LIST*
G04 Aperture macros list*
%AMRoundRect*
0 Rectangle with rounded corners*
0 $1 Rounding radius*
0 $2 $3 $4 $5 $6 $7 $8 $9 X,Y pos of 4 corners*
0 Add a 4 corners polygon primitive as box body*
4,1,4,$2,$3,$4,$5,$6,$7,$8,$9,$2,$3,0*
0 Add four circle primitives for the rounded corners*
1,1,$1+$1,$2,$3*
1,1,$1+$1,$4,$5*
1,1,$1+$1,$6,$7*
1,1,$1+$1,$8,$9*
0 Add four rect primitives between the rounded corners*
20,1,$1+$1,$2,$3,$4,$5,0*
20,1,$1+$1,$4,$5,$6,$7,0*
20,1,$1+$1,$6,$7,$8,$9,0*
20,1,$1+$1,$8,$9,$2,$3,0*%
G04 Aperture macros list end*
G04 #@! TA.AperFunction,ComponentPad*
%ADD10R,1.800000X1.800000*%
G04 #@! TD*
G04 #@! TA.AperFunction,ComponentPad*
%ADD11C,1.800000*%
G04 #@! TD*
G04 #@! TA.AperFunction,ComponentPad*
%ADD12C,5.500000*%
G04 #@! TD*
G04 #@! TA.AperFunction,ComponentPad*
%ADD13R,1.700000X1.700000*%
G04 #@! TD*
G04 #@! TA.AperFunction,ComponentPad*
%ADD14O,1.700000X1.700000*%
G04 #@! TD*
G04 #@! TA.AperFunction,ComponentPad*
%ADD15C,1.500000*%
G04 #@! TD*
G04 #@! TA.AperFunction,ComponentPad*
%ADD16R,1.600000X1.600000*%
G04 #@! TD*
G04 #@! TA.AperFunction,ComponentPad*
%ADD17C,1.600000*%
G04 #@! TD*
G04 #@! TA.AperFunction,ComponentPad*
%ADD18RoundRect,0.248400X-0.651600X0.651600X-0.651600X-0.651600X0.651600X-0.651600X0.651600X0.651600X0*%
G04 #@! TD*
G04 #@! TA.AperFunction,ViaPad*
%ADD19C,0.600000*%
G04 #@! TD*
G04 #@! TA.AperFunction,Conductor*
%ADD20C,1.000000*%
G04 #@! TD*
G04 #@! TA.AperFunction,Conductor*
%ADD21C,0.500000*%
G04 #@! TD*
G04 APERTURE END LIST*
D10*
X139827000Y-128402000D03*
D11*
X139827000Y-125862000D03*
D12*
X139954000Y-108839000D03*
X165862000Y-138811000D03*
D13*
X148092000Y-104070000D03*
D14*
X150632000Y-104070000D03*
X153172000Y-104070000D03*
X155712000Y-104070000D03*
D15*
X160433300Y-130317700D03*
X160433300Y-127777700D03*
X160433300Y-125237700D03*
X160433300Y-122697700D03*
X160433300Y-120157700D03*
X160433300Y-117617700D03*
X160433300Y-115077700D03*
X144268300Y-115077700D03*
X144268300Y-117617700D03*
X144268300Y-120157700D03*
X144268300Y-122697700D03*
X144268300Y-125237700D03*
X144268300Y-127777700D03*
X144268300Y-130317700D03*
D10*
X139827000Y-133736000D03*
D11*
X139827000Y-131196000D03*
D13*
X166116000Y-125603000D03*
D14*
X166116000Y-128143000D03*
X166116000Y-130683000D03*
X166116000Y-133223000D03*
D16*
X160020000Y-136335900D03*
D17*
X160020000Y-138835900D03*
D18*
X139999000Y-113411000D03*
D11*
X139999000Y-115951000D03*
X139999000Y-118491000D03*
D12*
X139954000Y-138811000D03*
D13*
X166116000Y-113919000D03*
D14*
X166116000Y-116459000D03*
X166116000Y-118999000D03*
X166116000Y-121539000D03*
D12*
X165862000Y-108839000D03*
D19*
X161798000Y-129413000D03*
X147066000Y-140462000D03*
X151257000Y-136525000D03*
X151216000Y-112591400D03*
X158750000Y-113411000D03*
X154114500Y-109248100D03*
X148964300Y-133124700D03*
D20*
X153172000Y-104070000D02*
X153172000Y-107432000D01*
X139827000Y-125862000D02*
X141595100Y-125862000D01*
X141600100Y-128773100D02*
X143144700Y-130317700D01*
X143144700Y-130317700D02*
X144268300Y-130317700D01*
X141600100Y-128773100D02*
X141600100Y-125867000D01*
X141595100Y-125862000D02*
X141600100Y-125857000D01*
X153162000Y-107442000D02*
X157607000Y-107442000D01*
X141600100Y-125857000D02*
X141600100Y-128773100D01*
X148844000Y-107442000D02*
X153162000Y-107442000D01*
X153172000Y-107432000D02*
X153162000Y-107442000D01*
X163576000Y-113411000D02*
X163576000Y-117983000D01*
X163576000Y-117983000D02*
X164592000Y-118999000D01*
X157607000Y-107442000D02*
X163576000Y-113411000D01*
X141600100Y-114685900D02*
X148844000Y-107442000D01*
X141600100Y-125857000D02*
X141600100Y-114685900D01*
X164592000Y-118999000D02*
X166116000Y-118999000D01*
X141600100Y-125867000D02*
X141595100Y-125862000D01*
X144268300Y-125237700D02*
X155717700Y-125237700D01*
X157988000Y-134303900D02*
X160020000Y-136335900D01*
X155717700Y-125237700D02*
X157988000Y-127508000D01*
X157988000Y-127508000D02*
X157988000Y-134303900D01*
D21*
X161798000Y-123571000D02*
X161798000Y-129413000D01*
X160433300Y-120157700D02*
X161798000Y-121522400D01*
X164846000Y-129413000D02*
X166116000Y-128143000D01*
X161798000Y-121522400D02*
X161798000Y-123571000D01*
X161798000Y-129413000D02*
X164846000Y-129413000D01*
X162814000Y-119998400D02*
X162814000Y-124333000D01*
X164084000Y-125603000D02*
X166116000Y-125603000D01*
X162814000Y-124333000D02*
X164084000Y-125603000D01*
X160433300Y-117617700D02*
X162814000Y-119998400D01*
X150876000Y-140081000D02*
X151257000Y-139700000D01*
X150495000Y-140462000D02*
X150876000Y-140081000D01*
X151257000Y-139700000D02*
X151257000Y-136525000D01*
X147066000Y-140462000D02*
X150495000Y-140462000D01*
X151216000Y-113210000D02*
X151216000Y-112591400D01*
X144268300Y-120157700D02*
X151216000Y-113210000D01*
X160433300Y-122697700D02*
X158750000Y-121014400D01*
X158750000Y-121014400D02*
X158750000Y-113411000D01*
X144268300Y-115077700D02*
X150097900Y-109248100D01*
X150097900Y-109248100D02*
X154114500Y-109248100D01*
X144300700Y-133124700D02*
X148964300Y-133124700D01*
X137786700Y-115623300D02*
X137786700Y-129444400D01*
X138094300Y-129752000D02*
X140928000Y-129752000D01*
X140928000Y-129752000D02*
X144300700Y-133124700D01*
X137786700Y-129444400D02*
X138094300Y-129752000D01*
X139999000Y-113411000D02*
X137786700Y-115623300D01*
G04 #@! TA.AperFunction,Conductor*
G36*
X138733588Y-139853330D02*
G01*
X138911670Y-140031412D01*
X139016577Y-140107631D01*
X137833872Y-141290336D01*
X137833872Y-141290338D01*
X137841717Y-141297769D01*
X137841723Y-141297774D01*
X138122969Y-141511572D01*
X138337308Y-141640536D01*
X138385365Y-141692795D01*
X138397541Y-141762740D01*
X138369968Y-141828164D01*
X138311402Y-141868295D01*
X138272348Y-141874500D01*
X137016500Y-141874500D01*
X136948379Y-141854498D01*
X136901886Y-141800842D01*
X136890500Y-141748500D01*
X136890500Y-140494751D01*
X136910502Y-140426630D01*
X136964158Y-140380137D01*
X137034432Y-140370033D01*
X137099012Y-140399527D01*
X137127823Y-140435732D01*
X137158256Y-140493137D01*
X137158258Y-140493140D01*
X137356517Y-140785550D01*
X137477640Y-140928148D01*
X138657367Y-139748421D01*
X138733588Y-139853330D01*
G37*
G04 #@! TD.AperFunction*
G04 #@! TA.AperFunction,Conductor*
G36*
X169121621Y-103001502D02*
G01*
X169168114Y-103055158D01*
X169179500Y-103107500D01*
X169179500Y-107706529D01*
X169159498Y-107774650D01*
X169105842Y-107821143D01*
X169035568Y-107831247D01*
X168970988Y-107801753D01*
X168936449Y-107753167D01*
X168823225Y-107468997D01*
X168823223Y-107468994D01*
X168657743Y-107156863D01*
X168657741Y-107156859D01*
X168459482Y-106864449D01*
X168338358Y-106721850D01*
X167158631Y-107901577D01*
X167082412Y-107796670D01*
X166904330Y-107618588D01*
X166799421Y-107542367D01*
X167982126Y-106359662D01*
X167982126Y-106359660D01*
X167974282Y-106352230D01*
X167974276Y-106352225D01*
X167693030Y-106138427D01*
X167390321Y-105956293D01*
X167069683Y-105807950D01*
X167069679Y-105807948D01*
X166734896Y-105695147D01*
X166734882Y-105695143D01*
X166389872Y-105619199D01*
X166389848Y-105619195D01*
X166038651Y-105581000D01*
X165685348Y-105581000D01*
X165334151Y-105619195D01*
X165334127Y-105619199D01*
X164989117Y-105695143D01*
X164989103Y-105695147D01*
X164654320Y-105807948D01*
X164654316Y-105807950D01*
X164333678Y-105956293D01*
X164030969Y-106138427D01*
X163749719Y-106352228D01*
X163749713Y-106352233D01*
X163741871Y-106359661D01*
X164924577Y-107542367D01*
X164819670Y-107618588D01*
X164641588Y-107796670D01*
X164565367Y-107901577D01*
X163385640Y-106721850D01*
X163264517Y-106864449D01*
X163066258Y-107156859D01*
X163066256Y-107156863D01*
X162900776Y-107468994D01*
X162900772Y-107469003D01*
X162770010Y-107797188D01*
X162770009Y-107797191D01*
X162675496Y-108137598D01*
X162675496Y-108137601D01*
X162618342Y-108486230D01*
X162599215Y-108838997D01*
X162599215Y-108839002D01*
X162618342Y-109191769D01*
X162675496Y-109540398D01*
X162675496Y-109540401D01*
X162770009Y-109880808D01*
X162770010Y-109880811D01*
X162900772Y-110208996D01*
X162900776Y-110209005D01*
X163066256Y-110521136D01*
X163066258Y-110521140D01*
X163264517Y-110813550D01*
X163385640Y-110956148D01*
X164565367Y-109776421D01*
X164641588Y-109881330D01*
X164819670Y-110059412D01*
X164924577Y-110135631D01*
X163741872Y-111318336D01*
X163741872Y-111318338D01*
X163749717Y-111325769D01*
X163749723Y-111325774D01*
X164030969Y-111539572D01*
X164333678Y-111721706D01*
X164654316Y-111870049D01*
X164654320Y-111870051D01*
X164989103Y-111982852D01*
X164989117Y-111982856D01*
X165334127Y-112058800D01*
X165334151Y-112058804D01*
X165685348Y-112096999D01*
X165685364Y-112097000D01*
X166038636Y-112097000D01*
X166038651Y-112096999D01*
X166389848Y-112058804D01*
X166389872Y-112058800D01*
X166734882Y-111982856D01*
X166734896Y-111982852D01*
X167069679Y-111870051D01*
X167069683Y-111870049D01*
X167390321Y-111721706D01*
X167693030Y-111539572D01*
X167974284Y-111325768D01*
X167982126Y-111318338D01*
X167982127Y-111318336D01*
X166799422Y-110135631D01*
X166904330Y-110059412D01*
X167082412Y-109881330D01*
X167158632Y-109776421D01*
X168338359Y-110956148D01*
X168459481Y-110813551D01*
X168657741Y-110521140D01*
X168657743Y-110521136D01*
X168823223Y-110209005D01*
X168823227Y-110208996D01*
X168936449Y-109924833D01*
X168980244Y-109868954D01*
X169047298Y-109845623D01*
X169116321Y-109862248D01*
X169165398Y-109913550D01*
X169179500Y-109971470D01*
X169179500Y-137678529D01*
X169159498Y-137746650D01*
X169105842Y-137793143D01*
X169035568Y-137803247D01*
X168970988Y-137773753D01*
X168936449Y-137725167D01*
X168823225Y-137440997D01*
X168823223Y-137440994D01*
X168657743Y-137128863D01*
X168657741Y-137128859D01*
X168459482Y-136836449D01*
X168338358Y-136693850D01*
X167158631Y-137873577D01*
X167082412Y-137768670D01*
X166904330Y-137590588D01*
X166799421Y-137514367D01*
X167982126Y-136331662D01*
X167982126Y-136331660D01*
X167974282Y-136324230D01*
X167974276Y-136324225D01*
X167693030Y-136110427D01*
X167390321Y-135928293D01*
X167069683Y-135779950D01*
X167069679Y-135779948D01*
X166734896Y-135667147D01*
X166734882Y-135667143D01*
X166389872Y-135591199D01*
X166389848Y-135591195D01*
X166038651Y-135553000D01*
X165685348Y-135553000D01*
X165334151Y-135591195D01*
X165334127Y-135591199D01*
X164989117Y-135667143D01*
X164989103Y-135667147D01*
X164654320Y-135779948D01*
X164654316Y-135779950D01*
X164333678Y-135928293D01*
X164030969Y-136110427D01*
X163749719Y-136324228D01*
X163749713Y-136324233D01*
X163741871Y-136331661D01*
X164924577Y-137514367D01*
X164819670Y-137590588D01*
X164641588Y-137768670D01*
X164565367Y-137873577D01*
X163385640Y-136693850D01*
X163264517Y-136836449D01*
X163066258Y-137128859D01*
X163066256Y-137128863D01*
X162900776Y-137440994D01*
X162900772Y-137441003D01*
X162770010Y-137769188D01*
X162770009Y-137769191D01*
X162675496Y-138109598D01*
X162675496Y-138109601D01*
X162618342Y-138458230D01*
X162599215Y-138810997D01*
X162599215Y-138811002D01*
X162618342Y-139163769D01*
X162675496Y-139512398D01*
X162675496Y-139512401D01*
X162770009Y-139852808D01*
X162770010Y-139852811D01*
X162900772Y-140180996D01*
X162900776Y-140181005D01*
X163066256Y-140493136D01*
X163066258Y-140493140D01*
X163264517Y-140785550D01*
X163385640Y-140928148D01*
X164565367Y-139748421D01*
X164641588Y-139853330D01*
X164819670Y-140031412D01*
X164924577Y-140107631D01*
X163741872Y-141290336D01*
X163741872Y-141290338D01*
X163749717Y-141297769D01*
X163749723Y-141297774D01*
X164030969Y-141511572D01*
X164245308Y-141640536D01*
X164293365Y-141692795D01*
X164305541Y-141762740D01*
X164277968Y-141828164D01*
X164219402Y-141868295D01*
X164180348Y-141874500D01*
X141635652Y-141874500D01*
X141567531Y-141854498D01*
X141521038Y-141800842D01*
X141510934Y-141730568D01*
X141540428Y-141665988D01*
X141570692Y-141640536D01*
X141785030Y-141511572D01*
X142066284Y-141297768D01*
X142074126Y-141290338D01*
X142074127Y-141290336D01*
X140891422Y-140107631D01*
X140996330Y-140031412D01*
X141174412Y-139853330D01*
X141250632Y-139748421D01*
X142430359Y-140928148D01*
X142551481Y-140785551D01*
X142749741Y-140493140D01*
X142749743Y-140493136D01*
X142766250Y-140462000D01*
X146252384Y-140462000D01*
X146272783Y-140643047D01*
X146272783Y-140643049D01*
X146272784Y-140643050D01*
X146332957Y-140815015D01*
X146332958Y-140815018D01*
X146429887Y-140969279D01*
X146429888Y-140969281D01*
X146558718Y-141098111D01*
X146558720Y-141098112D01*
X146712981Y-141195041D01*
X146712982Y-141195041D01*
X146712985Y-141195043D01*
X146884953Y-141255217D01*
X147066000Y-141275616D01*
X147247047Y-141255217D01*
X147326055Y-141227570D01*
X147367670Y-141220500D01*
X150569701Y-141220500D01*
X150569705Y-141220500D01*
X150569706Y-141220500D01*
X150642976Y-141205925D01*
X150716247Y-141191351D01*
X150854284Y-141134174D01*
X150978515Y-141051166D01*
X151465165Y-140564516D01*
X151465166Y-140564515D01*
X151846165Y-140183516D01*
X151929173Y-140059285D01*
X151929174Y-140059284D01*
X151986351Y-139921246D01*
X152015500Y-139774706D01*
X152015500Y-136826669D01*
X152022571Y-136785054D01*
X152050217Y-136706047D01*
X152070616Y-136525000D01*
X152050217Y-136343953D01*
X151990043Y-136171985D01*
X151990041Y-136171982D01*
X151990041Y-136171981D01*
X151893112Y-136017720D01*
X151893111Y-136017718D01*
X151764281Y-135888888D01*
X151764279Y-135888887D01*
X151610018Y-135791958D01*
X151610015Y-135791957D01*
X151438050Y-135731784D01*
X151438049Y-135731783D01*
X151438047Y-135731783D01*
X151257000Y-135711384D01*
X151075953Y-135731783D01*
X151075950Y-135731783D01*
X151075949Y-135731784D01*
X150903984Y-135791957D01*
X150903981Y-135791958D01*
X150749720Y-135888887D01*
X150749718Y-135888888D01*
X150620888Y-136017718D01*
X150620887Y-136017720D01*
X150523958Y-136171981D01*
X150523957Y-136171984D01*
X150468084Y-136331662D01*
X150463783Y-136343953D01*
X150443384Y-136525000D01*
X150463783Y-136706047D01*
X150463784Y-136706049D01*
X150491429Y-136785054D01*
X150498500Y-136826669D01*
X150498500Y-139333629D01*
X150478498Y-139401750D01*
X150461595Y-139422724D01*
X150217724Y-139666595D01*
X150155412Y-139700621D01*
X150128629Y-139703500D01*
X147367670Y-139703500D01*
X147326055Y-139696429D01*
X147247050Y-139668784D01*
X147247049Y-139668783D01*
X147247047Y-139668783D01*
X147066000Y-139648384D01*
X146884953Y-139668783D01*
X146884950Y-139668783D01*
X146884949Y-139668784D01*
X146712984Y-139728957D01*
X146712981Y-139728958D01*
X146558720Y-139825887D01*
X146558718Y-139825888D01*
X146429888Y-139954718D01*
X146429887Y-139954720D01*
X146332958Y-140108981D01*
X146332957Y-140108984D01*
X146306878Y-140183516D01*
X146272783Y-140280953D01*
X146252384Y-140462000D01*
X142766250Y-140462000D01*
X142915223Y-140181005D01*
X142915227Y-140180996D01*
X143045989Y-139852811D01*
X143045990Y-139852808D01*
X143140503Y-139512401D01*
X143140503Y-139512398D01*
X143197657Y-139163769D01*
X143216785Y-138811002D01*
X143216785Y-138810997D01*
X143197657Y-138458230D01*
X143140503Y-138109601D01*
X143140503Y-138109598D01*
X143045990Y-137769191D01*
X143045989Y-137769188D01*
X142915227Y-137441003D01*
X142915223Y-137440994D01*
X142749743Y-137128863D01*
X142749741Y-137128859D01*
X142551482Y-136836449D01*
X142430358Y-136693850D01*
X141250631Y-137873577D01*
X141174412Y-137768670D01*
X140996330Y-137590588D01*
X140891421Y-137514367D01*
X142074126Y-136331662D01*
X142074126Y-136331660D01*
X142066282Y-136324230D01*
X142066276Y-136324225D01*
X141785030Y-136110427D01*
X141482321Y-135928293D01*
X141161683Y-135779950D01*
X141161679Y-135779948D01*
X140826896Y-135667147D01*
X140826882Y-135667143D01*
X140481872Y-135591199D01*
X140481848Y-135591195D01*
X140130651Y-135553000D01*
X139777348Y-135553000D01*
X139426151Y-135591195D01*
X139426127Y-135591199D01*
X139081117Y-135667143D01*
X139081103Y-135667147D01*
X138746320Y-135779948D01*
X138746316Y-135779950D01*
X138425678Y-135928293D01*
X138122969Y-136110427D01*
X137841719Y-136324228D01*
X137841713Y-136324233D01*
X137833871Y-136331661D01*
X139016577Y-137514367D01*
X138911670Y-137590588D01*
X138733588Y-137768670D01*
X138657367Y-137873577D01*
X137477640Y-136693850D01*
X137356517Y-136836449D01*
X137158258Y-137128859D01*
X137158252Y-137128869D01*
X137127822Y-137186268D01*
X137078242Y-137237084D01*
X137009059Y-137253028D01*
X136942238Y-137229038D01*
X136898995Y-137172730D01*
X136890500Y-137127248D01*
X136890500Y-129883771D01*
X136910502Y-129815650D01*
X136964158Y-129769157D01*
X137034432Y-129759053D01*
X137099012Y-129788547D01*
X137121263Y-129813766D01*
X137197534Y-129927915D01*
X137610785Y-130341166D01*
X137735015Y-130424174D01*
X137873053Y-130481351D01*
X137873054Y-130481351D01*
X137873058Y-130481353D01*
X137933943Y-130493462D01*
X137946320Y-130495924D01*
X137946322Y-130495925D01*
X137970635Y-130500761D01*
X138019594Y-130510500D01*
X138019595Y-130510500D01*
X138169005Y-130510500D01*
X138396787Y-130510500D01*
X138464908Y-130530502D01*
X138511401Y-130584158D01*
X138521505Y-130654432D01*
X138512175Y-130687111D01*
X138503494Y-130706902D01*
X138490250Y-130737094D01*
X138490249Y-130737096D01*
X138432950Y-130963366D01*
X138432949Y-130963372D01*
X138432949Y-130963374D01*
X138413673Y-131196000D01*
X138431551Y-131411757D01*
X138432950Y-131428633D01*
X138490249Y-131654903D01*
X138490252Y-131654910D01*
X138584015Y-131868668D01*
X138696931Y-132041500D01*
X138711686Y-132064083D01*
X138796842Y-132156587D01*
X138828263Y-132220251D01*
X138820276Y-132290797D01*
X138775417Y-132345826D01*
X138748175Y-132359979D01*
X138680795Y-132385111D01*
X138680792Y-132385112D01*
X138563738Y-132472738D01*
X138476112Y-132589792D01*
X138476110Y-132589797D01*
X138425011Y-132726795D01*
X138425009Y-132726803D01*
X138418500Y-132787350D01*
X138418500Y-134684649D01*
X138425009Y-134745196D01*
X138425011Y-134745204D01*
X138476110Y-134882202D01*
X138476112Y-134882207D01*
X138563738Y-134999261D01*
X138680792Y-135086887D01*
X138680794Y-135086888D01*
X138680796Y-135086889D01*
X138739875Y-135108924D01*
X138817795Y-135137988D01*
X138817803Y-135137990D01*
X138878350Y-135144499D01*
X138878355Y-135144499D01*
X138878362Y-135144500D01*
X138878368Y-135144500D01*
X140775632Y-135144500D01*
X140775638Y-135144500D01*
X140775645Y-135144499D01*
X140775649Y-135144499D01*
X140836196Y-135137990D01*
X140836199Y-135137989D01*
X140836201Y-135137989D01*
X140973204Y-135086889D01*
X140975712Y-135085012D01*
X141090261Y-134999261D01*
X141177887Y-134882207D01*
X141177887Y-134882206D01*
X141177889Y-134882204D01*
X141228989Y-134745201D01*
X141235500Y-134684638D01*
X141235500Y-132787362D01*
X141233815Y-132771685D01*
X141228990Y-132726803D01*
X141228988Y-132726795D01*
X141188192Y-132617419D01*
X141177889Y-132589796D01*
X141177888Y-132589794D01*
X141177887Y-132589792D01*
X141090261Y-132472738D01*
X140973207Y-132385112D01*
X140973204Y-132385111D01*
X140905824Y-132359979D01*
X140848989Y-132317432D01*
X140824179Y-132250911D01*
X140839271Y-132181538D01*
X140857156Y-132156588D01*
X140942314Y-132064083D01*
X141069984Y-131868669D01*
X141163749Y-131654907D01*
X141221051Y-131428626D01*
X141222393Y-131412427D01*
X141247949Y-131346194D01*
X141305260Y-131304290D01*
X141376128Y-131300021D01*
X141437057Y-131333738D01*
X143817185Y-133713866D01*
X143941415Y-133796874D01*
X144079453Y-133854051D01*
X144079454Y-133854051D01*
X144079458Y-133854053D01*
X144140343Y-133866162D01*
X144152720Y-133868624D01*
X144152722Y-133868625D01*
X144177035Y-133873461D01*
X144225994Y-133883200D01*
X144225995Y-133883200D01*
X144375405Y-133883200D01*
X148662630Y-133883200D01*
X148704244Y-133890270D01*
X148783253Y-133917917D01*
X148964300Y-133938316D01*
X149145347Y-133917917D01*
X149317315Y-133857743D01*
X149471581Y-133760811D01*
X149600411Y-133631981D01*
X149697343Y-133477715D01*
X149757517Y-133305747D01*
X149777916Y-133124700D01*
X149757517Y-132943653D01*
X149697343Y-132771685D01*
X149697341Y-132771682D01*
X149697341Y-132771681D01*
X149600412Y-132617420D01*
X149600411Y-132617418D01*
X149471581Y-132488588D01*
X149471579Y-132488587D01*
X149317318Y-132391658D01*
X149317315Y-132391657D01*
X149145350Y-132331484D01*
X149145349Y-132331483D01*
X149145347Y-132331483D01*
X148964300Y-132311084D01*
X148783253Y-132331483D01*
X148783250Y-132331483D01*
X148783249Y-132331484D01*
X148704245Y-132359129D01*
X148662630Y-132366200D01*
X144667071Y-132366200D01*
X144598950Y-132346198D01*
X144577976Y-132329295D01*
X144032422Y-131783741D01*
X143998396Y-131721429D01*
X144003461Y-131650614D01*
X144046008Y-131593778D01*
X144112528Y-131568967D01*
X144132495Y-131569125D01*
X144175882Y-131572921D01*
X144268294Y-131581007D01*
X144268296Y-131581006D01*
X144268300Y-131581007D01*
X144487671Y-131561815D01*
X144700376Y-131504820D01*
X144899954Y-131411756D01*
X145080338Y-131285449D01*
X145236049Y-131129738D01*
X145362356Y-130949354D01*
X145455420Y-130749776D01*
X145512415Y-130537071D01*
X145531607Y-130317700D01*
X145512415Y-130098329D01*
X145455420Y-129885624D01*
X145362356Y-129686047D01*
X145236049Y-129505662D01*
X145080338Y-129349951D01*
X144899954Y-129223644D01*
X144766940Y-129161619D01*
X144713655Y-129114702D01*
X144694194Y-129046425D01*
X144714736Y-128978465D01*
X144766940Y-128933229D01*
X144899699Y-128871322D01*
X144960287Y-128828897D01*
X144960287Y-128828896D01*
X144393248Y-128261857D01*
X144461293Y-128243625D01*
X144575307Y-128177799D01*
X144668399Y-128084707D01*
X144734225Y-127970693D01*
X144752457Y-127902648D01*
X145319496Y-128469687D01*
X145319497Y-128469687D01*
X145361922Y-128409099D01*
X145454947Y-128209607D01*
X145454949Y-128209603D01*
X145511919Y-127996987D01*
X145531104Y-127777700D01*
X145511919Y-127558412D01*
X145454949Y-127345796D01*
X145454947Y-127345792D01*
X145361919Y-127146294D01*
X145319499Y-127085711D01*
X145319497Y-127085711D01*
X144752457Y-127652751D01*
X144734225Y-127584707D01*
X144668399Y-127470693D01*
X144575307Y-127377601D01*
X144461293Y-127311775D01*
X144393247Y-127293541D01*
X144960287Y-126726500D01*
X144899703Y-126684079D01*
X144766940Y-126622170D01*
X144713655Y-126575252D01*
X144694194Y-126506975D01*
X144714736Y-126439015D01*
X144766939Y-126393781D01*
X144898678Y-126332351D01*
X144899948Y-126331759D01*
X144899949Y-126331758D01*
X144899954Y-126331756D01*
X144951812Y-126295444D01*
X144989598Y-126268987D01*
X145056872Y-126246299D01*
X145061868Y-126246200D01*
X155247776Y-126246200D01*
X155315897Y-126266202D01*
X155336871Y-126283105D01*
X156942595Y-127888829D01*
X156976621Y-127951141D01*
X156979500Y-127977924D01*
X156979500Y-134403229D01*
X157015738Y-134585412D01*
X157018256Y-134598068D01*
X157094279Y-134781604D01*
X157204647Y-134946781D01*
X157204649Y-134946783D01*
X158674595Y-136416729D01*
X158708621Y-136479041D01*
X158711500Y-136505824D01*
X158711500Y-137184549D01*
X158718009Y-137245096D01*
X158718011Y-137245104D01*
X158769110Y-137382102D01*
X158769112Y-137382107D01*
X158856738Y-137499161D01*
X158973792Y-137586787D01*
X158973794Y-137586788D01*
X158973796Y-137586789D01*
X159032875Y-137608824D01*
X159110795Y-137637888D01*
X159110803Y-137637890D01*
X159174717Y-137644761D01*
X159174604Y-137645806D01*
X159237435Y-137667959D01*
X159281000Y-137724018D01*
X159283316Y-137740007D01*
X159979209Y-138435900D01*
X159967339Y-138435900D01*
X159865606Y-138463159D01*
X159774394Y-138515820D01*
X159699920Y-138590294D01*
X159647259Y-138681506D01*
X159620000Y-138783239D01*
X159620000Y-138795109D01*
X158932900Y-138108009D01*
X158882913Y-138179400D01*
X158786188Y-138386826D01*
X158786186Y-138386831D01*
X158726951Y-138607897D01*
X158707004Y-138835900D01*
X158726951Y-139063902D01*
X158786186Y-139284968D01*
X158786188Y-139284973D01*
X158882913Y-139492401D01*
X158932899Y-139563788D01*
X159620000Y-138876688D01*
X159620000Y-138888561D01*
X159647259Y-138990294D01*
X159699920Y-139081506D01*
X159774394Y-139155980D01*
X159865606Y-139208641D01*
X159967339Y-139235900D01*
X159979210Y-139235900D01*
X159292110Y-139922998D01*
X159292110Y-139923000D01*
X159363498Y-139972986D01*
X159570926Y-140069711D01*
X159570931Y-140069713D01*
X159791999Y-140128948D01*
X159791995Y-140128948D01*
X160020000Y-140148895D01*
X160248002Y-140128948D01*
X160469068Y-140069713D01*
X160469073Y-140069711D01*
X160676497Y-139972988D01*
X160747888Y-139922999D01*
X160747888Y-139922997D01*
X160060791Y-139235900D01*
X160072661Y-139235900D01*
X160174394Y-139208641D01*
X160265606Y-139155980D01*
X160340080Y-139081506D01*
X160392741Y-138990294D01*
X160420000Y-138888561D01*
X160420000Y-138876691D01*
X161107097Y-139563788D01*
X161107099Y-139563788D01*
X161157088Y-139492397D01*
X161253811Y-139284973D01*
X161253813Y-139284968D01*
X161313048Y-139063902D01*
X161332995Y-138835900D01*
X161313048Y-138607897D01*
X161253813Y-138386831D01*
X161253811Y-138386826D01*
X161157086Y-138179398D01*
X161107100Y-138108010D01*
X161107098Y-138108010D01*
X160420000Y-138795108D01*
X160420000Y-138783239D01*
X160392741Y-138681506D01*
X160340080Y-138590294D01*
X160265606Y-138515820D01*
X160174394Y-138463159D01*
X160072661Y-138435900D01*
X160060790Y-138435900D01*
X160759569Y-137737118D01*
X160764709Y-137711549D01*
X160814108Y-137660557D01*
X160865369Y-137645567D01*
X160865283Y-137644761D01*
X160929196Y-137637890D01*
X160929199Y-137637889D01*
X160929201Y-137637889D01*
X161066204Y-137586789D01*
X161183261Y-137499161D01*
X161226802Y-137440997D01*
X161270887Y-137382107D01*
X161270887Y-137382106D01*
X161270889Y-137382104D01*
X161321989Y-137245101D01*
X161328500Y-137184538D01*
X161328500Y-135487262D01*
X161328499Y-135487250D01*
X161321990Y-135426703D01*
X161321988Y-135426695D01*
X161270889Y-135289697D01*
X161270887Y-135289692D01*
X161183261Y-135172638D01*
X161066207Y-135085012D01*
X161066202Y-135085010D01*
X160929204Y-135033911D01*
X160929196Y-135033909D01*
X160868649Y-135027400D01*
X160868638Y-135027400D01*
X160189924Y-135027400D01*
X160121803Y-135007398D01*
X160100829Y-134990495D01*
X159033405Y-133923071D01*
X158999379Y-133860759D01*
X158996500Y-133833976D01*
X158996500Y-130775023D01*
X159016502Y-130706902D01*
X159070158Y-130660409D01*
X159140432Y-130650305D01*
X159205012Y-130679799D01*
X159243396Y-130739525D01*
X159244207Y-130742412D01*
X159246179Y-130749774D01*
X159246181Y-130749779D01*
X159319666Y-130907368D01*
X159339244Y-130949354D01*
X159462662Y-131125612D01*
X159465551Y-131129738D01*
X159465554Y-131129742D01*
X159621257Y-131285445D01*
X159621261Y-131285448D01*
X159621262Y-131285449D01*
X159801646Y-131411756D01*
X160001224Y-131504820D01*
X160213929Y-131561815D01*
X160433300Y-131581007D01*
X160652671Y-131561815D01*
X160865376Y-131504820D01*
X161064954Y-131411756D01*
X161245338Y-131285449D01*
X161401049Y-131129738D01*
X161527356Y-130949354D01*
X161620420Y-130749776D01*
X161677415Y-130537071D01*
X161694662Y-130339928D01*
X161720524Y-130273814D01*
X161778028Y-130232174D01*
X161806065Y-130225707D01*
X161979047Y-130206217D01*
X162058055Y-130178570D01*
X162099670Y-130171500D01*
X164682263Y-130171500D01*
X164750384Y-130191502D01*
X164796877Y-130245158D01*
X164806981Y-130315432D01*
X164804407Y-130328431D01*
X164771437Y-130458624D01*
X164771436Y-130458630D01*
X164771436Y-130458632D01*
X164752844Y-130683000D01*
X164760469Y-130775023D01*
X164771437Y-130907375D01*
X164826702Y-131125612D01*
X164826703Y-131125613D01*
X164826704Y-131125616D01*
X164905077Y-131304290D01*
X164917141Y-131331793D01*
X165040275Y-131520265D01*
X165040279Y-131520270D01*
X165192762Y-131685908D01*
X165238399Y-131721429D01*
X165370424Y-131824189D01*
X165404205Y-131842470D01*
X165454596Y-131892482D01*
X165469949Y-131961799D01*
X165445389Y-132028412D01*
X165404209Y-132064096D01*
X165370704Y-132082228D01*
X165370698Y-132082232D01*
X165193097Y-132220465D01*
X165040674Y-132386041D01*
X164917580Y-132574451D01*
X164827179Y-132780543D01*
X164827176Y-132780550D01*
X164779455Y-132968999D01*
X164779456Y-132969000D01*
X165685297Y-132969000D01*
X165650075Y-133030007D01*
X165616000Y-133157174D01*
X165616000Y-133288826D01*
X165650075Y-133415993D01*
X165685297Y-133477000D01*
X164779455Y-133477000D01*
X164827176Y-133665449D01*
X164827179Y-133665456D01*
X164917580Y-133871548D01*
X165040674Y-134059958D01*
X165193097Y-134225534D01*
X165370698Y-134363767D01*
X165370699Y-134363768D01*
X165568628Y-134470882D01*
X165568630Y-134470883D01*
X165781483Y-134543955D01*
X165781492Y-134543957D01*
X165862000Y-134557391D01*
X165862000Y-133653702D01*
X165923007Y-133688925D01*
X166050174Y-133723000D01*
X166181826Y-133723000D01*
X166308993Y-133688925D01*
X166370000Y-133653702D01*
X166370000Y-134557390D01*
X166450507Y-134543957D01*
X166450516Y-134543955D01*
X166663369Y-134470883D01*
X166663371Y-134470882D01*
X166861300Y-134363768D01*
X166861301Y-134363767D01*
X167038902Y-134225534D01*
X167191325Y-134059958D01*
X167314419Y-133871548D01*
X167404820Y-133665456D01*
X167404823Y-133665449D01*
X167452544Y-133477000D01*
X166546703Y-133477000D01*
X166581925Y-133415993D01*
X166616000Y-133288826D01*
X166616000Y-133157174D01*
X166581925Y-133030007D01*
X166546703Y-132969000D01*
X167452544Y-132969000D01*
X167452544Y-132968999D01*
X167404823Y-132780550D01*
X167404820Y-132780543D01*
X167314419Y-132574451D01*
X167191325Y-132386041D01*
X167038902Y-132220465D01*
X166861301Y-132082232D01*
X166861300Y-132082231D01*
X166827791Y-132064097D01*
X166777401Y-132014083D01*
X166762050Y-131944766D01*
X166786612Y-131878153D01*
X166827790Y-131842472D01*
X166861576Y-131824189D01*
X167039240Y-131685906D01*
X167191722Y-131520268D01*
X167314860Y-131331791D01*
X167405296Y-131125616D01*
X167460564Y-130907368D01*
X167479156Y-130683000D01*
X167460564Y-130458632D01*
X167405296Y-130240384D01*
X167314860Y-130034209D01*
X167247429Y-129930998D01*
X167191724Y-129845734D01*
X167191720Y-129845729D01*
X167039237Y-129680091D01*
X166957382Y-129616381D01*
X166861576Y-129541811D01*
X166828319Y-129523813D01*
X166777929Y-129473802D01*
X166762576Y-129404485D01*
X166787136Y-129337872D01*
X166828320Y-129302186D01*
X166861576Y-129284189D01*
X167039240Y-129145906D01*
X167191722Y-128980268D01*
X167314860Y-128791791D01*
X167405296Y-128585616D01*
X167460564Y-128367368D01*
X167479156Y-128143000D01*
X167460564Y-127918632D01*
X167441545Y-127843526D01*
X167405297Y-127700387D01*
X167405296Y-127700386D01*
X167405296Y-127700384D01*
X167314860Y-127494209D01*
X167268551Y-127423328D01*
X167191724Y-127305734D01*
X167191719Y-127305729D01*
X167048524Y-127150179D01*
X167017103Y-127086514D01*
X167025090Y-127015968D01*
X167069948Y-126960939D01*
X167097183Y-126946789D01*
X167212204Y-126903889D01*
X167329261Y-126816261D01*
X167396455Y-126726501D01*
X167416887Y-126699207D01*
X167416887Y-126699206D01*
X167416889Y-126699204D01*
X167467989Y-126562201D01*
X167471066Y-126533585D01*
X167474499Y-126501649D01*
X167474500Y-126501632D01*
X167474500Y-124704367D01*
X167474499Y-124704350D01*
X167467990Y-124643803D01*
X167467988Y-124643795D01*
X167416889Y-124506797D01*
X167416887Y-124506792D01*
X167329261Y-124389738D01*
X167212207Y-124302112D01*
X167212202Y-124302110D01*
X167075204Y-124251011D01*
X167075196Y-124251009D01*
X167014649Y-124244500D01*
X167014638Y-124244500D01*
X165217362Y-124244500D01*
X165217350Y-124244500D01*
X165156803Y-124251009D01*
X165156795Y-124251011D01*
X165019797Y-124302110D01*
X165019792Y-124302112D01*
X164902738Y-124389738D01*
X164815112Y-124506792D01*
X164815110Y-124506797D01*
X164764011Y-124643795D01*
X164764009Y-124643803D01*
X164757500Y-124704350D01*
X164757500Y-124718500D01*
X164737498Y-124786621D01*
X164683842Y-124833114D01*
X164631500Y-124844500D01*
X164450371Y-124844500D01*
X164382250Y-124824498D01*
X164361276Y-124807595D01*
X163609405Y-124055724D01*
X163575379Y-123993412D01*
X163572500Y-123966629D01*
X163572500Y-119923693D01*
X163572499Y-119923690D01*
X163566339Y-119892721D01*
X163543351Y-119777154D01*
X163502513Y-119678564D01*
X163494925Y-119607976D01*
X163526704Y-119544488D01*
X163587762Y-119508261D01*
X163658714Y-119510795D01*
X163708018Y-119541252D01*
X163808647Y-119641881D01*
X163949119Y-119782353D01*
X164114296Y-119892721D01*
X164297831Y-119968744D01*
X164492671Y-120007500D01*
X165156691Y-120007500D01*
X165224812Y-120027502D01*
X165234082Y-120034069D01*
X165370416Y-120140183D01*
X165370424Y-120140189D01*
X165404205Y-120158470D01*
X165454596Y-120208482D01*
X165469949Y-120277799D01*
X165445389Y-120344412D01*
X165404209Y-120380096D01*
X165370704Y-120398228D01*
X165370698Y-120398232D01*
X165193097Y-120536465D01*
X165040674Y-120702041D01*
X164917580Y-120890451D01*
X164827179Y-121096543D01*
X164827176Y-121096550D01*
X164779455Y-121284999D01*
X164779456Y-121285000D01*
X165685297Y-121285000D01*
X165650075Y-121346007D01*
X165616000Y-121473174D01*
X165616000Y-121604826D01*
X165650075Y-121731993D01*
X165685297Y-121793000D01*
X164779455Y-121793000D01*
X164827176Y-121981449D01*
X164827179Y-121981456D01*
X164917580Y-122187548D01*
X165040674Y-122375958D01*
X165193097Y-122541534D01*
X165370698Y-122679767D01*
X165370699Y-122679768D01*
X165568628Y-122786882D01*
X165568630Y-122786883D01*
X165781483Y-122859955D01*
X165781492Y-122859957D01*
X165862000Y-122873391D01*
X165862000Y-121969702D01*
X165923007Y-122004925D01*
X166050174Y-122039000D01*
X166181826Y-122039000D01*
X166308993Y-122004925D01*
X166370000Y-121969702D01*
X166370000Y-122873390D01*
X166450507Y-122859957D01*
X166450516Y-122859955D01*
X166663369Y-122786883D01*
X166663371Y-122786882D01*
X166861300Y-122679768D01*
X166861301Y-122679767D01*
X167038902Y-122541534D01*
X167191325Y-122375958D01*
X167314419Y-122187548D01*
X167404820Y-121981456D01*
X167404823Y-121981449D01*
X167452544Y-121793000D01*
X166546703Y-121793000D01*
X166581925Y-121731993D01*
X166616000Y-121604826D01*
X166616000Y-121473174D01*
X166581925Y-121346007D01*
X166546703Y-121285000D01*
X167452544Y-121285000D01*
X167452544Y-121284999D01*
X167404823Y-121096550D01*
X167404820Y-121096543D01*
X167314419Y-120890451D01*
X167191325Y-120702041D01*
X167038902Y-120536465D01*
X166861301Y-120398232D01*
X166861300Y-120398231D01*
X166827791Y-120380097D01*
X166777401Y-120330083D01*
X166762050Y-120260766D01*
X166786612Y-120194153D01*
X166827790Y-120158472D01*
X166861576Y-120140189D01*
X167039240Y-120001906D01*
X167191722Y-119836268D01*
X167314860Y-119647791D01*
X167405296Y-119441616D01*
X167460564Y-119223368D01*
X167479156Y-118999000D01*
X167460564Y-118774632D01*
X167432724Y-118664694D01*
X167405297Y-118556387D01*
X167405296Y-118556386D01*
X167405296Y-118556384D01*
X167314860Y-118350209D01*
X167308140Y-118339924D01*
X167191724Y-118161734D01*
X167191720Y-118161729D01*
X167039237Y-117996091D01*
X166957382Y-117932381D01*
X166861576Y-117857811D01*
X166828319Y-117839813D01*
X166777929Y-117789802D01*
X166762576Y-117720485D01*
X166787136Y-117653872D01*
X166828320Y-117618186D01*
X166829218Y-117617700D01*
X166861576Y-117600189D01*
X167039240Y-117461906D01*
X167191722Y-117296268D01*
X167314860Y-117107791D01*
X167405296Y-116901616D01*
X167460564Y-116683368D01*
X167479156Y-116459000D01*
X167460564Y-116234632D01*
X167436705Y-116140415D01*
X167405297Y-116016387D01*
X167405296Y-116016386D01*
X167405296Y-116016384D01*
X167314860Y-115810209D01*
X167308140Y-115799924D01*
X167191724Y-115621734D01*
X167191719Y-115621729D01*
X167048524Y-115466179D01*
X167017103Y-115402514D01*
X167025090Y-115331968D01*
X167069948Y-115276939D01*
X167097183Y-115262789D01*
X167212204Y-115219889D01*
X167319212Y-115139784D01*
X167329261Y-115132261D01*
X167416887Y-115015207D01*
X167416887Y-115015206D01*
X167416889Y-115015204D01*
X167467989Y-114878201D01*
X167470126Y-114858329D01*
X167474499Y-114817649D01*
X167474500Y-114817632D01*
X167474500Y-113020367D01*
X167474499Y-113020350D01*
X167467990Y-112959803D01*
X167467988Y-112959795D01*
X167416889Y-112822797D01*
X167416887Y-112822792D01*
X167329261Y-112705738D01*
X167212207Y-112618112D01*
X167212202Y-112618110D01*
X167075204Y-112567011D01*
X167075196Y-112567009D01*
X167014649Y-112560500D01*
X167014638Y-112560500D01*
X165217362Y-112560500D01*
X165217350Y-112560500D01*
X165156803Y-112567009D01*
X165156795Y-112567011D01*
X165019797Y-112618110D01*
X165019792Y-112618112D01*
X164902738Y-112705738D01*
X164815112Y-112822792D01*
X164815110Y-112822797D01*
X164764011Y-112959795D01*
X164764010Y-112959802D01*
X164758399Y-113011993D01*
X164731230Y-113077585D01*
X164672912Y-113118076D01*
X164601960Y-113120610D01*
X164540902Y-113084383D01*
X164516712Y-113046742D01*
X164502318Y-113011993D01*
X164480699Y-112959799D01*
X164480697Y-112959795D01*
X164469723Y-112933299D01*
X164449959Y-112903720D01*
X164359354Y-112768119D01*
X158249881Y-106658647D01*
X158084704Y-106548279D01*
X158060562Y-106538279D01*
X158060561Y-106538278D01*
X157901174Y-106472258D01*
X157901169Y-106472256D01*
X157706331Y-106433500D01*
X157706329Y-106433500D01*
X154306500Y-106433500D01*
X154238379Y-106413498D01*
X154191886Y-106359842D01*
X154180500Y-106307500D01*
X154180500Y-105029454D01*
X154200502Y-104961333D01*
X154213801Y-104944115D01*
X154247721Y-104907269D01*
X154247925Y-104906958D01*
X154336816Y-104770898D01*
X154390819Y-104724810D01*
X154461167Y-104715235D01*
X154525525Y-104745212D01*
X154547782Y-104770898D01*
X154636674Y-104906958D01*
X154789097Y-105072534D01*
X154966698Y-105210767D01*
X154966699Y-105210768D01*
X155164628Y-105317882D01*
X155164630Y-105317883D01*
X155377483Y-105390955D01*
X155377492Y-105390957D01*
X155458000Y-105404391D01*
X155458000Y-104500702D01*
X155519007Y-104535925D01*
X155646174Y-104570000D01*
X155777826Y-104570000D01*
X155904993Y-104535925D01*
X155966000Y-104500702D01*
X155966000Y-105404390D01*
X156046507Y-105390957D01*
X156046516Y-105390955D01*
X156259369Y-105317883D01*
X156259371Y-105317882D01*
X156457300Y-105210768D01*
X156457301Y-105210767D01*
X156634902Y-105072534D01*
X156787325Y-104906958D01*
X156910419Y-104718548D01*
X157000820Y-104512456D01*
X157000823Y-104512449D01*
X157048544Y-104324000D01*
X156142703Y-104324000D01*
X156177925Y-104262993D01*
X156212000Y-104135826D01*
X156212000Y-104004174D01*
X156177925Y-103877007D01*
X156142703Y-103816000D01*
X157048544Y-103816000D01*
X157048544Y-103815999D01*
X157000823Y-103627550D01*
X157000820Y-103627543D01*
X156910419Y-103421451D01*
X156787325Y-103233041D01*
X156750315Y-103192838D01*
X156718894Y-103129173D01*
X156726881Y-103058627D01*
X156771740Y-103003598D01*
X156839228Y-102981557D01*
X156843016Y-102981500D01*
X169053500Y-102981500D01*
X169121621Y-103001502D01*
G37*
G04 #@! TD.AperFunction*
G04 #@! TA.AperFunction,Conductor*
G36*
X168338359Y-140928148D02*
G01*
X168459481Y-140785551D01*
X168657741Y-140493140D01*
X168657743Y-140493136D01*
X168823223Y-140181005D01*
X168823227Y-140180996D01*
X168936449Y-139896833D01*
X168980244Y-139840954D01*
X169047298Y-139817623D01*
X169116321Y-139834248D01*
X169165398Y-139885550D01*
X169179500Y-139943470D01*
X169179500Y-141748500D01*
X169159498Y-141816621D01*
X169105842Y-141863114D01*
X169053500Y-141874500D01*
X167543652Y-141874500D01*
X167475531Y-141854498D01*
X167429038Y-141800842D01*
X167418934Y-141730568D01*
X167448428Y-141665988D01*
X167478692Y-141640536D01*
X167693030Y-141511572D01*
X167974284Y-141297768D01*
X167982126Y-141290338D01*
X167982127Y-141290336D01*
X166799422Y-140107631D01*
X166904330Y-140031412D01*
X167082412Y-139853330D01*
X167158632Y-139748421D01*
X168338359Y-140928148D01*
G37*
G04 #@! TD.AperFunction*
G04 #@! TA.AperFunction,Conductor*
G36*
X142928851Y-114887549D02*
G01*
X142985687Y-114930096D01*
X143010498Y-114996616D01*
X143010340Y-115016581D01*
X143004993Y-115077700D01*
X143024185Y-115297071D01*
X143032682Y-115328781D01*
X143081179Y-115509773D01*
X143081181Y-115509779D01*
X143133386Y-115621734D01*
X143174244Y-115709354D01*
X143244862Y-115810206D01*
X143300551Y-115889738D01*
X143300554Y-115889742D01*
X143456257Y-116045445D01*
X143456261Y-116045448D01*
X143456262Y-116045449D01*
X143636646Y-116171756D01*
X143662102Y-116183626D01*
X143769068Y-116233505D01*
X143822353Y-116280422D01*
X143841814Y-116348699D01*
X143821272Y-116416659D01*
X143769068Y-116461895D01*
X143636646Y-116523644D01*
X143456265Y-116649948D01*
X143456259Y-116649953D01*
X143300553Y-116805659D01*
X143300548Y-116805665D01*
X143174244Y-116986046D01*
X143081181Y-117185620D01*
X143081179Y-117185626D01*
X143051532Y-117296270D01*
X143024185Y-117398329D01*
X143004993Y-117617700D01*
X143024185Y-117837071D01*
X143029744Y-117857816D01*
X143081179Y-118049773D01*
X143081181Y-118049779D01*
X143133386Y-118161734D01*
X143174244Y-118249354D01*
X143280466Y-118401054D01*
X143300551Y-118429738D01*
X143300554Y-118429742D01*
X143456257Y-118585445D01*
X143456261Y-118585448D01*
X143456262Y-118585449D01*
X143636646Y-118711756D01*
X143715522Y-118748536D01*
X143769068Y-118773505D01*
X143822353Y-118820422D01*
X143841814Y-118888699D01*
X143821272Y-118956659D01*
X143769068Y-119001895D01*
X143636646Y-119063644D01*
X143456265Y-119189948D01*
X143456259Y-119189953D01*
X143300553Y-119345659D01*
X143300548Y-119345665D01*
X143174244Y-119526046D01*
X143081181Y-119725620D01*
X143081179Y-119725626D01*
X143051532Y-119836270D01*
X143024185Y-119938329D01*
X143004993Y-120157700D01*
X143012835Y-120247342D01*
X143024185Y-120377070D01*
X143081179Y-120589773D01*
X143081181Y-120589779D01*
X143135944Y-120707219D01*
X143174244Y-120789354D01*
X143279515Y-120939695D01*
X143300551Y-120969738D01*
X143300554Y-120969742D01*
X143456257Y-121125445D01*
X143456261Y-121125448D01*
X143456262Y-121125449D01*
X143636646Y-121251756D01*
X143707939Y-121285000D01*
X143769068Y-121313505D01*
X143822353Y-121360422D01*
X143841814Y-121428699D01*
X143821272Y-121496659D01*
X143769068Y-121541895D01*
X143636646Y-121603644D01*
X143456265Y-121729948D01*
X143456259Y-121729953D01*
X143300553Y-121885659D01*
X143300548Y-121885665D01*
X143174244Y-122066046D01*
X143081181Y-122265620D01*
X143081179Y-122265626D01*
X143024185Y-122478329D01*
X143004993Y-122697700D01*
X143024185Y-122917071D01*
X143081180Y-123129776D01*
X143174244Y-123329354D01*
X143300551Y-123509738D01*
X143300554Y-123509742D01*
X143456257Y-123665445D01*
X143456261Y-123665448D01*
X143456262Y-123665449D01*
X143636646Y-123791756D01*
X143741519Y-123840658D01*
X143769068Y-123853505D01*
X143822353Y-123900422D01*
X143841814Y-123968699D01*
X143821272Y-124036659D01*
X143769068Y-124081895D01*
X143636646Y-124143644D01*
X143456265Y-124269948D01*
X143456259Y-124269953D01*
X143300553Y-124425659D01*
X143300548Y-124425665D01*
X143174244Y-124606046D01*
X143081181Y-124805620D01*
X143081179Y-124805626D01*
X143024185Y-125018329D01*
X143004993Y-125237700D01*
X143024185Y-125457070D01*
X143081179Y-125669773D01*
X143081181Y-125669779D01*
X143174242Y-125869350D01*
X143174244Y-125869354D01*
X143300551Y-126049738D01*
X143300554Y-126049742D01*
X143456257Y-126205445D01*
X143456261Y-126205448D01*
X143456262Y-126205449D01*
X143636646Y-126331756D01*
X143636651Y-126331758D01*
X143636651Y-126331759D01*
X143769658Y-126393780D01*
X143822944Y-126440697D01*
X143842405Y-126508974D01*
X143821864Y-126576934D01*
X143769660Y-126622169D01*
X143636900Y-126684077D01*
X143576310Y-126726501D01*
X144143351Y-127293542D01*
X144075307Y-127311775D01*
X143961293Y-127377601D01*
X143868201Y-127470693D01*
X143802375Y-127584707D01*
X143784142Y-127652751D01*
X143217101Y-127085710D01*
X143174678Y-127146298D01*
X143081652Y-127345792D01*
X143081650Y-127345796D01*
X143024680Y-127558412D01*
X143005495Y-127777700D01*
X143024680Y-127996987D01*
X143081650Y-128209603D01*
X143081652Y-128209607D01*
X143174679Y-128409103D01*
X143217100Y-128469687D01*
X143784141Y-127902646D01*
X143802375Y-127970693D01*
X143868201Y-128084707D01*
X143961293Y-128177799D01*
X144075307Y-128243625D01*
X144143351Y-128261857D01*
X143576311Y-128828897D01*
X143576311Y-128828898D01*
X143636897Y-128871321D01*
X143769659Y-128933229D01*
X143822944Y-128980146D01*
X143842405Y-129048424D01*
X143821863Y-129116384D01*
X143769660Y-129161618D01*
X143636647Y-129223643D01*
X143629277Y-129228804D01*
X143562002Y-129251488D01*
X143493142Y-129234200D01*
X143467916Y-129214682D01*
X142645505Y-128392271D01*
X142611479Y-128329959D01*
X142608600Y-128303176D01*
X142608600Y-115155824D01*
X142628602Y-115087703D01*
X142645505Y-115066729D01*
X142795724Y-114916510D01*
X142858036Y-114882484D01*
X142928851Y-114887549D01*
G37*
G04 #@! TD.AperFunction*
G04 #@! TA.AperFunction,Conductor*
G36*
X139579667Y-118664694D02*
G01*
X139638910Y-118767306D01*
X139722694Y-118851090D01*
X139825306Y-118910333D01*
X139914874Y-118934333D01*
X139197680Y-119651528D01*
X139197680Y-119651529D01*
X139226251Y-119673767D01*
X139226259Y-119673772D01*
X139431474Y-119784827D01*
X139431477Y-119784829D01*
X139652167Y-119860592D01*
X139652176Y-119860594D01*
X139882334Y-119899000D01*
X140115666Y-119899000D01*
X140345823Y-119860594D01*
X140345832Y-119860592D01*
X140424688Y-119833521D01*
X140495612Y-119830320D01*
X140557008Y-119865973D01*
X140589382Y-119929158D01*
X140591600Y-119952694D01*
X140591600Y-124462800D01*
X140571598Y-124530921D01*
X140517942Y-124577414D01*
X140447668Y-124587518D01*
X140405631Y-124573614D01*
X140394727Y-124567713D01*
X140394723Y-124567711D01*
X140173955Y-124491921D01*
X140173948Y-124491919D01*
X140075411Y-124475476D01*
X139943712Y-124453500D01*
X139710288Y-124453500D01*
X139595066Y-124472727D01*
X139480051Y-124491919D01*
X139480044Y-124491921D01*
X139259276Y-124567711D01*
X139259273Y-124567713D01*
X139118671Y-124643803D01*
X139053985Y-124678809D01*
X139053983Y-124678810D01*
X138869779Y-124822182D01*
X138763901Y-124937196D01*
X138703048Y-124973767D01*
X138632083Y-124971632D01*
X138573538Y-124931471D01*
X138546000Y-124866032D01*
X138545200Y-124851858D01*
X138545200Y-119263304D01*
X138565202Y-119195183D01*
X138618858Y-119148690D01*
X138689132Y-119138586D01*
X138753712Y-119168080D01*
X138776683Y-119194388D01*
X138839796Y-119290990D01*
X139555666Y-118575122D01*
X139579667Y-118664694D01*
G37*
G04 #@! TD.AperFunction*
G04 #@! TA.AperFunction,Conductor*
G36*
X138753712Y-116628993D02*
G01*
X138776683Y-116655302D01*
X138883685Y-116819083D01*
X139041772Y-116990811D01*
X139041778Y-116990816D01*
X139041780Y-116990818D01*
X139210175Y-117121886D01*
X139251644Y-117179508D01*
X139255378Y-117250406D01*
X139220188Y-117312068D01*
X139210170Y-117320749D01*
X139197680Y-117330469D01*
X139197680Y-117330470D01*
X139914877Y-118047666D01*
X139825306Y-118071667D01*
X139722694Y-118130910D01*
X139638910Y-118214694D01*
X139579667Y-118317306D01*
X139555666Y-118406875D01*
X138839798Y-117691007D01*
X138839797Y-117691007D01*
X138776683Y-117787611D01*
X138722680Y-117833700D01*
X138652332Y-117843275D01*
X138587974Y-117813298D01*
X138550041Y-117753285D01*
X138545200Y-117718696D01*
X138545200Y-116724217D01*
X138565202Y-116656096D01*
X138618858Y-116609603D01*
X138689132Y-116599499D01*
X138753712Y-116628993D01*
G37*
G04 #@! TD.AperFunction*
G04 #@! TA.AperFunction,Conductor*
G36*
X138733588Y-109881330D02*
G01*
X138911670Y-110059412D01*
X139016577Y-110135631D01*
X137833872Y-111318336D01*
X137833872Y-111318338D01*
X137841717Y-111325769D01*
X137841723Y-111325774D01*
X138122969Y-111539572D01*
X138425678Y-111721706D01*
X138746316Y-111870049D01*
X138746320Y-111870051D01*
X138880704Y-111915330D01*
X138938872Y-111956036D01*
X138965799Y-112021728D01*
X138952935Y-112091549D01*
X138906620Y-112141974D01*
X138874747Y-112161633D01*
X138749635Y-112286745D01*
X138656745Y-112437342D01*
X138601090Y-112605301D01*
X138601090Y-112605304D01*
X138590500Y-112708954D01*
X138590500Y-113694628D01*
X138570498Y-113762749D01*
X138553595Y-113783723D01*
X137197540Y-115139777D01*
X137197535Y-115139784D01*
X137121265Y-115253930D01*
X137066788Y-115299458D01*
X136996345Y-115308306D01*
X136932301Y-115277664D01*
X136894989Y-115217263D01*
X136890500Y-115183928D01*
X136890500Y-110522751D01*
X136910502Y-110454630D01*
X136964158Y-110408137D01*
X137034432Y-110398033D01*
X137099012Y-110427527D01*
X137127823Y-110463732D01*
X137158256Y-110521137D01*
X137158258Y-110521140D01*
X137356517Y-110813550D01*
X137477640Y-110956148D01*
X138657367Y-109776421D01*
X138733588Y-109881330D01*
G37*
G04 #@! TD.AperFunction*
G04 #@! TA.AperFunction,Conductor*
G36*
X146681760Y-103001502D02*
G01*
X146728253Y-103055158D01*
X146738917Y-103120967D01*
X146733501Y-103171347D01*
X146733500Y-103171367D01*
X146733500Y-104968649D01*
X146740009Y-105029196D01*
X146740011Y-105029204D01*
X146791110Y-105166202D01*
X146791112Y-105166207D01*
X146878738Y-105283261D01*
X146995792Y-105370887D01*
X146995794Y-105370888D01*
X146995796Y-105370889D01*
X147049600Y-105390957D01*
X147132795Y-105421988D01*
X147132803Y-105421990D01*
X147193350Y-105428499D01*
X147193355Y-105428499D01*
X147193362Y-105428500D01*
X147193368Y-105428500D01*
X148990632Y-105428500D01*
X148990638Y-105428500D01*
X148990645Y-105428499D01*
X148990649Y-105428499D01*
X149051196Y-105421990D01*
X149051199Y-105421989D01*
X149051201Y-105421989D01*
X149188204Y-105370889D01*
X149258399Y-105318342D01*
X149305261Y-105283261D01*
X149392886Y-105166208D01*
X149392885Y-105166208D01*
X149392889Y-105166204D01*
X149436999Y-105047939D01*
X149479545Y-104991107D01*
X149546066Y-104966296D01*
X149615440Y-104981388D01*
X149647753Y-105006635D01*
X149685779Y-105047942D01*
X149708762Y-105072908D01*
X149763331Y-105115381D01*
X149886424Y-105211189D01*
X150084426Y-105318342D01*
X150084427Y-105318342D01*
X150084428Y-105318343D01*
X150196227Y-105356723D01*
X150297365Y-105391444D01*
X150519431Y-105428500D01*
X150519435Y-105428500D01*
X150744565Y-105428500D01*
X150744569Y-105428500D01*
X150966635Y-105391444D01*
X151179574Y-105318342D01*
X151377576Y-105211189D01*
X151555240Y-105072906D01*
X151707722Y-104907268D01*
X151796518Y-104771354D01*
X151850520Y-104725268D01*
X151920868Y-104715692D01*
X151985225Y-104745669D01*
X152007480Y-104771353D01*
X152050677Y-104837471D01*
X152096278Y-104907269D01*
X152130199Y-104944115D01*
X152161622Y-105007779D01*
X152163500Y-105029454D01*
X152163500Y-106307500D01*
X152143498Y-106375621D01*
X152089842Y-106422114D01*
X152037500Y-106433500D01*
X148744668Y-106433500D01*
X148549830Y-106472256D01*
X148549825Y-106472258D01*
X148473809Y-106503745D01*
X148366296Y-106548278D01*
X148201123Y-106658643D01*
X148201116Y-106658648D01*
X141622594Y-113237171D01*
X141560282Y-113271197D01*
X141489467Y-113266132D01*
X141432631Y-113223585D01*
X141407820Y-113157065D01*
X141407499Y-113148076D01*
X141407499Y-112708963D01*
X141396909Y-112605298D01*
X141382064Y-112560500D01*
X141341255Y-112437342D01*
X141248366Y-112286748D01*
X141248365Y-112286747D01*
X141248364Y-112286745D01*
X141123250Y-112161631D01*
X141059585Y-112122362D01*
X141012107Y-112069576D01*
X141000704Y-111999501D01*
X141028997Y-111934386D01*
X141085501Y-111895717D01*
X141161687Y-111870047D01*
X141482321Y-111721706D01*
X141785030Y-111539572D01*
X142066284Y-111325768D01*
X142074126Y-111318338D01*
X142074127Y-111318336D01*
X140891422Y-110135631D01*
X140996330Y-110059412D01*
X141174412Y-109881330D01*
X141250632Y-109776421D01*
X142430359Y-110956148D01*
X142551481Y-110813551D01*
X142749741Y-110521140D01*
X142749743Y-110521136D01*
X142915223Y-110209005D01*
X142915227Y-110208996D01*
X143045989Y-109880811D01*
X143045990Y-109880808D01*
X143140503Y-109540401D01*
X143140503Y-109540398D01*
X143197657Y-109191769D01*
X143216785Y-108839002D01*
X143216785Y-108838997D01*
X143197657Y-108486230D01*
X143140503Y-108137601D01*
X143140503Y-108137598D01*
X143045990Y-107797191D01*
X143045989Y-107797188D01*
X142915227Y-107469003D01*
X142915223Y-107468994D01*
X142749743Y-107156863D01*
X142749741Y-107156859D01*
X142551482Y-106864449D01*
X142430358Y-106721850D01*
X141250631Y-107901577D01*
X141174412Y-107796670D01*
X140996330Y-107618588D01*
X140891421Y-107542367D01*
X142074126Y-106359662D01*
X142074126Y-106359660D01*
X142066282Y-106352230D01*
X142066276Y-106352225D01*
X141785030Y-106138427D01*
X141482321Y-105956293D01*
X141161683Y-105807950D01*
X141161679Y-105807948D01*
X140826896Y-105695147D01*
X140826882Y-105695143D01*
X140481872Y-105619199D01*
X140481848Y-105619195D01*
X140130651Y-105581000D01*
X139777348Y-105581000D01*
X139426151Y-105619195D01*
X139426127Y-105619199D01*
X139081117Y-105695143D01*
X139081103Y-105695147D01*
X138746320Y-105807948D01*
X138746316Y-105807950D01*
X138425678Y-105956293D01*
X138122969Y-106138427D01*
X137841719Y-106352228D01*
X137841713Y-106352233D01*
X137833871Y-106359661D01*
X139016577Y-107542367D01*
X138911670Y-107618588D01*
X138733588Y-107796670D01*
X138657367Y-107901577D01*
X137477640Y-106721850D01*
X137356517Y-106864449D01*
X137158258Y-107156859D01*
X137158252Y-107156869D01*
X137127822Y-107214268D01*
X137078242Y-107265084D01*
X137009059Y-107281028D01*
X136942238Y-107257038D01*
X136898995Y-107200730D01*
X136890500Y-107155248D01*
X136890500Y-103107500D01*
X136910502Y-103039379D01*
X136964158Y-102992886D01*
X137016500Y-102981500D01*
X146613639Y-102981500D01*
X146681760Y-103001502D01*
G37*
G04 #@! TD.AperFunction*
M02*
