G04 #@! TF.GenerationSoftware,KiCad,Pcbnew,7.0.7*
G04 #@! TF.CreationDate,2023-10-16T20:45:54+02:00*
G04 #@! TF.ProjectId,HeatPumpControl,48656174-5075-46d7-9043-6f6e74726f6c,2.0*
G04 #@! TF.SameCoordinates,Original*
G04 #@! TF.FileFunction,Legend,Bot*
G04 #@! TF.FilePolarity,Positive*
%FSLAX46Y46*%
G04 Gerber Fmt 4.6, Leading zero omitted, Abs format (unit mm)*
G04 Created by KiCad (PCBNEW 7.0.7) date 2023-10-16 20:45:54*
%MOMM*%
%LPD*%
G01*
G04 APERTURE LIST*
%ADD10C,0.150000*%
G04 APERTURE END LIST*
D10*
X147827999Y-106753819D02*
X147827999Y-105753819D01*
X150717237Y-105753819D02*
X150526761Y-105753819D01*
X150526761Y-105753819D02*
X150431523Y-105801438D01*
X150431523Y-105801438D02*
X150336285Y-105896676D01*
X150336285Y-105896676D02*
X150288666Y-106087152D01*
X150288666Y-106087152D02*
X150288666Y-106420485D01*
X150288666Y-106420485D02*
X150336285Y-106610961D01*
X150336285Y-106610961D02*
X150431523Y-106706200D01*
X150431523Y-106706200D02*
X150526761Y-106753819D01*
X150526761Y-106753819D02*
X150717237Y-106753819D01*
X150717237Y-106753819D02*
X150812475Y-106706200D01*
X150812475Y-106706200D02*
X150907713Y-106610961D01*
X150907713Y-106610961D02*
X150955332Y-106420485D01*
X150955332Y-106420485D02*
X150955332Y-106087152D01*
X150955332Y-106087152D02*
X150907713Y-105896676D01*
X150907713Y-105896676D02*
X150812475Y-105801438D01*
X150812475Y-105801438D02*
X150717237Y-105753819D01*
X153352476Y-106007819D02*
X153828666Y-106007819D01*
X153828666Y-106007819D02*
X153876285Y-106484009D01*
X153876285Y-106484009D02*
X153828666Y-106436390D01*
X153828666Y-106436390D02*
X153733428Y-106388771D01*
X153733428Y-106388771D02*
X153495333Y-106388771D01*
X153495333Y-106388771D02*
X153400095Y-106436390D01*
X153400095Y-106436390D02*
X153352476Y-106484009D01*
X153352476Y-106484009D02*
X153304857Y-106579247D01*
X153304857Y-106579247D02*
X153304857Y-106817342D01*
X153304857Y-106817342D02*
X153352476Y-106912580D01*
X153352476Y-106912580D02*
X153400095Y-106960200D01*
X153400095Y-106960200D02*
X153495333Y-107007819D01*
X153495333Y-107007819D02*
X153733428Y-107007819D01*
X153733428Y-107007819D02*
X153828666Y-106960200D01*
X153828666Y-106960200D02*
X153876285Y-106912580D01*
X153019142Y-106007819D02*
X152685809Y-107007819D01*
X152685809Y-107007819D02*
X152352476Y-106007819D01*
X155186095Y-106309438D02*
X155281333Y-106261819D01*
X155281333Y-106261819D02*
X155424190Y-106261819D01*
X155424190Y-106261819D02*
X155567047Y-106309438D01*
X155567047Y-106309438D02*
X155662285Y-106404676D01*
X155662285Y-106404676D02*
X155709904Y-106499914D01*
X155709904Y-106499914D02*
X155757523Y-106690390D01*
X155757523Y-106690390D02*
X155757523Y-106833247D01*
X155757523Y-106833247D02*
X155709904Y-107023723D01*
X155709904Y-107023723D02*
X155662285Y-107118961D01*
X155662285Y-107118961D02*
X155567047Y-107214200D01*
X155567047Y-107214200D02*
X155424190Y-107261819D01*
X155424190Y-107261819D02*
X155328952Y-107261819D01*
X155328952Y-107261819D02*
X155186095Y-107214200D01*
X155186095Y-107214200D02*
X155138476Y-107166580D01*
X155138476Y-107166580D02*
X155138476Y-106833247D01*
X155138476Y-106833247D02*
X155328952Y-106833247D01*
X150693769Y-116452046D02*
X149693769Y-116452046D01*
X150169959Y-116452046D02*
X150169959Y-117023474D01*
X150693769Y-117023474D02*
X149693769Y-117023474D01*
X150646150Y-117880617D02*
X150693769Y-117785379D01*
X150693769Y-117785379D02*
X150693769Y-117594903D01*
X150693769Y-117594903D02*
X150646150Y-117499665D01*
X150646150Y-117499665D02*
X150550911Y-117452046D01*
X150550911Y-117452046D02*
X150169959Y-117452046D01*
X150169959Y-117452046D02*
X150074721Y-117499665D01*
X150074721Y-117499665D02*
X150027102Y-117594903D01*
X150027102Y-117594903D02*
X150027102Y-117785379D01*
X150027102Y-117785379D02*
X150074721Y-117880617D01*
X150074721Y-117880617D02*
X150169959Y-117928236D01*
X150169959Y-117928236D02*
X150265197Y-117928236D01*
X150265197Y-117928236D02*
X150360435Y-117452046D01*
X150693769Y-118785379D02*
X150169959Y-118785379D01*
X150169959Y-118785379D02*
X150074721Y-118737760D01*
X150074721Y-118737760D02*
X150027102Y-118642522D01*
X150027102Y-118642522D02*
X150027102Y-118452046D01*
X150027102Y-118452046D02*
X150074721Y-118356808D01*
X150646150Y-118785379D02*
X150693769Y-118690141D01*
X150693769Y-118690141D02*
X150693769Y-118452046D01*
X150693769Y-118452046D02*
X150646150Y-118356808D01*
X150646150Y-118356808D02*
X150550911Y-118309189D01*
X150550911Y-118309189D02*
X150455673Y-118309189D01*
X150455673Y-118309189D02*
X150360435Y-118356808D01*
X150360435Y-118356808D02*
X150312816Y-118452046D01*
X150312816Y-118452046D02*
X150312816Y-118690141D01*
X150312816Y-118690141D02*
X150265197Y-118785379D01*
X150027102Y-119118713D02*
X150027102Y-119499665D01*
X149693769Y-119261570D02*
X150550911Y-119261570D01*
X150550911Y-119261570D02*
X150646150Y-119309189D01*
X150646150Y-119309189D02*
X150693769Y-119404427D01*
X150693769Y-119404427D02*
X150693769Y-119499665D01*
X150027102Y-120594904D02*
X151027102Y-120594904D01*
X150074721Y-120594904D02*
X150027102Y-120690142D01*
X150027102Y-120690142D02*
X150027102Y-120880618D01*
X150027102Y-120880618D02*
X150074721Y-120975856D01*
X150074721Y-120975856D02*
X150122340Y-121023475D01*
X150122340Y-121023475D02*
X150217578Y-121071094D01*
X150217578Y-121071094D02*
X150503292Y-121071094D01*
X150503292Y-121071094D02*
X150598530Y-121023475D01*
X150598530Y-121023475D02*
X150646150Y-120975856D01*
X150646150Y-120975856D02*
X150693769Y-120880618D01*
X150693769Y-120880618D02*
X150693769Y-120690142D01*
X150693769Y-120690142D02*
X150646150Y-120594904D01*
X150027102Y-121928237D02*
X150693769Y-121928237D01*
X150027102Y-121499666D02*
X150550911Y-121499666D01*
X150550911Y-121499666D02*
X150646150Y-121547285D01*
X150646150Y-121547285D02*
X150693769Y-121642523D01*
X150693769Y-121642523D02*
X150693769Y-121785380D01*
X150693769Y-121785380D02*
X150646150Y-121880618D01*
X150646150Y-121880618D02*
X150598530Y-121928237D01*
X150693769Y-122404428D02*
X150027102Y-122404428D01*
X150122340Y-122404428D02*
X150074721Y-122452047D01*
X150074721Y-122452047D02*
X150027102Y-122547285D01*
X150027102Y-122547285D02*
X150027102Y-122690142D01*
X150027102Y-122690142D02*
X150074721Y-122785380D01*
X150074721Y-122785380D02*
X150169959Y-122832999D01*
X150169959Y-122832999D02*
X150693769Y-122832999D01*
X150169959Y-122832999D02*
X150074721Y-122880618D01*
X150074721Y-122880618D02*
X150027102Y-122975856D01*
X150027102Y-122975856D02*
X150027102Y-123118713D01*
X150027102Y-123118713D02*
X150074721Y-123213952D01*
X150074721Y-123213952D02*
X150169959Y-123261571D01*
X150169959Y-123261571D02*
X150693769Y-123261571D01*
X150027102Y-123737761D02*
X151027102Y-123737761D01*
X150074721Y-123737761D02*
X150027102Y-123832999D01*
X150027102Y-123832999D02*
X150027102Y-124023475D01*
X150027102Y-124023475D02*
X150074721Y-124118713D01*
X150074721Y-124118713D02*
X150122340Y-124166332D01*
X150122340Y-124166332D02*
X150217578Y-124213951D01*
X150217578Y-124213951D02*
X150503292Y-124213951D01*
X150503292Y-124213951D02*
X150598530Y-124166332D01*
X150598530Y-124166332D02*
X150646150Y-124118713D01*
X150646150Y-124118713D02*
X150693769Y-124023475D01*
X150693769Y-124023475D02*
X150693769Y-123832999D01*
X150693769Y-123832999D02*
X150646150Y-123737761D01*
X150646150Y-125832999D02*
X150693769Y-125737761D01*
X150693769Y-125737761D02*
X150693769Y-125547285D01*
X150693769Y-125547285D02*
X150646150Y-125452047D01*
X150646150Y-125452047D02*
X150598530Y-125404428D01*
X150598530Y-125404428D02*
X150503292Y-125356809D01*
X150503292Y-125356809D02*
X150217578Y-125356809D01*
X150217578Y-125356809D02*
X150122340Y-125404428D01*
X150122340Y-125404428D02*
X150074721Y-125452047D01*
X150074721Y-125452047D02*
X150027102Y-125547285D01*
X150027102Y-125547285D02*
X150027102Y-125737761D01*
X150027102Y-125737761D02*
X150074721Y-125832999D01*
X150693769Y-126404428D02*
X150646150Y-126309190D01*
X150646150Y-126309190D02*
X150598530Y-126261571D01*
X150598530Y-126261571D02*
X150503292Y-126213952D01*
X150503292Y-126213952D02*
X150217578Y-126213952D01*
X150217578Y-126213952D02*
X150122340Y-126261571D01*
X150122340Y-126261571D02*
X150074721Y-126309190D01*
X150074721Y-126309190D02*
X150027102Y-126404428D01*
X150027102Y-126404428D02*
X150027102Y-126547285D01*
X150027102Y-126547285D02*
X150074721Y-126642523D01*
X150074721Y-126642523D02*
X150122340Y-126690142D01*
X150122340Y-126690142D02*
X150217578Y-126737761D01*
X150217578Y-126737761D02*
X150503292Y-126737761D01*
X150503292Y-126737761D02*
X150598530Y-126690142D01*
X150598530Y-126690142D02*
X150646150Y-126642523D01*
X150646150Y-126642523D02*
X150693769Y-126547285D01*
X150693769Y-126547285D02*
X150693769Y-126404428D01*
X150027102Y-127166333D02*
X150693769Y-127166333D01*
X150122340Y-127166333D02*
X150074721Y-127213952D01*
X150074721Y-127213952D02*
X150027102Y-127309190D01*
X150027102Y-127309190D02*
X150027102Y-127452047D01*
X150027102Y-127452047D02*
X150074721Y-127547285D01*
X150074721Y-127547285D02*
X150169959Y-127594904D01*
X150169959Y-127594904D02*
X150693769Y-127594904D01*
X150027102Y-127928238D02*
X150027102Y-128309190D01*
X149693769Y-128071095D02*
X150550911Y-128071095D01*
X150550911Y-128071095D02*
X150646150Y-128118714D01*
X150646150Y-128118714D02*
X150693769Y-128213952D01*
X150693769Y-128213952D02*
X150693769Y-128309190D01*
X150693769Y-128642524D02*
X150027102Y-128642524D01*
X150217578Y-128642524D02*
X150122340Y-128690143D01*
X150122340Y-128690143D02*
X150074721Y-128737762D01*
X150074721Y-128737762D02*
X150027102Y-128833000D01*
X150027102Y-128833000D02*
X150027102Y-128928238D01*
X150693769Y-129404429D02*
X150646150Y-129309191D01*
X150646150Y-129309191D02*
X150598530Y-129261572D01*
X150598530Y-129261572D02*
X150503292Y-129213953D01*
X150503292Y-129213953D02*
X150217578Y-129213953D01*
X150217578Y-129213953D02*
X150122340Y-129261572D01*
X150122340Y-129261572D02*
X150074721Y-129309191D01*
X150074721Y-129309191D02*
X150027102Y-129404429D01*
X150027102Y-129404429D02*
X150027102Y-129547286D01*
X150027102Y-129547286D02*
X150074721Y-129642524D01*
X150074721Y-129642524D02*
X150122340Y-129690143D01*
X150122340Y-129690143D02*
X150217578Y-129737762D01*
X150217578Y-129737762D02*
X150503292Y-129737762D01*
X150503292Y-129737762D02*
X150598530Y-129690143D01*
X150598530Y-129690143D02*
X150646150Y-129642524D01*
X150646150Y-129642524D02*
X150693769Y-129547286D01*
X150693769Y-129547286D02*
X150693769Y-129404429D01*
X150693769Y-130309191D02*
X150646150Y-130213953D01*
X150646150Y-130213953D02*
X150550911Y-130166334D01*
X150550911Y-130166334D02*
X149693769Y-130166334D01*
X150693769Y-130833001D02*
X150646150Y-130737763D01*
X150646150Y-130737763D02*
X150550911Y-130690144D01*
X150550911Y-130690144D02*
X149693769Y-130690144D01*
X150646150Y-131594906D02*
X150693769Y-131499668D01*
X150693769Y-131499668D02*
X150693769Y-131309192D01*
X150693769Y-131309192D02*
X150646150Y-131213954D01*
X150646150Y-131213954D02*
X150550911Y-131166335D01*
X150550911Y-131166335D02*
X150169959Y-131166335D01*
X150169959Y-131166335D02*
X150074721Y-131213954D01*
X150074721Y-131213954D02*
X150027102Y-131309192D01*
X150027102Y-131309192D02*
X150027102Y-131499668D01*
X150027102Y-131499668D02*
X150074721Y-131594906D01*
X150074721Y-131594906D02*
X150169959Y-131642525D01*
X150169959Y-131642525D02*
X150265197Y-131642525D01*
X150265197Y-131642525D02*
X150360435Y-131166335D01*
X150693769Y-132071097D02*
X150027102Y-132071097D01*
X150217578Y-132071097D02*
X150122340Y-132118716D01*
X150122340Y-132118716D02*
X150074721Y-132166335D01*
X150074721Y-132166335D02*
X150027102Y-132261573D01*
X150027102Y-132261573D02*
X150027102Y-132356811D01*
X152303769Y-121880619D02*
X151637102Y-121880619D01*
X151827578Y-121880619D02*
X151732340Y-121928238D01*
X151732340Y-121928238D02*
X151684721Y-121975857D01*
X151684721Y-121975857D02*
X151637102Y-122071095D01*
X151637102Y-122071095D02*
X151637102Y-122166333D01*
X152256150Y-122880619D02*
X152303769Y-122785381D01*
X152303769Y-122785381D02*
X152303769Y-122594905D01*
X152303769Y-122594905D02*
X152256150Y-122499667D01*
X152256150Y-122499667D02*
X152160911Y-122452048D01*
X152160911Y-122452048D02*
X151779959Y-122452048D01*
X151779959Y-122452048D02*
X151684721Y-122499667D01*
X151684721Y-122499667D02*
X151637102Y-122594905D01*
X151637102Y-122594905D02*
X151637102Y-122785381D01*
X151637102Y-122785381D02*
X151684721Y-122880619D01*
X151684721Y-122880619D02*
X151779959Y-122928238D01*
X151779959Y-122928238D02*
X151875197Y-122928238D01*
X151875197Y-122928238D02*
X151970435Y-122452048D01*
X151637102Y-123261572D02*
X152303769Y-123499667D01*
X152303769Y-123499667D02*
X151637102Y-123737762D01*
X151399007Y-124833001D02*
X151351388Y-124880620D01*
X151351388Y-124880620D02*
X151303769Y-124975858D01*
X151303769Y-124975858D02*
X151303769Y-125213953D01*
X151303769Y-125213953D02*
X151351388Y-125309191D01*
X151351388Y-125309191D02*
X151399007Y-125356810D01*
X151399007Y-125356810D02*
X151494245Y-125404429D01*
X151494245Y-125404429D02*
X151589483Y-125404429D01*
X151589483Y-125404429D02*
X151732340Y-125356810D01*
X151732340Y-125356810D02*
X152303769Y-124785382D01*
X152303769Y-124785382D02*
X152303769Y-125404429D01*
X152208530Y-125833001D02*
X152256150Y-125880620D01*
X152256150Y-125880620D02*
X152303769Y-125833001D01*
X152303769Y-125833001D02*
X152256150Y-125785382D01*
X152256150Y-125785382D02*
X152208530Y-125833001D01*
X152208530Y-125833001D02*
X152303769Y-125833001D01*
X151303769Y-126499667D02*
X151303769Y-126594905D01*
X151303769Y-126594905D02*
X151351388Y-126690143D01*
X151351388Y-126690143D02*
X151399007Y-126737762D01*
X151399007Y-126737762D02*
X151494245Y-126785381D01*
X151494245Y-126785381D02*
X151684721Y-126833000D01*
X151684721Y-126833000D02*
X151922816Y-126833000D01*
X151922816Y-126833000D02*
X152113292Y-126785381D01*
X152113292Y-126785381D02*
X152208530Y-126737762D01*
X152208530Y-126737762D02*
X152256150Y-126690143D01*
X152256150Y-126690143D02*
X152303769Y-126594905D01*
X152303769Y-126594905D02*
X152303769Y-126499667D01*
X152303769Y-126499667D02*
X152256150Y-126404429D01*
X152256150Y-126404429D02*
X152208530Y-126356810D01*
X152208530Y-126356810D02*
X152113292Y-126309191D01*
X152113292Y-126309191D02*
X151922816Y-126261572D01*
X151922816Y-126261572D02*
X151684721Y-126261572D01*
X151684721Y-126261572D02*
X151494245Y-126309191D01*
X151494245Y-126309191D02*
X151399007Y-126356810D01*
X151399007Y-126356810D02*
X151351388Y-126404429D01*
X151351388Y-126404429D02*
X151303769Y-126499667D01*
X154294721Y-114213951D02*
X154247102Y-114166332D01*
X154247102Y-114166332D02*
X154104245Y-114071094D01*
X154104245Y-114071094D02*
X154009007Y-114023475D01*
X154009007Y-114023475D02*
X153866150Y-113975856D01*
X153866150Y-113975856D02*
X153628054Y-113928237D01*
X153628054Y-113928237D02*
X153437578Y-113928237D01*
X153437578Y-113928237D02*
X153199483Y-113975856D01*
X153199483Y-113975856D02*
X153056626Y-114023475D01*
X153056626Y-114023475D02*
X152961388Y-114071094D01*
X152961388Y-114071094D02*
X152818530Y-114166332D01*
X152818530Y-114166332D02*
X152770911Y-114213951D01*
X153818530Y-115166332D02*
X153866150Y-115118713D01*
X153866150Y-115118713D02*
X153913769Y-114975856D01*
X153913769Y-114975856D02*
X153913769Y-114880618D01*
X153913769Y-114880618D02*
X153866150Y-114737761D01*
X153866150Y-114737761D02*
X153770911Y-114642523D01*
X153770911Y-114642523D02*
X153675673Y-114594904D01*
X153675673Y-114594904D02*
X153485197Y-114547285D01*
X153485197Y-114547285D02*
X153342340Y-114547285D01*
X153342340Y-114547285D02*
X153151864Y-114594904D01*
X153151864Y-114594904D02*
X153056626Y-114642523D01*
X153056626Y-114642523D02*
X152961388Y-114737761D01*
X152961388Y-114737761D02*
X152913769Y-114880618D01*
X152913769Y-114880618D02*
X152913769Y-114975856D01*
X152913769Y-114975856D02*
X152961388Y-115118713D01*
X152961388Y-115118713D02*
X153009007Y-115166332D01*
X154294721Y-115499666D02*
X154247102Y-115547285D01*
X154247102Y-115547285D02*
X154104245Y-115642523D01*
X154104245Y-115642523D02*
X154009007Y-115690142D01*
X154009007Y-115690142D02*
X153866150Y-115737761D01*
X153866150Y-115737761D02*
X153628054Y-115785380D01*
X153628054Y-115785380D02*
X153437578Y-115785380D01*
X153437578Y-115785380D02*
X153199483Y-115737761D01*
X153199483Y-115737761D02*
X153056626Y-115690142D01*
X153056626Y-115690142D02*
X152961388Y-115642523D01*
X152961388Y-115642523D02*
X152818530Y-115547285D01*
X152818530Y-115547285D02*
X152770911Y-115499666D01*
X153009007Y-116975857D02*
X152961388Y-117023476D01*
X152961388Y-117023476D02*
X152913769Y-117118714D01*
X152913769Y-117118714D02*
X152913769Y-117356809D01*
X152913769Y-117356809D02*
X152961388Y-117452047D01*
X152961388Y-117452047D02*
X153009007Y-117499666D01*
X153009007Y-117499666D02*
X153104245Y-117547285D01*
X153104245Y-117547285D02*
X153199483Y-117547285D01*
X153199483Y-117547285D02*
X153342340Y-117499666D01*
X153342340Y-117499666D02*
X153913769Y-116928238D01*
X153913769Y-116928238D02*
X153913769Y-117547285D01*
X152913769Y-118166333D02*
X152913769Y-118261571D01*
X152913769Y-118261571D02*
X152961388Y-118356809D01*
X152961388Y-118356809D02*
X153009007Y-118404428D01*
X153009007Y-118404428D02*
X153104245Y-118452047D01*
X153104245Y-118452047D02*
X153294721Y-118499666D01*
X153294721Y-118499666D02*
X153532816Y-118499666D01*
X153532816Y-118499666D02*
X153723292Y-118452047D01*
X153723292Y-118452047D02*
X153818530Y-118404428D01*
X153818530Y-118404428D02*
X153866150Y-118356809D01*
X153866150Y-118356809D02*
X153913769Y-118261571D01*
X153913769Y-118261571D02*
X153913769Y-118166333D01*
X153913769Y-118166333D02*
X153866150Y-118071095D01*
X153866150Y-118071095D02*
X153818530Y-118023476D01*
X153818530Y-118023476D02*
X153723292Y-117975857D01*
X153723292Y-117975857D02*
X153532816Y-117928238D01*
X153532816Y-117928238D02*
X153294721Y-117928238D01*
X153294721Y-117928238D02*
X153104245Y-117975857D01*
X153104245Y-117975857D02*
X153009007Y-118023476D01*
X153009007Y-118023476D02*
X152961388Y-118071095D01*
X152961388Y-118071095D02*
X152913769Y-118166333D01*
X153009007Y-118880619D02*
X152961388Y-118928238D01*
X152961388Y-118928238D02*
X152913769Y-119023476D01*
X152913769Y-119023476D02*
X152913769Y-119261571D01*
X152913769Y-119261571D02*
X152961388Y-119356809D01*
X152961388Y-119356809D02*
X153009007Y-119404428D01*
X153009007Y-119404428D02*
X153104245Y-119452047D01*
X153104245Y-119452047D02*
X153199483Y-119452047D01*
X153199483Y-119452047D02*
X153342340Y-119404428D01*
X153342340Y-119404428D02*
X153913769Y-118833000D01*
X153913769Y-118833000D02*
X153913769Y-119452047D01*
X152913769Y-119785381D02*
X152913769Y-120404428D01*
X152913769Y-120404428D02*
X153294721Y-120071095D01*
X153294721Y-120071095D02*
X153294721Y-120213952D01*
X153294721Y-120213952D02*
X153342340Y-120309190D01*
X153342340Y-120309190D02*
X153389959Y-120356809D01*
X153389959Y-120356809D02*
X153485197Y-120404428D01*
X153485197Y-120404428D02*
X153723292Y-120404428D01*
X153723292Y-120404428D02*
X153818530Y-120356809D01*
X153818530Y-120356809D02*
X153866150Y-120309190D01*
X153866150Y-120309190D02*
X153913769Y-120213952D01*
X153913769Y-120213952D02*
X153913769Y-119928238D01*
X153913769Y-119928238D02*
X153866150Y-119833000D01*
X153866150Y-119833000D02*
X153818530Y-119785381D01*
X153532816Y-121594905D02*
X153532816Y-122356810D01*
X153913769Y-123594905D02*
X152913769Y-123594905D01*
X153389959Y-123594905D02*
X153389959Y-124166333D01*
X153913769Y-124166333D02*
X152913769Y-124166333D01*
X153913769Y-125071095D02*
X153389959Y-125071095D01*
X153389959Y-125071095D02*
X153294721Y-125023476D01*
X153294721Y-125023476D02*
X153247102Y-124928238D01*
X153247102Y-124928238D02*
X153247102Y-124737762D01*
X153247102Y-124737762D02*
X153294721Y-124642524D01*
X153866150Y-125071095D02*
X153913769Y-124975857D01*
X153913769Y-124975857D02*
X153913769Y-124737762D01*
X153913769Y-124737762D02*
X153866150Y-124642524D01*
X153866150Y-124642524D02*
X153770911Y-124594905D01*
X153770911Y-124594905D02*
X153675673Y-124594905D01*
X153675673Y-124594905D02*
X153580435Y-124642524D01*
X153580435Y-124642524D02*
X153532816Y-124737762D01*
X153532816Y-124737762D02*
X153532816Y-124975857D01*
X153532816Y-124975857D02*
X153485197Y-125071095D01*
X153247102Y-125547286D02*
X153913769Y-125547286D01*
X153342340Y-125547286D02*
X153294721Y-125594905D01*
X153294721Y-125594905D02*
X153247102Y-125690143D01*
X153247102Y-125690143D02*
X153247102Y-125833000D01*
X153247102Y-125833000D02*
X153294721Y-125928238D01*
X153294721Y-125928238D02*
X153389959Y-125975857D01*
X153389959Y-125975857D02*
X153913769Y-125975857D01*
X153866150Y-126404429D02*
X153913769Y-126499667D01*
X153913769Y-126499667D02*
X153913769Y-126690143D01*
X153913769Y-126690143D02*
X153866150Y-126785381D01*
X153866150Y-126785381D02*
X153770911Y-126833000D01*
X153770911Y-126833000D02*
X153723292Y-126833000D01*
X153723292Y-126833000D02*
X153628054Y-126785381D01*
X153628054Y-126785381D02*
X153580435Y-126690143D01*
X153580435Y-126690143D02*
X153580435Y-126547286D01*
X153580435Y-126547286D02*
X153532816Y-126452048D01*
X153532816Y-126452048D02*
X153437578Y-126404429D01*
X153437578Y-126404429D02*
X153389959Y-126404429D01*
X153389959Y-126404429D02*
X153294721Y-126452048D01*
X153294721Y-126452048D02*
X153247102Y-126547286D01*
X153247102Y-126547286D02*
X153247102Y-126690143D01*
X153247102Y-126690143D02*
X153294721Y-126785381D01*
X153913769Y-128594905D02*
X153437578Y-128261572D01*
X153913769Y-128023477D02*
X152913769Y-128023477D01*
X152913769Y-128023477D02*
X152913769Y-128404429D01*
X152913769Y-128404429D02*
X152961388Y-128499667D01*
X152961388Y-128499667D02*
X153009007Y-128547286D01*
X153009007Y-128547286D02*
X153104245Y-128594905D01*
X153104245Y-128594905D02*
X153247102Y-128594905D01*
X153247102Y-128594905D02*
X153342340Y-128547286D01*
X153342340Y-128547286D02*
X153389959Y-128499667D01*
X153389959Y-128499667D02*
X153437578Y-128404429D01*
X153437578Y-128404429D02*
X153437578Y-128023477D01*
X153247102Y-129452048D02*
X153913769Y-129452048D01*
X153247102Y-129023477D02*
X153770911Y-129023477D01*
X153770911Y-129023477D02*
X153866150Y-129071096D01*
X153866150Y-129071096D02*
X153913769Y-129166334D01*
X153913769Y-129166334D02*
X153913769Y-129309191D01*
X153913769Y-129309191D02*
X153866150Y-129404429D01*
X153866150Y-129404429D02*
X153818530Y-129452048D01*
X153247102Y-129928239D02*
X153913769Y-129928239D01*
X153342340Y-129928239D02*
X153294721Y-129975858D01*
X153294721Y-129975858D02*
X153247102Y-130071096D01*
X153247102Y-130071096D02*
X153247102Y-130213953D01*
X153247102Y-130213953D02*
X153294721Y-130309191D01*
X153294721Y-130309191D02*
X153389959Y-130356810D01*
X153389959Y-130356810D02*
X153913769Y-130356810D01*
X153866150Y-131213953D02*
X153913769Y-131118715D01*
X153913769Y-131118715D02*
X153913769Y-130928239D01*
X153913769Y-130928239D02*
X153866150Y-130833001D01*
X153866150Y-130833001D02*
X153770911Y-130785382D01*
X153770911Y-130785382D02*
X153389959Y-130785382D01*
X153389959Y-130785382D02*
X153294721Y-130833001D01*
X153294721Y-130833001D02*
X153247102Y-130928239D01*
X153247102Y-130928239D02*
X153247102Y-131118715D01*
X153247102Y-131118715D02*
X153294721Y-131213953D01*
X153294721Y-131213953D02*
X153389959Y-131261572D01*
X153389959Y-131261572D02*
X153485197Y-131261572D01*
X153485197Y-131261572D02*
X153580435Y-130785382D01*
X153389959Y-132785382D02*
X153437578Y-132928239D01*
X153437578Y-132928239D02*
X153485197Y-132975858D01*
X153485197Y-132975858D02*
X153580435Y-133023477D01*
X153580435Y-133023477D02*
X153723292Y-133023477D01*
X153723292Y-133023477D02*
X153818530Y-132975858D01*
X153818530Y-132975858D02*
X153866150Y-132928239D01*
X153866150Y-132928239D02*
X153913769Y-132833001D01*
X153913769Y-132833001D02*
X153913769Y-132452049D01*
X153913769Y-132452049D02*
X152913769Y-132452049D01*
X152913769Y-132452049D02*
X152913769Y-132785382D01*
X152913769Y-132785382D02*
X152961388Y-132880620D01*
X152961388Y-132880620D02*
X153009007Y-132928239D01*
X153009007Y-132928239D02*
X153104245Y-132975858D01*
X153104245Y-132975858D02*
X153199483Y-132975858D01*
X153199483Y-132975858D02*
X153294721Y-132928239D01*
X153294721Y-132928239D02*
X153342340Y-132880620D01*
X153342340Y-132880620D02*
X153389959Y-132785382D01*
X153389959Y-132785382D02*
X153389959Y-132452049D01*
X153247102Y-133880620D02*
X153913769Y-133880620D01*
X153247102Y-133452049D02*
X153770911Y-133452049D01*
X153770911Y-133452049D02*
X153866150Y-133499668D01*
X153866150Y-133499668D02*
X153913769Y-133594906D01*
X153913769Y-133594906D02*
X153913769Y-133737763D01*
X153913769Y-133737763D02*
X153866150Y-133833001D01*
X153866150Y-133833001D02*
X153818530Y-133880620D01*
X153866150Y-134737763D02*
X153913769Y-134642525D01*
X153913769Y-134642525D02*
X153913769Y-134452049D01*
X153913769Y-134452049D02*
X153866150Y-134356811D01*
X153866150Y-134356811D02*
X153770911Y-134309192D01*
X153770911Y-134309192D02*
X153389959Y-134309192D01*
X153389959Y-134309192D02*
X153294721Y-134356811D01*
X153294721Y-134356811D02*
X153247102Y-134452049D01*
X153247102Y-134452049D02*
X153247102Y-134642525D01*
X153247102Y-134642525D02*
X153294721Y-134737763D01*
X153294721Y-134737763D02*
X153389959Y-134785382D01*
X153389959Y-134785382D02*
X153485197Y-134785382D01*
X153485197Y-134785382D02*
X153580435Y-134309192D01*
X154857102Y-116594905D02*
X155142816Y-115833000D01*
X155142816Y-115833000D02*
X155428530Y-116594905D01*
X155476150Y-117452047D02*
X155523769Y-117356809D01*
X155523769Y-117356809D02*
X155523769Y-117166333D01*
X155523769Y-117166333D02*
X155476150Y-117071095D01*
X155476150Y-117071095D02*
X155380911Y-117023476D01*
X155380911Y-117023476D02*
X154999959Y-117023476D01*
X154999959Y-117023476D02*
X154904721Y-117071095D01*
X154904721Y-117071095D02*
X154857102Y-117166333D01*
X154857102Y-117166333D02*
X154857102Y-117356809D01*
X154857102Y-117356809D02*
X154904721Y-117452047D01*
X154904721Y-117452047D02*
X154999959Y-117499666D01*
X154999959Y-117499666D02*
X155095197Y-117499666D01*
X155095197Y-117499666D02*
X155190435Y-117023476D01*
X155523769Y-117928238D02*
X154857102Y-117928238D01*
X154952340Y-117928238D02*
X154904721Y-117975857D01*
X154904721Y-117975857D02*
X154857102Y-118071095D01*
X154857102Y-118071095D02*
X154857102Y-118213952D01*
X154857102Y-118213952D02*
X154904721Y-118309190D01*
X154904721Y-118309190D02*
X154999959Y-118356809D01*
X154999959Y-118356809D02*
X155523769Y-118356809D01*
X154999959Y-118356809D02*
X154904721Y-118404428D01*
X154904721Y-118404428D02*
X154857102Y-118499666D01*
X154857102Y-118499666D02*
X154857102Y-118642523D01*
X154857102Y-118642523D02*
X154904721Y-118737762D01*
X154904721Y-118737762D02*
X154999959Y-118785381D01*
X154999959Y-118785381D02*
X155523769Y-118785381D01*
X155523769Y-119690142D02*
X154999959Y-119690142D01*
X154999959Y-119690142D02*
X154904721Y-119642523D01*
X154904721Y-119642523D02*
X154857102Y-119547285D01*
X154857102Y-119547285D02*
X154857102Y-119356809D01*
X154857102Y-119356809D02*
X154904721Y-119261571D01*
X155476150Y-119690142D02*
X155523769Y-119594904D01*
X155523769Y-119594904D02*
X155523769Y-119356809D01*
X155523769Y-119356809D02*
X155476150Y-119261571D01*
X155476150Y-119261571D02*
X155380911Y-119213952D01*
X155380911Y-119213952D02*
X155285673Y-119213952D01*
X155285673Y-119213952D02*
X155190435Y-119261571D01*
X155190435Y-119261571D02*
X155142816Y-119356809D01*
X155142816Y-119356809D02*
X155142816Y-119594904D01*
X155142816Y-119594904D02*
X155095197Y-119690142D01*
X155523769Y-120166333D02*
X154857102Y-120166333D01*
X154523769Y-120166333D02*
X154571388Y-120118714D01*
X154571388Y-120118714D02*
X154619007Y-120166333D01*
X154619007Y-120166333D02*
X154571388Y-120213952D01*
X154571388Y-120213952D02*
X154523769Y-120166333D01*
X154523769Y-120166333D02*
X154619007Y-120166333D01*
X155523769Y-120785380D02*
X155476150Y-120690142D01*
X155476150Y-120690142D02*
X155380911Y-120642523D01*
X155380911Y-120642523D02*
X154523769Y-120642523D01*
X155047578Y-121785380D02*
X154999959Y-121737761D01*
X154999959Y-121737761D02*
X154952340Y-121642523D01*
X154952340Y-121642523D02*
X154952340Y-121547285D01*
X154952340Y-121547285D02*
X154999959Y-121452047D01*
X154999959Y-121452047D02*
X155047578Y-121404428D01*
X155047578Y-121404428D02*
X155142816Y-121356809D01*
X155142816Y-121356809D02*
X155238054Y-121356809D01*
X155238054Y-121356809D02*
X155333292Y-121404428D01*
X155333292Y-121404428D02*
X155380911Y-121452047D01*
X155380911Y-121452047D02*
X155428530Y-121547285D01*
X155428530Y-121547285D02*
X155428530Y-121642523D01*
X155428530Y-121642523D02*
X155380911Y-121737761D01*
X155380911Y-121737761D02*
X155333292Y-121785380D01*
X154952340Y-121785380D02*
X155333292Y-121785380D01*
X155333292Y-121785380D02*
X155380911Y-121832999D01*
X155380911Y-121832999D02*
X155380911Y-121880618D01*
X155380911Y-121880618D02*
X155333292Y-121975857D01*
X155333292Y-121975857D02*
X155238054Y-122023476D01*
X155238054Y-122023476D02*
X154999959Y-122023476D01*
X154999959Y-122023476D02*
X154857102Y-121928238D01*
X154857102Y-121928238D02*
X154761864Y-121785380D01*
X154761864Y-121785380D02*
X154714245Y-121594904D01*
X154714245Y-121594904D02*
X154761864Y-121404428D01*
X154761864Y-121404428D02*
X154857102Y-121261571D01*
X154857102Y-121261571D02*
X154999959Y-121166333D01*
X154999959Y-121166333D02*
X155190435Y-121118714D01*
X155190435Y-121118714D02*
X155380911Y-121166333D01*
X155380911Y-121166333D02*
X155523769Y-121261571D01*
X155523769Y-121261571D02*
X155619007Y-121404428D01*
X155619007Y-121404428D02*
X155666626Y-121594904D01*
X155666626Y-121594904D02*
X155619007Y-121785380D01*
X155619007Y-121785380D02*
X155523769Y-121928238D01*
X155523769Y-122452047D02*
X154523769Y-122452047D01*
X155523769Y-122880618D02*
X154999959Y-122880618D01*
X154999959Y-122880618D02*
X154904721Y-122832999D01*
X154904721Y-122832999D02*
X154857102Y-122737761D01*
X154857102Y-122737761D02*
X154857102Y-122594904D01*
X154857102Y-122594904D02*
X154904721Y-122499666D01*
X154904721Y-122499666D02*
X154952340Y-122452047D01*
X155523769Y-123785380D02*
X154999959Y-123785380D01*
X154999959Y-123785380D02*
X154904721Y-123737761D01*
X154904721Y-123737761D02*
X154857102Y-123642523D01*
X154857102Y-123642523D02*
X154857102Y-123452047D01*
X154857102Y-123452047D02*
X154904721Y-123356809D01*
X155476150Y-123785380D02*
X155523769Y-123690142D01*
X155523769Y-123690142D02*
X155523769Y-123452047D01*
X155523769Y-123452047D02*
X155476150Y-123356809D01*
X155476150Y-123356809D02*
X155380911Y-123309190D01*
X155380911Y-123309190D02*
X155285673Y-123309190D01*
X155285673Y-123309190D02*
X155190435Y-123356809D01*
X155190435Y-123356809D02*
X155142816Y-123452047D01*
X155142816Y-123452047D02*
X155142816Y-123690142D01*
X155142816Y-123690142D02*
X155095197Y-123785380D01*
X154857102Y-124261571D02*
X155523769Y-124261571D01*
X154952340Y-124261571D02*
X154904721Y-124309190D01*
X154904721Y-124309190D02*
X154857102Y-124404428D01*
X154857102Y-124404428D02*
X154857102Y-124547285D01*
X154857102Y-124547285D02*
X154904721Y-124642523D01*
X154904721Y-124642523D02*
X154999959Y-124690142D01*
X154999959Y-124690142D02*
X155523769Y-124690142D01*
X155476150Y-125118714D02*
X155523769Y-125213952D01*
X155523769Y-125213952D02*
X155523769Y-125404428D01*
X155523769Y-125404428D02*
X155476150Y-125499666D01*
X155476150Y-125499666D02*
X155380911Y-125547285D01*
X155380911Y-125547285D02*
X155333292Y-125547285D01*
X155333292Y-125547285D02*
X155238054Y-125499666D01*
X155238054Y-125499666D02*
X155190435Y-125404428D01*
X155190435Y-125404428D02*
X155190435Y-125261571D01*
X155190435Y-125261571D02*
X155142816Y-125166333D01*
X155142816Y-125166333D02*
X155047578Y-125118714D01*
X155047578Y-125118714D02*
X154999959Y-125118714D01*
X154999959Y-125118714D02*
X154904721Y-125166333D01*
X154904721Y-125166333D02*
X154857102Y-125261571D01*
X154857102Y-125261571D02*
X154857102Y-125404428D01*
X154857102Y-125404428D02*
X154904721Y-125499666D01*
X155523769Y-125975857D02*
X154857102Y-125975857D01*
X155047578Y-125975857D02*
X154952340Y-126023476D01*
X154952340Y-126023476D02*
X154904721Y-126071095D01*
X154904721Y-126071095D02*
X154857102Y-126166333D01*
X154857102Y-126166333D02*
X154857102Y-126261571D01*
X154857102Y-127023476D02*
X155523769Y-127023476D01*
X154857102Y-126594905D02*
X155380911Y-126594905D01*
X155380911Y-126594905D02*
X155476150Y-126642524D01*
X155476150Y-126642524D02*
X155523769Y-126737762D01*
X155523769Y-126737762D02*
X155523769Y-126880619D01*
X155523769Y-126880619D02*
X155476150Y-126975857D01*
X155476150Y-126975857D02*
X155428530Y-127023476D01*
X154857102Y-127499667D02*
X155523769Y-127499667D01*
X154952340Y-127499667D02*
X154904721Y-127547286D01*
X154904721Y-127547286D02*
X154857102Y-127642524D01*
X154857102Y-127642524D02*
X154857102Y-127785381D01*
X154857102Y-127785381D02*
X154904721Y-127880619D01*
X154904721Y-127880619D02*
X154999959Y-127928238D01*
X154999959Y-127928238D02*
X155523769Y-127928238D01*
X155476150Y-128785381D02*
X155523769Y-128690143D01*
X155523769Y-128690143D02*
X155523769Y-128499667D01*
X155523769Y-128499667D02*
X155476150Y-128404429D01*
X155476150Y-128404429D02*
X155380911Y-128356810D01*
X155380911Y-128356810D02*
X154999959Y-128356810D01*
X154999959Y-128356810D02*
X154904721Y-128404429D01*
X154904721Y-128404429D02*
X154857102Y-128499667D01*
X154857102Y-128499667D02*
X154857102Y-128690143D01*
X154857102Y-128690143D02*
X154904721Y-128785381D01*
X154904721Y-128785381D02*
X154999959Y-128833000D01*
X154999959Y-128833000D02*
X155095197Y-128833000D01*
X155095197Y-128833000D02*
X155190435Y-128356810D01*
X155428530Y-129261572D02*
X155476150Y-129309191D01*
X155476150Y-129309191D02*
X155523769Y-129261572D01*
X155523769Y-129261572D02*
X155476150Y-129213953D01*
X155476150Y-129213953D02*
X155428530Y-129261572D01*
X155428530Y-129261572D02*
X155523769Y-129261572D01*
X154857102Y-129737762D02*
X155523769Y-129737762D01*
X154952340Y-129737762D02*
X154904721Y-129785381D01*
X154904721Y-129785381D02*
X154857102Y-129880619D01*
X154857102Y-129880619D02*
X154857102Y-130023476D01*
X154857102Y-130023476D02*
X154904721Y-130118714D01*
X154904721Y-130118714D02*
X154999959Y-130166333D01*
X154999959Y-130166333D02*
X155523769Y-130166333D01*
X155476150Y-131023476D02*
X155523769Y-130928238D01*
X155523769Y-130928238D02*
X155523769Y-130737762D01*
X155523769Y-130737762D02*
X155476150Y-130642524D01*
X155476150Y-130642524D02*
X155380911Y-130594905D01*
X155380911Y-130594905D02*
X154999959Y-130594905D01*
X154999959Y-130594905D02*
X154904721Y-130642524D01*
X154904721Y-130642524D02*
X154857102Y-130737762D01*
X154857102Y-130737762D02*
X154857102Y-130928238D01*
X154857102Y-130928238D02*
X154904721Y-131023476D01*
X154904721Y-131023476D02*
X154999959Y-131071095D01*
X154999959Y-131071095D02*
X155095197Y-131071095D01*
X155095197Y-131071095D02*
X155190435Y-130594905D01*
X154857102Y-131356810D02*
X154857102Y-131737762D01*
X154523769Y-131499667D02*
X155380911Y-131499667D01*
X155380911Y-131499667D02*
X155476150Y-131547286D01*
X155476150Y-131547286D02*
X155523769Y-131642524D01*
X155523769Y-131642524D02*
X155523769Y-131737762D01*
X154857102Y-132071096D02*
X155142816Y-132833001D01*
X155142816Y-132833001D02*
X155428530Y-132071096D01*
M02*
