G04 #@! TF.GenerationSoftware,KiCad,Pcbnew,8.0.3*
G04 #@! TF.CreationDate,2024-06-21T14:32:02+02:00*
G04 #@! TF.ProjectId,HeatPumpControl,48656174-5075-46d7-9043-6f6e74726f6c,2.0*
G04 #@! TF.SameCoordinates,Original*
G04 #@! TF.FileFunction,Soldermask,Top*
G04 #@! TF.FilePolarity,Negative*
%FSLAX46Y46*%
G04 Gerber Fmt 4.6, Leading zero omitted, Abs format (unit mm)*
G04 Created by KiCad (PCBNEW 8.0.3) date 2024-06-21 14:32:02*
%MOMM*%
%LPD*%
G01*
G04 APERTURE LIST*
G04 APERTURE END LIST*
G36*
X140440389Y-136052553D02*
G01*
X140757336Y-136127671D01*
X141063419Y-136239077D01*
X141354500Y-136385263D01*
X141626641Y-136564253D01*
X141876163Y-136773626D01*
X142099690Y-137010552D01*
X142294201Y-137271825D01*
X142457065Y-137553913D01*
X142586079Y-137853002D01*
X142679499Y-138165045D01*
X142736061Y-138485824D01*
X142755000Y-138811000D01*
X142736061Y-139136176D01*
X142679499Y-139456955D01*
X142586079Y-139768998D01*
X142457065Y-140068087D01*
X142294201Y-140350175D01*
X142099690Y-140611448D01*
X141876163Y-140848374D01*
X141626641Y-141057747D01*
X141354500Y-141236737D01*
X141063419Y-141382923D01*
X140757336Y-141494329D01*
X140440389Y-141569447D01*
X140116864Y-141607261D01*
X139791136Y-141607261D01*
X139467611Y-141569447D01*
X139150664Y-141494329D01*
X138844581Y-141382923D01*
X138553500Y-141236737D01*
X138281359Y-141057747D01*
X138031837Y-140848374D01*
X137808310Y-140611448D01*
X137613799Y-140350175D01*
X137450935Y-140068087D01*
X137321921Y-139768998D01*
X137228501Y-139456955D01*
X137171939Y-139136176D01*
X137153000Y-138811000D01*
X137171939Y-138485824D01*
X137228501Y-138165045D01*
X137321921Y-137853002D01*
X137450935Y-137553913D01*
X137613799Y-137271825D01*
X137808310Y-137010552D01*
X138031837Y-136773626D01*
X138281359Y-136564253D01*
X138553500Y-136385263D01*
X138844581Y-136239077D01*
X139150664Y-136127671D01*
X139467611Y-136052553D01*
X139791136Y-136014739D01*
X140116864Y-136014739D01*
X140440389Y-136052553D01*
G37*
G36*
X166348389Y-136052553D02*
G01*
X166665336Y-136127671D01*
X166971419Y-136239077D01*
X167262500Y-136385263D01*
X167534641Y-136564253D01*
X167784163Y-136773626D01*
X168007690Y-137010552D01*
X168202201Y-137271825D01*
X168365065Y-137553913D01*
X168494079Y-137853002D01*
X168587499Y-138165045D01*
X168644061Y-138485824D01*
X168663000Y-138811000D01*
X168644061Y-139136176D01*
X168587499Y-139456955D01*
X168494079Y-139768998D01*
X168365065Y-140068087D01*
X168202201Y-140350175D01*
X168007690Y-140611448D01*
X167784163Y-140848374D01*
X167534641Y-141057747D01*
X167262500Y-141236737D01*
X166971419Y-141382923D01*
X166665336Y-141494329D01*
X166348389Y-141569447D01*
X166024864Y-141607261D01*
X165699136Y-141607261D01*
X165375611Y-141569447D01*
X165058664Y-141494329D01*
X164752581Y-141382923D01*
X164461500Y-141236737D01*
X164189359Y-141057747D01*
X163939837Y-140848374D01*
X163716310Y-140611448D01*
X163521799Y-140350175D01*
X163358935Y-140068087D01*
X163229921Y-139768998D01*
X163136501Y-139456955D01*
X163079939Y-139136176D01*
X163061000Y-138811000D01*
X163079939Y-138485824D01*
X163136501Y-138165045D01*
X163229921Y-137853002D01*
X163358935Y-137553913D01*
X163521799Y-137271825D01*
X163716310Y-137010552D01*
X163939837Y-136773626D01*
X164189359Y-136564253D01*
X164461500Y-136385263D01*
X164752581Y-136239077D01*
X165058664Y-136127671D01*
X165375611Y-136052553D01*
X165699136Y-136014739D01*
X166024864Y-136014739D01*
X166348389Y-136052553D01*
G37*
G36*
X148516914Y-138321995D02*
G01*
X148532726Y-138328976D01*
X148540531Y-138330213D01*
X148573039Y-138346776D01*
X148618106Y-138366676D01*
X148696324Y-138444894D01*
X148716226Y-138489967D01*
X148732786Y-138522468D01*
X148734021Y-138530270D01*
X148741005Y-138546086D01*
X148749000Y-138615000D01*
X148749000Y-139515000D01*
X148741005Y-139583914D01*
X148734021Y-139599729D01*
X148732786Y-139607531D01*
X148716229Y-139640024D01*
X148696324Y-139685106D01*
X148618106Y-139763324D01*
X148573024Y-139783229D01*
X148540531Y-139799786D01*
X148532729Y-139801021D01*
X148516914Y-139808005D01*
X148448000Y-139816000D01*
X147923000Y-139816000D01*
X147854086Y-139808005D01*
X147838270Y-139801021D01*
X147830468Y-139799786D01*
X147797967Y-139783226D01*
X147752894Y-139763324D01*
X147674676Y-139685106D01*
X147654776Y-139640039D01*
X147638213Y-139607531D01*
X147636976Y-139599726D01*
X147629995Y-139583914D01*
X147622000Y-139515000D01*
X147622000Y-138615000D01*
X147629995Y-138546086D01*
X147636976Y-138530274D01*
X147638213Y-138522468D01*
X147654780Y-138489953D01*
X147674676Y-138444894D01*
X147752894Y-138366676D01*
X147797953Y-138346780D01*
X147830468Y-138330213D01*
X147838274Y-138328976D01*
X147854086Y-138321995D01*
X147923000Y-138314000D01*
X148448000Y-138314000D01*
X148516914Y-138321995D01*
G37*
G36*
X150341914Y-138321995D02*
G01*
X150357726Y-138328976D01*
X150365531Y-138330213D01*
X150398039Y-138346776D01*
X150443106Y-138366676D01*
X150521324Y-138444894D01*
X150541226Y-138489967D01*
X150557786Y-138522468D01*
X150559021Y-138530270D01*
X150566005Y-138546086D01*
X150574000Y-138615000D01*
X150574000Y-139515000D01*
X150566005Y-139583914D01*
X150559021Y-139599729D01*
X150557786Y-139607531D01*
X150541229Y-139640024D01*
X150521324Y-139685106D01*
X150443106Y-139763324D01*
X150398024Y-139783229D01*
X150365531Y-139799786D01*
X150357729Y-139801021D01*
X150341914Y-139808005D01*
X150273000Y-139816000D01*
X149748000Y-139816000D01*
X149679086Y-139808005D01*
X149663270Y-139801021D01*
X149655468Y-139799786D01*
X149622967Y-139783226D01*
X149577894Y-139763324D01*
X149499676Y-139685106D01*
X149479776Y-139640039D01*
X149463213Y-139607531D01*
X149461976Y-139599726D01*
X149454995Y-139583914D01*
X149447000Y-139515000D01*
X149447000Y-138615000D01*
X149454995Y-138546086D01*
X149461976Y-138530274D01*
X149463213Y-138522468D01*
X149479780Y-138489953D01*
X149499676Y-138444894D01*
X149577894Y-138366676D01*
X149622953Y-138346780D01*
X149655468Y-138330213D01*
X149663274Y-138328976D01*
X149679086Y-138321995D01*
X149748000Y-138314000D01*
X150273000Y-138314000D01*
X150341914Y-138321995D01*
G37*
G36*
X152896914Y-137917995D02*
G01*
X152912726Y-137924976D01*
X152920531Y-137926213D01*
X152953039Y-137942776D01*
X152998106Y-137962676D01*
X153076324Y-138040894D01*
X153096226Y-138085967D01*
X153112786Y-138118468D01*
X153114021Y-138126270D01*
X153121005Y-138142086D01*
X153129000Y-138211000D01*
X153129000Y-139411000D01*
X153121005Y-139479914D01*
X153114021Y-139495729D01*
X153112786Y-139503531D01*
X153096229Y-139536024D01*
X153076324Y-139581106D01*
X152998106Y-139659324D01*
X152953024Y-139679229D01*
X152920531Y-139695786D01*
X152912729Y-139697021D01*
X152896914Y-139704005D01*
X152828000Y-139712000D01*
X152028000Y-139712000D01*
X151959086Y-139704005D01*
X151943270Y-139697021D01*
X151935468Y-139695786D01*
X151902967Y-139679226D01*
X151857894Y-139659324D01*
X151779676Y-139581106D01*
X151759776Y-139536039D01*
X151743213Y-139503531D01*
X151741976Y-139495726D01*
X151734995Y-139479914D01*
X151727000Y-139411000D01*
X151727000Y-138211000D01*
X151734995Y-138142086D01*
X151741976Y-138126274D01*
X151743213Y-138118468D01*
X151759780Y-138085953D01*
X151779676Y-138040894D01*
X151857894Y-137962676D01*
X151902953Y-137942780D01*
X151935468Y-137926213D01*
X151943274Y-137924976D01*
X151959086Y-137917995D01*
X152028000Y-137910000D01*
X152828000Y-137910000D01*
X152896914Y-137917995D01*
G37*
G36*
X156396914Y-137917995D02*
G01*
X156412726Y-137924976D01*
X156420531Y-137926213D01*
X156453039Y-137942776D01*
X156498106Y-137962676D01*
X156576324Y-138040894D01*
X156596226Y-138085967D01*
X156612786Y-138118468D01*
X156614021Y-138126270D01*
X156621005Y-138142086D01*
X156629000Y-138211000D01*
X156629000Y-139411000D01*
X156621005Y-139479914D01*
X156614021Y-139495729D01*
X156612786Y-139503531D01*
X156596229Y-139536024D01*
X156576324Y-139581106D01*
X156498106Y-139659324D01*
X156453024Y-139679229D01*
X156420531Y-139695786D01*
X156412729Y-139697021D01*
X156396914Y-139704005D01*
X156328000Y-139712000D01*
X155528000Y-139712000D01*
X155459086Y-139704005D01*
X155443270Y-139697021D01*
X155435468Y-139695786D01*
X155402967Y-139679226D01*
X155357894Y-139659324D01*
X155279676Y-139581106D01*
X155259776Y-139536039D01*
X155243213Y-139503531D01*
X155241976Y-139495726D01*
X155234995Y-139479914D01*
X155227000Y-139411000D01*
X155227000Y-138211000D01*
X155234995Y-138142086D01*
X155241976Y-138126274D01*
X155243213Y-138118468D01*
X155259780Y-138085953D01*
X155279676Y-138040894D01*
X155357894Y-137962676D01*
X155402953Y-137942780D01*
X155435468Y-137926213D01*
X155443274Y-137924976D01*
X155459086Y-137917995D01*
X155528000Y-137910000D01*
X156328000Y-137910000D01*
X156396914Y-137917995D01*
G37*
G36*
X160061199Y-137989562D02*
G01*
X160108954Y-137989562D01*
X160150194Y-137998327D01*
X160185901Y-138001845D01*
X160230759Y-138015452D01*
X160282973Y-138026551D01*
X160316384Y-138041426D01*
X160345435Y-138050239D01*
X160391602Y-138074915D01*
X160445500Y-138098912D01*
X160470554Y-138117115D01*
X160492453Y-138128820D01*
X160537128Y-138165484D01*
X160589430Y-138203484D01*
X160606411Y-138222343D01*
X160621320Y-138234579D01*
X160661387Y-138283401D01*
X160708473Y-138335695D01*
X160718364Y-138352827D01*
X160727079Y-138363446D01*
X160759306Y-138423740D01*
X160797427Y-138489767D01*
X160801813Y-138503268D01*
X160805660Y-138510464D01*
X160826861Y-138580355D01*
X160852404Y-138658967D01*
X160853303Y-138667523D01*
X160854054Y-138669998D01*
X160861371Y-138744289D01*
X160871000Y-138835900D01*
X160861370Y-138927519D01*
X160854054Y-139001801D01*
X160853303Y-139004275D01*
X160852404Y-139012833D01*
X160826856Y-139091458D01*
X160805660Y-139161335D01*
X160801814Y-139168529D01*
X160797427Y-139182033D01*
X160759299Y-139248072D01*
X160727079Y-139308353D01*
X160718366Y-139318969D01*
X160708473Y-139336105D01*
X160661378Y-139388409D01*
X160621320Y-139437220D01*
X160606414Y-139449452D01*
X160589430Y-139468316D01*
X160537118Y-139506323D01*
X160492453Y-139542979D01*
X160470559Y-139554680D01*
X160445500Y-139572888D01*
X160391591Y-139596889D01*
X160345435Y-139621560D01*
X160316391Y-139630370D01*
X160282973Y-139645249D01*
X160230748Y-139656349D01*
X160185901Y-139669954D01*
X160150203Y-139673470D01*
X160108954Y-139682238D01*
X160061188Y-139682238D01*
X160020000Y-139686295D01*
X159978811Y-139682238D01*
X159931046Y-139682238D01*
X159889797Y-139673470D01*
X159854098Y-139669954D01*
X159809248Y-139656348D01*
X159757027Y-139645249D01*
X159723610Y-139630371D01*
X159694564Y-139621560D01*
X159648402Y-139596886D01*
X159594500Y-139572888D01*
X159569443Y-139554683D01*
X159547546Y-139542979D01*
X159502873Y-139506316D01*
X159450570Y-139468316D01*
X159433588Y-139449455D01*
X159418679Y-139437220D01*
X159378610Y-139388396D01*
X159331527Y-139336105D01*
X159321636Y-139318973D01*
X159312920Y-139308353D01*
X159280687Y-139248048D01*
X159242573Y-139182033D01*
X159238186Y-139168534D01*
X159234339Y-139161335D01*
X159213128Y-139091412D01*
X159187596Y-139012833D01*
X159186697Y-139004280D01*
X159185945Y-139001801D01*
X159178613Y-138927367D01*
X159169000Y-138835900D01*
X159178612Y-138744440D01*
X159185945Y-138669998D01*
X159186697Y-138667518D01*
X159187596Y-138658967D01*
X159213123Y-138580402D01*
X159234339Y-138510464D01*
X159238187Y-138503263D01*
X159242573Y-138489767D01*
X159280680Y-138423763D01*
X159312920Y-138363446D01*
X159321638Y-138352823D01*
X159331527Y-138335695D01*
X159378601Y-138283413D01*
X159418679Y-138234579D01*
X159433591Y-138222340D01*
X159450570Y-138203484D01*
X159502862Y-138165491D01*
X159547546Y-138128820D01*
X159569448Y-138117113D01*
X159594500Y-138098912D01*
X159648391Y-138074918D01*
X159694564Y-138050239D01*
X159723617Y-138041425D01*
X159757027Y-138026551D01*
X159809237Y-138015453D01*
X159854098Y-138001845D01*
X159889806Y-137998327D01*
X159931046Y-137989562D01*
X159978801Y-137989562D01*
X160020000Y-137985504D01*
X160061199Y-137989562D01*
G37*
G36*
X146956040Y-138651190D02*
G01*
X146988987Y-138655528D01*
X146997274Y-138659392D01*
X147016919Y-138663300D01*
X147042938Y-138680686D01*
X147054180Y-138685928D01*
X147061019Y-138692767D01*
X147082128Y-138706872D01*
X147096232Y-138727980D01*
X147103071Y-138734819D01*
X147108312Y-138746058D01*
X147125700Y-138772081D01*
X147129607Y-138791727D01*
X147133471Y-138800012D01*
X147137806Y-138832946D01*
X147141000Y-138849000D01*
X147141000Y-139149000D01*
X147137806Y-139165054D01*
X147133471Y-139197987D01*
X147129608Y-139206270D01*
X147125700Y-139225919D01*
X147108310Y-139251943D01*
X147103071Y-139263180D01*
X147096234Y-139270016D01*
X147082128Y-139291128D01*
X147061016Y-139305234D01*
X147054180Y-139312071D01*
X147042943Y-139317310D01*
X147016919Y-139334700D01*
X146997270Y-139338608D01*
X146988987Y-139342471D01*
X146956054Y-139346806D01*
X146940000Y-139350000D01*
X145765000Y-139350000D01*
X145748946Y-139346806D01*
X145716012Y-139342471D01*
X145707727Y-139338607D01*
X145688081Y-139334700D01*
X145662058Y-139317312D01*
X145650819Y-139312071D01*
X145643980Y-139305232D01*
X145622872Y-139291128D01*
X145608767Y-139270019D01*
X145601928Y-139263180D01*
X145596686Y-139251938D01*
X145579300Y-139225919D01*
X145575392Y-139206274D01*
X145571528Y-139197987D01*
X145567190Y-139165040D01*
X145564000Y-139149000D01*
X145564000Y-138849000D01*
X145567190Y-138832961D01*
X145571528Y-138800012D01*
X145575392Y-138791723D01*
X145579300Y-138772081D01*
X145596684Y-138746063D01*
X145601928Y-138734819D01*
X145608769Y-138727977D01*
X145622872Y-138706872D01*
X145643977Y-138692769D01*
X145650819Y-138685928D01*
X145662063Y-138680684D01*
X145688081Y-138663300D01*
X145707723Y-138659392D01*
X145716012Y-138655528D01*
X145748961Y-138651190D01*
X145765000Y-138648000D01*
X146940000Y-138648000D01*
X146956040Y-138651190D01*
G37*
G36*
X145081040Y-137701190D02*
G01*
X145113987Y-137705528D01*
X145122274Y-137709392D01*
X145141919Y-137713300D01*
X145167938Y-137730686D01*
X145179180Y-137735928D01*
X145186019Y-137742767D01*
X145207128Y-137756872D01*
X145221232Y-137777980D01*
X145228071Y-137784819D01*
X145233312Y-137796058D01*
X145250700Y-137822081D01*
X145254607Y-137841727D01*
X145258471Y-137850012D01*
X145262806Y-137882946D01*
X145266000Y-137899000D01*
X145266000Y-138199000D01*
X145262806Y-138215054D01*
X145258471Y-138247987D01*
X145254608Y-138256270D01*
X145250700Y-138275919D01*
X145233310Y-138301943D01*
X145228071Y-138313180D01*
X145221234Y-138320016D01*
X145207128Y-138341128D01*
X145186016Y-138355234D01*
X145179180Y-138362071D01*
X145167943Y-138367310D01*
X145141919Y-138384700D01*
X145122270Y-138388608D01*
X145113987Y-138392471D01*
X145081054Y-138396806D01*
X145065000Y-138400000D01*
X143890000Y-138400000D01*
X143873946Y-138396806D01*
X143841012Y-138392471D01*
X143832727Y-138388607D01*
X143813081Y-138384700D01*
X143787058Y-138367312D01*
X143775819Y-138362071D01*
X143768980Y-138355232D01*
X143747872Y-138341128D01*
X143733767Y-138320019D01*
X143726928Y-138313180D01*
X143721686Y-138301938D01*
X143704300Y-138275919D01*
X143700392Y-138256274D01*
X143696528Y-138247987D01*
X143692190Y-138215040D01*
X143689000Y-138199000D01*
X143689000Y-137899000D01*
X143692190Y-137882961D01*
X143696528Y-137850012D01*
X143700392Y-137841723D01*
X143704300Y-137822081D01*
X143721684Y-137796063D01*
X143726928Y-137784819D01*
X143733769Y-137777977D01*
X143747872Y-137756872D01*
X143768977Y-137742769D01*
X143775819Y-137735928D01*
X143787063Y-137730684D01*
X143813081Y-137713300D01*
X143832723Y-137709392D01*
X143841012Y-137705528D01*
X143873961Y-137701190D01*
X143890000Y-137698000D01*
X145065000Y-137698000D01*
X145081040Y-137701190D01*
G37*
G36*
X148516914Y-136289995D02*
G01*
X148532726Y-136296976D01*
X148540531Y-136298213D01*
X148573039Y-136314776D01*
X148618106Y-136334676D01*
X148696324Y-136412894D01*
X148716226Y-136457967D01*
X148732786Y-136490468D01*
X148734021Y-136498270D01*
X148741005Y-136514086D01*
X148749000Y-136583000D01*
X148749000Y-137483000D01*
X148741005Y-137551914D01*
X148734021Y-137567729D01*
X148732786Y-137575531D01*
X148716229Y-137608024D01*
X148696324Y-137653106D01*
X148618106Y-137731324D01*
X148573024Y-137751229D01*
X148540531Y-137767786D01*
X148532729Y-137769021D01*
X148516914Y-137776005D01*
X148448000Y-137784000D01*
X147923000Y-137784000D01*
X147854086Y-137776005D01*
X147838270Y-137769021D01*
X147830468Y-137767786D01*
X147797967Y-137751226D01*
X147752894Y-137731324D01*
X147674676Y-137653106D01*
X147654776Y-137608039D01*
X147638213Y-137575531D01*
X147636976Y-137567726D01*
X147629995Y-137551914D01*
X147622000Y-137483000D01*
X147622000Y-136583000D01*
X147629995Y-136514086D01*
X147636976Y-136498274D01*
X147638213Y-136490468D01*
X147654780Y-136457953D01*
X147674676Y-136412894D01*
X147752894Y-136334676D01*
X147797953Y-136314780D01*
X147830468Y-136298213D01*
X147838274Y-136296976D01*
X147854086Y-136289995D01*
X147923000Y-136282000D01*
X148448000Y-136282000D01*
X148516914Y-136289995D01*
G37*
G36*
X150341914Y-136289995D02*
G01*
X150357726Y-136296976D01*
X150365531Y-136298213D01*
X150398039Y-136314776D01*
X150443106Y-136334676D01*
X150521324Y-136412894D01*
X150541226Y-136457967D01*
X150557786Y-136490468D01*
X150559021Y-136498270D01*
X150566005Y-136514086D01*
X150574000Y-136583000D01*
X150574000Y-137483000D01*
X150566005Y-137551914D01*
X150559021Y-137567729D01*
X150557786Y-137575531D01*
X150541229Y-137608024D01*
X150521324Y-137653106D01*
X150443106Y-137731324D01*
X150398024Y-137751229D01*
X150365531Y-137767786D01*
X150357729Y-137769021D01*
X150341914Y-137776005D01*
X150273000Y-137784000D01*
X149748000Y-137784000D01*
X149679086Y-137776005D01*
X149663270Y-137769021D01*
X149655468Y-137767786D01*
X149622967Y-137751226D01*
X149577894Y-137731324D01*
X149499676Y-137653106D01*
X149479776Y-137608039D01*
X149463213Y-137575531D01*
X149461976Y-137567726D01*
X149454995Y-137551914D01*
X149447000Y-137483000D01*
X149447000Y-136583000D01*
X149454995Y-136514086D01*
X149461976Y-136498274D01*
X149463213Y-136490468D01*
X149479780Y-136457953D01*
X149499676Y-136412894D01*
X149577894Y-136334676D01*
X149622953Y-136314780D01*
X149655468Y-136298213D01*
X149663274Y-136296976D01*
X149679086Y-136289995D01*
X149748000Y-136282000D01*
X150273000Y-136282000D01*
X150341914Y-136289995D01*
G37*
G36*
X146956040Y-136751190D02*
G01*
X146988987Y-136755528D01*
X146997274Y-136759392D01*
X147016919Y-136763300D01*
X147042938Y-136780686D01*
X147054180Y-136785928D01*
X147061019Y-136792767D01*
X147082128Y-136806872D01*
X147096232Y-136827980D01*
X147103071Y-136834819D01*
X147108312Y-136846058D01*
X147125700Y-136872081D01*
X147129607Y-136891727D01*
X147133471Y-136900012D01*
X147137806Y-136932946D01*
X147141000Y-136949000D01*
X147141000Y-137249000D01*
X147137806Y-137265054D01*
X147133471Y-137297987D01*
X147129608Y-137306270D01*
X147125700Y-137325919D01*
X147108310Y-137351943D01*
X147103071Y-137363180D01*
X147096234Y-137370016D01*
X147082128Y-137391128D01*
X147061016Y-137405234D01*
X147054180Y-137412071D01*
X147042943Y-137417310D01*
X147016919Y-137434700D01*
X146997270Y-137438608D01*
X146988987Y-137442471D01*
X146956054Y-137446806D01*
X146940000Y-137450000D01*
X145765000Y-137450000D01*
X145748946Y-137446806D01*
X145716012Y-137442471D01*
X145707727Y-137438607D01*
X145688081Y-137434700D01*
X145662058Y-137417312D01*
X145650819Y-137412071D01*
X145643980Y-137405232D01*
X145622872Y-137391128D01*
X145608767Y-137370019D01*
X145601928Y-137363180D01*
X145596686Y-137351938D01*
X145579300Y-137325919D01*
X145575392Y-137306274D01*
X145571528Y-137297987D01*
X145567190Y-137265040D01*
X145564000Y-137249000D01*
X145564000Y-136949000D01*
X145567190Y-136932961D01*
X145571528Y-136900012D01*
X145575392Y-136891723D01*
X145579300Y-136872081D01*
X145596684Y-136846063D01*
X145601928Y-136834819D01*
X145608769Y-136827977D01*
X145622872Y-136806872D01*
X145643977Y-136792769D01*
X145650819Y-136785928D01*
X145662063Y-136780684D01*
X145688081Y-136763300D01*
X145707723Y-136759392D01*
X145716012Y-136755528D01*
X145748961Y-136751190D01*
X145765000Y-136748000D01*
X146940000Y-136748000D01*
X146956040Y-136751190D01*
G37*
G36*
X160839517Y-135488782D02*
G01*
X160856062Y-135499838D01*
X160867118Y-135516383D01*
X160871000Y-135535900D01*
X160871000Y-137135900D01*
X160867118Y-137155417D01*
X160856062Y-137171962D01*
X160839517Y-137183018D01*
X160820000Y-137186900D01*
X159220000Y-137186900D01*
X159200483Y-137183018D01*
X159183938Y-137171962D01*
X159172882Y-137155417D01*
X159169000Y-137135900D01*
X159169000Y-135535900D01*
X159172882Y-135516383D01*
X159183938Y-135499838D01*
X159200483Y-135488782D01*
X159220000Y-135484900D01*
X160820000Y-135484900D01*
X160839517Y-135488782D01*
G37*
G36*
X152868914Y-135377995D02*
G01*
X152884726Y-135384976D01*
X152892531Y-135386213D01*
X152925039Y-135402776D01*
X152970106Y-135422676D01*
X153048324Y-135500894D01*
X153068226Y-135545967D01*
X153084786Y-135578468D01*
X153086021Y-135586270D01*
X153093005Y-135602086D01*
X153101000Y-135671000D01*
X153101000Y-136871000D01*
X153093005Y-136939914D01*
X153086021Y-136955729D01*
X153084786Y-136963531D01*
X153068229Y-136996024D01*
X153048324Y-137041106D01*
X152970106Y-137119324D01*
X152925024Y-137139229D01*
X152892531Y-137155786D01*
X152884729Y-137157021D01*
X152868914Y-137164005D01*
X152800000Y-137172000D01*
X152000000Y-137172000D01*
X151931086Y-137164005D01*
X151915270Y-137157021D01*
X151907468Y-137155786D01*
X151874967Y-137139226D01*
X151829894Y-137119324D01*
X151751676Y-137041106D01*
X151731776Y-136996039D01*
X151715213Y-136963531D01*
X151713976Y-136955726D01*
X151706995Y-136939914D01*
X151699000Y-136871000D01*
X151699000Y-135671000D01*
X151706995Y-135602086D01*
X151713976Y-135586274D01*
X151715213Y-135578468D01*
X151731780Y-135545953D01*
X151751676Y-135500894D01*
X151829894Y-135422676D01*
X151874953Y-135402780D01*
X151907468Y-135386213D01*
X151915274Y-135384976D01*
X151931086Y-135377995D01*
X152000000Y-135370000D01*
X152800000Y-135370000D01*
X152868914Y-135377995D01*
G37*
G36*
X156368914Y-135377995D02*
G01*
X156384726Y-135384976D01*
X156392531Y-135386213D01*
X156425039Y-135402776D01*
X156470106Y-135422676D01*
X156548324Y-135500894D01*
X156568226Y-135545967D01*
X156584786Y-135578468D01*
X156586021Y-135586270D01*
X156593005Y-135602086D01*
X156601000Y-135671000D01*
X156601000Y-136871000D01*
X156593005Y-136939914D01*
X156586021Y-136955729D01*
X156584786Y-136963531D01*
X156568229Y-136996024D01*
X156548324Y-137041106D01*
X156470106Y-137119324D01*
X156425024Y-137139229D01*
X156392531Y-137155786D01*
X156384729Y-137157021D01*
X156368914Y-137164005D01*
X156300000Y-137172000D01*
X155500000Y-137172000D01*
X155431086Y-137164005D01*
X155415270Y-137157021D01*
X155407468Y-137155786D01*
X155374967Y-137139226D01*
X155329894Y-137119324D01*
X155251676Y-137041106D01*
X155231776Y-136996039D01*
X155215213Y-136963531D01*
X155213976Y-136955726D01*
X155206995Y-136939914D01*
X155199000Y-136871000D01*
X155199000Y-135671000D01*
X155206995Y-135602086D01*
X155213976Y-135586274D01*
X155215213Y-135578468D01*
X155231780Y-135545953D01*
X155251676Y-135500894D01*
X155329894Y-135422676D01*
X155374953Y-135402780D01*
X155407468Y-135386213D01*
X155415274Y-135384976D01*
X155431086Y-135377995D01*
X155500000Y-135370000D01*
X156300000Y-135370000D01*
X156368914Y-135377995D01*
G37*
G36*
X145341914Y-134003995D02*
G01*
X145357726Y-134010976D01*
X145365531Y-134012213D01*
X145398039Y-134028776D01*
X145443106Y-134048676D01*
X145521324Y-134126894D01*
X145541226Y-134171967D01*
X145557786Y-134204468D01*
X145559021Y-134212270D01*
X145566005Y-134228086D01*
X145574000Y-134297000D01*
X145574000Y-135197000D01*
X145566005Y-135265914D01*
X145559021Y-135281729D01*
X145557786Y-135289531D01*
X145541229Y-135322024D01*
X145521324Y-135367106D01*
X145443106Y-135445324D01*
X145398024Y-135465229D01*
X145365531Y-135481786D01*
X145357729Y-135483021D01*
X145341914Y-135490005D01*
X145273000Y-135498000D01*
X144748000Y-135498000D01*
X144679086Y-135490005D01*
X144663270Y-135483021D01*
X144655468Y-135481786D01*
X144622967Y-135465226D01*
X144577894Y-135445324D01*
X144499676Y-135367106D01*
X144479776Y-135322039D01*
X144463213Y-135289531D01*
X144461976Y-135281726D01*
X144454995Y-135265914D01*
X144447000Y-135197000D01*
X144447000Y-134297000D01*
X144454995Y-134228086D01*
X144461976Y-134212274D01*
X144463213Y-134204468D01*
X144479780Y-134171953D01*
X144499676Y-134126894D01*
X144577894Y-134048676D01*
X144622953Y-134028780D01*
X144655468Y-134012213D01*
X144663274Y-134010976D01*
X144679086Y-134003995D01*
X144748000Y-133996000D01*
X145273000Y-133996000D01*
X145341914Y-134003995D01*
G37*
G36*
X147166914Y-134003995D02*
G01*
X147182726Y-134010976D01*
X147190531Y-134012213D01*
X147223039Y-134028776D01*
X147268106Y-134048676D01*
X147346324Y-134126894D01*
X147366226Y-134171967D01*
X147382786Y-134204468D01*
X147384021Y-134212270D01*
X147391005Y-134228086D01*
X147399000Y-134297000D01*
X147399000Y-135197000D01*
X147391005Y-135265914D01*
X147384021Y-135281729D01*
X147382786Y-135289531D01*
X147366229Y-135322024D01*
X147346324Y-135367106D01*
X147268106Y-135445324D01*
X147223024Y-135465229D01*
X147190531Y-135481786D01*
X147182729Y-135483021D01*
X147166914Y-135490005D01*
X147098000Y-135498000D01*
X146573000Y-135498000D01*
X146504086Y-135490005D01*
X146488270Y-135483021D01*
X146480468Y-135481786D01*
X146447967Y-135465226D01*
X146402894Y-135445324D01*
X146324676Y-135367106D01*
X146304776Y-135322039D01*
X146288213Y-135289531D01*
X146286976Y-135281726D01*
X146279995Y-135265914D01*
X146272000Y-135197000D01*
X146272000Y-134297000D01*
X146279995Y-134228086D01*
X146286976Y-134212274D01*
X146288213Y-134204468D01*
X146304780Y-134171953D01*
X146324676Y-134126894D01*
X146402894Y-134048676D01*
X146447953Y-134028780D01*
X146480468Y-134012213D01*
X146488274Y-134010976D01*
X146504086Y-134003995D01*
X146573000Y-133996000D01*
X147098000Y-133996000D01*
X147166914Y-134003995D01*
G37*
G36*
X163586914Y-133683495D02*
G01*
X163602726Y-133690476D01*
X163610531Y-133691713D01*
X163643039Y-133708276D01*
X163688106Y-133728176D01*
X163766324Y-133806394D01*
X163786226Y-133851467D01*
X163802786Y-133883968D01*
X163804021Y-133891770D01*
X163811005Y-133907586D01*
X163819000Y-133976500D01*
X163819000Y-134501500D01*
X163811005Y-134570414D01*
X163804021Y-134586229D01*
X163802786Y-134594031D01*
X163786229Y-134626524D01*
X163766324Y-134671606D01*
X163688106Y-134749824D01*
X163643024Y-134769729D01*
X163610531Y-134786286D01*
X163602729Y-134787521D01*
X163586914Y-134794505D01*
X163518000Y-134802500D01*
X162618000Y-134802500D01*
X162549086Y-134794505D01*
X162533270Y-134787521D01*
X162525468Y-134786286D01*
X162492967Y-134769726D01*
X162447894Y-134749824D01*
X162369676Y-134671606D01*
X162349776Y-134626539D01*
X162333213Y-134594031D01*
X162331976Y-134586226D01*
X162324995Y-134570414D01*
X162317000Y-134501500D01*
X162317000Y-133976500D01*
X162324995Y-133907586D01*
X162331976Y-133891774D01*
X162333213Y-133883968D01*
X162349780Y-133851453D01*
X162369676Y-133806394D01*
X162447894Y-133728176D01*
X162492953Y-133708280D01*
X162525468Y-133691713D01*
X162533274Y-133690476D01*
X162549086Y-133683495D01*
X162618000Y-133675500D01*
X163518000Y-133675500D01*
X163586914Y-133683495D01*
G37*
G36*
X140746517Y-132788882D02*
G01*
X140763062Y-132799938D01*
X140774118Y-132816483D01*
X140778000Y-132836000D01*
X140778000Y-134636000D01*
X140774118Y-134655517D01*
X140763062Y-134672062D01*
X140746517Y-134683118D01*
X140727000Y-134687000D01*
X138927000Y-134687000D01*
X138907483Y-134683118D01*
X138890938Y-134672062D01*
X138879882Y-134655517D01*
X138876000Y-134636000D01*
X138876000Y-132836000D01*
X138879882Y-132816483D01*
X138890938Y-132799938D01*
X138907483Y-132788882D01*
X138927000Y-132785000D01*
X140727000Y-132785000D01*
X140746517Y-132788882D01*
G37*
G36*
X166159983Y-132326936D02*
G01*
X166210180Y-132326936D01*
X166253524Y-132336149D01*
X166291659Y-132339905D01*
X166339566Y-132354437D01*
X166394424Y-132366098D01*
X166429530Y-132381728D01*
X166460566Y-132391143D01*
X166509884Y-132417504D01*
X166566500Y-132442711D01*
X166592822Y-132461835D01*
X166616232Y-132474348D01*
X166663988Y-132513540D01*
X166718887Y-132553427D01*
X166736711Y-132573223D01*
X166752675Y-132586324D01*
X166795572Y-132638594D01*
X166844924Y-132693405D01*
X166855292Y-132711363D01*
X166864651Y-132722767D01*
X166899273Y-132787542D01*
X166939104Y-132856530D01*
X166943685Y-132870630D01*
X166947856Y-132878433D01*
X166970852Y-132954242D01*
X166997311Y-133035672D01*
X166998242Y-133044532D01*
X166999094Y-133047340D01*
X167007384Y-133131513D01*
X167017000Y-133223000D01*
X167007383Y-133314494D01*
X166999094Y-133398659D01*
X166998242Y-133401466D01*
X166997311Y-133410328D01*
X166970848Y-133491771D01*
X166947856Y-133567566D01*
X166943686Y-133575366D01*
X166939104Y-133589470D01*
X166899266Y-133658470D01*
X166864651Y-133723232D01*
X166855294Y-133734633D01*
X166844924Y-133752595D01*
X166795563Y-133807415D01*
X166752675Y-133859675D01*
X166736714Y-133872773D01*
X166718887Y-133892573D01*
X166663977Y-133932467D01*
X166616232Y-133971651D01*
X166592827Y-133984161D01*
X166566500Y-134003289D01*
X166509873Y-134028500D01*
X166460566Y-134054856D01*
X166429537Y-134064268D01*
X166394424Y-134079902D01*
X166339555Y-134091564D01*
X166291659Y-134106094D01*
X166253532Y-134109849D01*
X166210180Y-134119064D01*
X166159973Y-134119064D01*
X166116000Y-134123395D01*
X166072027Y-134119064D01*
X166021820Y-134119064D01*
X165978467Y-134109849D01*
X165940340Y-134106094D01*
X165892441Y-134091563D01*
X165837576Y-134079902D01*
X165802464Y-134064269D01*
X165771433Y-134054856D01*
X165722120Y-134028498D01*
X165665500Y-134003289D01*
X165639175Y-133984163D01*
X165615767Y-133971651D01*
X165568013Y-133932460D01*
X165513113Y-133892573D01*
X165495287Y-133872776D01*
X165479324Y-133859675D01*
X165436425Y-133807402D01*
X165387076Y-133752595D01*
X165376708Y-133734637D01*
X165367348Y-133723232D01*
X165332719Y-133658447D01*
X165292896Y-133589470D01*
X165288315Y-133575371D01*
X165284143Y-133567566D01*
X165261136Y-133491725D01*
X165234689Y-133410328D01*
X165233758Y-133401471D01*
X165232905Y-133398659D01*
X165224600Y-133314342D01*
X165215000Y-133223000D01*
X165224599Y-133131664D01*
X165232905Y-133047340D01*
X165233758Y-133044527D01*
X165234689Y-133035672D01*
X165261132Y-132954288D01*
X165284143Y-132878433D01*
X165288315Y-132870626D01*
X165292896Y-132856530D01*
X165332712Y-132787565D01*
X165367348Y-132722767D01*
X165376710Y-132711359D01*
X165387076Y-132693405D01*
X165436416Y-132638607D01*
X165479324Y-132586324D01*
X165495291Y-132573219D01*
X165513113Y-132553427D01*
X165568002Y-132513546D01*
X165615767Y-132474348D01*
X165639180Y-132461833D01*
X165665500Y-132442711D01*
X165722109Y-132417506D01*
X165771433Y-132391143D01*
X165802471Y-132381727D01*
X165837576Y-132366098D01*
X165892430Y-132354438D01*
X165940340Y-132339905D01*
X165978476Y-132336148D01*
X166021820Y-132326936D01*
X166072016Y-132326936D01*
X166116000Y-132322604D01*
X166159983Y-132326936D01*
G37*
G36*
X163586914Y-131858495D02*
G01*
X163602726Y-131865476D01*
X163610531Y-131866713D01*
X163643039Y-131883276D01*
X163688106Y-131903176D01*
X163766324Y-131981394D01*
X163786226Y-132026467D01*
X163802786Y-132058968D01*
X163804021Y-132066770D01*
X163811005Y-132082586D01*
X163819000Y-132151500D01*
X163819000Y-132676500D01*
X163811005Y-132745414D01*
X163804021Y-132761229D01*
X163802786Y-132769031D01*
X163786229Y-132801524D01*
X163766324Y-132846606D01*
X163688106Y-132924824D01*
X163643024Y-132944729D01*
X163610531Y-132961286D01*
X163602729Y-132962521D01*
X163586914Y-132969505D01*
X163518000Y-132977500D01*
X162618000Y-132977500D01*
X162549086Y-132969505D01*
X162533270Y-132962521D01*
X162525468Y-132961286D01*
X162492967Y-132944726D01*
X162447894Y-132924824D01*
X162369676Y-132846606D01*
X162349776Y-132801539D01*
X162333213Y-132769031D01*
X162331976Y-132761226D01*
X162324995Y-132745414D01*
X162317000Y-132676500D01*
X162317000Y-132151500D01*
X162324995Y-132082586D01*
X162331976Y-132066774D01*
X162333213Y-132058968D01*
X162349780Y-132026453D01*
X162369676Y-131981394D01*
X162447894Y-131903176D01*
X162492953Y-131883280D01*
X162525468Y-131866713D01*
X162533274Y-131865476D01*
X162549086Y-131858495D01*
X162618000Y-131850500D01*
X163518000Y-131850500D01*
X163586914Y-131858495D01*
G37*
G36*
X139873604Y-130249590D02*
G01*
X139914696Y-130249590D01*
X139960456Y-130258144D01*
X140012531Y-130263273D01*
X140052091Y-130275273D01*
X140087111Y-130281820D01*
X140135617Y-130300611D01*
X140190932Y-130317391D01*
X140222534Y-130334282D01*
X140250656Y-130345177D01*
X140299513Y-130375428D01*
X140355347Y-130405272D01*
X140378809Y-130424526D01*
X140399784Y-130437514D01*
X140446256Y-130479879D01*
X140499459Y-130523541D01*
X140515224Y-130542751D01*
X140529400Y-130555674D01*
X140570557Y-130610174D01*
X140617728Y-130667653D01*
X140626848Y-130684717D01*
X140635099Y-130695642D01*
X140667925Y-130761566D01*
X140705609Y-130832068D01*
X140709628Y-130845316D01*
X140713282Y-130852655D01*
X140734864Y-130928507D01*
X140759727Y-131010469D01*
X140760543Y-131018762D01*
X140761280Y-131021350D01*
X140768937Y-131103982D01*
X140778000Y-131196000D01*
X140768936Y-131288026D01*
X140761280Y-131370649D01*
X140760544Y-131373235D01*
X140759727Y-131381531D01*
X140734859Y-131463507D01*
X140713282Y-131539344D01*
X140709628Y-131546680D01*
X140705609Y-131559932D01*
X140667917Y-131630447D01*
X140635099Y-131696357D01*
X140626850Y-131707279D01*
X140617728Y-131724347D01*
X140570547Y-131781836D01*
X140529400Y-131836325D01*
X140515227Y-131849244D01*
X140499459Y-131868459D01*
X140446245Y-131912129D01*
X140399784Y-131954485D01*
X140378814Y-131967469D01*
X140355347Y-131986728D01*
X140299502Y-132016577D01*
X140250656Y-132046822D01*
X140222541Y-132057713D01*
X140190932Y-132074609D01*
X140135605Y-132091392D01*
X140087111Y-132110179D01*
X140052098Y-132116724D01*
X140012531Y-132128727D01*
X139960453Y-132133856D01*
X139914696Y-132142410D01*
X139873604Y-132142410D01*
X139827000Y-132147000D01*
X139780396Y-132142410D01*
X139739304Y-132142410D01*
X139693545Y-132133856D01*
X139641469Y-132128727D01*
X139601902Y-132116724D01*
X139566888Y-132110179D01*
X139518389Y-132091390D01*
X139463068Y-132074609D01*
X139431461Y-132057714D01*
X139403343Y-132046822D01*
X139354490Y-132016573D01*
X139298653Y-131986728D01*
X139275188Y-131967471D01*
X139254215Y-131954485D01*
X139207744Y-131912121D01*
X139154541Y-131868459D01*
X139138775Y-131849248D01*
X139124599Y-131836325D01*
X139083439Y-131781821D01*
X139036272Y-131724347D01*
X139027151Y-131707284D01*
X139018900Y-131696357D01*
X138986067Y-131630420D01*
X138948391Y-131559932D01*
X138944372Y-131546685D01*
X138940717Y-131539344D01*
X138919124Y-131463454D01*
X138894273Y-131381531D01*
X138893456Y-131373241D01*
X138892719Y-131370649D01*
X138885046Y-131287854D01*
X138876000Y-131196000D01*
X138885045Y-131104153D01*
X138892719Y-131021350D01*
X138893456Y-131018757D01*
X138894273Y-131010469D01*
X138919119Y-130928560D01*
X138940717Y-130852655D01*
X138944373Y-130845311D01*
X138948391Y-130832068D01*
X138986060Y-130761593D01*
X139018900Y-130695642D01*
X139027153Y-130684712D01*
X139036272Y-130667653D01*
X139083430Y-130610190D01*
X139124599Y-130555674D01*
X139138778Y-130542747D01*
X139154541Y-130523541D01*
X139207733Y-130479887D01*
X139254215Y-130437514D01*
X139275193Y-130424524D01*
X139298653Y-130405272D01*
X139354478Y-130375432D01*
X139403343Y-130345177D01*
X139431467Y-130334281D01*
X139463068Y-130317391D01*
X139518377Y-130300612D01*
X139566888Y-130281820D01*
X139601909Y-130275273D01*
X139641469Y-130263273D01*
X139693542Y-130258144D01*
X139739304Y-130249590D01*
X139780396Y-130249590D01*
X139827000Y-130245000D01*
X139873604Y-130249590D01*
G37*
G36*
X166159983Y-129786936D02*
G01*
X166210180Y-129786936D01*
X166253524Y-129796149D01*
X166291659Y-129799905D01*
X166339566Y-129814437D01*
X166394424Y-129826098D01*
X166429530Y-129841728D01*
X166460566Y-129851143D01*
X166509884Y-129877504D01*
X166566500Y-129902711D01*
X166592822Y-129921835D01*
X166616232Y-129934348D01*
X166663988Y-129973540D01*
X166718887Y-130013427D01*
X166736711Y-130033223D01*
X166752675Y-130046324D01*
X166795572Y-130098594D01*
X166844924Y-130153405D01*
X166855292Y-130171363D01*
X166864651Y-130182767D01*
X166899273Y-130247542D01*
X166939104Y-130316530D01*
X166943685Y-130330630D01*
X166947856Y-130338433D01*
X166970852Y-130414242D01*
X166997311Y-130495672D01*
X166998242Y-130504532D01*
X166999094Y-130507340D01*
X167007384Y-130591513D01*
X167017000Y-130683000D01*
X167007383Y-130774494D01*
X166999094Y-130858659D01*
X166998242Y-130861466D01*
X166997311Y-130870328D01*
X166970848Y-130951771D01*
X166947856Y-131027566D01*
X166943686Y-131035366D01*
X166939104Y-131049470D01*
X166899266Y-131118470D01*
X166864651Y-131183232D01*
X166855294Y-131194633D01*
X166844924Y-131212595D01*
X166795563Y-131267415D01*
X166752675Y-131319675D01*
X166736714Y-131332773D01*
X166718887Y-131352573D01*
X166663977Y-131392467D01*
X166616232Y-131431651D01*
X166592827Y-131444161D01*
X166566500Y-131463289D01*
X166509873Y-131488500D01*
X166460566Y-131514856D01*
X166429537Y-131524268D01*
X166394424Y-131539902D01*
X166339555Y-131551564D01*
X166291659Y-131566094D01*
X166253532Y-131569849D01*
X166210180Y-131579064D01*
X166159973Y-131579064D01*
X166116000Y-131583395D01*
X166072027Y-131579064D01*
X166021820Y-131579064D01*
X165978467Y-131569849D01*
X165940340Y-131566094D01*
X165892441Y-131551563D01*
X165837576Y-131539902D01*
X165802464Y-131524269D01*
X165771433Y-131514856D01*
X165722120Y-131488498D01*
X165665500Y-131463289D01*
X165639175Y-131444163D01*
X165615767Y-131431651D01*
X165568013Y-131392460D01*
X165513113Y-131352573D01*
X165495287Y-131332776D01*
X165479324Y-131319675D01*
X165436425Y-131267402D01*
X165387076Y-131212595D01*
X165376708Y-131194637D01*
X165367348Y-131183232D01*
X165332719Y-131118447D01*
X165292896Y-131049470D01*
X165288315Y-131035371D01*
X165284143Y-131027566D01*
X165261136Y-130951725D01*
X165234689Y-130870328D01*
X165233758Y-130861471D01*
X165232905Y-130858659D01*
X165224600Y-130774342D01*
X165215000Y-130683000D01*
X165224599Y-130591664D01*
X165232905Y-130507340D01*
X165233758Y-130504527D01*
X165234689Y-130495672D01*
X165261132Y-130414288D01*
X165284143Y-130338433D01*
X165288315Y-130330626D01*
X165292896Y-130316530D01*
X165332712Y-130247565D01*
X165367348Y-130182767D01*
X165376710Y-130171359D01*
X165387076Y-130153405D01*
X165436416Y-130098607D01*
X165479324Y-130046324D01*
X165495291Y-130033219D01*
X165513113Y-130013427D01*
X165568002Y-129973546D01*
X165615767Y-129934348D01*
X165639180Y-129921833D01*
X165665500Y-129902711D01*
X165722109Y-129877506D01*
X165771433Y-129851143D01*
X165802471Y-129841727D01*
X165837576Y-129826098D01*
X165892430Y-129814438D01*
X165940340Y-129799905D01*
X165978476Y-129796148D01*
X166021820Y-129786936D01*
X166072016Y-129786936D01*
X166116000Y-129782604D01*
X166159983Y-129786936D01*
G37*
G36*
X144313323Y-129521773D02*
G01*
X144351957Y-129521773D01*
X144395540Y-129531036D01*
X144446539Y-129536783D01*
X144483621Y-129549758D01*
X144515606Y-129556557D01*
X144561701Y-129577079D01*
X144615841Y-129596024D01*
X144644019Y-129613729D01*
X144668457Y-129624610D01*
X144714020Y-129657714D01*
X144767715Y-129691453D01*
X144787000Y-129710738D01*
X144803812Y-129722953D01*
X144845376Y-129769114D01*
X144894547Y-129818285D01*
X144905855Y-129836282D01*
X144915767Y-129847290D01*
X144949676Y-129906022D01*
X144989976Y-129970159D01*
X144995007Y-129984538D01*
X144999420Y-129992181D01*
X145022018Y-130061730D01*
X145049217Y-130139461D01*
X145050248Y-130148613D01*
X145051123Y-130151306D01*
X145059050Y-130226738D01*
X145069300Y-130317700D01*
X145059050Y-130408669D01*
X145051123Y-130484093D01*
X145050248Y-130486784D01*
X145049217Y-130495939D01*
X145022013Y-130573682D01*
X144999420Y-130643218D01*
X144995008Y-130650859D01*
X144989976Y-130665241D01*
X144949669Y-130729388D01*
X144915767Y-130788109D01*
X144905857Y-130799114D01*
X144894547Y-130817115D01*
X144845367Y-130866294D01*
X144803812Y-130912446D01*
X144787004Y-130924657D01*
X144767715Y-130943947D01*
X144714010Y-130977692D01*
X144668457Y-131010789D01*
X144644025Y-131021666D01*
X144615841Y-131039376D01*
X144561691Y-131058323D01*
X144515606Y-131078842D01*
X144483627Y-131085639D01*
X144446539Y-131098617D01*
X144395537Y-131104363D01*
X144351957Y-131113627D01*
X144313323Y-131113627D01*
X144268300Y-131118700D01*
X144223277Y-131113627D01*
X144184643Y-131113627D01*
X144141061Y-131104363D01*
X144090061Y-131098617D01*
X144052974Y-131085639D01*
X144020993Y-131078842D01*
X143974903Y-131058322D01*
X143920759Y-131039376D01*
X143892577Y-131021668D01*
X143868142Y-131010789D01*
X143822582Y-130977687D01*
X143768885Y-130943947D01*
X143749598Y-130924660D01*
X143732787Y-130912446D01*
X143691222Y-130866284D01*
X143642053Y-130817115D01*
X143630744Y-130799118D01*
X143620832Y-130788109D01*
X143586918Y-130729368D01*
X143546624Y-130665241D01*
X143541593Y-130650863D01*
X143537179Y-130643218D01*
X143514572Y-130573642D01*
X143487383Y-130495939D01*
X143486352Y-130486789D01*
X143485476Y-130484093D01*
X143477535Y-130408537D01*
X143467300Y-130317700D01*
X143477534Y-130226870D01*
X143485476Y-130151306D01*
X143486352Y-130148609D01*
X143487383Y-130139461D01*
X143514567Y-130061770D01*
X143537179Y-129992181D01*
X143541593Y-129984534D01*
X143546624Y-129970159D01*
X143586911Y-129906042D01*
X143620832Y-129847290D01*
X143630746Y-129836278D01*
X143642053Y-129818285D01*
X143691213Y-129769124D01*
X143732787Y-129722953D01*
X143749601Y-129710736D01*
X143768885Y-129691453D01*
X143822578Y-129657715D01*
X143868146Y-129624608D01*
X143892584Y-129613727D01*
X143920759Y-129596024D01*
X143974887Y-129577083D01*
X144020989Y-129556558D01*
X144052979Y-129549758D01*
X144090061Y-129536783D01*
X144141059Y-129531036D01*
X144184643Y-129521773D01*
X144223277Y-129521773D01*
X144268300Y-129516700D01*
X144313323Y-129521773D01*
G37*
G36*
X160478323Y-129521773D02*
G01*
X160516957Y-129521773D01*
X160560540Y-129531036D01*
X160611539Y-129536783D01*
X160648621Y-129549758D01*
X160680606Y-129556557D01*
X160726701Y-129577079D01*
X160780841Y-129596024D01*
X160809019Y-129613729D01*
X160833457Y-129624610D01*
X160879020Y-129657714D01*
X160932715Y-129691453D01*
X160952000Y-129710738D01*
X160968812Y-129722953D01*
X161010376Y-129769114D01*
X161059547Y-129818285D01*
X161070855Y-129836282D01*
X161080767Y-129847290D01*
X161114676Y-129906022D01*
X161154976Y-129970159D01*
X161160007Y-129984538D01*
X161164420Y-129992181D01*
X161187018Y-130061730D01*
X161214217Y-130139461D01*
X161215248Y-130148613D01*
X161216123Y-130151306D01*
X161224050Y-130226738D01*
X161234300Y-130317700D01*
X161224050Y-130408669D01*
X161216123Y-130484093D01*
X161215248Y-130486784D01*
X161214217Y-130495939D01*
X161187013Y-130573682D01*
X161164420Y-130643218D01*
X161160008Y-130650859D01*
X161154976Y-130665241D01*
X161114669Y-130729388D01*
X161080767Y-130788109D01*
X161070857Y-130799114D01*
X161059547Y-130817115D01*
X161010367Y-130866294D01*
X160968812Y-130912446D01*
X160952004Y-130924657D01*
X160932715Y-130943947D01*
X160879010Y-130977692D01*
X160833457Y-131010789D01*
X160809025Y-131021666D01*
X160780841Y-131039376D01*
X160726691Y-131058323D01*
X160680606Y-131078842D01*
X160648627Y-131085639D01*
X160611539Y-131098617D01*
X160560537Y-131104363D01*
X160516957Y-131113627D01*
X160478323Y-131113627D01*
X160433300Y-131118700D01*
X160388277Y-131113627D01*
X160349643Y-131113627D01*
X160306061Y-131104363D01*
X160255061Y-131098617D01*
X160217974Y-131085639D01*
X160185993Y-131078842D01*
X160139903Y-131058322D01*
X160085759Y-131039376D01*
X160057577Y-131021668D01*
X160033142Y-131010789D01*
X159987582Y-130977687D01*
X159933885Y-130943947D01*
X159914598Y-130924660D01*
X159897787Y-130912446D01*
X159856222Y-130866284D01*
X159807053Y-130817115D01*
X159795744Y-130799118D01*
X159785832Y-130788109D01*
X159751918Y-130729368D01*
X159711624Y-130665241D01*
X159706593Y-130650863D01*
X159702179Y-130643218D01*
X159679572Y-130573642D01*
X159652383Y-130495939D01*
X159651352Y-130486789D01*
X159650476Y-130484093D01*
X159642535Y-130408537D01*
X159632300Y-130317700D01*
X159642534Y-130226870D01*
X159650476Y-130151306D01*
X159651352Y-130148609D01*
X159652383Y-130139461D01*
X159679567Y-130061770D01*
X159702179Y-129992181D01*
X159706593Y-129984534D01*
X159711624Y-129970159D01*
X159751911Y-129906042D01*
X159785832Y-129847290D01*
X159795746Y-129836278D01*
X159807053Y-129818285D01*
X159856213Y-129769124D01*
X159897787Y-129722953D01*
X159914601Y-129710736D01*
X159933885Y-129691453D01*
X159987578Y-129657715D01*
X160033146Y-129624608D01*
X160057584Y-129613727D01*
X160085759Y-129596024D01*
X160139887Y-129577083D01*
X160185989Y-129556558D01*
X160217979Y-129549758D01*
X160255061Y-129536783D01*
X160306059Y-129531036D01*
X160349643Y-129521773D01*
X160388277Y-129521773D01*
X160433300Y-129516700D01*
X160478323Y-129521773D01*
G37*
G36*
X163586914Y-129769995D02*
G01*
X163602726Y-129776976D01*
X163610531Y-129778213D01*
X163643039Y-129794776D01*
X163688106Y-129814676D01*
X163766324Y-129892894D01*
X163786226Y-129937967D01*
X163802786Y-129970468D01*
X163804021Y-129978270D01*
X163811005Y-129994086D01*
X163819000Y-130063000D01*
X163819000Y-130588000D01*
X163811005Y-130656914D01*
X163804021Y-130672729D01*
X163802786Y-130680531D01*
X163786229Y-130713024D01*
X163766324Y-130758106D01*
X163688106Y-130836324D01*
X163643024Y-130856229D01*
X163610531Y-130872786D01*
X163602729Y-130874021D01*
X163586914Y-130881005D01*
X163518000Y-130889000D01*
X162618000Y-130889000D01*
X162549086Y-130881005D01*
X162533270Y-130874021D01*
X162525468Y-130872786D01*
X162492967Y-130856226D01*
X162447894Y-130836324D01*
X162369676Y-130758106D01*
X162349776Y-130713039D01*
X162333213Y-130680531D01*
X162331976Y-130672726D01*
X162324995Y-130656914D01*
X162317000Y-130588000D01*
X162317000Y-130063000D01*
X162324995Y-129994086D01*
X162331976Y-129978274D01*
X162333213Y-129970468D01*
X162349780Y-129937953D01*
X162369676Y-129892894D01*
X162447894Y-129814676D01*
X162492953Y-129794780D01*
X162525468Y-129778213D01*
X162533274Y-129776976D01*
X162549086Y-129769995D01*
X162618000Y-129762000D01*
X163518000Y-129762000D01*
X163586914Y-129769995D01*
G37*
G36*
X140746517Y-127454882D02*
G01*
X140763062Y-127465938D01*
X140774118Y-127482483D01*
X140778000Y-127502000D01*
X140778000Y-129302000D01*
X140774118Y-129321517D01*
X140763062Y-129338062D01*
X140746517Y-129349118D01*
X140727000Y-129353000D01*
X138927000Y-129353000D01*
X138907483Y-129349118D01*
X138890938Y-129338062D01*
X138879882Y-129321517D01*
X138876000Y-129302000D01*
X138876000Y-127502000D01*
X138879882Y-127482483D01*
X138890938Y-127465938D01*
X138907483Y-127454882D01*
X138927000Y-127451000D01*
X140727000Y-127451000D01*
X140746517Y-127454882D01*
G37*
G36*
X163586914Y-127944995D02*
G01*
X163602726Y-127951976D01*
X163610531Y-127953213D01*
X163643039Y-127969776D01*
X163688106Y-127989676D01*
X163766324Y-128067894D01*
X163786226Y-128112967D01*
X163802786Y-128145468D01*
X163804021Y-128153270D01*
X163811005Y-128169086D01*
X163819000Y-128238000D01*
X163819000Y-128763000D01*
X163811005Y-128831914D01*
X163804021Y-128847729D01*
X163802786Y-128855531D01*
X163786229Y-128888024D01*
X163766324Y-128933106D01*
X163688106Y-129011324D01*
X163643024Y-129031229D01*
X163610531Y-129047786D01*
X163602729Y-129049021D01*
X163586914Y-129056005D01*
X163518000Y-129064000D01*
X162618000Y-129064000D01*
X162549086Y-129056005D01*
X162533270Y-129049021D01*
X162525468Y-129047786D01*
X162492967Y-129031226D01*
X162447894Y-129011324D01*
X162369676Y-128933106D01*
X162349776Y-128888039D01*
X162333213Y-128855531D01*
X162331976Y-128847726D01*
X162324995Y-128831914D01*
X162317000Y-128763000D01*
X162317000Y-128238000D01*
X162324995Y-128169086D01*
X162331976Y-128153274D01*
X162333213Y-128145468D01*
X162349780Y-128112953D01*
X162369676Y-128067894D01*
X162447894Y-127989676D01*
X162492953Y-127969780D01*
X162525468Y-127953213D01*
X162533274Y-127951976D01*
X162549086Y-127944995D01*
X162618000Y-127937000D01*
X163518000Y-127937000D01*
X163586914Y-127944995D01*
G37*
G36*
X166159983Y-127246936D02*
G01*
X166210180Y-127246936D01*
X166253524Y-127256149D01*
X166291659Y-127259905D01*
X166339566Y-127274437D01*
X166394424Y-127286098D01*
X166429530Y-127301728D01*
X166460566Y-127311143D01*
X166509884Y-127337504D01*
X166566500Y-127362711D01*
X166592822Y-127381835D01*
X166616232Y-127394348D01*
X166663988Y-127433540D01*
X166718887Y-127473427D01*
X166736711Y-127493223D01*
X166752675Y-127506324D01*
X166795572Y-127558594D01*
X166844924Y-127613405D01*
X166855292Y-127631363D01*
X166864651Y-127642767D01*
X166899273Y-127707542D01*
X166939104Y-127776530D01*
X166943685Y-127790630D01*
X166947856Y-127798433D01*
X166970852Y-127874242D01*
X166997311Y-127955672D01*
X166998242Y-127964532D01*
X166999094Y-127967340D01*
X167007384Y-128051513D01*
X167017000Y-128143000D01*
X167007383Y-128234494D01*
X166999094Y-128318659D01*
X166998242Y-128321466D01*
X166997311Y-128330328D01*
X166970848Y-128411771D01*
X166947856Y-128487566D01*
X166943686Y-128495366D01*
X166939104Y-128509470D01*
X166899266Y-128578470D01*
X166864651Y-128643232D01*
X166855294Y-128654633D01*
X166844924Y-128672595D01*
X166795563Y-128727415D01*
X166752675Y-128779675D01*
X166736714Y-128792773D01*
X166718887Y-128812573D01*
X166663977Y-128852467D01*
X166616232Y-128891651D01*
X166592827Y-128904161D01*
X166566500Y-128923289D01*
X166509873Y-128948500D01*
X166460566Y-128974856D01*
X166429537Y-128984268D01*
X166394424Y-128999902D01*
X166339555Y-129011564D01*
X166291659Y-129026094D01*
X166253532Y-129029849D01*
X166210180Y-129039064D01*
X166159973Y-129039064D01*
X166116000Y-129043395D01*
X166072027Y-129039064D01*
X166021820Y-129039064D01*
X165978467Y-129029849D01*
X165940340Y-129026094D01*
X165892441Y-129011563D01*
X165837576Y-128999902D01*
X165802464Y-128984269D01*
X165771433Y-128974856D01*
X165722120Y-128948498D01*
X165665500Y-128923289D01*
X165639175Y-128904163D01*
X165615767Y-128891651D01*
X165568013Y-128852460D01*
X165513113Y-128812573D01*
X165495287Y-128792776D01*
X165479324Y-128779675D01*
X165436425Y-128727402D01*
X165387076Y-128672595D01*
X165376708Y-128654637D01*
X165367348Y-128643232D01*
X165332719Y-128578447D01*
X165292896Y-128509470D01*
X165288315Y-128495371D01*
X165284143Y-128487566D01*
X165261136Y-128411725D01*
X165234689Y-128330328D01*
X165233758Y-128321471D01*
X165232905Y-128318659D01*
X165224600Y-128234342D01*
X165215000Y-128143000D01*
X165224599Y-128051664D01*
X165232905Y-127967340D01*
X165233758Y-127964527D01*
X165234689Y-127955672D01*
X165261132Y-127874288D01*
X165284143Y-127798433D01*
X165288315Y-127790626D01*
X165292896Y-127776530D01*
X165332712Y-127707565D01*
X165367348Y-127642767D01*
X165376710Y-127631359D01*
X165387076Y-127613405D01*
X165436416Y-127558607D01*
X165479324Y-127506324D01*
X165495291Y-127493219D01*
X165513113Y-127473427D01*
X165568002Y-127433546D01*
X165615767Y-127394348D01*
X165639180Y-127381833D01*
X165665500Y-127362711D01*
X165722109Y-127337506D01*
X165771433Y-127311143D01*
X165802471Y-127301727D01*
X165837576Y-127286098D01*
X165892430Y-127274438D01*
X165940340Y-127259905D01*
X165978476Y-127256148D01*
X166021820Y-127246936D01*
X166072016Y-127246936D01*
X166116000Y-127242604D01*
X166159983Y-127246936D01*
G37*
G36*
X144313323Y-126981773D02*
G01*
X144351957Y-126981773D01*
X144395540Y-126991036D01*
X144446539Y-126996783D01*
X144483621Y-127009758D01*
X144515606Y-127016557D01*
X144561701Y-127037079D01*
X144615841Y-127056024D01*
X144644019Y-127073729D01*
X144668457Y-127084610D01*
X144714020Y-127117714D01*
X144767715Y-127151453D01*
X144787000Y-127170738D01*
X144803812Y-127182953D01*
X144845376Y-127229114D01*
X144894547Y-127278285D01*
X144905855Y-127296282D01*
X144915767Y-127307290D01*
X144949676Y-127366022D01*
X144989976Y-127430159D01*
X144995007Y-127444538D01*
X144999420Y-127452181D01*
X145022018Y-127521730D01*
X145049217Y-127599461D01*
X145050248Y-127608613D01*
X145051123Y-127611306D01*
X145059050Y-127686738D01*
X145069300Y-127777700D01*
X145059050Y-127868669D01*
X145051123Y-127944093D01*
X145050248Y-127946784D01*
X145049217Y-127955939D01*
X145022013Y-128033682D01*
X144999420Y-128103218D01*
X144995008Y-128110859D01*
X144989976Y-128125241D01*
X144949669Y-128189388D01*
X144915767Y-128248109D01*
X144905857Y-128259114D01*
X144894547Y-128277115D01*
X144845367Y-128326294D01*
X144803812Y-128372446D01*
X144787004Y-128384657D01*
X144767715Y-128403947D01*
X144714010Y-128437692D01*
X144668457Y-128470789D01*
X144644025Y-128481666D01*
X144615841Y-128499376D01*
X144561691Y-128518323D01*
X144515606Y-128538842D01*
X144483627Y-128545639D01*
X144446539Y-128558617D01*
X144395537Y-128564363D01*
X144351957Y-128573627D01*
X144313323Y-128573627D01*
X144268300Y-128578700D01*
X144223277Y-128573627D01*
X144184643Y-128573627D01*
X144141061Y-128564363D01*
X144090061Y-128558617D01*
X144052974Y-128545639D01*
X144020993Y-128538842D01*
X143974903Y-128518322D01*
X143920759Y-128499376D01*
X143892577Y-128481668D01*
X143868142Y-128470789D01*
X143822582Y-128437687D01*
X143768885Y-128403947D01*
X143749598Y-128384660D01*
X143732787Y-128372446D01*
X143691222Y-128326284D01*
X143642053Y-128277115D01*
X143630744Y-128259118D01*
X143620832Y-128248109D01*
X143586918Y-128189368D01*
X143546624Y-128125241D01*
X143541593Y-128110863D01*
X143537179Y-128103218D01*
X143514572Y-128033642D01*
X143487383Y-127955939D01*
X143486352Y-127946789D01*
X143485476Y-127944093D01*
X143477535Y-127868537D01*
X143467300Y-127777700D01*
X143477534Y-127686870D01*
X143485476Y-127611306D01*
X143486352Y-127608609D01*
X143487383Y-127599461D01*
X143514567Y-127521770D01*
X143537179Y-127452181D01*
X143541593Y-127444534D01*
X143546624Y-127430159D01*
X143586911Y-127366042D01*
X143620832Y-127307290D01*
X143630746Y-127296278D01*
X143642053Y-127278285D01*
X143691213Y-127229124D01*
X143732787Y-127182953D01*
X143749601Y-127170736D01*
X143768885Y-127151453D01*
X143822578Y-127117715D01*
X143868146Y-127084608D01*
X143892584Y-127073727D01*
X143920759Y-127056024D01*
X143974887Y-127037083D01*
X144020989Y-127016558D01*
X144052979Y-127009758D01*
X144090061Y-126996783D01*
X144141059Y-126991036D01*
X144184643Y-126981773D01*
X144223277Y-126981773D01*
X144268300Y-126976700D01*
X144313323Y-126981773D01*
G37*
G36*
X160478323Y-126981773D02*
G01*
X160516957Y-126981773D01*
X160560540Y-126991036D01*
X160611539Y-126996783D01*
X160648621Y-127009758D01*
X160680606Y-127016557D01*
X160726701Y-127037079D01*
X160780841Y-127056024D01*
X160809019Y-127073729D01*
X160833457Y-127084610D01*
X160879020Y-127117714D01*
X160932715Y-127151453D01*
X160952000Y-127170738D01*
X160968812Y-127182953D01*
X161010376Y-127229114D01*
X161059547Y-127278285D01*
X161070855Y-127296282D01*
X161080767Y-127307290D01*
X161114676Y-127366022D01*
X161154976Y-127430159D01*
X161160007Y-127444538D01*
X161164420Y-127452181D01*
X161187018Y-127521730D01*
X161214217Y-127599461D01*
X161215248Y-127608613D01*
X161216123Y-127611306D01*
X161224050Y-127686738D01*
X161234300Y-127777700D01*
X161224050Y-127868669D01*
X161216123Y-127944093D01*
X161215248Y-127946784D01*
X161214217Y-127955939D01*
X161187013Y-128033682D01*
X161164420Y-128103218D01*
X161160008Y-128110859D01*
X161154976Y-128125241D01*
X161114669Y-128189388D01*
X161080767Y-128248109D01*
X161070857Y-128259114D01*
X161059547Y-128277115D01*
X161010367Y-128326294D01*
X160968812Y-128372446D01*
X160952004Y-128384657D01*
X160932715Y-128403947D01*
X160879010Y-128437692D01*
X160833457Y-128470789D01*
X160809025Y-128481666D01*
X160780841Y-128499376D01*
X160726691Y-128518323D01*
X160680606Y-128538842D01*
X160648627Y-128545639D01*
X160611539Y-128558617D01*
X160560537Y-128564363D01*
X160516957Y-128573627D01*
X160478323Y-128573627D01*
X160433300Y-128578700D01*
X160388277Y-128573627D01*
X160349643Y-128573627D01*
X160306061Y-128564363D01*
X160255061Y-128558617D01*
X160217974Y-128545639D01*
X160185993Y-128538842D01*
X160139903Y-128518322D01*
X160085759Y-128499376D01*
X160057577Y-128481668D01*
X160033142Y-128470789D01*
X159987582Y-128437687D01*
X159933885Y-128403947D01*
X159914598Y-128384660D01*
X159897787Y-128372446D01*
X159856222Y-128326284D01*
X159807053Y-128277115D01*
X159795744Y-128259118D01*
X159785832Y-128248109D01*
X159751918Y-128189368D01*
X159711624Y-128125241D01*
X159706593Y-128110863D01*
X159702179Y-128103218D01*
X159679572Y-128033642D01*
X159652383Y-127955939D01*
X159651352Y-127946789D01*
X159650476Y-127944093D01*
X159642535Y-127868537D01*
X159632300Y-127777700D01*
X159642534Y-127686870D01*
X159650476Y-127611306D01*
X159651352Y-127608609D01*
X159652383Y-127599461D01*
X159679567Y-127521770D01*
X159702179Y-127452181D01*
X159706593Y-127444534D01*
X159711624Y-127430159D01*
X159751911Y-127366042D01*
X159785832Y-127307290D01*
X159795746Y-127296278D01*
X159807053Y-127278285D01*
X159856213Y-127229124D01*
X159897787Y-127182953D01*
X159914601Y-127170736D01*
X159933885Y-127151453D01*
X159987578Y-127117715D01*
X160033146Y-127084608D01*
X160057584Y-127073727D01*
X160085759Y-127056024D01*
X160139887Y-127037083D01*
X160185989Y-127016558D01*
X160217979Y-127009758D01*
X160255061Y-126996783D01*
X160306059Y-126991036D01*
X160349643Y-126981773D01*
X160388277Y-126981773D01*
X160433300Y-126976700D01*
X160478323Y-126981773D01*
G37*
G36*
X163586914Y-126213995D02*
G01*
X163602726Y-126220976D01*
X163610531Y-126222213D01*
X163643039Y-126238776D01*
X163688106Y-126258676D01*
X163766324Y-126336894D01*
X163786226Y-126381967D01*
X163802786Y-126414468D01*
X163804021Y-126422270D01*
X163811005Y-126438086D01*
X163819000Y-126507000D01*
X163819000Y-127032000D01*
X163811005Y-127100914D01*
X163804021Y-127116729D01*
X163802786Y-127124531D01*
X163786229Y-127157024D01*
X163766324Y-127202106D01*
X163688106Y-127280324D01*
X163643024Y-127300229D01*
X163610531Y-127316786D01*
X163602729Y-127318021D01*
X163586914Y-127325005D01*
X163518000Y-127333000D01*
X162618000Y-127333000D01*
X162549086Y-127325005D01*
X162533270Y-127318021D01*
X162525468Y-127316786D01*
X162492967Y-127300226D01*
X162447894Y-127280324D01*
X162369676Y-127202106D01*
X162349776Y-127157039D01*
X162333213Y-127124531D01*
X162331976Y-127116726D01*
X162324995Y-127100914D01*
X162317000Y-127032000D01*
X162317000Y-126507000D01*
X162324995Y-126438086D01*
X162331976Y-126422274D01*
X162333213Y-126414468D01*
X162349780Y-126381953D01*
X162369676Y-126336894D01*
X162447894Y-126258676D01*
X162492953Y-126238780D01*
X162525468Y-126222213D01*
X162533274Y-126220976D01*
X162549086Y-126213995D01*
X162618000Y-126206000D01*
X163518000Y-126206000D01*
X163586914Y-126213995D01*
G37*
G36*
X139873604Y-124915590D02*
G01*
X139914696Y-124915590D01*
X139960456Y-124924144D01*
X140012531Y-124929273D01*
X140052091Y-124941273D01*
X140087111Y-124947820D01*
X140135617Y-124966611D01*
X140190932Y-124983391D01*
X140222534Y-125000282D01*
X140250656Y-125011177D01*
X140299513Y-125041428D01*
X140355347Y-125071272D01*
X140378809Y-125090526D01*
X140399784Y-125103514D01*
X140446256Y-125145879D01*
X140499459Y-125189541D01*
X140515224Y-125208751D01*
X140529400Y-125221674D01*
X140570557Y-125276174D01*
X140617728Y-125333653D01*
X140626848Y-125350717D01*
X140635099Y-125361642D01*
X140667925Y-125427566D01*
X140705609Y-125498068D01*
X140709628Y-125511316D01*
X140713282Y-125518655D01*
X140734864Y-125594507D01*
X140759727Y-125676469D01*
X140760543Y-125684762D01*
X140761280Y-125687350D01*
X140768937Y-125769982D01*
X140778000Y-125862000D01*
X140768936Y-125954026D01*
X140761280Y-126036649D01*
X140760544Y-126039235D01*
X140759727Y-126047531D01*
X140734859Y-126129507D01*
X140713282Y-126205344D01*
X140709628Y-126212680D01*
X140705609Y-126225932D01*
X140667917Y-126296447D01*
X140635099Y-126362357D01*
X140626850Y-126373279D01*
X140617728Y-126390347D01*
X140570547Y-126447836D01*
X140529400Y-126502325D01*
X140515227Y-126515244D01*
X140499459Y-126534459D01*
X140446245Y-126578129D01*
X140399784Y-126620485D01*
X140378814Y-126633469D01*
X140355347Y-126652728D01*
X140299502Y-126682577D01*
X140250656Y-126712822D01*
X140222541Y-126723713D01*
X140190932Y-126740609D01*
X140135605Y-126757392D01*
X140087111Y-126776179D01*
X140052098Y-126782724D01*
X140012531Y-126794727D01*
X139960453Y-126799856D01*
X139914696Y-126808410D01*
X139873604Y-126808410D01*
X139827000Y-126813000D01*
X139780396Y-126808410D01*
X139739304Y-126808410D01*
X139693545Y-126799856D01*
X139641469Y-126794727D01*
X139601902Y-126782724D01*
X139566888Y-126776179D01*
X139518389Y-126757390D01*
X139463068Y-126740609D01*
X139431461Y-126723714D01*
X139403343Y-126712822D01*
X139354490Y-126682573D01*
X139298653Y-126652728D01*
X139275188Y-126633471D01*
X139254215Y-126620485D01*
X139207744Y-126578121D01*
X139154541Y-126534459D01*
X139138775Y-126515248D01*
X139124599Y-126502325D01*
X139083439Y-126447821D01*
X139036272Y-126390347D01*
X139027151Y-126373284D01*
X139018900Y-126362357D01*
X138986067Y-126296420D01*
X138948391Y-126225932D01*
X138944372Y-126212685D01*
X138940717Y-126205344D01*
X138919124Y-126129454D01*
X138894273Y-126047531D01*
X138893456Y-126039241D01*
X138892719Y-126036649D01*
X138885046Y-125953854D01*
X138876000Y-125862000D01*
X138885045Y-125770153D01*
X138892719Y-125687350D01*
X138893456Y-125684757D01*
X138894273Y-125676469D01*
X138919119Y-125594560D01*
X138940717Y-125518655D01*
X138944373Y-125511311D01*
X138948391Y-125498068D01*
X138986060Y-125427593D01*
X139018900Y-125361642D01*
X139027153Y-125350712D01*
X139036272Y-125333653D01*
X139083430Y-125276190D01*
X139124599Y-125221674D01*
X139138778Y-125208747D01*
X139154541Y-125189541D01*
X139207733Y-125145887D01*
X139254215Y-125103514D01*
X139275193Y-125090524D01*
X139298653Y-125071272D01*
X139354478Y-125041432D01*
X139403343Y-125011177D01*
X139431467Y-125000281D01*
X139463068Y-124983391D01*
X139518377Y-124966612D01*
X139566888Y-124947820D01*
X139601909Y-124941273D01*
X139641469Y-124929273D01*
X139693542Y-124924144D01*
X139739304Y-124915590D01*
X139780396Y-124915590D01*
X139827000Y-124911000D01*
X139873604Y-124915590D01*
G37*
G36*
X166985517Y-124705882D02*
G01*
X167002062Y-124716938D01*
X167013118Y-124733483D01*
X167017000Y-124753000D01*
X167017000Y-126453000D01*
X167013118Y-126472517D01*
X167002062Y-126489062D01*
X166985517Y-126500118D01*
X166966000Y-126504000D01*
X165266000Y-126504000D01*
X165246483Y-126500118D01*
X165229938Y-126489062D01*
X165218882Y-126472517D01*
X165215000Y-126453000D01*
X165215000Y-124753000D01*
X165218882Y-124733483D01*
X165229938Y-124716938D01*
X165246483Y-124705882D01*
X165266000Y-124702000D01*
X166966000Y-124702000D01*
X166985517Y-124705882D01*
G37*
G36*
X144313323Y-124441773D02*
G01*
X144351957Y-124441773D01*
X144395540Y-124451036D01*
X144446539Y-124456783D01*
X144483621Y-124469758D01*
X144515606Y-124476557D01*
X144561701Y-124497079D01*
X144615841Y-124516024D01*
X144644019Y-124533729D01*
X144668457Y-124544610D01*
X144714020Y-124577714D01*
X144767715Y-124611453D01*
X144787000Y-124630738D01*
X144803812Y-124642953D01*
X144845376Y-124689114D01*
X144894547Y-124738285D01*
X144905855Y-124756282D01*
X144915767Y-124767290D01*
X144949676Y-124826022D01*
X144989976Y-124890159D01*
X144995007Y-124904538D01*
X144999420Y-124912181D01*
X145022018Y-124981730D01*
X145049217Y-125059461D01*
X145050248Y-125068613D01*
X145051123Y-125071306D01*
X145059050Y-125146738D01*
X145069300Y-125237700D01*
X145059050Y-125328669D01*
X145051123Y-125404093D01*
X145050248Y-125406784D01*
X145049217Y-125415939D01*
X145022013Y-125493682D01*
X144999420Y-125563218D01*
X144995008Y-125570859D01*
X144989976Y-125585241D01*
X144949669Y-125649388D01*
X144915767Y-125708109D01*
X144905857Y-125719114D01*
X144894547Y-125737115D01*
X144845367Y-125786294D01*
X144803812Y-125832446D01*
X144787004Y-125844657D01*
X144767715Y-125863947D01*
X144714010Y-125897692D01*
X144668457Y-125930789D01*
X144644025Y-125941666D01*
X144615841Y-125959376D01*
X144561691Y-125978323D01*
X144515606Y-125998842D01*
X144483627Y-126005639D01*
X144446539Y-126018617D01*
X144395537Y-126024363D01*
X144351957Y-126033627D01*
X144313323Y-126033627D01*
X144268300Y-126038700D01*
X144223277Y-126033627D01*
X144184643Y-126033627D01*
X144141061Y-126024363D01*
X144090061Y-126018617D01*
X144052974Y-126005639D01*
X144020993Y-125998842D01*
X143974903Y-125978322D01*
X143920759Y-125959376D01*
X143892577Y-125941668D01*
X143868142Y-125930789D01*
X143822582Y-125897687D01*
X143768885Y-125863947D01*
X143749598Y-125844660D01*
X143732787Y-125832446D01*
X143691222Y-125786284D01*
X143642053Y-125737115D01*
X143630744Y-125719118D01*
X143620832Y-125708109D01*
X143586918Y-125649368D01*
X143546624Y-125585241D01*
X143541593Y-125570863D01*
X143537179Y-125563218D01*
X143514572Y-125493642D01*
X143487383Y-125415939D01*
X143486352Y-125406789D01*
X143485476Y-125404093D01*
X143477535Y-125328537D01*
X143467300Y-125237700D01*
X143477534Y-125146870D01*
X143485476Y-125071306D01*
X143486352Y-125068609D01*
X143487383Y-125059461D01*
X143514567Y-124981770D01*
X143537179Y-124912181D01*
X143541593Y-124904534D01*
X143546624Y-124890159D01*
X143586911Y-124826042D01*
X143620832Y-124767290D01*
X143630746Y-124756278D01*
X143642053Y-124738285D01*
X143691213Y-124689124D01*
X143732787Y-124642953D01*
X143749601Y-124630736D01*
X143768885Y-124611453D01*
X143822578Y-124577715D01*
X143868146Y-124544608D01*
X143892584Y-124533727D01*
X143920759Y-124516024D01*
X143974887Y-124497083D01*
X144020989Y-124476558D01*
X144052979Y-124469758D01*
X144090061Y-124456783D01*
X144141059Y-124451036D01*
X144184643Y-124441773D01*
X144223277Y-124441773D01*
X144268300Y-124436700D01*
X144313323Y-124441773D01*
G37*
G36*
X160478323Y-124441773D02*
G01*
X160516957Y-124441773D01*
X160560540Y-124451036D01*
X160611539Y-124456783D01*
X160648621Y-124469758D01*
X160680606Y-124476557D01*
X160726701Y-124497079D01*
X160780841Y-124516024D01*
X160809019Y-124533729D01*
X160833457Y-124544610D01*
X160879020Y-124577714D01*
X160932715Y-124611453D01*
X160952000Y-124630738D01*
X160968812Y-124642953D01*
X161010376Y-124689114D01*
X161059547Y-124738285D01*
X161070855Y-124756282D01*
X161080767Y-124767290D01*
X161114676Y-124826022D01*
X161154976Y-124890159D01*
X161160007Y-124904538D01*
X161164420Y-124912181D01*
X161187018Y-124981730D01*
X161214217Y-125059461D01*
X161215248Y-125068613D01*
X161216123Y-125071306D01*
X161224050Y-125146738D01*
X161234300Y-125237700D01*
X161224050Y-125328669D01*
X161216123Y-125404093D01*
X161215248Y-125406784D01*
X161214217Y-125415939D01*
X161187013Y-125493682D01*
X161164420Y-125563218D01*
X161160008Y-125570859D01*
X161154976Y-125585241D01*
X161114669Y-125649388D01*
X161080767Y-125708109D01*
X161070857Y-125719114D01*
X161059547Y-125737115D01*
X161010367Y-125786294D01*
X160968812Y-125832446D01*
X160952004Y-125844657D01*
X160932715Y-125863947D01*
X160879010Y-125897692D01*
X160833457Y-125930789D01*
X160809025Y-125941666D01*
X160780841Y-125959376D01*
X160726691Y-125978323D01*
X160680606Y-125998842D01*
X160648627Y-126005639D01*
X160611539Y-126018617D01*
X160560537Y-126024363D01*
X160516957Y-126033627D01*
X160478323Y-126033627D01*
X160433300Y-126038700D01*
X160388277Y-126033627D01*
X160349643Y-126033627D01*
X160306061Y-126024363D01*
X160255061Y-126018617D01*
X160217974Y-126005639D01*
X160185993Y-125998842D01*
X160139903Y-125978322D01*
X160085759Y-125959376D01*
X160057577Y-125941668D01*
X160033142Y-125930789D01*
X159987582Y-125897687D01*
X159933885Y-125863947D01*
X159914598Y-125844660D01*
X159897787Y-125832446D01*
X159856222Y-125786284D01*
X159807053Y-125737115D01*
X159795744Y-125719118D01*
X159785832Y-125708109D01*
X159751918Y-125649368D01*
X159711624Y-125585241D01*
X159706593Y-125570863D01*
X159702179Y-125563218D01*
X159679572Y-125493642D01*
X159652383Y-125415939D01*
X159651352Y-125406789D01*
X159650476Y-125404093D01*
X159642535Y-125328537D01*
X159632300Y-125237700D01*
X159642534Y-125146870D01*
X159650476Y-125071306D01*
X159651352Y-125068609D01*
X159652383Y-125059461D01*
X159679567Y-124981770D01*
X159702179Y-124912181D01*
X159706593Y-124904534D01*
X159711624Y-124890159D01*
X159751911Y-124826042D01*
X159785832Y-124767290D01*
X159795746Y-124756278D01*
X159807053Y-124738285D01*
X159856213Y-124689124D01*
X159897787Y-124642953D01*
X159914601Y-124630736D01*
X159933885Y-124611453D01*
X159987578Y-124577715D01*
X160033146Y-124544608D01*
X160057584Y-124533727D01*
X160085759Y-124516024D01*
X160139887Y-124497083D01*
X160185989Y-124476558D01*
X160217979Y-124469758D01*
X160255061Y-124456783D01*
X160306059Y-124451036D01*
X160349643Y-124441773D01*
X160388277Y-124441773D01*
X160433300Y-124436700D01*
X160478323Y-124441773D01*
G37*
G36*
X163586914Y-124388995D02*
G01*
X163602726Y-124395976D01*
X163610531Y-124397213D01*
X163643039Y-124413776D01*
X163688106Y-124433676D01*
X163766324Y-124511894D01*
X163786226Y-124556967D01*
X163802786Y-124589468D01*
X163804021Y-124597270D01*
X163811005Y-124613086D01*
X163819000Y-124682000D01*
X163819000Y-125207000D01*
X163811005Y-125275914D01*
X163804021Y-125291729D01*
X163802786Y-125299531D01*
X163786229Y-125332024D01*
X163766324Y-125377106D01*
X163688106Y-125455324D01*
X163643024Y-125475229D01*
X163610531Y-125491786D01*
X163602729Y-125493021D01*
X163586914Y-125500005D01*
X163518000Y-125508000D01*
X162618000Y-125508000D01*
X162549086Y-125500005D01*
X162533270Y-125493021D01*
X162525468Y-125491786D01*
X162492967Y-125475226D01*
X162447894Y-125455324D01*
X162369676Y-125377106D01*
X162349776Y-125332039D01*
X162333213Y-125299531D01*
X162331976Y-125291726D01*
X162324995Y-125275914D01*
X162317000Y-125207000D01*
X162317000Y-124682000D01*
X162324995Y-124613086D01*
X162331976Y-124597274D01*
X162333213Y-124589468D01*
X162349780Y-124556953D01*
X162369676Y-124511894D01*
X162447894Y-124433676D01*
X162492953Y-124413780D01*
X162525468Y-124397213D01*
X162533274Y-124395976D01*
X162549086Y-124388995D01*
X162618000Y-124381000D01*
X163518000Y-124381000D01*
X163586914Y-124388995D01*
G37*
G36*
X144313323Y-121901773D02*
G01*
X144351957Y-121901773D01*
X144395540Y-121911036D01*
X144446539Y-121916783D01*
X144483621Y-121929758D01*
X144515606Y-121936557D01*
X144561701Y-121957079D01*
X144615841Y-121976024D01*
X144644019Y-121993729D01*
X144668457Y-122004610D01*
X144714020Y-122037714D01*
X144767715Y-122071453D01*
X144787000Y-122090738D01*
X144803812Y-122102953D01*
X144845376Y-122149114D01*
X144894547Y-122198285D01*
X144905855Y-122216282D01*
X144915767Y-122227290D01*
X144949676Y-122286022D01*
X144989976Y-122350159D01*
X144995007Y-122364538D01*
X144999420Y-122372181D01*
X145022018Y-122441730D01*
X145049217Y-122519461D01*
X145050248Y-122528613D01*
X145051123Y-122531306D01*
X145059050Y-122606738D01*
X145069300Y-122697700D01*
X145059050Y-122788669D01*
X145051123Y-122864093D01*
X145050248Y-122866784D01*
X145049217Y-122875939D01*
X145022013Y-122953682D01*
X144999420Y-123023218D01*
X144995008Y-123030859D01*
X144989976Y-123045241D01*
X144949669Y-123109388D01*
X144915767Y-123168109D01*
X144905857Y-123179114D01*
X144894547Y-123197115D01*
X144845367Y-123246294D01*
X144803812Y-123292446D01*
X144787004Y-123304657D01*
X144767715Y-123323947D01*
X144714010Y-123357692D01*
X144668457Y-123390789D01*
X144644025Y-123401666D01*
X144615841Y-123419376D01*
X144561691Y-123438323D01*
X144515606Y-123458842D01*
X144483627Y-123465639D01*
X144446539Y-123478617D01*
X144395537Y-123484363D01*
X144351957Y-123493627D01*
X144313323Y-123493627D01*
X144268300Y-123498700D01*
X144223277Y-123493627D01*
X144184643Y-123493627D01*
X144141061Y-123484363D01*
X144090061Y-123478617D01*
X144052974Y-123465639D01*
X144020993Y-123458842D01*
X143974903Y-123438322D01*
X143920759Y-123419376D01*
X143892577Y-123401668D01*
X143868142Y-123390789D01*
X143822582Y-123357687D01*
X143768885Y-123323947D01*
X143749598Y-123304660D01*
X143732787Y-123292446D01*
X143691222Y-123246284D01*
X143642053Y-123197115D01*
X143630744Y-123179118D01*
X143620832Y-123168109D01*
X143586918Y-123109368D01*
X143546624Y-123045241D01*
X143541593Y-123030863D01*
X143537179Y-123023218D01*
X143514572Y-122953642D01*
X143487383Y-122875939D01*
X143486352Y-122866789D01*
X143485476Y-122864093D01*
X143477535Y-122788537D01*
X143467300Y-122697700D01*
X143477534Y-122606870D01*
X143485476Y-122531306D01*
X143486352Y-122528609D01*
X143487383Y-122519461D01*
X143514567Y-122441770D01*
X143537179Y-122372181D01*
X143541593Y-122364534D01*
X143546624Y-122350159D01*
X143586911Y-122286042D01*
X143620832Y-122227290D01*
X143630746Y-122216278D01*
X143642053Y-122198285D01*
X143691213Y-122149124D01*
X143732787Y-122102953D01*
X143749601Y-122090736D01*
X143768885Y-122071453D01*
X143822578Y-122037715D01*
X143868146Y-122004608D01*
X143892584Y-121993727D01*
X143920759Y-121976024D01*
X143974887Y-121957083D01*
X144020989Y-121936558D01*
X144052979Y-121929758D01*
X144090061Y-121916783D01*
X144141059Y-121911036D01*
X144184643Y-121901773D01*
X144223277Y-121901773D01*
X144268300Y-121896700D01*
X144313323Y-121901773D01*
G37*
G36*
X160478323Y-121901773D02*
G01*
X160516957Y-121901773D01*
X160560540Y-121911036D01*
X160611539Y-121916783D01*
X160648621Y-121929758D01*
X160680606Y-121936557D01*
X160726701Y-121957079D01*
X160780841Y-121976024D01*
X160809019Y-121993729D01*
X160833457Y-122004610D01*
X160879020Y-122037714D01*
X160932715Y-122071453D01*
X160952000Y-122090738D01*
X160968812Y-122102953D01*
X161010376Y-122149114D01*
X161059547Y-122198285D01*
X161070855Y-122216282D01*
X161080767Y-122227290D01*
X161114676Y-122286022D01*
X161154976Y-122350159D01*
X161160007Y-122364538D01*
X161164420Y-122372181D01*
X161187018Y-122441730D01*
X161214217Y-122519461D01*
X161215248Y-122528613D01*
X161216123Y-122531306D01*
X161224050Y-122606738D01*
X161234300Y-122697700D01*
X161224050Y-122788669D01*
X161216123Y-122864093D01*
X161215248Y-122866784D01*
X161214217Y-122875939D01*
X161187013Y-122953682D01*
X161164420Y-123023218D01*
X161160008Y-123030859D01*
X161154976Y-123045241D01*
X161114669Y-123109388D01*
X161080767Y-123168109D01*
X161070857Y-123179114D01*
X161059547Y-123197115D01*
X161010367Y-123246294D01*
X160968812Y-123292446D01*
X160952004Y-123304657D01*
X160932715Y-123323947D01*
X160879010Y-123357692D01*
X160833457Y-123390789D01*
X160809025Y-123401666D01*
X160780841Y-123419376D01*
X160726691Y-123438323D01*
X160680606Y-123458842D01*
X160648627Y-123465639D01*
X160611539Y-123478617D01*
X160560537Y-123484363D01*
X160516957Y-123493627D01*
X160478323Y-123493627D01*
X160433300Y-123498700D01*
X160388277Y-123493627D01*
X160349643Y-123493627D01*
X160306061Y-123484363D01*
X160255061Y-123478617D01*
X160217974Y-123465639D01*
X160185993Y-123458842D01*
X160139903Y-123438322D01*
X160085759Y-123419376D01*
X160057577Y-123401668D01*
X160033142Y-123390789D01*
X159987582Y-123357687D01*
X159933885Y-123323947D01*
X159914598Y-123304660D01*
X159897787Y-123292446D01*
X159856222Y-123246284D01*
X159807053Y-123197115D01*
X159795744Y-123179118D01*
X159785832Y-123168109D01*
X159751918Y-123109368D01*
X159711624Y-123045241D01*
X159706593Y-123030863D01*
X159702179Y-123023218D01*
X159679572Y-122953642D01*
X159652383Y-122875939D01*
X159651352Y-122866789D01*
X159650476Y-122864093D01*
X159642535Y-122788537D01*
X159632300Y-122697700D01*
X159642534Y-122606870D01*
X159650476Y-122531306D01*
X159651352Y-122528609D01*
X159652383Y-122519461D01*
X159679567Y-122441770D01*
X159702179Y-122372181D01*
X159706593Y-122364534D01*
X159711624Y-122350159D01*
X159751911Y-122286042D01*
X159785832Y-122227290D01*
X159795746Y-122216278D01*
X159807053Y-122198285D01*
X159856213Y-122149124D01*
X159897787Y-122102953D01*
X159914601Y-122090736D01*
X159933885Y-122071453D01*
X159987578Y-122037715D01*
X160033146Y-122004608D01*
X160057584Y-121993727D01*
X160085759Y-121976024D01*
X160139887Y-121957083D01*
X160185989Y-121936558D01*
X160217979Y-121929758D01*
X160255061Y-121916783D01*
X160306059Y-121911036D01*
X160349643Y-121901773D01*
X160388277Y-121901773D01*
X160433300Y-121896700D01*
X160478323Y-121901773D01*
G37*
G36*
X139207733Y-122199829D02*
G01*
X139223330Y-122206716D01*
X139230850Y-122207907D01*
X139262166Y-122223863D01*
X139306824Y-122243582D01*
X139383418Y-122320176D01*
X139403139Y-122364840D01*
X139419092Y-122396149D01*
X139420282Y-122403666D01*
X139427171Y-122419267D01*
X139435000Y-122486750D01*
X139435000Y-122974250D01*
X139427171Y-123041733D01*
X139420282Y-123057334D01*
X139419092Y-123064850D01*
X139403142Y-123096152D01*
X139383418Y-123140824D01*
X139306824Y-123217418D01*
X139262152Y-123237142D01*
X139230850Y-123253092D01*
X139223334Y-123254282D01*
X139207733Y-123261171D01*
X139140250Y-123269000D01*
X138227750Y-123269000D01*
X138160267Y-123261171D01*
X138144666Y-123254282D01*
X138137149Y-123253092D01*
X138105840Y-123237139D01*
X138061176Y-123217418D01*
X137984582Y-123140824D01*
X137964863Y-123096166D01*
X137948907Y-123064850D01*
X137947716Y-123057330D01*
X137940829Y-123041733D01*
X137933000Y-122974250D01*
X137933000Y-122486750D01*
X137940829Y-122419267D01*
X137947715Y-122403669D01*
X137948907Y-122396149D01*
X137964867Y-122364825D01*
X137984582Y-122320176D01*
X138061176Y-122243582D01*
X138105825Y-122223867D01*
X138137149Y-122207907D01*
X138144669Y-122206715D01*
X138160267Y-122199829D01*
X138227750Y-122192000D01*
X139140250Y-122192000D01*
X139207733Y-122199829D01*
G37*
G36*
X141488914Y-122149995D02*
G01*
X141504726Y-122156976D01*
X141512531Y-122158213D01*
X141545039Y-122174776D01*
X141590106Y-122194676D01*
X141668324Y-122272894D01*
X141688226Y-122317967D01*
X141704786Y-122350468D01*
X141706021Y-122358270D01*
X141713005Y-122374086D01*
X141721000Y-122443000D01*
X141721000Y-122968000D01*
X141713005Y-123036914D01*
X141706021Y-123052729D01*
X141704786Y-123060531D01*
X141688229Y-123093024D01*
X141668324Y-123138106D01*
X141590106Y-123216324D01*
X141545024Y-123236229D01*
X141512531Y-123252786D01*
X141504729Y-123254021D01*
X141488914Y-123261005D01*
X141420000Y-123269000D01*
X140520000Y-123269000D01*
X140451086Y-123261005D01*
X140435270Y-123254021D01*
X140427468Y-123252786D01*
X140394967Y-123236226D01*
X140349894Y-123216324D01*
X140271676Y-123138106D01*
X140251776Y-123093039D01*
X140235213Y-123060531D01*
X140233976Y-123052726D01*
X140226995Y-123036914D01*
X140219000Y-122968000D01*
X140219000Y-122443000D01*
X140226995Y-122374086D01*
X140233976Y-122358274D01*
X140235213Y-122350468D01*
X140251780Y-122317953D01*
X140271676Y-122272894D01*
X140349894Y-122194676D01*
X140394953Y-122174780D01*
X140427468Y-122158213D01*
X140435274Y-122156976D01*
X140451086Y-122149995D01*
X140520000Y-122142000D01*
X141420000Y-122142000D01*
X141488914Y-122149995D01*
G37*
G36*
X166159983Y-120642936D02*
G01*
X166210180Y-120642936D01*
X166253524Y-120652149D01*
X166291659Y-120655905D01*
X166339566Y-120670437D01*
X166394424Y-120682098D01*
X166429530Y-120697728D01*
X166460566Y-120707143D01*
X166509884Y-120733504D01*
X166566500Y-120758711D01*
X166592822Y-120777835D01*
X166616232Y-120790348D01*
X166663988Y-120829540D01*
X166718887Y-120869427D01*
X166736711Y-120889223D01*
X166752675Y-120902324D01*
X166795572Y-120954594D01*
X166844924Y-121009405D01*
X166855292Y-121027363D01*
X166864651Y-121038767D01*
X166899273Y-121103542D01*
X166939104Y-121172530D01*
X166943685Y-121186630D01*
X166947856Y-121194433D01*
X166970852Y-121270242D01*
X166997311Y-121351672D01*
X166998242Y-121360532D01*
X166999094Y-121363340D01*
X167007384Y-121447513D01*
X167017000Y-121539000D01*
X167007383Y-121630494D01*
X166999094Y-121714659D01*
X166998242Y-121717466D01*
X166997311Y-121726328D01*
X166970848Y-121807771D01*
X166947856Y-121883566D01*
X166943686Y-121891366D01*
X166939104Y-121905470D01*
X166899266Y-121974470D01*
X166864651Y-122039232D01*
X166855294Y-122050633D01*
X166844924Y-122068595D01*
X166795563Y-122123415D01*
X166752675Y-122175675D01*
X166736714Y-122188773D01*
X166718887Y-122208573D01*
X166663977Y-122248467D01*
X166616232Y-122287651D01*
X166592827Y-122300161D01*
X166566500Y-122319289D01*
X166509873Y-122344500D01*
X166460566Y-122370856D01*
X166429537Y-122380268D01*
X166394424Y-122395902D01*
X166339555Y-122407564D01*
X166291659Y-122422094D01*
X166253532Y-122425849D01*
X166210180Y-122435064D01*
X166159973Y-122435064D01*
X166116000Y-122439395D01*
X166072027Y-122435064D01*
X166021820Y-122435064D01*
X165978467Y-122425849D01*
X165940340Y-122422094D01*
X165892441Y-122407563D01*
X165837576Y-122395902D01*
X165802464Y-122380269D01*
X165771433Y-122370856D01*
X165722120Y-122344498D01*
X165665500Y-122319289D01*
X165639175Y-122300163D01*
X165615767Y-122287651D01*
X165568013Y-122248460D01*
X165513113Y-122208573D01*
X165495287Y-122188776D01*
X165479324Y-122175675D01*
X165436425Y-122123402D01*
X165387076Y-122068595D01*
X165376708Y-122050637D01*
X165367348Y-122039232D01*
X165332719Y-121974447D01*
X165292896Y-121905470D01*
X165288315Y-121891371D01*
X165284143Y-121883566D01*
X165261136Y-121807725D01*
X165234689Y-121726328D01*
X165233758Y-121717471D01*
X165232905Y-121714659D01*
X165224600Y-121630342D01*
X165215000Y-121539000D01*
X165224599Y-121447664D01*
X165232905Y-121363340D01*
X165233758Y-121360527D01*
X165234689Y-121351672D01*
X165261132Y-121270288D01*
X165284143Y-121194433D01*
X165288315Y-121186626D01*
X165292896Y-121172530D01*
X165332712Y-121103565D01*
X165367348Y-121038767D01*
X165376710Y-121027359D01*
X165387076Y-121009405D01*
X165436416Y-120954607D01*
X165479324Y-120902324D01*
X165495291Y-120889219D01*
X165513113Y-120869427D01*
X165568002Y-120829546D01*
X165615767Y-120790348D01*
X165639180Y-120777833D01*
X165665500Y-120758711D01*
X165722109Y-120733506D01*
X165771433Y-120707143D01*
X165802471Y-120697727D01*
X165837576Y-120682098D01*
X165892430Y-120670438D01*
X165940340Y-120655905D01*
X165978476Y-120652148D01*
X166021820Y-120642936D01*
X166072016Y-120642936D01*
X166116000Y-120638604D01*
X166159983Y-120642936D01*
G37*
G36*
X141488914Y-120324995D02*
G01*
X141504726Y-120331976D01*
X141512531Y-120333213D01*
X141545039Y-120349776D01*
X141590106Y-120369676D01*
X141668324Y-120447894D01*
X141688226Y-120492967D01*
X141704786Y-120525468D01*
X141706021Y-120533270D01*
X141713005Y-120549086D01*
X141721000Y-120618000D01*
X141721000Y-121143000D01*
X141713005Y-121211914D01*
X141706021Y-121227729D01*
X141704786Y-121235531D01*
X141688229Y-121268024D01*
X141668324Y-121313106D01*
X141590106Y-121391324D01*
X141545024Y-121411229D01*
X141512531Y-121427786D01*
X141504729Y-121429021D01*
X141488914Y-121436005D01*
X141420000Y-121444000D01*
X140520000Y-121444000D01*
X140451086Y-121436005D01*
X140435270Y-121429021D01*
X140427468Y-121427786D01*
X140394967Y-121411226D01*
X140349894Y-121391324D01*
X140271676Y-121313106D01*
X140251776Y-121268039D01*
X140235213Y-121235531D01*
X140233976Y-121227726D01*
X140226995Y-121211914D01*
X140219000Y-121143000D01*
X140219000Y-120618000D01*
X140226995Y-120549086D01*
X140233976Y-120533274D01*
X140235213Y-120525468D01*
X140251780Y-120492953D01*
X140271676Y-120447894D01*
X140349894Y-120369676D01*
X140394953Y-120349780D01*
X140427468Y-120333213D01*
X140435274Y-120331976D01*
X140451086Y-120324995D01*
X140520000Y-120317000D01*
X141420000Y-120317000D01*
X141488914Y-120324995D01*
G37*
G36*
X139207733Y-120324829D02*
G01*
X139223330Y-120331716D01*
X139230850Y-120332907D01*
X139262166Y-120348863D01*
X139306824Y-120368582D01*
X139383418Y-120445176D01*
X139403139Y-120489840D01*
X139419092Y-120521149D01*
X139420282Y-120528666D01*
X139427171Y-120544267D01*
X139435000Y-120611750D01*
X139435000Y-121099250D01*
X139427171Y-121166733D01*
X139420282Y-121182334D01*
X139419092Y-121189850D01*
X139403142Y-121221152D01*
X139383418Y-121265824D01*
X139306824Y-121342418D01*
X139262152Y-121362142D01*
X139230850Y-121378092D01*
X139223334Y-121379282D01*
X139207733Y-121386171D01*
X139140250Y-121394000D01*
X138227750Y-121394000D01*
X138160267Y-121386171D01*
X138144666Y-121379282D01*
X138137149Y-121378092D01*
X138105840Y-121362139D01*
X138061176Y-121342418D01*
X137984582Y-121265824D01*
X137964863Y-121221166D01*
X137948907Y-121189850D01*
X137947716Y-121182330D01*
X137940829Y-121166733D01*
X137933000Y-121099250D01*
X137933000Y-120611750D01*
X137940829Y-120544267D01*
X137947715Y-120528669D01*
X137948907Y-120521149D01*
X137964867Y-120489825D01*
X137984582Y-120445176D01*
X138061176Y-120368582D01*
X138105825Y-120348867D01*
X138137149Y-120332907D01*
X138144669Y-120331715D01*
X138160267Y-120324829D01*
X138227750Y-120317000D01*
X139140250Y-120317000D01*
X139207733Y-120324829D01*
G37*
G36*
X144313323Y-119361773D02*
G01*
X144351957Y-119361773D01*
X144395540Y-119371036D01*
X144446539Y-119376783D01*
X144483621Y-119389758D01*
X144515606Y-119396557D01*
X144561701Y-119417079D01*
X144615841Y-119436024D01*
X144644019Y-119453729D01*
X144668457Y-119464610D01*
X144714020Y-119497714D01*
X144767715Y-119531453D01*
X144787000Y-119550738D01*
X144803812Y-119562953D01*
X144845376Y-119609114D01*
X144894547Y-119658285D01*
X144905855Y-119676282D01*
X144915767Y-119687290D01*
X144949676Y-119746022D01*
X144989976Y-119810159D01*
X144995007Y-119824538D01*
X144999420Y-119832181D01*
X145022018Y-119901730D01*
X145049217Y-119979461D01*
X145050248Y-119988613D01*
X145051123Y-119991306D01*
X145059050Y-120066738D01*
X145069300Y-120157700D01*
X145059050Y-120248669D01*
X145051123Y-120324093D01*
X145050248Y-120326784D01*
X145049217Y-120335939D01*
X145022013Y-120413682D01*
X144999420Y-120483218D01*
X144995008Y-120490859D01*
X144989976Y-120505241D01*
X144949669Y-120569388D01*
X144915767Y-120628109D01*
X144905857Y-120639114D01*
X144894547Y-120657115D01*
X144845367Y-120706294D01*
X144803812Y-120752446D01*
X144787004Y-120764657D01*
X144767715Y-120783947D01*
X144714010Y-120817692D01*
X144668457Y-120850789D01*
X144644025Y-120861666D01*
X144615841Y-120879376D01*
X144561691Y-120898323D01*
X144515606Y-120918842D01*
X144483627Y-120925639D01*
X144446539Y-120938617D01*
X144395537Y-120944363D01*
X144351957Y-120953627D01*
X144313323Y-120953627D01*
X144268300Y-120958700D01*
X144223277Y-120953627D01*
X144184643Y-120953627D01*
X144141061Y-120944363D01*
X144090061Y-120938617D01*
X144052974Y-120925639D01*
X144020993Y-120918842D01*
X143974903Y-120898322D01*
X143920759Y-120879376D01*
X143892577Y-120861668D01*
X143868142Y-120850789D01*
X143822582Y-120817687D01*
X143768885Y-120783947D01*
X143749598Y-120764660D01*
X143732787Y-120752446D01*
X143691222Y-120706284D01*
X143642053Y-120657115D01*
X143630744Y-120639118D01*
X143620832Y-120628109D01*
X143586918Y-120569368D01*
X143546624Y-120505241D01*
X143541593Y-120490863D01*
X143537179Y-120483218D01*
X143514572Y-120413642D01*
X143487383Y-120335939D01*
X143486352Y-120326789D01*
X143485476Y-120324093D01*
X143477535Y-120248537D01*
X143467300Y-120157700D01*
X143477534Y-120066870D01*
X143485476Y-119991306D01*
X143486352Y-119988609D01*
X143487383Y-119979461D01*
X143514567Y-119901770D01*
X143537179Y-119832181D01*
X143541593Y-119824534D01*
X143546624Y-119810159D01*
X143586911Y-119746042D01*
X143620832Y-119687290D01*
X143630746Y-119676278D01*
X143642053Y-119658285D01*
X143691213Y-119609124D01*
X143732787Y-119562953D01*
X143749601Y-119550736D01*
X143768885Y-119531453D01*
X143822578Y-119497715D01*
X143868146Y-119464608D01*
X143892584Y-119453727D01*
X143920759Y-119436024D01*
X143974887Y-119417083D01*
X144020989Y-119396558D01*
X144052979Y-119389758D01*
X144090061Y-119376783D01*
X144141059Y-119371036D01*
X144184643Y-119361773D01*
X144223277Y-119361773D01*
X144268300Y-119356700D01*
X144313323Y-119361773D01*
G37*
G36*
X160478323Y-119361773D02*
G01*
X160516957Y-119361773D01*
X160560540Y-119371036D01*
X160611539Y-119376783D01*
X160648621Y-119389758D01*
X160680606Y-119396557D01*
X160726701Y-119417079D01*
X160780841Y-119436024D01*
X160809019Y-119453729D01*
X160833457Y-119464610D01*
X160879020Y-119497714D01*
X160932715Y-119531453D01*
X160952000Y-119550738D01*
X160968812Y-119562953D01*
X161010376Y-119609114D01*
X161059547Y-119658285D01*
X161070855Y-119676282D01*
X161080767Y-119687290D01*
X161114676Y-119746022D01*
X161154976Y-119810159D01*
X161160007Y-119824538D01*
X161164420Y-119832181D01*
X161187018Y-119901730D01*
X161214217Y-119979461D01*
X161215248Y-119988613D01*
X161216123Y-119991306D01*
X161224050Y-120066738D01*
X161234300Y-120157700D01*
X161224050Y-120248669D01*
X161216123Y-120324093D01*
X161215248Y-120326784D01*
X161214217Y-120335939D01*
X161187013Y-120413682D01*
X161164420Y-120483218D01*
X161160008Y-120490859D01*
X161154976Y-120505241D01*
X161114669Y-120569388D01*
X161080767Y-120628109D01*
X161070857Y-120639114D01*
X161059547Y-120657115D01*
X161010367Y-120706294D01*
X160968812Y-120752446D01*
X160952004Y-120764657D01*
X160932715Y-120783947D01*
X160879010Y-120817692D01*
X160833457Y-120850789D01*
X160809025Y-120861666D01*
X160780841Y-120879376D01*
X160726691Y-120898323D01*
X160680606Y-120918842D01*
X160648627Y-120925639D01*
X160611539Y-120938617D01*
X160560537Y-120944363D01*
X160516957Y-120953627D01*
X160478323Y-120953627D01*
X160433300Y-120958700D01*
X160388277Y-120953627D01*
X160349643Y-120953627D01*
X160306061Y-120944363D01*
X160255061Y-120938617D01*
X160217974Y-120925639D01*
X160185993Y-120918842D01*
X160139903Y-120898322D01*
X160085759Y-120879376D01*
X160057577Y-120861668D01*
X160033142Y-120850789D01*
X159987582Y-120817687D01*
X159933885Y-120783947D01*
X159914598Y-120764660D01*
X159897787Y-120752446D01*
X159856222Y-120706284D01*
X159807053Y-120657115D01*
X159795744Y-120639118D01*
X159785832Y-120628109D01*
X159751918Y-120569368D01*
X159711624Y-120505241D01*
X159706593Y-120490863D01*
X159702179Y-120483218D01*
X159679572Y-120413642D01*
X159652383Y-120335939D01*
X159651352Y-120326789D01*
X159650476Y-120324093D01*
X159642535Y-120248537D01*
X159632300Y-120157700D01*
X159642534Y-120066870D01*
X159650476Y-119991306D01*
X159651352Y-119988609D01*
X159652383Y-119979461D01*
X159679567Y-119901770D01*
X159702179Y-119832181D01*
X159706593Y-119824534D01*
X159711624Y-119810159D01*
X159751911Y-119746042D01*
X159785832Y-119687290D01*
X159795746Y-119676278D01*
X159807053Y-119658285D01*
X159856213Y-119609124D01*
X159897787Y-119562953D01*
X159914601Y-119550736D01*
X159933885Y-119531453D01*
X159987578Y-119497715D01*
X160033146Y-119464608D01*
X160057584Y-119453727D01*
X160085759Y-119436024D01*
X160139887Y-119417083D01*
X160185989Y-119396558D01*
X160217979Y-119389758D01*
X160255061Y-119376783D01*
X160306059Y-119371036D01*
X160349643Y-119361773D01*
X160388277Y-119361773D01*
X160433300Y-119356700D01*
X160478323Y-119361773D01*
G37*
G36*
X166159983Y-118102936D02*
G01*
X166210180Y-118102936D01*
X166253524Y-118112149D01*
X166291659Y-118115905D01*
X166339566Y-118130437D01*
X166394424Y-118142098D01*
X166429530Y-118157728D01*
X166460566Y-118167143D01*
X166509884Y-118193504D01*
X166566500Y-118218711D01*
X166592822Y-118237835D01*
X166616232Y-118250348D01*
X166663988Y-118289540D01*
X166718887Y-118329427D01*
X166736711Y-118349223D01*
X166752675Y-118362324D01*
X166795572Y-118414594D01*
X166844924Y-118469405D01*
X166855292Y-118487363D01*
X166864651Y-118498767D01*
X166899273Y-118563542D01*
X166939104Y-118632530D01*
X166943685Y-118646630D01*
X166947856Y-118654433D01*
X166970852Y-118730242D01*
X166997311Y-118811672D01*
X166998242Y-118820532D01*
X166999094Y-118823340D01*
X167007384Y-118907513D01*
X167017000Y-118999000D01*
X167007383Y-119090494D01*
X166999094Y-119174659D01*
X166998242Y-119177466D01*
X166997311Y-119186328D01*
X166970848Y-119267771D01*
X166947856Y-119343566D01*
X166943686Y-119351366D01*
X166939104Y-119365470D01*
X166899266Y-119434470D01*
X166864651Y-119499232D01*
X166855294Y-119510633D01*
X166844924Y-119528595D01*
X166795563Y-119583415D01*
X166752675Y-119635675D01*
X166736714Y-119648773D01*
X166718887Y-119668573D01*
X166663977Y-119708467D01*
X166616232Y-119747651D01*
X166592827Y-119760161D01*
X166566500Y-119779289D01*
X166509873Y-119804500D01*
X166460566Y-119830856D01*
X166429537Y-119840268D01*
X166394424Y-119855902D01*
X166339555Y-119867564D01*
X166291659Y-119882094D01*
X166253532Y-119885849D01*
X166210180Y-119895064D01*
X166159973Y-119895064D01*
X166116000Y-119899395D01*
X166072027Y-119895064D01*
X166021820Y-119895064D01*
X165978467Y-119885849D01*
X165940340Y-119882094D01*
X165892441Y-119867563D01*
X165837576Y-119855902D01*
X165802464Y-119840269D01*
X165771433Y-119830856D01*
X165722120Y-119804498D01*
X165665500Y-119779289D01*
X165639175Y-119760163D01*
X165615767Y-119747651D01*
X165568013Y-119708460D01*
X165513113Y-119668573D01*
X165495287Y-119648776D01*
X165479324Y-119635675D01*
X165436425Y-119583402D01*
X165387076Y-119528595D01*
X165376708Y-119510637D01*
X165367348Y-119499232D01*
X165332719Y-119434447D01*
X165292896Y-119365470D01*
X165288315Y-119351371D01*
X165284143Y-119343566D01*
X165261136Y-119267725D01*
X165234689Y-119186328D01*
X165233758Y-119177471D01*
X165232905Y-119174659D01*
X165224600Y-119090342D01*
X165215000Y-118999000D01*
X165224599Y-118907664D01*
X165232905Y-118823340D01*
X165233758Y-118820527D01*
X165234689Y-118811672D01*
X165261132Y-118730288D01*
X165284143Y-118654433D01*
X165288315Y-118646626D01*
X165292896Y-118632530D01*
X165332712Y-118563565D01*
X165367348Y-118498767D01*
X165376710Y-118487359D01*
X165387076Y-118469405D01*
X165436416Y-118414607D01*
X165479324Y-118362324D01*
X165495291Y-118349219D01*
X165513113Y-118329427D01*
X165568002Y-118289546D01*
X165615767Y-118250348D01*
X165639180Y-118237833D01*
X165665500Y-118218711D01*
X165722109Y-118193506D01*
X165771433Y-118167143D01*
X165802471Y-118157727D01*
X165837576Y-118142098D01*
X165892430Y-118130438D01*
X165940340Y-118115905D01*
X165978476Y-118112148D01*
X166021820Y-118102936D01*
X166072016Y-118102936D01*
X166116000Y-118098604D01*
X166159983Y-118102936D01*
G37*
G36*
X140045604Y-117544590D02*
G01*
X140086696Y-117544590D01*
X140132456Y-117553144D01*
X140184531Y-117558273D01*
X140224091Y-117570273D01*
X140259111Y-117576820D01*
X140307617Y-117595611D01*
X140362932Y-117612391D01*
X140394534Y-117629282D01*
X140422656Y-117640177D01*
X140471513Y-117670428D01*
X140527347Y-117700272D01*
X140550809Y-117719526D01*
X140571784Y-117732514D01*
X140618256Y-117774879D01*
X140671459Y-117818541D01*
X140687224Y-117837751D01*
X140701400Y-117850674D01*
X140742557Y-117905174D01*
X140789728Y-117962653D01*
X140798848Y-117979717D01*
X140807099Y-117990642D01*
X140839925Y-118056566D01*
X140877609Y-118127068D01*
X140881628Y-118140316D01*
X140885282Y-118147655D01*
X140906864Y-118223507D01*
X140931727Y-118305469D01*
X140932543Y-118313762D01*
X140933280Y-118316350D01*
X140940937Y-118398982D01*
X140950000Y-118491000D01*
X140940936Y-118583026D01*
X140933280Y-118665649D01*
X140932544Y-118668235D01*
X140931727Y-118676531D01*
X140906859Y-118758507D01*
X140885282Y-118834344D01*
X140881628Y-118841680D01*
X140877609Y-118854932D01*
X140839917Y-118925447D01*
X140807099Y-118991357D01*
X140798850Y-119002279D01*
X140789728Y-119019347D01*
X140742547Y-119076836D01*
X140701400Y-119131325D01*
X140687227Y-119144244D01*
X140671459Y-119163459D01*
X140618245Y-119207129D01*
X140571784Y-119249485D01*
X140550814Y-119262469D01*
X140527347Y-119281728D01*
X140471502Y-119311577D01*
X140422656Y-119341822D01*
X140394541Y-119352713D01*
X140362932Y-119369609D01*
X140307605Y-119386392D01*
X140259111Y-119405179D01*
X140224098Y-119411724D01*
X140184531Y-119423727D01*
X140132453Y-119428856D01*
X140086696Y-119437410D01*
X140045604Y-119437410D01*
X139999000Y-119442000D01*
X139952396Y-119437410D01*
X139911304Y-119437410D01*
X139865545Y-119428856D01*
X139813469Y-119423727D01*
X139773902Y-119411724D01*
X139738888Y-119405179D01*
X139690389Y-119386390D01*
X139635068Y-119369609D01*
X139603461Y-119352714D01*
X139575343Y-119341822D01*
X139526490Y-119311573D01*
X139470653Y-119281728D01*
X139447188Y-119262471D01*
X139426215Y-119249485D01*
X139379744Y-119207121D01*
X139326541Y-119163459D01*
X139310775Y-119144248D01*
X139296599Y-119131325D01*
X139255439Y-119076821D01*
X139208272Y-119019347D01*
X139199151Y-119002284D01*
X139190900Y-118991357D01*
X139158067Y-118925420D01*
X139120391Y-118854932D01*
X139116372Y-118841685D01*
X139112717Y-118834344D01*
X139091124Y-118758454D01*
X139066273Y-118676531D01*
X139065456Y-118668241D01*
X139064719Y-118665649D01*
X139057046Y-118582854D01*
X139048000Y-118491000D01*
X139057045Y-118399153D01*
X139064719Y-118316350D01*
X139065456Y-118313757D01*
X139066273Y-118305469D01*
X139091119Y-118223560D01*
X139112717Y-118147655D01*
X139116373Y-118140311D01*
X139120391Y-118127068D01*
X139158060Y-118056593D01*
X139190900Y-117990642D01*
X139199153Y-117979712D01*
X139208272Y-117962653D01*
X139255430Y-117905190D01*
X139296599Y-117850674D01*
X139310778Y-117837747D01*
X139326541Y-117818541D01*
X139379733Y-117774887D01*
X139426215Y-117732514D01*
X139447193Y-117719524D01*
X139470653Y-117700272D01*
X139526478Y-117670432D01*
X139575343Y-117640177D01*
X139603467Y-117629281D01*
X139635068Y-117612391D01*
X139690377Y-117595612D01*
X139738888Y-117576820D01*
X139773909Y-117570273D01*
X139813469Y-117558273D01*
X139865542Y-117553144D01*
X139911304Y-117544590D01*
X139952396Y-117544590D01*
X139999000Y-117540000D01*
X140045604Y-117544590D01*
G37*
G36*
X163586914Y-117577995D02*
G01*
X163602726Y-117584976D01*
X163610531Y-117586213D01*
X163643039Y-117602776D01*
X163688106Y-117622676D01*
X163766324Y-117700894D01*
X163786226Y-117745967D01*
X163802786Y-117778468D01*
X163804021Y-117786270D01*
X163811005Y-117802086D01*
X163819000Y-117871000D01*
X163819000Y-118396000D01*
X163811005Y-118464914D01*
X163804021Y-118480729D01*
X163802786Y-118488531D01*
X163786229Y-118521024D01*
X163766324Y-118566106D01*
X163688106Y-118644324D01*
X163643024Y-118664229D01*
X163610531Y-118680786D01*
X163602729Y-118682021D01*
X163586914Y-118689005D01*
X163518000Y-118697000D01*
X162618000Y-118697000D01*
X162549086Y-118689005D01*
X162533270Y-118682021D01*
X162525468Y-118680786D01*
X162492967Y-118664226D01*
X162447894Y-118644324D01*
X162369676Y-118566106D01*
X162349776Y-118521039D01*
X162333213Y-118488531D01*
X162331976Y-118480726D01*
X162324995Y-118464914D01*
X162317000Y-118396000D01*
X162317000Y-117871000D01*
X162324995Y-117802086D01*
X162331976Y-117786274D01*
X162333213Y-117778468D01*
X162349780Y-117745953D01*
X162369676Y-117700894D01*
X162447894Y-117622676D01*
X162492953Y-117602780D01*
X162525468Y-117586213D01*
X162533274Y-117584976D01*
X162549086Y-117577995D01*
X162618000Y-117570000D01*
X163518000Y-117570000D01*
X163586914Y-117577995D01*
G37*
G36*
X144313323Y-116821773D02*
G01*
X144351957Y-116821773D01*
X144395540Y-116831036D01*
X144446539Y-116836783D01*
X144483621Y-116849758D01*
X144515606Y-116856557D01*
X144561701Y-116877079D01*
X144615841Y-116896024D01*
X144644019Y-116913729D01*
X144668457Y-116924610D01*
X144714020Y-116957714D01*
X144767715Y-116991453D01*
X144787000Y-117010738D01*
X144803812Y-117022953D01*
X144845376Y-117069114D01*
X144894547Y-117118285D01*
X144905855Y-117136282D01*
X144915767Y-117147290D01*
X144949676Y-117206022D01*
X144989976Y-117270159D01*
X144995007Y-117284538D01*
X144999420Y-117292181D01*
X145022018Y-117361730D01*
X145049217Y-117439461D01*
X145050248Y-117448613D01*
X145051123Y-117451306D01*
X145059050Y-117526738D01*
X145069300Y-117617700D01*
X145059050Y-117708669D01*
X145051123Y-117784093D01*
X145050248Y-117786784D01*
X145049217Y-117795939D01*
X145022013Y-117873682D01*
X144999420Y-117943218D01*
X144995008Y-117950859D01*
X144989976Y-117965241D01*
X144949669Y-118029388D01*
X144915767Y-118088109D01*
X144905857Y-118099114D01*
X144894547Y-118117115D01*
X144845367Y-118166294D01*
X144803812Y-118212446D01*
X144787004Y-118224657D01*
X144767715Y-118243947D01*
X144714010Y-118277692D01*
X144668457Y-118310789D01*
X144644025Y-118321666D01*
X144615841Y-118339376D01*
X144561691Y-118358323D01*
X144515606Y-118378842D01*
X144483627Y-118385639D01*
X144446539Y-118398617D01*
X144395537Y-118404363D01*
X144351957Y-118413627D01*
X144313323Y-118413627D01*
X144268300Y-118418700D01*
X144223277Y-118413627D01*
X144184643Y-118413627D01*
X144141061Y-118404363D01*
X144090061Y-118398617D01*
X144052974Y-118385639D01*
X144020993Y-118378842D01*
X143974903Y-118358322D01*
X143920759Y-118339376D01*
X143892577Y-118321668D01*
X143868142Y-118310789D01*
X143822582Y-118277687D01*
X143768885Y-118243947D01*
X143749598Y-118224660D01*
X143732787Y-118212446D01*
X143691222Y-118166284D01*
X143642053Y-118117115D01*
X143630744Y-118099118D01*
X143620832Y-118088109D01*
X143586918Y-118029368D01*
X143546624Y-117965241D01*
X143541593Y-117950863D01*
X143537179Y-117943218D01*
X143514572Y-117873642D01*
X143487383Y-117795939D01*
X143486352Y-117786789D01*
X143485476Y-117784093D01*
X143477535Y-117708537D01*
X143467300Y-117617700D01*
X143477534Y-117526870D01*
X143485476Y-117451306D01*
X143486352Y-117448609D01*
X143487383Y-117439461D01*
X143514567Y-117361770D01*
X143537179Y-117292181D01*
X143541593Y-117284534D01*
X143546624Y-117270159D01*
X143586911Y-117206042D01*
X143620832Y-117147290D01*
X143630746Y-117136278D01*
X143642053Y-117118285D01*
X143691213Y-117069124D01*
X143732787Y-117022953D01*
X143749601Y-117010736D01*
X143768885Y-116991453D01*
X143822578Y-116957715D01*
X143868146Y-116924608D01*
X143892584Y-116913727D01*
X143920759Y-116896024D01*
X143974887Y-116877083D01*
X144020989Y-116856558D01*
X144052979Y-116849758D01*
X144090061Y-116836783D01*
X144141059Y-116831036D01*
X144184643Y-116821773D01*
X144223277Y-116821773D01*
X144268300Y-116816700D01*
X144313323Y-116821773D01*
G37*
G36*
X160478323Y-116821773D02*
G01*
X160516957Y-116821773D01*
X160560540Y-116831036D01*
X160611539Y-116836783D01*
X160648621Y-116849758D01*
X160680606Y-116856557D01*
X160726701Y-116877079D01*
X160780841Y-116896024D01*
X160809019Y-116913729D01*
X160833457Y-116924610D01*
X160879020Y-116957714D01*
X160932715Y-116991453D01*
X160952000Y-117010738D01*
X160968812Y-117022953D01*
X161010376Y-117069114D01*
X161059547Y-117118285D01*
X161070855Y-117136282D01*
X161080767Y-117147290D01*
X161114676Y-117206022D01*
X161154976Y-117270159D01*
X161160007Y-117284538D01*
X161164420Y-117292181D01*
X161187018Y-117361730D01*
X161214217Y-117439461D01*
X161215248Y-117448613D01*
X161216123Y-117451306D01*
X161224050Y-117526738D01*
X161234300Y-117617700D01*
X161224050Y-117708669D01*
X161216123Y-117784093D01*
X161215248Y-117786784D01*
X161214217Y-117795939D01*
X161187013Y-117873682D01*
X161164420Y-117943218D01*
X161160008Y-117950859D01*
X161154976Y-117965241D01*
X161114669Y-118029388D01*
X161080767Y-118088109D01*
X161070857Y-118099114D01*
X161059547Y-118117115D01*
X161010367Y-118166294D01*
X160968812Y-118212446D01*
X160952004Y-118224657D01*
X160932715Y-118243947D01*
X160879010Y-118277692D01*
X160833457Y-118310789D01*
X160809025Y-118321666D01*
X160780841Y-118339376D01*
X160726691Y-118358323D01*
X160680606Y-118378842D01*
X160648627Y-118385639D01*
X160611539Y-118398617D01*
X160560537Y-118404363D01*
X160516957Y-118413627D01*
X160478323Y-118413627D01*
X160433300Y-118418700D01*
X160388277Y-118413627D01*
X160349643Y-118413627D01*
X160306061Y-118404363D01*
X160255061Y-118398617D01*
X160217974Y-118385639D01*
X160185993Y-118378842D01*
X160139903Y-118358322D01*
X160085759Y-118339376D01*
X160057577Y-118321668D01*
X160033142Y-118310789D01*
X159987582Y-118277687D01*
X159933885Y-118243947D01*
X159914598Y-118224660D01*
X159897787Y-118212446D01*
X159856222Y-118166284D01*
X159807053Y-118117115D01*
X159795744Y-118099118D01*
X159785832Y-118088109D01*
X159751918Y-118029368D01*
X159711624Y-117965241D01*
X159706593Y-117950863D01*
X159702179Y-117943218D01*
X159679572Y-117873642D01*
X159652383Y-117795939D01*
X159651352Y-117786789D01*
X159650476Y-117784093D01*
X159642535Y-117708537D01*
X159632300Y-117617700D01*
X159642534Y-117526870D01*
X159650476Y-117451306D01*
X159651352Y-117448609D01*
X159652383Y-117439461D01*
X159679567Y-117361770D01*
X159702179Y-117292181D01*
X159706593Y-117284534D01*
X159711624Y-117270159D01*
X159751911Y-117206042D01*
X159785832Y-117147290D01*
X159795746Y-117136278D01*
X159807053Y-117118285D01*
X159856213Y-117069124D01*
X159897787Y-117022953D01*
X159914601Y-117010736D01*
X159933885Y-116991453D01*
X159987578Y-116957715D01*
X160033146Y-116924608D01*
X160057584Y-116913727D01*
X160085759Y-116896024D01*
X160139887Y-116877083D01*
X160185989Y-116856558D01*
X160217979Y-116849758D01*
X160255061Y-116836783D01*
X160306059Y-116831036D01*
X160349643Y-116821773D01*
X160388277Y-116821773D01*
X160433300Y-116816700D01*
X160478323Y-116821773D01*
G37*
G36*
X166159983Y-115562936D02*
G01*
X166210180Y-115562936D01*
X166253524Y-115572149D01*
X166291659Y-115575905D01*
X166339566Y-115590437D01*
X166394424Y-115602098D01*
X166429530Y-115617728D01*
X166460566Y-115627143D01*
X166509884Y-115653504D01*
X166566500Y-115678711D01*
X166592822Y-115697835D01*
X166616232Y-115710348D01*
X166663988Y-115749540D01*
X166718887Y-115789427D01*
X166736711Y-115809223D01*
X166752675Y-115822324D01*
X166795572Y-115874594D01*
X166844924Y-115929405D01*
X166855292Y-115947363D01*
X166864651Y-115958767D01*
X166899273Y-116023542D01*
X166939104Y-116092530D01*
X166943685Y-116106630D01*
X166947856Y-116114433D01*
X166970852Y-116190242D01*
X166997311Y-116271672D01*
X166998242Y-116280532D01*
X166999094Y-116283340D01*
X167007384Y-116367513D01*
X167017000Y-116459000D01*
X167007383Y-116550494D01*
X166999094Y-116634659D01*
X166998242Y-116637466D01*
X166997311Y-116646328D01*
X166970848Y-116727771D01*
X166947856Y-116803566D01*
X166943686Y-116811366D01*
X166939104Y-116825470D01*
X166899266Y-116894470D01*
X166864651Y-116959232D01*
X166855294Y-116970633D01*
X166844924Y-116988595D01*
X166795563Y-117043415D01*
X166752675Y-117095675D01*
X166736714Y-117108773D01*
X166718887Y-117128573D01*
X166663977Y-117168467D01*
X166616232Y-117207651D01*
X166592827Y-117220161D01*
X166566500Y-117239289D01*
X166509873Y-117264500D01*
X166460566Y-117290856D01*
X166429537Y-117300268D01*
X166394424Y-117315902D01*
X166339555Y-117327564D01*
X166291659Y-117342094D01*
X166253532Y-117345849D01*
X166210180Y-117355064D01*
X166159973Y-117355064D01*
X166116000Y-117359395D01*
X166072027Y-117355064D01*
X166021820Y-117355064D01*
X165978467Y-117345849D01*
X165940340Y-117342094D01*
X165892441Y-117327563D01*
X165837576Y-117315902D01*
X165802464Y-117300269D01*
X165771433Y-117290856D01*
X165722120Y-117264498D01*
X165665500Y-117239289D01*
X165639175Y-117220163D01*
X165615767Y-117207651D01*
X165568013Y-117168460D01*
X165513113Y-117128573D01*
X165495287Y-117108776D01*
X165479324Y-117095675D01*
X165436425Y-117043402D01*
X165387076Y-116988595D01*
X165376708Y-116970637D01*
X165367348Y-116959232D01*
X165332719Y-116894447D01*
X165292896Y-116825470D01*
X165288315Y-116811371D01*
X165284143Y-116803566D01*
X165261136Y-116727725D01*
X165234689Y-116646328D01*
X165233758Y-116637471D01*
X165232905Y-116634659D01*
X165224600Y-116550342D01*
X165215000Y-116459000D01*
X165224599Y-116367664D01*
X165232905Y-116283340D01*
X165233758Y-116280527D01*
X165234689Y-116271672D01*
X165261132Y-116190288D01*
X165284143Y-116114433D01*
X165288315Y-116106626D01*
X165292896Y-116092530D01*
X165332712Y-116023565D01*
X165367348Y-115958767D01*
X165376710Y-115947359D01*
X165387076Y-115929405D01*
X165436416Y-115874607D01*
X165479324Y-115822324D01*
X165495291Y-115809219D01*
X165513113Y-115789427D01*
X165568002Y-115749546D01*
X165615767Y-115710348D01*
X165639180Y-115697833D01*
X165665500Y-115678711D01*
X165722109Y-115653506D01*
X165771433Y-115627143D01*
X165802471Y-115617727D01*
X165837576Y-115602098D01*
X165892430Y-115590438D01*
X165940340Y-115575905D01*
X165978476Y-115572148D01*
X166021820Y-115562936D01*
X166072016Y-115562936D01*
X166116000Y-115558604D01*
X166159983Y-115562936D01*
G37*
G36*
X140045604Y-115004590D02*
G01*
X140086696Y-115004590D01*
X140132456Y-115013144D01*
X140184531Y-115018273D01*
X140224091Y-115030273D01*
X140259111Y-115036820D01*
X140307617Y-115055611D01*
X140362932Y-115072391D01*
X140394534Y-115089282D01*
X140422656Y-115100177D01*
X140471513Y-115130428D01*
X140527347Y-115160272D01*
X140550809Y-115179526D01*
X140571784Y-115192514D01*
X140618256Y-115234879D01*
X140671459Y-115278541D01*
X140687224Y-115297751D01*
X140701400Y-115310674D01*
X140742557Y-115365174D01*
X140789728Y-115422653D01*
X140798848Y-115439717D01*
X140807099Y-115450642D01*
X140839925Y-115516566D01*
X140877609Y-115587068D01*
X140881628Y-115600316D01*
X140885282Y-115607655D01*
X140906864Y-115683507D01*
X140931727Y-115765469D01*
X140932543Y-115773762D01*
X140933280Y-115776350D01*
X140940937Y-115858982D01*
X140950000Y-115951000D01*
X140940936Y-116043026D01*
X140933280Y-116125649D01*
X140932544Y-116128235D01*
X140931727Y-116136531D01*
X140906859Y-116218507D01*
X140885282Y-116294344D01*
X140881628Y-116301680D01*
X140877609Y-116314932D01*
X140839917Y-116385447D01*
X140807099Y-116451357D01*
X140798850Y-116462279D01*
X140789728Y-116479347D01*
X140742547Y-116536836D01*
X140701400Y-116591325D01*
X140687227Y-116604244D01*
X140671459Y-116623459D01*
X140618245Y-116667129D01*
X140571784Y-116709485D01*
X140550814Y-116722469D01*
X140527347Y-116741728D01*
X140471502Y-116771577D01*
X140422656Y-116801822D01*
X140394541Y-116812713D01*
X140362932Y-116829609D01*
X140307605Y-116846392D01*
X140259111Y-116865179D01*
X140224098Y-116871724D01*
X140184531Y-116883727D01*
X140132453Y-116888856D01*
X140086696Y-116897410D01*
X140045604Y-116897410D01*
X139999000Y-116902000D01*
X139952396Y-116897410D01*
X139911304Y-116897410D01*
X139865545Y-116888856D01*
X139813469Y-116883727D01*
X139773902Y-116871724D01*
X139738888Y-116865179D01*
X139690389Y-116846390D01*
X139635068Y-116829609D01*
X139603461Y-116812714D01*
X139575343Y-116801822D01*
X139526490Y-116771573D01*
X139470653Y-116741728D01*
X139447188Y-116722471D01*
X139426215Y-116709485D01*
X139379744Y-116667121D01*
X139326541Y-116623459D01*
X139310775Y-116604248D01*
X139296599Y-116591325D01*
X139255439Y-116536821D01*
X139208272Y-116479347D01*
X139199151Y-116462284D01*
X139190900Y-116451357D01*
X139158067Y-116385420D01*
X139120391Y-116314932D01*
X139116372Y-116301685D01*
X139112717Y-116294344D01*
X139091124Y-116218454D01*
X139066273Y-116136531D01*
X139065456Y-116128241D01*
X139064719Y-116125649D01*
X139057046Y-116042854D01*
X139048000Y-115951000D01*
X139057045Y-115859153D01*
X139064719Y-115776350D01*
X139065456Y-115773757D01*
X139066273Y-115765469D01*
X139091119Y-115683560D01*
X139112717Y-115607655D01*
X139116373Y-115600311D01*
X139120391Y-115587068D01*
X139158060Y-115516593D01*
X139190900Y-115450642D01*
X139199153Y-115439712D01*
X139208272Y-115422653D01*
X139255430Y-115365190D01*
X139296599Y-115310674D01*
X139310778Y-115297747D01*
X139326541Y-115278541D01*
X139379733Y-115234887D01*
X139426215Y-115192514D01*
X139447193Y-115179524D01*
X139470653Y-115160272D01*
X139526478Y-115130432D01*
X139575343Y-115100177D01*
X139603467Y-115089281D01*
X139635068Y-115072391D01*
X139690377Y-115055612D01*
X139738888Y-115036820D01*
X139773909Y-115030273D01*
X139813469Y-115018273D01*
X139865542Y-115013144D01*
X139911304Y-115004590D01*
X139952396Y-115004590D01*
X139999000Y-115000000D01*
X140045604Y-115004590D01*
G37*
G36*
X163586914Y-115752995D02*
G01*
X163602726Y-115759976D01*
X163610531Y-115761213D01*
X163643039Y-115777776D01*
X163688106Y-115797676D01*
X163766324Y-115875894D01*
X163786226Y-115920967D01*
X163802786Y-115953468D01*
X163804021Y-115961270D01*
X163811005Y-115977086D01*
X163819000Y-116046000D01*
X163819000Y-116571000D01*
X163811005Y-116639914D01*
X163804021Y-116655729D01*
X163802786Y-116663531D01*
X163786229Y-116696024D01*
X163766324Y-116741106D01*
X163688106Y-116819324D01*
X163643024Y-116839229D01*
X163610531Y-116855786D01*
X163602729Y-116857021D01*
X163586914Y-116864005D01*
X163518000Y-116872000D01*
X162618000Y-116872000D01*
X162549086Y-116864005D01*
X162533270Y-116857021D01*
X162525468Y-116855786D01*
X162492967Y-116839226D01*
X162447894Y-116819324D01*
X162369676Y-116741106D01*
X162349776Y-116696039D01*
X162333213Y-116663531D01*
X162331976Y-116655726D01*
X162324995Y-116639914D01*
X162317000Y-116571000D01*
X162317000Y-116046000D01*
X162324995Y-115977086D01*
X162331976Y-115961274D01*
X162333213Y-115953468D01*
X162349780Y-115920953D01*
X162369676Y-115875894D01*
X162447894Y-115797676D01*
X162492953Y-115777780D01*
X162525468Y-115761213D01*
X162533274Y-115759976D01*
X162549086Y-115752995D01*
X162618000Y-115745000D01*
X163518000Y-115745000D01*
X163586914Y-115752995D01*
G37*
G36*
X144313323Y-114281773D02*
G01*
X144351957Y-114281773D01*
X144395540Y-114291036D01*
X144446539Y-114296783D01*
X144483621Y-114309758D01*
X144515606Y-114316557D01*
X144561701Y-114337079D01*
X144615841Y-114356024D01*
X144644019Y-114373729D01*
X144668457Y-114384610D01*
X144714020Y-114417714D01*
X144767715Y-114451453D01*
X144787000Y-114470738D01*
X144803812Y-114482953D01*
X144845376Y-114529114D01*
X144894547Y-114578285D01*
X144905855Y-114596282D01*
X144915767Y-114607290D01*
X144949676Y-114666022D01*
X144989976Y-114730159D01*
X144995007Y-114744538D01*
X144999420Y-114752181D01*
X145022018Y-114821730D01*
X145049217Y-114899461D01*
X145050248Y-114908613D01*
X145051123Y-114911306D01*
X145059050Y-114986738D01*
X145069300Y-115077700D01*
X145059050Y-115168669D01*
X145051123Y-115244093D01*
X145050248Y-115246784D01*
X145049217Y-115255939D01*
X145022013Y-115333682D01*
X144999420Y-115403218D01*
X144995008Y-115410859D01*
X144989976Y-115425241D01*
X144949669Y-115489388D01*
X144915767Y-115548109D01*
X144905857Y-115559114D01*
X144894547Y-115577115D01*
X144845367Y-115626294D01*
X144803812Y-115672446D01*
X144787004Y-115684657D01*
X144767715Y-115703947D01*
X144714010Y-115737692D01*
X144668457Y-115770789D01*
X144644025Y-115781666D01*
X144615841Y-115799376D01*
X144561691Y-115818323D01*
X144515606Y-115838842D01*
X144483627Y-115845639D01*
X144446539Y-115858617D01*
X144395537Y-115864363D01*
X144351957Y-115873627D01*
X144313323Y-115873627D01*
X144268300Y-115878700D01*
X144223277Y-115873627D01*
X144184643Y-115873627D01*
X144141061Y-115864363D01*
X144090061Y-115858617D01*
X144052974Y-115845639D01*
X144020993Y-115838842D01*
X143974903Y-115818322D01*
X143920759Y-115799376D01*
X143892577Y-115781668D01*
X143868142Y-115770789D01*
X143822582Y-115737687D01*
X143768885Y-115703947D01*
X143749598Y-115684660D01*
X143732787Y-115672446D01*
X143691222Y-115626284D01*
X143642053Y-115577115D01*
X143630744Y-115559118D01*
X143620832Y-115548109D01*
X143586918Y-115489368D01*
X143546624Y-115425241D01*
X143541593Y-115410863D01*
X143537179Y-115403218D01*
X143514572Y-115333642D01*
X143487383Y-115255939D01*
X143486352Y-115246789D01*
X143485476Y-115244093D01*
X143477535Y-115168537D01*
X143467300Y-115077700D01*
X143477534Y-114986870D01*
X143485476Y-114911306D01*
X143486352Y-114908609D01*
X143487383Y-114899461D01*
X143514567Y-114821770D01*
X143537179Y-114752181D01*
X143541593Y-114744534D01*
X143546624Y-114730159D01*
X143586911Y-114666042D01*
X143620832Y-114607290D01*
X143630746Y-114596278D01*
X143642053Y-114578285D01*
X143691213Y-114529124D01*
X143732787Y-114482953D01*
X143749601Y-114470736D01*
X143768885Y-114451453D01*
X143822578Y-114417715D01*
X143868146Y-114384608D01*
X143892584Y-114373727D01*
X143920759Y-114356024D01*
X143974887Y-114337083D01*
X144020989Y-114316558D01*
X144052979Y-114309758D01*
X144090061Y-114296783D01*
X144141059Y-114291036D01*
X144184643Y-114281773D01*
X144223277Y-114281773D01*
X144268300Y-114276700D01*
X144313323Y-114281773D01*
G37*
G36*
X160478323Y-114281773D02*
G01*
X160516957Y-114281773D01*
X160560540Y-114291036D01*
X160611539Y-114296783D01*
X160648621Y-114309758D01*
X160680606Y-114316557D01*
X160726701Y-114337079D01*
X160780841Y-114356024D01*
X160809019Y-114373729D01*
X160833457Y-114384610D01*
X160879020Y-114417714D01*
X160932715Y-114451453D01*
X160952000Y-114470738D01*
X160968812Y-114482953D01*
X161010376Y-114529114D01*
X161059547Y-114578285D01*
X161070855Y-114596282D01*
X161080767Y-114607290D01*
X161114676Y-114666022D01*
X161154976Y-114730159D01*
X161160007Y-114744538D01*
X161164420Y-114752181D01*
X161187018Y-114821730D01*
X161214217Y-114899461D01*
X161215248Y-114908613D01*
X161216123Y-114911306D01*
X161224050Y-114986738D01*
X161234300Y-115077700D01*
X161224050Y-115168669D01*
X161216123Y-115244093D01*
X161215248Y-115246784D01*
X161214217Y-115255939D01*
X161187013Y-115333682D01*
X161164420Y-115403218D01*
X161160008Y-115410859D01*
X161154976Y-115425241D01*
X161114669Y-115489388D01*
X161080767Y-115548109D01*
X161070857Y-115559114D01*
X161059547Y-115577115D01*
X161010367Y-115626294D01*
X160968812Y-115672446D01*
X160952004Y-115684657D01*
X160932715Y-115703947D01*
X160879010Y-115737692D01*
X160833457Y-115770789D01*
X160809025Y-115781666D01*
X160780841Y-115799376D01*
X160726691Y-115818323D01*
X160680606Y-115838842D01*
X160648627Y-115845639D01*
X160611539Y-115858617D01*
X160560537Y-115864363D01*
X160516957Y-115873627D01*
X160478323Y-115873627D01*
X160433300Y-115878700D01*
X160388277Y-115873627D01*
X160349643Y-115873627D01*
X160306061Y-115864363D01*
X160255061Y-115858617D01*
X160217974Y-115845639D01*
X160185993Y-115838842D01*
X160139903Y-115818322D01*
X160085759Y-115799376D01*
X160057577Y-115781668D01*
X160033142Y-115770789D01*
X159987582Y-115737687D01*
X159933885Y-115703947D01*
X159914598Y-115684660D01*
X159897787Y-115672446D01*
X159856222Y-115626284D01*
X159807053Y-115577115D01*
X159795744Y-115559118D01*
X159785832Y-115548109D01*
X159751918Y-115489368D01*
X159711624Y-115425241D01*
X159706593Y-115410863D01*
X159702179Y-115403218D01*
X159679572Y-115333642D01*
X159652383Y-115255939D01*
X159651352Y-115246789D01*
X159650476Y-115244093D01*
X159642535Y-115168537D01*
X159632300Y-115077700D01*
X159642534Y-114986870D01*
X159650476Y-114911306D01*
X159651352Y-114908609D01*
X159652383Y-114899461D01*
X159679567Y-114821770D01*
X159702179Y-114752181D01*
X159706593Y-114744534D01*
X159711624Y-114730159D01*
X159751911Y-114666042D01*
X159785832Y-114607290D01*
X159795746Y-114596278D01*
X159807053Y-114578285D01*
X159856213Y-114529124D01*
X159897787Y-114482953D01*
X159914601Y-114470736D01*
X159933885Y-114451453D01*
X159987578Y-114417715D01*
X160033146Y-114384608D01*
X160057584Y-114373727D01*
X160085759Y-114356024D01*
X160139887Y-114337083D01*
X160185989Y-114316558D01*
X160217979Y-114309758D01*
X160255061Y-114296783D01*
X160306059Y-114291036D01*
X160349643Y-114281773D01*
X160388277Y-114281773D01*
X160433300Y-114276700D01*
X160478323Y-114281773D01*
G37*
G36*
X166985517Y-113021882D02*
G01*
X167002062Y-113032938D01*
X167013118Y-113049483D01*
X167017000Y-113069000D01*
X167017000Y-114769000D01*
X167013118Y-114788517D01*
X167002062Y-114805062D01*
X166985517Y-114816118D01*
X166966000Y-114820000D01*
X165266000Y-114820000D01*
X165246483Y-114816118D01*
X165229938Y-114805062D01*
X165218882Y-114788517D01*
X165215000Y-114769000D01*
X165215000Y-113069000D01*
X165218882Y-113049483D01*
X165229938Y-113032938D01*
X165246483Y-113021882D01*
X165266000Y-113018000D01*
X166966000Y-113018000D01*
X166985517Y-113021882D01*
G37*
G36*
X140719148Y-112467953D02*
G01*
X140734904Y-112474910D01*
X140742638Y-112476135D01*
X140774848Y-112492547D01*
X140819802Y-112512396D01*
X140897604Y-112590198D01*
X140917456Y-112635158D01*
X140933864Y-112667361D01*
X140935088Y-112675092D01*
X140942047Y-112690852D01*
X140950000Y-112759400D01*
X140950000Y-114062600D01*
X140942047Y-114131148D01*
X140935088Y-114146908D01*
X140933864Y-114154638D01*
X140917459Y-114186833D01*
X140897604Y-114231802D01*
X140819802Y-114309604D01*
X140774833Y-114329459D01*
X140742638Y-114345864D01*
X140734908Y-114347088D01*
X140719148Y-114354047D01*
X140650600Y-114362000D01*
X139347400Y-114362000D01*
X139278852Y-114354047D01*
X139263092Y-114347088D01*
X139255361Y-114345864D01*
X139223158Y-114329456D01*
X139178198Y-114309604D01*
X139100396Y-114231802D01*
X139080547Y-114186848D01*
X139064135Y-114154638D01*
X139062910Y-114146904D01*
X139055953Y-114131148D01*
X139048000Y-114062600D01*
X139048000Y-112759400D01*
X139055953Y-112690852D01*
X139062909Y-112675096D01*
X139064135Y-112667361D01*
X139080550Y-112635143D01*
X139100396Y-112590198D01*
X139178198Y-112512396D01*
X139223143Y-112492550D01*
X139255361Y-112476135D01*
X139263096Y-112474909D01*
X139278852Y-112467953D01*
X139347400Y-112460000D01*
X140650600Y-112460000D01*
X140719148Y-112467953D01*
G37*
G36*
X140440389Y-106080553D02*
G01*
X140757336Y-106155671D01*
X141063419Y-106267077D01*
X141354500Y-106413263D01*
X141626641Y-106592253D01*
X141876163Y-106801626D01*
X142099690Y-107038552D01*
X142294201Y-107299825D01*
X142457065Y-107581913D01*
X142586079Y-107881002D01*
X142679499Y-108193045D01*
X142736061Y-108513824D01*
X142755000Y-108839000D01*
X142736061Y-109164176D01*
X142679499Y-109484955D01*
X142586079Y-109796998D01*
X142457065Y-110096087D01*
X142294201Y-110378175D01*
X142099690Y-110639448D01*
X141876163Y-110876374D01*
X141626641Y-111085747D01*
X141354500Y-111264737D01*
X141063419Y-111410923D01*
X140757336Y-111522329D01*
X140440389Y-111597447D01*
X140116864Y-111635261D01*
X139791136Y-111635261D01*
X139467611Y-111597447D01*
X139150664Y-111522329D01*
X138844581Y-111410923D01*
X138553500Y-111264737D01*
X138281359Y-111085747D01*
X138031837Y-110876374D01*
X137808310Y-110639448D01*
X137613799Y-110378175D01*
X137450935Y-110096087D01*
X137321921Y-109796998D01*
X137228501Y-109484955D01*
X137171939Y-109164176D01*
X137153000Y-108839000D01*
X137171939Y-108513824D01*
X137228501Y-108193045D01*
X137321921Y-107881002D01*
X137450935Y-107581913D01*
X137613799Y-107299825D01*
X137808310Y-107038552D01*
X138031837Y-106801626D01*
X138281359Y-106592253D01*
X138553500Y-106413263D01*
X138844581Y-106267077D01*
X139150664Y-106155671D01*
X139467611Y-106080553D01*
X139791136Y-106042739D01*
X140116864Y-106042739D01*
X140440389Y-106080553D01*
G37*
G36*
X166348389Y-106080553D02*
G01*
X166665336Y-106155671D01*
X166971419Y-106267077D01*
X167262500Y-106413263D01*
X167534641Y-106592253D01*
X167784163Y-106801626D01*
X168007690Y-107038552D01*
X168202201Y-107299825D01*
X168365065Y-107581913D01*
X168494079Y-107881002D01*
X168587499Y-108193045D01*
X168644061Y-108513824D01*
X168663000Y-108839000D01*
X168644061Y-109164176D01*
X168587499Y-109484955D01*
X168494079Y-109796998D01*
X168365065Y-110096087D01*
X168202201Y-110378175D01*
X168007690Y-110639448D01*
X167784163Y-110876374D01*
X167534641Y-111085747D01*
X167262500Y-111264737D01*
X166971419Y-111410923D01*
X166665336Y-111522329D01*
X166348389Y-111597447D01*
X166024864Y-111635261D01*
X165699136Y-111635261D01*
X165375611Y-111597447D01*
X165058664Y-111522329D01*
X164752581Y-111410923D01*
X164461500Y-111264737D01*
X164189359Y-111085747D01*
X163939837Y-110876374D01*
X163716310Y-110639448D01*
X163521799Y-110378175D01*
X163358935Y-110096087D01*
X163229921Y-109796998D01*
X163136501Y-109484955D01*
X163079939Y-109164176D01*
X163061000Y-108839000D01*
X163079939Y-108513824D01*
X163136501Y-108193045D01*
X163229921Y-107881002D01*
X163358935Y-107581913D01*
X163521799Y-107299825D01*
X163716310Y-107038552D01*
X163939837Y-106801626D01*
X164189359Y-106592253D01*
X164461500Y-106413263D01*
X164752581Y-106267077D01*
X165058664Y-106155671D01*
X165375611Y-106080553D01*
X165699136Y-106042739D01*
X166024864Y-106042739D01*
X166348389Y-106080553D01*
G37*
G36*
X151140914Y-110491895D02*
G01*
X151156726Y-110498876D01*
X151164531Y-110500113D01*
X151197039Y-110516676D01*
X151242106Y-110536576D01*
X151320324Y-110614794D01*
X151340226Y-110659867D01*
X151356786Y-110692368D01*
X151358021Y-110700170D01*
X151365005Y-110715986D01*
X151373000Y-110784900D01*
X151373000Y-111309900D01*
X151365005Y-111378814D01*
X151358021Y-111394629D01*
X151356786Y-111402431D01*
X151340229Y-111434924D01*
X151320324Y-111480006D01*
X151242106Y-111558224D01*
X151197024Y-111578129D01*
X151164531Y-111594686D01*
X151156729Y-111595921D01*
X151140914Y-111602905D01*
X151072000Y-111610900D01*
X150172000Y-111610900D01*
X150103086Y-111602905D01*
X150087270Y-111595921D01*
X150079468Y-111594686D01*
X150046967Y-111578126D01*
X150001894Y-111558224D01*
X149923676Y-111480006D01*
X149903776Y-111434939D01*
X149887213Y-111402431D01*
X149885976Y-111394626D01*
X149878995Y-111378814D01*
X149871000Y-111309900D01*
X149871000Y-110784900D01*
X149878995Y-110715986D01*
X149885976Y-110700174D01*
X149887213Y-110692368D01*
X149903780Y-110659853D01*
X149923676Y-110614794D01*
X150001894Y-110536576D01*
X150046953Y-110516680D01*
X150079468Y-110500113D01*
X150087274Y-110498876D01*
X150103086Y-110491895D01*
X150172000Y-110483900D01*
X151072000Y-110483900D01*
X151140914Y-110491895D01*
G37*
G36*
X153352333Y-110516729D02*
G01*
X153367930Y-110523616D01*
X153375450Y-110524807D01*
X153406766Y-110540763D01*
X153451424Y-110560482D01*
X153528018Y-110637076D01*
X153547739Y-110681740D01*
X153563692Y-110713049D01*
X153564882Y-110720566D01*
X153571771Y-110736167D01*
X153579600Y-110803650D01*
X153579600Y-111291150D01*
X153571771Y-111358633D01*
X153564882Y-111374234D01*
X153563692Y-111381750D01*
X153547742Y-111413052D01*
X153528018Y-111457724D01*
X153451424Y-111534318D01*
X153406752Y-111554042D01*
X153375450Y-111569992D01*
X153367934Y-111571182D01*
X153352333Y-111578071D01*
X153284850Y-111585900D01*
X152372350Y-111585900D01*
X152304867Y-111578071D01*
X152289266Y-111571182D01*
X152281749Y-111569992D01*
X152250440Y-111554039D01*
X152205776Y-111534318D01*
X152129182Y-111457724D01*
X152109463Y-111413066D01*
X152093507Y-111381750D01*
X152092316Y-111374230D01*
X152085429Y-111358633D01*
X152077600Y-111291150D01*
X152077600Y-110803650D01*
X152085429Y-110736167D01*
X152092315Y-110720569D01*
X152093507Y-110713049D01*
X152109467Y-110681725D01*
X152129182Y-110637076D01*
X152205776Y-110560482D01*
X152250425Y-110540767D01*
X152281749Y-110524807D01*
X152289269Y-110523615D01*
X152304867Y-110516729D01*
X152372350Y-110508900D01*
X153284850Y-110508900D01*
X153352333Y-110516729D01*
G37*
G36*
X155966914Y-110465995D02*
G01*
X155982726Y-110472976D01*
X155990531Y-110474213D01*
X156023039Y-110490776D01*
X156068106Y-110510676D01*
X156146324Y-110588894D01*
X156166226Y-110633967D01*
X156182786Y-110666468D01*
X156184021Y-110674270D01*
X156191005Y-110690086D01*
X156199000Y-110759000D01*
X156199000Y-111284000D01*
X156191005Y-111352914D01*
X156184021Y-111368729D01*
X156182786Y-111376531D01*
X156166229Y-111409024D01*
X156146324Y-111454106D01*
X156068106Y-111532324D01*
X156023024Y-111552229D01*
X155990531Y-111568786D01*
X155982729Y-111570021D01*
X155966914Y-111577005D01*
X155898000Y-111585000D01*
X154998000Y-111585000D01*
X154929086Y-111577005D01*
X154913270Y-111570021D01*
X154905468Y-111568786D01*
X154872967Y-111552226D01*
X154827894Y-111532324D01*
X154749676Y-111454106D01*
X154729776Y-111409039D01*
X154713213Y-111376531D01*
X154711976Y-111368726D01*
X154704995Y-111352914D01*
X154697000Y-111284000D01*
X154697000Y-110759000D01*
X154704995Y-110690086D01*
X154711976Y-110674274D01*
X154713213Y-110666468D01*
X154729780Y-110633953D01*
X154749676Y-110588894D01*
X154827894Y-110510676D01*
X154872953Y-110490780D01*
X154905468Y-110474213D01*
X154913274Y-110472976D01*
X154929086Y-110465995D01*
X154998000Y-110458000D01*
X155898000Y-110458000D01*
X155966914Y-110465995D01*
G37*
G36*
X148750914Y-110149995D02*
G01*
X148766726Y-110156976D01*
X148774531Y-110158213D01*
X148807039Y-110174776D01*
X148852106Y-110194676D01*
X148930324Y-110272894D01*
X148950226Y-110317967D01*
X148966786Y-110350468D01*
X148968021Y-110358270D01*
X148975005Y-110374086D01*
X148983000Y-110443000D01*
X148983000Y-111243000D01*
X148975005Y-111311914D01*
X148968021Y-111327729D01*
X148966786Y-111335531D01*
X148950229Y-111368024D01*
X148930324Y-111413106D01*
X148852106Y-111491324D01*
X148807024Y-111511229D01*
X148774531Y-111527786D01*
X148766729Y-111529021D01*
X148750914Y-111536005D01*
X148682000Y-111544000D01*
X147482000Y-111544000D01*
X147413086Y-111536005D01*
X147397270Y-111529021D01*
X147389468Y-111527786D01*
X147356967Y-111511226D01*
X147311894Y-111491324D01*
X147233676Y-111413106D01*
X147213776Y-111368039D01*
X147197213Y-111335531D01*
X147195976Y-111327726D01*
X147188995Y-111311914D01*
X147181000Y-111243000D01*
X147181000Y-110443000D01*
X147188995Y-110374086D01*
X147195976Y-110358274D01*
X147197213Y-110350468D01*
X147213780Y-110317953D01*
X147233676Y-110272894D01*
X147311894Y-110194676D01*
X147356953Y-110174780D01*
X147389468Y-110158213D01*
X147397274Y-110156976D01*
X147413086Y-110149995D01*
X147482000Y-110142000D01*
X148682000Y-110142000D01*
X148750914Y-110149995D01*
G37*
G36*
X158230914Y-109723995D02*
G01*
X158246726Y-109730976D01*
X158254531Y-109732213D01*
X158287039Y-109748776D01*
X158332106Y-109768676D01*
X158410324Y-109846894D01*
X158430226Y-109891967D01*
X158446786Y-109924468D01*
X158448021Y-109932270D01*
X158455005Y-109948086D01*
X158463000Y-110017000D01*
X158463000Y-111217000D01*
X158455005Y-111285914D01*
X158448021Y-111301729D01*
X158446786Y-111309531D01*
X158430229Y-111342024D01*
X158410324Y-111387106D01*
X158332106Y-111465324D01*
X158287024Y-111485229D01*
X158254531Y-111501786D01*
X158246729Y-111503021D01*
X158230914Y-111510005D01*
X158162000Y-111518000D01*
X157362000Y-111518000D01*
X157293086Y-111510005D01*
X157277270Y-111503021D01*
X157269468Y-111501786D01*
X157236967Y-111485226D01*
X157191894Y-111465324D01*
X157113676Y-111387106D01*
X157093776Y-111342039D01*
X157077213Y-111309531D01*
X157075976Y-111301726D01*
X157068995Y-111285914D01*
X157061000Y-111217000D01*
X157061000Y-110017000D01*
X157068995Y-109948086D01*
X157075976Y-109932274D01*
X157077213Y-109924468D01*
X157093780Y-109891953D01*
X157113676Y-109846894D01*
X157191894Y-109768676D01*
X157236953Y-109748780D01*
X157269468Y-109732213D01*
X157277274Y-109730976D01*
X157293086Y-109723995D01*
X157362000Y-109716000D01*
X158162000Y-109716000D01*
X158230914Y-109723995D01*
G37*
G36*
X161730914Y-109723995D02*
G01*
X161746726Y-109730976D01*
X161754531Y-109732213D01*
X161787039Y-109748776D01*
X161832106Y-109768676D01*
X161910324Y-109846894D01*
X161930226Y-109891967D01*
X161946786Y-109924468D01*
X161948021Y-109932270D01*
X161955005Y-109948086D01*
X161963000Y-110017000D01*
X161963000Y-111217000D01*
X161955005Y-111285914D01*
X161948021Y-111301729D01*
X161946786Y-111309531D01*
X161930229Y-111342024D01*
X161910324Y-111387106D01*
X161832106Y-111465324D01*
X161787024Y-111485229D01*
X161754531Y-111501786D01*
X161746729Y-111503021D01*
X161730914Y-111510005D01*
X161662000Y-111518000D01*
X160862000Y-111518000D01*
X160793086Y-111510005D01*
X160777270Y-111503021D01*
X160769468Y-111501786D01*
X160736967Y-111485226D01*
X160691894Y-111465324D01*
X160613676Y-111387106D01*
X160593776Y-111342039D01*
X160577213Y-111309531D01*
X160575976Y-111301726D01*
X160568995Y-111285914D01*
X160561000Y-111217000D01*
X160561000Y-110017000D01*
X160568995Y-109948086D01*
X160575976Y-109932274D01*
X160577213Y-109924468D01*
X160593780Y-109891953D01*
X160613676Y-109846894D01*
X160691894Y-109768676D01*
X160736953Y-109748780D01*
X160769468Y-109732213D01*
X160777274Y-109730976D01*
X160793086Y-109723995D01*
X160862000Y-109716000D01*
X161662000Y-109716000D01*
X161730914Y-109723995D01*
G37*
G36*
X146060914Y-109449995D02*
G01*
X146076726Y-109456976D01*
X146084531Y-109458213D01*
X146117039Y-109474776D01*
X146162106Y-109494676D01*
X146240324Y-109572894D01*
X146260226Y-109617967D01*
X146276786Y-109650468D01*
X146278021Y-109658270D01*
X146285005Y-109674086D01*
X146293000Y-109743000D01*
X146293000Y-110268000D01*
X146285005Y-110336914D01*
X146278021Y-110352729D01*
X146276786Y-110360531D01*
X146260229Y-110393024D01*
X146240324Y-110438106D01*
X146162106Y-110516324D01*
X146117024Y-110536229D01*
X146084531Y-110552786D01*
X146076729Y-110554021D01*
X146060914Y-110561005D01*
X145992000Y-110569000D01*
X145092000Y-110569000D01*
X145023086Y-110561005D01*
X145007270Y-110554021D01*
X144999468Y-110552786D01*
X144966967Y-110536226D01*
X144921894Y-110516324D01*
X144843676Y-110438106D01*
X144823776Y-110393039D01*
X144807213Y-110360531D01*
X144805976Y-110352726D01*
X144798995Y-110336914D01*
X144791000Y-110268000D01*
X144791000Y-109743000D01*
X144798995Y-109674086D01*
X144805976Y-109658274D01*
X144807213Y-109650468D01*
X144823780Y-109617953D01*
X144843676Y-109572894D01*
X144921894Y-109494676D01*
X144966953Y-109474780D01*
X144999468Y-109458213D01*
X145007274Y-109456976D01*
X145023086Y-109449995D01*
X145092000Y-109442000D01*
X145992000Y-109442000D01*
X146060914Y-109449995D01*
G37*
G36*
X151140914Y-108666895D02*
G01*
X151156726Y-108673876D01*
X151164531Y-108675113D01*
X151197039Y-108691676D01*
X151242106Y-108711576D01*
X151320324Y-108789794D01*
X151340226Y-108834867D01*
X151356786Y-108867368D01*
X151358021Y-108875170D01*
X151365005Y-108890986D01*
X151373000Y-108959900D01*
X151373000Y-109484900D01*
X151365005Y-109553814D01*
X151358021Y-109569629D01*
X151356786Y-109577431D01*
X151340229Y-109609924D01*
X151320324Y-109655006D01*
X151242106Y-109733224D01*
X151197024Y-109753129D01*
X151164531Y-109769686D01*
X151156729Y-109770921D01*
X151140914Y-109777905D01*
X151072000Y-109785900D01*
X150172000Y-109785900D01*
X150103086Y-109777905D01*
X150087270Y-109770921D01*
X150079468Y-109769686D01*
X150046967Y-109753126D01*
X150001894Y-109733224D01*
X149923676Y-109655006D01*
X149903776Y-109609939D01*
X149887213Y-109577431D01*
X149885976Y-109569626D01*
X149878995Y-109553814D01*
X149871000Y-109484900D01*
X149871000Y-108959900D01*
X149878995Y-108890986D01*
X149885976Y-108875174D01*
X149887213Y-108867368D01*
X149903780Y-108834853D01*
X149923676Y-108789794D01*
X150001894Y-108711576D01*
X150046953Y-108691680D01*
X150079468Y-108675113D01*
X150087274Y-108673876D01*
X150103086Y-108666895D01*
X150172000Y-108658900D01*
X151072000Y-108658900D01*
X151140914Y-108666895D01*
G37*
G36*
X155966914Y-108640995D02*
G01*
X155982726Y-108647976D01*
X155990531Y-108649213D01*
X156023039Y-108665776D01*
X156068106Y-108685676D01*
X156146324Y-108763894D01*
X156166226Y-108808967D01*
X156182786Y-108841468D01*
X156184021Y-108849270D01*
X156191005Y-108865086D01*
X156199000Y-108934000D01*
X156199000Y-109459000D01*
X156191005Y-109527914D01*
X156184021Y-109543729D01*
X156182786Y-109551531D01*
X156166229Y-109584024D01*
X156146324Y-109629106D01*
X156068106Y-109707324D01*
X156023024Y-109727229D01*
X155990531Y-109743786D01*
X155982729Y-109745021D01*
X155966914Y-109752005D01*
X155898000Y-109760000D01*
X154998000Y-109760000D01*
X154929086Y-109752005D01*
X154913270Y-109745021D01*
X154905468Y-109743786D01*
X154872967Y-109727226D01*
X154827894Y-109707324D01*
X154749676Y-109629106D01*
X154729776Y-109584039D01*
X154713213Y-109551531D01*
X154711976Y-109543726D01*
X154704995Y-109527914D01*
X154697000Y-109459000D01*
X154697000Y-108934000D01*
X154704995Y-108865086D01*
X154711976Y-108849274D01*
X154713213Y-108841468D01*
X154729780Y-108808953D01*
X154749676Y-108763894D01*
X154827894Y-108685676D01*
X154872953Y-108665780D01*
X154905468Y-108649213D01*
X154913274Y-108647976D01*
X154929086Y-108640995D01*
X154998000Y-108633000D01*
X155898000Y-108633000D01*
X155966914Y-108640995D01*
G37*
G36*
X153352333Y-108641729D02*
G01*
X153367930Y-108648616D01*
X153375450Y-108649807D01*
X153406766Y-108665763D01*
X153451424Y-108685482D01*
X153528018Y-108762076D01*
X153547739Y-108806740D01*
X153563692Y-108838049D01*
X153564882Y-108845566D01*
X153571771Y-108861167D01*
X153579600Y-108928650D01*
X153579600Y-109416150D01*
X153571771Y-109483633D01*
X153564882Y-109499234D01*
X153563692Y-109506750D01*
X153547742Y-109538052D01*
X153528018Y-109582724D01*
X153451424Y-109659318D01*
X153406752Y-109679042D01*
X153375450Y-109694992D01*
X153367934Y-109696182D01*
X153352333Y-109703071D01*
X153284850Y-109710900D01*
X152372350Y-109710900D01*
X152304867Y-109703071D01*
X152289266Y-109696182D01*
X152281749Y-109694992D01*
X152250440Y-109679039D01*
X152205776Y-109659318D01*
X152129182Y-109582724D01*
X152109463Y-109538066D01*
X152093507Y-109506750D01*
X152092316Y-109499230D01*
X152085429Y-109483633D01*
X152077600Y-109416150D01*
X152077600Y-108928650D01*
X152085429Y-108861167D01*
X152092315Y-108845569D01*
X152093507Y-108838049D01*
X152109467Y-108806725D01*
X152129182Y-108762076D01*
X152205776Y-108685482D01*
X152250425Y-108665767D01*
X152281749Y-108649807D01*
X152289269Y-108648615D01*
X152304867Y-108641729D01*
X152372350Y-108633900D01*
X153284850Y-108633900D01*
X153352333Y-108641729D01*
G37*
G36*
X146060914Y-107624995D02*
G01*
X146076726Y-107631976D01*
X146084531Y-107633213D01*
X146117039Y-107649776D01*
X146162106Y-107669676D01*
X146240324Y-107747894D01*
X146260226Y-107792967D01*
X146276786Y-107825468D01*
X146278021Y-107833270D01*
X146285005Y-107849086D01*
X146293000Y-107918000D01*
X146293000Y-108443000D01*
X146285005Y-108511914D01*
X146278021Y-108527729D01*
X146276786Y-108535531D01*
X146260229Y-108568024D01*
X146240324Y-108613106D01*
X146162106Y-108691324D01*
X146117024Y-108711229D01*
X146084531Y-108727786D01*
X146076729Y-108729021D01*
X146060914Y-108736005D01*
X145992000Y-108744000D01*
X145092000Y-108744000D01*
X145023086Y-108736005D01*
X145007270Y-108729021D01*
X144999468Y-108727786D01*
X144966967Y-108711226D01*
X144921894Y-108691324D01*
X144843676Y-108613106D01*
X144823776Y-108568039D01*
X144807213Y-108535531D01*
X144805976Y-108527726D01*
X144798995Y-108511914D01*
X144791000Y-108443000D01*
X144791000Y-107918000D01*
X144798995Y-107849086D01*
X144805976Y-107833274D01*
X144807213Y-107825468D01*
X144823780Y-107792953D01*
X144843676Y-107747894D01*
X144921894Y-107669676D01*
X144966953Y-107649780D01*
X144999468Y-107633213D01*
X145007274Y-107631976D01*
X145023086Y-107624995D01*
X145092000Y-107617000D01*
X145992000Y-107617000D01*
X146060914Y-107624995D01*
G37*
G36*
X158230914Y-106929995D02*
G01*
X158246726Y-106936976D01*
X158254531Y-106938213D01*
X158287039Y-106954776D01*
X158332106Y-106974676D01*
X158410324Y-107052894D01*
X158430226Y-107097967D01*
X158446786Y-107130468D01*
X158448021Y-107138270D01*
X158455005Y-107154086D01*
X158463000Y-107223000D01*
X158463000Y-108423000D01*
X158455005Y-108491914D01*
X158448021Y-108507729D01*
X158446786Y-108515531D01*
X158430229Y-108548024D01*
X158410324Y-108593106D01*
X158332106Y-108671324D01*
X158287024Y-108691229D01*
X158254531Y-108707786D01*
X158246729Y-108709021D01*
X158230914Y-108716005D01*
X158162000Y-108724000D01*
X157362000Y-108724000D01*
X157293086Y-108716005D01*
X157277270Y-108709021D01*
X157269468Y-108707786D01*
X157236967Y-108691226D01*
X157191894Y-108671324D01*
X157113676Y-108593106D01*
X157093776Y-108548039D01*
X157077213Y-108515531D01*
X157075976Y-108507726D01*
X157068995Y-108491914D01*
X157061000Y-108423000D01*
X157061000Y-107223000D01*
X157068995Y-107154086D01*
X157075976Y-107138274D01*
X157077213Y-107130468D01*
X157093780Y-107097953D01*
X157113676Y-107052894D01*
X157191894Y-106974676D01*
X157236953Y-106954780D01*
X157269468Y-106938213D01*
X157277274Y-106936976D01*
X157293086Y-106929995D01*
X157362000Y-106922000D01*
X158162000Y-106922000D01*
X158230914Y-106929995D01*
G37*
G36*
X161730914Y-106929995D02*
G01*
X161746726Y-106936976D01*
X161754531Y-106938213D01*
X161787039Y-106954776D01*
X161832106Y-106974676D01*
X161910324Y-107052894D01*
X161930226Y-107097967D01*
X161946786Y-107130468D01*
X161948021Y-107138270D01*
X161955005Y-107154086D01*
X161963000Y-107223000D01*
X161963000Y-108423000D01*
X161955005Y-108491914D01*
X161948021Y-108507729D01*
X161946786Y-108515531D01*
X161930229Y-108548024D01*
X161910324Y-108593106D01*
X161832106Y-108671324D01*
X161787024Y-108691229D01*
X161754531Y-108707786D01*
X161746729Y-108709021D01*
X161730914Y-108716005D01*
X161662000Y-108724000D01*
X160862000Y-108724000D01*
X160793086Y-108716005D01*
X160777270Y-108709021D01*
X160769468Y-108707786D01*
X160736967Y-108691226D01*
X160691894Y-108671324D01*
X160613676Y-108593106D01*
X160593776Y-108548039D01*
X160577213Y-108515531D01*
X160575976Y-108507726D01*
X160568995Y-108491914D01*
X160561000Y-108423000D01*
X160561000Y-107223000D01*
X160568995Y-107154086D01*
X160575976Y-107138274D01*
X160577213Y-107130468D01*
X160593780Y-107097953D01*
X160613676Y-107052894D01*
X160691894Y-106974676D01*
X160736953Y-106954780D01*
X160769468Y-106938213D01*
X160777274Y-106936976D01*
X160793086Y-106929995D01*
X160862000Y-106922000D01*
X161662000Y-106922000D01*
X161730914Y-106929995D01*
G37*
G36*
X148750914Y-106649995D02*
G01*
X148766726Y-106656976D01*
X148774531Y-106658213D01*
X148807039Y-106674776D01*
X148852106Y-106694676D01*
X148930324Y-106772894D01*
X148950226Y-106817967D01*
X148966786Y-106850468D01*
X148968021Y-106858270D01*
X148975005Y-106874086D01*
X148983000Y-106943000D01*
X148983000Y-107743000D01*
X148975005Y-107811914D01*
X148968021Y-107827729D01*
X148966786Y-107835531D01*
X148950229Y-107868024D01*
X148930324Y-107913106D01*
X148852106Y-107991324D01*
X148807024Y-108011229D01*
X148774531Y-108027786D01*
X148766729Y-108029021D01*
X148750914Y-108036005D01*
X148682000Y-108044000D01*
X147482000Y-108044000D01*
X147413086Y-108036005D01*
X147397270Y-108029021D01*
X147389468Y-108027786D01*
X147356967Y-108011226D01*
X147311894Y-107991324D01*
X147233676Y-107913106D01*
X147213776Y-107868039D01*
X147197213Y-107835531D01*
X147195976Y-107827726D01*
X147188995Y-107811914D01*
X147181000Y-107743000D01*
X147181000Y-106943000D01*
X147188995Y-106874086D01*
X147195976Y-106858274D01*
X147197213Y-106850468D01*
X147213780Y-106817953D01*
X147233676Y-106772894D01*
X147311894Y-106694676D01*
X147356953Y-106674780D01*
X147389468Y-106658213D01*
X147397274Y-106656976D01*
X147413086Y-106649995D01*
X147482000Y-106642000D01*
X148682000Y-106642000D01*
X148750914Y-106649995D01*
G37*
G36*
X150548914Y-106317995D02*
G01*
X150564726Y-106324976D01*
X150572531Y-106326213D01*
X150605039Y-106342776D01*
X150650106Y-106362676D01*
X150728324Y-106440894D01*
X150748226Y-106485967D01*
X150764786Y-106518468D01*
X150766021Y-106526270D01*
X150773005Y-106542086D01*
X150781000Y-106611000D01*
X150781000Y-107511000D01*
X150773005Y-107579914D01*
X150766021Y-107595729D01*
X150764786Y-107603531D01*
X150748229Y-107636024D01*
X150728324Y-107681106D01*
X150650106Y-107759324D01*
X150605024Y-107779229D01*
X150572531Y-107795786D01*
X150564729Y-107797021D01*
X150548914Y-107804005D01*
X150480000Y-107812000D01*
X149955000Y-107812000D01*
X149886086Y-107804005D01*
X149870270Y-107797021D01*
X149862468Y-107795786D01*
X149829967Y-107779226D01*
X149784894Y-107759324D01*
X149706676Y-107681106D01*
X149686776Y-107636039D01*
X149670213Y-107603531D01*
X149668976Y-107595726D01*
X149661995Y-107579914D01*
X149654000Y-107511000D01*
X149654000Y-106611000D01*
X149661995Y-106542086D01*
X149668976Y-106526274D01*
X149670213Y-106518468D01*
X149686780Y-106485953D01*
X149706676Y-106440894D01*
X149784894Y-106362676D01*
X149829953Y-106342780D01*
X149862468Y-106326213D01*
X149870274Y-106324976D01*
X149886086Y-106317995D01*
X149955000Y-106310000D01*
X150480000Y-106310000D01*
X150548914Y-106317995D01*
G37*
G36*
X152373914Y-106317995D02*
G01*
X152389726Y-106324976D01*
X152397531Y-106326213D01*
X152430039Y-106342776D01*
X152475106Y-106362676D01*
X152553324Y-106440894D01*
X152573226Y-106485967D01*
X152589786Y-106518468D01*
X152591021Y-106526270D01*
X152598005Y-106542086D01*
X152606000Y-106611000D01*
X152606000Y-107511000D01*
X152598005Y-107579914D01*
X152591021Y-107595729D01*
X152589786Y-107603531D01*
X152573229Y-107636024D01*
X152553324Y-107681106D01*
X152475106Y-107759324D01*
X152430024Y-107779229D01*
X152397531Y-107795786D01*
X152389729Y-107797021D01*
X152373914Y-107804005D01*
X152305000Y-107812000D01*
X151780000Y-107812000D01*
X151711086Y-107804005D01*
X151695270Y-107797021D01*
X151687468Y-107795786D01*
X151654967Y-107779226D01*
X151609894Y-107759324D01*
X151531676Y-107681106D01*
X151511776Y-107636039D01*
X151495213Y-107603531D01*
X151493976Y-107595726D01*
X151486995Y-107579914D01*
X151479000Y-107511000D01*
X151479000Y-106611000D01*
X151486995Y-106542086D01*
X151493976Y-106526274D01*
X151495213Y-106518468D01*
X151511780Y-106485953D01*
X151531676Y-106440894D01*
X151609894Y-106362676D01*
X151654953Y-106342780D01*
X151687468Y-106326213D01*
X151695274Y-106324976D01*
X151711086Y-106317995D01*
X151780000Y-106310000D01*
X152305000Y-106310000D01*
X152373914Y-106317995D01*
G37*
G36*
X154358914Y-106317995D02*
G01*
X154374726Y-106324976D01*
X154382531Y-106326213D01*
X154415039Y-106342776D01*
X154460106Y-106362676D01*
X154538324Y-106440894D01*
X154558226Y-106485967D01*
X154574786Y-106518468D01*
X154576021Y-106526270D01*
X154583005Y-106542086D01*
X154591000Y-106611000D01*
X154591000Y-107511000D01*
X154583005Y-107579914D01*
X154576021Y-107595729D01*
X154574786Y-107603531D01*
X154558229Y-107636024D01*
X154538324Y-107681106D01*
X154460106Y-107759324D01*
X154415024Y-107779229D01*
X154382531Y-107795786D01*
X154374729Y-107797021D01*
X154358914Y-107804005D01*
X154290000Y-107812000D01*
X153765000Y-107812000D01*
X153696086Y-107804005D01*
X153680270Y-107797021D01*
X153672468Y-107795786D01*
X153639967Y-107779226D01*
X153594894Y-107759324D01*
X153516676Y-107681106D01*
X153496776Y-107636039D01*
X153480213Y-107603531D01*
X153478976Y-107595726D01*
X153471995Y-107579914D01*
X153464000Y-107511000D01*
X153464000Y-106611000D01*
X153471995Y-106542086D01*
X153478976Y-106526274D01*
X153480213Y-106518468D01*
X153496780Y-106485953D01*
X153516676Y-106440894D01*
X153594894Y-106362676D01*
X153639953Y-106342780D01*
X153672468Y-106326213D01*
X153680274Y-106324976D01*
X153696086Y-106317995D01*
X153765000Y-106310000D01*
X154290000Y-106310000D01*
X154358914Y-106317995D01*
G37*
G36*
X156183914Y-106317995D02*
G01*
X156199726Y-106324976D01*
X156207531Y-106326213D01*
X156240039Y-106342776D01*
X156285106Y-106362676D01*
X156363324Y-106440894D01*
X156383226Y-106485967D01*
X156399786Y-106518468D01*
X156401021Y-106526270D01*
X156408005Y-106542086D01*
X156416000Y-106611000D01*
X156416000Y-107511000D01*
X156408005Y-107579914D01*
X156401021Y-107595729D01*
X156399786Y-107603531D01*
X156383229Y-107636024D01*
X156363324Y-107681106D01*
X156285106Y-107759324D01*
X156240024Y-107779229D01*
X156207531Y-107795786D01*
X156199729Y-107797021D01*
X156183914Y-107804005D01*
X156115000Y-107812000D01*
X155590000Y-107812000D01*
X155521086Y-107804005D01*
X155505270Y-107797021D01*
X155497468Y-107795786D01*
X155464967Y-107779226D01*
X155419894Y-107759324D01*
X155341676Y-107681106D01*
X155321776Y-107636039D01*
X155305213Y-107603531D01*
X155303976Y-107595726D01*
X155296995Y-107579914D01*
X155289000Y-107511000D01*
X155289000Y-106611000D01*
X155296995Y-106542086D01*
X155303976Y-106526274D01*
X155305213Y-106518468D01*
X155321780Y-106485953D01*
X155341676Y-106440894D01*
X155419894Y-106362676D01*
X155464953Y-106342780D01*
X155497468Y-106326213D01*
X155505274Y-106324976D01*
X155521086Y-106317995D01*
X155590000Y-106310000D01*
X156115000Y-106310000D01*
X156183914Y-106317995D01*
G37*
G36*
X159246914Y-103373995D02*
G01*
X159262726Y-103380976D01*
X159270531Y-103382213D01*
X159303039Y-103398776D01*
X159348106Y-103418676D01*
X159426324Y-103496894D01*
X159446226Y-103541967D01*
X159462786Y-103574468D01*
X159464021Y-103582270D01*
X159471005Y-103598086D01*
X159479000Y-103667000D01*
X159479000Y-104867000D01*
X159471005Y-104935914D01*
X159464021Y-104951729D01*
X159462786Y-104959531D01*
X159446229Y-104992024D01*
X159426324Y-105037106D01*
X159348106Y-105115324D01*
X159303024Y-105135229D01*
X159270531Y-105151786D01*
X159262729Y-105153021D01*
X159246914Y-105160005D01*
X159178000Y-105168000D01*
X158378000Y-105168000D01*
X158309086Y-105160005D01*
X158293270Y-105153021D01*
X158285468Y-105151786D01*
X158252967Y-105135226D01*
X158207894Y-105115324D01*
X158129676Y-105037106D01*
X158109776Y-104992039D01*
X158093213Y-104959531D01*
X158091976Y-104951726D01*
X158084995Y-104935914D01*
X158077000Y-104867000D01*
X158077000Y-103667000D01*
X158084995Y-103598086D01*
X158091976Y-103582274D01*
X158093213Y-103574468D01*
X158109780Y-103541953D01*
X158129676Y-103496894D01*
X158207894Y-103418676D01*
X158252953Y-103398780D01*
X158285468Y-103382213D01*
X158293274Y-103380976D01*
X158309086Y-103373995D01*
X158378000Y-103366000D01*
X159178000Y-103366000D01*
X159246914Y-103373995D01*
G37*
G36*
X162746914Y-103373995D02*
G01*
X162762726Y-103380976D01*
X162770531Y-103382213D01*
X162803039Y-103398776D01*
X162848106Y-103418676D01*
X162926324Y-103496894D01*
X162946226Y-103541967D01*
X162962786Y-103574468D01*
X162964021Y-103582270D01*
X162971005Y-103598086D01*
X162979000Y-103667000D01*
X162979000Y-104867000D01*
X162971005Y-104935914D01*
X162964021Y-104951729D01*
X162962786Y-104959531D01*
X162946229Y-104992024D01*
X162926324Y-105037106D01*
X162848106Y-105115324D01*
X162803024Y-105135229D01*
X162770531Y-105151786D01*
X162762729Y-105153021D01*
X162746914Y-105160005D01*
X162678000Y-105168000D01*
X161878000Y-105168000D01*
X161809086Y-105160005D01*
X161793270Y-105153021D01*
X161785468Y-105151786D01*
X161752967Y-105135226D01*
X161707894Y-105115324D01*
X161629676Y-105037106D01*
X161609776Y-104992039D01*
X161593213Y-104959531D01*
X161591976Y-104951726D01*
X161584995Y-104935914D01*
X161577000Y-104867000D01*
X161577000Y-103667000D01*
X161584995Y-103598086D01*
X161591976Y-103582274D01*
X161593213Y-103574468D01*
X161609780Y-103541953D01*
X161629676Y-103496894D01*
X161707894Y-103418676D01*
X161752953Y-103398780D01*
X161785468Y-103382213D01*
X161793274Y-103380976D01*
X161809086Y-103373995D01*
X161878000Y-103366000D01*
X162678000Y-103366000D01*
X162746914Y-103373995D01*
G37*
G36*
X148961517Y-103172882D02*
G01*
X148978062Y-103183938D01*
X148989118Y-103200483D01*
X148993000Y-103220000D01*
X148993000Y-104920000D01*
X148989118Y-104939517D01*
X148978062Y-104956062D01*
X148961517Y-104967118D01*
X148942000Y-104971000D01*
X147242000Y-104971000D01*
X147222483Y-104967118D01*
X147205938Y-104956062D01*
X147194882Y-104939517D01*
X147191000Y-104920000D01*
X147191000Y-103220000D01*
X147194882Y-103200483D01*
X147205938Y-103183938D01*
X147222483Y-103172882D01*
X147242000Y-103169000D01*
X148942000Y-103169000D01*
X148961517Y-103172882D01*
G37*
G36*
X150675983Y-103173936D02*
G01*
X150726180Y-103173936D01*
X150769524Y-103183149D01*
X150807659Y-103186905D01*
X150855566Y-103201437D01*
X150910424Y-103213098D01*
X150945530Y-103228728D01*
X150976566Y-103238143D01*
X151025884Y-103264504D01*
X151082500Y-103289711D01*
X151108822Y-103308835D01*
X151132232Y-103321348D01*
X151179988Y-103360540D01*
X151234887Y-103400427D01*
X151252711Y-103420223D01*
X151268675Y-103433324D01*
X151311572Y-103485594D01*
X151360924Y-103540405D01*
X151371292Y-103558363D01*
X151380651Y-103569767D01*
X151415273Y-103634542D01*
X151455104Y-103703530D01*
X151459685Y-103717630D01*
X151463856Y-103725433D01*
X151486852Y-103801242D01*
X151513311Y-103882672D01*
X151514242Y-103891532D01*
X151515094Y-103894340D01*
X151523384Y-103978513D01*
X151533000Y-104070000D01*
X151523383Y-104161494D01*
X151515094Y-104245659D01*
X151514242Y-104248466D01*
X151513311Y-104257328D01*
X151486848Y-104338771D01*
X151463856Y-104414566D01*
X151459686Y-104422366D01*
X151455104Y-104436470D01*
X151415266Y-104505470D01*
X151380651Y-104570232D01*
X151371294Y-104581633D01*
X151360924Y-104599595D01*
X151311563Y-104654415D01*
X151268675Y-104706675D01*
X151252714Y-104719773D01*
X151234887Y-104739573D01*
X151179977Y-104779467D01*
X151132232Y-104818651D01*
X151108827Y-104831161D01*
X151082500Y-104850289D01*
X151025873Y-104875500D01*
X150976566Y-104901856D01*
X150945537Y-104911268D01*
X150910424Y-104926902D01*
X150855555Y-104938564D01*
X150807659Y-104953094D01*
X150769532Y-104956849D01*
X150726180Y-104966064D01*
X150675973Y-104966064D01*
X150632000Y-104970395D01*
X150588027Y-104966064D01*
X150537820Y-104966064D01*
X150494467Y-104956849D01*
X150456340Y-104953094D01*
X150408441Y-104938563D01*
X150353576Y-104926902D01*
X150318464Y-104911269D01*
X150287433Y-104901856D01*
X150238120Y-104875498D01*
X150181500Y-104850289D01*
X150155175Y-104831163D01*
X150131767Y-104818651D01*
X150084013Y-104779460D01*
X150029113Y-104739573D01*
X150011287Y-104719776D01*
X149995324Y-104706675D01*
X149952425Y-104654402D01*
X149903076Y-104599595D01*
X149892708Y-104581637D01*
X149883348Y-104570232D01*
X149848719Y-104505447D01*
X149808896Y-104436470D01*
X149804315Y-104422371D01*
X149800143Y-104414566D01*
X149777136Y-104338725D01*
X149750689Y-104257328D01*
X149749758Y-104248471D01*
X149748905Y-104245659D01*
X149740600Y-104161342D01*
X149731000Y-104070000D01*
X149740599Y-103978664D01*
X149748905Y-103894340D01*
X149749758Y-103891527D01*
X149750689Y-103882672D01*
X149777132Y-103801288D01*
X149800143Y-103725433D01*
X149804315Y-103717626D01*
X149808896Y-103703530D01*
X149848712Y-103634565D01*
X149883348Y-103569767D01*
X149892710Y-103558359D01*
X149903076Y-103540405D01*
X149952416Y-103485607D01*
X149995324Y-103433324D01*
X150011291Y-103420219D01*
X150029113Y-103400427D01*
X150084002Y-103360546D01*
X150131767Y-103321348D01*
X150155180Y-103308833D01*
X150181500Y-103289711D01*
X150238109Y-103264506D01*
X150287433Y-103238143D01*
X150318471Y-103228727D01*
X150353576Y-103213098D01*
X150408430Y-103201438D01*
X150456340Y-103186905D01*
X150494476Y-103183148D01*
X150537820Y-103173936D01*
X150588016Y-103173936D01*
X150632000Y-103169604D01*
X150675983Y-103173936D01*
G37*
G36*
X153215983Y-103173936D02*
G01*
X153266180Y-103173936D01*
X153309524Y-103183149D01*
X153347659Y-103186905D01*
X153395566Y-103201437D01*
X153450424Y-103213098D01*
X153485530Y-103228728D01*
X153516566Y-103238143D01*
X153565884Y-103264504D01*
X153622500Y-103289711D01*
X153648822Y-103308835D01*
X153672232Y-103321348D01*
X153719988Y-103360540D01*
X153774887Y-103400427D01*
X153792711Y-103420223D01*
X153808675Y-103433324D01*
X153851572Y-103485594D01*
X153900924Y-103540405D01*
X153911292Y-103558363D01*
X153920651Y-103569767D01*
X153955273Y-103634542D01*
X153995104Y-103703530D01*
X153999685Y-103717630D01*
X154003856Y-103725433D01*
X154026852Y-103801242D01*
X154053311Y-103882672D01*
X154054242Y-103891532D01*
X154055094Y-103894340D01*
X154063384Y-103978513D01*
X154073000Y-104070000D01*
X154063383Y-104161494D01*
X154055094Y-104245659D01*
X154054242Y-104248466D01*
X154053311Y-104257328D01*
X154026848Y-104338771D01*
X154003856Y-104414566D01*
X153999686Y-104422366D01*
X153995104Y-104436470D01*
X153955266Y-104505470D01*
X153920651Y-104570232D01*
X153911294Y-104581633D01*
X153900924Y-104599595D01*
X153851563Y-104654415D01*
X153808675Y-104706675D01*
X153792714Y-104719773D01*
X153774887Y-104739573D01*
X153719977Y-104779467D01*
X153672232Y-104818651D01*
X153648827Y-104831161D01*
X153622500Y-104850289D01*
X153565873Y-104875500D01*
X153516566Y-104901856D01*
X153485537Y-104911268D01*
X153450424Y-104926902D01*
X153395555Y-104938564D01*
X153347659Y-104953094D01*
X153309532Y-104956849D01*
X153266180Y-104966064D01*
X153215973Y-104966064D01*
X153172000Y-104970395D01*
X153128027Y-104966064D01*
X153077820Y-104966064D01*
X153034467Y-104956849D01*
X152996340Y-104953094D01*
X152948441Y-104938563D01*
X152893576Y-104926902D01*
X152858464Y-104911269D01*
X152827433Y-104901856D01*
X152778120Y-104875498D01*
X152721500Y-104850289D01*
X152695175Y-104831163D01*
X152671767Y-104818651D01*
X152624013Y-104779460D01*
X152569113Y-104739573D01*
X152551287Y-104719776D01*
X152535324Y-104706675D01*
X152492425Y-104654402D01*
X152443076Y-104599595D01*
X152432708Y-104581637D01*
X152423348Y-104570232D01*
X152388719Y-104505447D01*
X152348896Y-104436470D01*
X152344315Y-104422371D01*
X152340143Y-104414566D01*
X152317136Y-104338725D01*
X152290689Y-104257328D01*
X152289758Y-104248471D01*
X152288905Y-104245659D01*
X152280600Y-104161342D01*
X152271000Y-104070000D01*
X152280599Y-103978664D01*
X152288905Y-103894340D01*
X152289758Y-103891527D01*
X152290689Y-103882672D01*
X152317132Y-103801288D01*
X152340143Y-103725433D01*
X152344315Y-103717626D01*
X152348896Y-103703530D01*
X152388712Y-103634565D01*
X152423348Y-103569767D01*
X152432710Y-103558359D01*
X152443076Y-103540405D01*
X152492416Y-103485607D01*
X152535324Y-103433324D01*
X152551291Y-103420219D01*
X152569113Y-103400427D01*
X152624002Y-103360546D01*
X152671767Y-103321348D01*
X152695180Y-103308833D01*
X152721500Y-103289711D01*
X152778109Y-103264506D01*
X152827433Y-103238143D01*
X152858471Y-103228727D01*
X152893576Y-103213098D01*
X152948430Y-103201438D01*
X152996340Y-103186905D01*
X153034476Y-103183148D01*
X153077820Y-103173936D01*
X153128016Y-103173936D01*
X153172000Y-103169604D01*
X153215983Y-103173936D01*
G37*
G36*
X155755983Y-103173936D02*
G01*
X155806180Y-103173936D01*
X155849524Y-103183149D01*
X155887659Y-103186905D01*
X155935566Y-103201437D01*
X155990424Y-103213098D01*
X156025530Y-103228728D01*
X156056566Y-103238143D01*
X156105884Y-103264504D01*
X156162500Y-103289711D01*
X156188822Y-103308835D01*
X156212232Y-103321348D01*
X156259988Y-103360540D01*
X156314887Y-103400427D01*
X156332711Y-103420223D01*
X156348675Y-103433324D01*
X156391572Y-103485594D01*
X156440924Y-103540405D01*
X156451292Y-103558363D01*
X156460651Y-103569767D01*
X156495273Y-103634542D01*
X156535104Y-103703530D01*
X156539685Y-103717630D01*
X156543856Y-103725433D01*
X156566852Y-103801242D01*
X156593311Y-103882672D01*
X156594242Y-103891532D01*
X156595094Y-103894340D01*
X156603384Y-103978513D01*
X156613000Y-104070000D01*
X156603383Y-104161494D01*
X156595094Y-104245659D01*
X156594242Y-104248466D01*
X156593311Y-104257328D01*
X156566848Y-104338771D01*
X156543856Y-104414566D01*
X156539686Y-104422366D01*
X156535104Y-104436470D01*
X156495266Y-104505470D01*
X156460651Y-104570232D01*
X156451294Y-104581633D01*
X156440924Y-104599595D01*
X156391563Y-104654415D01*
X156348675Y-104706675D01*
X156332714Y-104719773D01*
X156314887Y-104739573D01*
X156259977Y-104779467D01*
X156212232Y-104818651D01*
X156188827Y-104831161D01*
X156162500Y-104850289D01*
X156105873Y-104875500D01*
X156056566Y-104901856D01*
X156025537Y-104911268D01*
X155990424Y-104926902D01*
X155935555Y-104938564D01*
X155887659Y-104953094D01*
X155849532Y-104956849D01*
X155806180Y-104966064D01*
X155755973Y-104966064D01*
X155712000Y-104970395D01*
X155668027Y-104966064D01*
X155617820Y-104966064D01*
X155574467Y-104956849D01*
X155536340Y-104953094D01*
X155488441Y-104938563D01*
X155433576Y-104926902D01*
X155398464Y-104911269D01*
X155367433Y-104901856D01*
X155318120Y-104875498D01*
X155261500Y-104850289D01*
X155235175Y-104831163D01*
X155211767Y-104818651D01*
X155164013Y-104779460D01*
X155109113Y-104739573D01*
X155091287Y-104719776D01*
X155075324Y-104706675D01*
X155032425Y-104654402D01*
X154983076Y-104599595D01*
X154972708Y-104581637D01*
X154963348Y-104570232D01*
X154928719Y-104505447D01*
X154888896Y-104436470D01*
X154884315Y-104422371D01*
X154880143Y-104414566D01*
X154857136Y-104338725D01*
X154830689Y-104257328D01*
X154829758Y-104248471D01*
X154828905Y-104245659D01*
X154820600Y-104161342D01*
X154811000Y-104070000D01*
X154820599Y-103978664D01*
X154828905Y-103894340D01*
X154829758Y-103891527D01*
X154830689Y-103882672D01*
X154857132Y-103801288D01*
X154880143Y-103725433D01*
X154884315Y-103717626D01*
X154888896Y-103703530D01*
X154928712Y-103634565D01*
X154963348Y-103569767D01*
X154972710Y-103558359D01*
X154983076Y-103540405D01*
X155032416Y-103485607D01*
X155075324Y-103433324D01*
X155091291Y-103420219D01*
X155109113Y-103400427D01*
X155164002Y-103360546D01*
X155211767Y-103321348D01*
X155235180Y-103308833D01*
X155261500Y-103289711D01*
X155318109Y-103264506D01*
X155367433Y-103238143D01*
X155398471Y-103228727D01*
X155433576Y-103213098D01*
X155488430Y-103201438D01*
X155536340Y-103186905D01*
X155574476Y-103183148D01*
X155617820Y-103173936D01*
X155668016Y-103173936D01*
X155712000Y-103169604D01*
X155755983Y-103173936D01*
G37*
M02*
