G04 #@! TF.GenerationSoftware,KiCad,Pcbnew,7.0.7*
G04 #@! TF.CreationDate,2023-10-16T20:45:54+02:00*
G04 #@! TF.ProjectId,HeatPumpControl,48656174-5075-46d7-9043-6f6e74726f6c,2.0*
G04 #@! TF.SameCoordinates,Original*
G04 #@! TF.FileFunction,Soldermask,Bot*
G04 #@! TF.FilePolarity,Negative*
%FSLAX46Y46*%
G04 Gerber Fmt 4.6, Leading zero omitted, Abs format (unit mm)*
G04 Created by KiCad (PCBNEW 7.0.7) date 2023-10-16 20:45:54*
%MOMM*%
%LPD*%
G01*
G04 APERTURE LIST*
G04 APERTURE END LIST*
G36*
X140440389Y-136052553D02*
G01*
X140757336Y-136127671D01*
X141063419Y-136239077D01*
X141354500Y-136385263D01*
X141626641Y-136564253D01*
X141876163Y-136773626D01*
X142099690Y-137010552D01*
X142294201Y-137271825D01*
X142457065Y-137553913D01*
X142586079Y-137853002D01*
X142679499Y-138165045D01*
X142736061Y-138485824D01*
X142755000Y-138811000D01*
X142736061Y-139136176D01*
X142679499Y-139456955D01*
X142586079Y-139768998D01*
X142457065Y-140068087D01*
X142294201Y-140350175D01*
X142099690Y-140611448D01*
X141876163Y-140848374D01*
X141626641Y-141057747D01*
X141354500Y-141236737D01*
X141063419Y-141382923D01*
X140757336Y-141494329D01*
X140440389Y-141569447D01*
X140116864Y-141607261D01*
X139791136Y-141607261D01*
X139467611Y-141569447D01*
X139150664Y-141494329D01*
X138844581Y-141382923D01*
X138553500Y-141236737D01*
X138281359Y-141057747D01*
X138031837Y-140848374D01*
X137808310Y-140611448D01*
X137613799Y-140350175D01*
X137450935Y-140068087D01*
X137321921Y-139768998D01*
X137228501Y-139456955D01*
X137171939Y-139136176D01*
X137153000Y-138811000D01*
X137171939Y-138485824D01*
X137228501Y-138165045D01*
X137321921Y-137853002D01*
X137450935Y-137553913D01*
X137613799Y-137271825D01*
X137808310Y-137010552D01*
X138031837Y-136773626D01*
X138281359Y-136564253D01*
X138553500Y-136385263D01*
X138844581Y-136239077D01*
X139150664Y-136127671D01*
X139467611Y-136052553D01*
X139791136Y-136014739D01*
X140116864Y-136014739D01*
X140440389Y-136052553D01*
G37*
G36*
X166348389Y-136052553D02*
G01*
X166665336Y-136127671D01*
X166971419Y-136239077D01*
X167262500Y-136385263D01*
X167534641Y-136564253D01*
X167784163Y-136773626D01*
X168007690Y-137010552D01*
X168202201Y-137271825D01*
X168365065Y-137553913D01*
X168494079Y-137853002D01*
X168587499Y-138165045D01*
X168644061Y-138485824D01*
X168663000Y-138811000D01*
X168644061Y-139136176D01*
X168587499Y-139456955D01*
X168494079Y-139768998D01*
X168365065Y-140068087D01*
X168202201Y-140350175D01*
X168007690Y-140611448D01*
X167784163Y-140848374D01*
X167534641Y-141057747D01*
X167262500Y-141236737D01*
X166971419Y-141382923D01*
X166665336Y-141494329D01*
X166348389Y-141569447D01*
X166024864Y-141607261D01*
X165699136Y-141607261D01*
X165375611Y-141569447D01*
X165058664Y-141494329D01*
X164752581Y-141382923D01*
X164461500Y-141236737D01*
X164189359Y-141057747D01*
X163939837Y-140848374D01*
X163716310Y-140611448D01*
X163521799Y-140350175D01*
X163358935Y-140068087D01*
X163229921Y-139768998D01*
X163136501Y-139456955D01*
X163079939Y-139136176D01*
X163061000Y-138811000D01*
X163079939Y-138485824D01*
X163136501Y-138165045D01*
X163229921Y-137853002D01*
X163358935Y-137553913D01*
X163521799Y-137271825D01*
X163716310Y-137010552D01*
X163939837Y-136773626D01*
X164189359Y-136564253D01*
X164461500Y-136385263D01*
X164752581Y-136239077D01*
X165058664Y-136127671D01*
X165375611Y-136052553D01*
X165699136Y-136014739D01*
X166024864Y-136014739D01*
X166348389Y-136052553D01*
G37*
G36*
X160061199Y-137989562D02*
G01*
X160108954Y-137989562D01*
X160150194Y-137998327D01*
X160185901Y-138001845D01*
X160230759Y-138015452D01*
X160282973Y-138026551D01*
X160316384Y-138041426D01*
X160345435Y-138050239D01*
X160391602Y-138074915D01*
X160445500Y-138098912D01*
X160470554Y-138117115D01*
X160492453Y-138128820D01*
X160537128Y-138165484D01*
X160589430Y-138203484D01*
X160606411Y-138222343D01*
X160621320Y-138234579D01*
X160661387Y-138283401D01*
X160708473Y-138335695D01*
X160718364Y-138352827D01*
X160727079Y-138363446D01*
X160759306Y-138423740D01*
X160797427Y-138489767D01*
X160801813Y-138503268D01*
X160805660Y-138510464D01*
X160826861Y-138580355D01*
X160852404Y-138658967D01*
X160853303Y-138667523D01*
X160854054Y-138669998D01*
X160861371Y-138744289D01*
X160871000Y-138835900D01*
X160861370Y-138927519D01*
X160854054Y-139001801D01*
X160853303Y-139004275D01*
X160852404Y-139012833D01*
X160826856Y-139091458D01*
X160805660Y-139161335D01*
X160801814Y-139168529D01*
X160797427Y-139182033D01*
X160759299Y-139248072D01*
X160727079Y-139308353D01*
X160718366Y-139318969D01*
X160708473Y-139336105D01*
X160661378Y-139388409D01*
X160621320Y-139437220D01*
X160606414Y-139449452D01*
X160589430Y-139468316D01*
X160537118Y-139506323D01*
X160492453Y-139542979D01*
X160470559Y-139554680D01*
X160445500Y-139572888D01*
X160391591Y-139596889D01*
X160345435Y-139621560D01*
X160316391Y-139630370D01*
X160282973Y-139645249D01*
X160230748Y-139656349D01*
X160185901Y-139669954D01*
X160150203Y-139673470D01*
X160108954Y-139682238D01*
X160061188Y-139682238D01*
X160019999Y-139686295D01*
X159978811Y-139682238D01*
X159931046Y-139682238D01*
X159889797Y-139673470D01*
X159854098Y-139669954D01*
X159809248Y-139656348D01*
X159757027Y-139645249D01*
X159723610Y-139630371D01*
X159694564Y-139621560D01*
X159648402Y-139596886D01*
X159594500Y-139572888D01*
X159569443Y-139554683D01*
X159547546Y-139542979D01*
X159502873Y-139506316D01*
X159450570Y-139468316D01*
X159433588Y-139449455D01*
X159418679Y-139437220D01*
X159378610Y-139388396D01*
X159331527Y-139336105D01*
X159321636Y-139318973D01*
X159312920Y-139308353D01*
X159280687Y-139248048D01*
X159242573Y-139182033D01*
X159238186Y-139168534D01*
X159234339Y-139161335D01*
X159213128Y-139091412D01*
X159187596Y-139012833D01*
X159186697Y-139004280D01*
X159185945Y-139001801D01*
X159178613Y-138927367D01*
X159169000Y-138835900D01*
X159178612Y-138744440D01*
X159185945Y-138669998D01*
X159186697Y-138667518D01*
X159187596Y-138658967D01*
X159213123Y-138580402D01*
X159234339Y-138510464D01*
X159238187Y-138503263D01*
X159242573Y-138489767D01*
X159280680Y-138423763D01*
X159312920Y-138363446D01*
X159321638Y-138352823D01*
X159331527Y-138335695D01*
X159378601Y-138283413D01*
X159418679Y-138234579D01*
X159433591Y-138222340D01*
X159450570Y-138203484D01*
X159502862Y-138165491D01*
X159547546Y-138128820D01*
X159569448Y-138117113D01*
X159594500Y-138098912D01*
X159648391Y-138074918D01*
X159694564Y-138050239D01*
X159723617Y-138041425D01*
X159757027Y-138026551D01*
X159809237Y-138015453D01*
X159854098Y-138001845D01*
X159889806Y-137998327D01*
X159931046Y-137989562D01*
X159978801Y-137989562D01*
X160020000Y-137985504D01*
X160061199Y-137989562D01*
G37*
G36*
X160839517Y-135488782D02*
G01*
X160856062Y-135499838D01*
X160867118Y-135516383D01*
X160871000Y-135535900D01*
X160871000Y-137135900D01*
X160867118Y-137155417D01*
X160856062Y-137171962D01*
X160839517Y-137183018D01*
X160820000Y-137186900D01*
X159220000Y-137186900D01*
X159200483Y-137183018D01*
X159183938Y-137171962D01*
X159172882Y-137155417D01*
X159169000Y-137135900D01*
X159169000Y-135535900D01*
X159172882Y-135516383D01*
X159183938Y-135499838D01*
X159200483Y-135488782D01*
X159220000Y-135484900D01*
X160820000Y-135484900D01*
X160839517Y-135488782D01*
G37*
G36*
X140111517Y-132783882D02*
G01*
X140128062Y-132794938D01*
X140139118Y-132811483D01*
X140143000Y-132831000D01*
X140143000Y-134631000D01*
X140139118Y-134650517D01*
X140128062Y-134667062D01*
X140111517Y-134678118D01*
X140092000Y-134682000D01*
X138292000Y-134682000D01*
X138272483Y-134678118D01*
X138255938Y-134667062D01*
X138244882Y-134650517D01*
X138241000Y-134631000D01*
X138241000Y-132831000D01*
X138244882Y-132811483D01*
X138255938Y-132794938D01*
X138272483Y-132783882D01*
X138292000Y-132780000D01*
X140092000Y-132780000D01*
X140111517Y-132783882D01*
G37*
G36*
X166159983Y-132326936D02*
G01*
X166210180Y-132326936D01*
X166253524Y-132336149D01*
X166291659Y-132339905D01*
X166339566Y-132354437D01*
X166394424Y-132366098D01*
X166429530Y-132381728D01*
X166460566Y-132391143D01*
X166509884Y-132417504D01*
X166566500Y-132442711D01*
X166592822Y-132461835D01*
X166616232Y-132474348D01*
X166663988Y-132513540D01*
X166718887Y-132553427D01*
X166736711Y-132573223D01*
X166752675Y-132586324D01*
X166795572Y-132638594D01*
X166844924Y-132693405D01*
X166855292Y-132711363D01*
X166864651Y-132722767D01*
X166899273Y-132787542D01*
X166939104Y-132856530D01*
X166943685Y-132870630D01*
X166947856Y-132878433D01*
X166970852Y-132954242D01*
X166997311Y-133035672D01*
X166998242Y-133044532D01*
X166999094Y-133047340D01*
X167007384Y-133131513D01*
X167017000Y-133223000D01*
X167007383Y-133314494D01*
X166999094Y-133398659D01*
X166998242Y-133401466D01*
X166997311Y-133410328D01*
X166970848Y-133491771D01*
X166947856Y-133567566D01*
X166943686Y-133575366D01*
X166939104Y-133589470D01*
X166899266Y-133658470D01*
X166864651Y-133723232D01*
X166855294Y-133734633D01*
X166844924Y-133752595D01*
X166795563Y-133807415D01*
X166752675Y-133859675D01*
X166736714Y-133872773D01*
X166718887Y-133892573D01*
X166663977Y-133932467D01*
X166616232Y-133971651D01*
X166592827Y-133984161D01*
X166566500Y-134003289D01*
X166509873Y-134028500D01*
X166460566Y-134054856D01*
X166429537Y-134064268D01*
X166394424Y-134079902D01*
X166339555Y-134091564D01*
X166291659Y-134106094D01*
X166253533Y-134109849D01*
X166210180Y-134119064D01*
X166159972Y-134119064D01*
X166115999Y-134123395D01*
X166072026Y-134119064D01*
X166021820Y-134119064D01*
X165978467Y-134109849D01*
X165940340Y-134106094D01*
X165892441Y-134091563D01*
X165837576Y-134079902D01*
X165802464Y-134064269D01*
X165771433Y-134054856D01*
X165722120Y-134028498D01*
X165665500Y-134003289D01*
X165639175Y-133984163D01*
X165615767Y-133971651D01*
X165568013Y-133932460D01*
X165513113Y-133892573D01*
X165495287Y-133872776D01*
X165479324Y-133859675D01*
X165436425Y-133807402D01*
X165387076Y-133752595D01*
X165376708Y-133734637D01*
X165367348Y-133723232D01*
X165332719Y-133658447D01*
X165292896Y-133589470D01*
X165288315Y-133575371D01*
X165284143Y-133567566D01*
X165261136Y-133491725D01*
X165234689Y-133410328D01*
X165233758Y-133401471D01*
X165232905Y-133398659D01*
X165224600Y-133314342D01*
X165215000Y-133223000D01*
X165224599Y-133131664D01*
X165232905Y-133047340D01*
X165233758Y-133044527D01*
X165234689Y-133035672D01*
X165261132Y-132954288D01*
X165284143Y-132878433D01*
X165288315Y-132870626D01*
X165292896Y-132856530D01*
X165332712Y-132787565D01*
X165367348Y-132722767D01*
X165376710Y-132711359D01*
X165387076Y-132693405D01*
X165436416Y-132638607D01*
X165479324Y-132586324D01*
X165495291Y-132573219D01*
X165513113Y-132553427D01*
X165568002Y-132513546D01*
X165615767Y-132474348D01*
X165639180Y-132461833D01*
X165665500Y-132442711D01*
X165722109Y-132417506D01*
X165771433Y-132391143D01*
X165802471Y-132381727D01*
X165837576Y-132366098D01*
X165892430Y-132354438D01*
X165940340Y-132339905D01*
X165978476Y-132336148D01*
X166021820Y-132326936D01*
X166072016Y-132326936D01*
X166115999Y-132322604D01*
X166159983Y-132326936D01*
G37*
G36*
X139238604Y-130244590D02*
G01*
X139279696Y-130244590D01*
X139325456Y-130253144D01*
X139377531Y-130258273D01*
X139417091Y-130270273D01*
X139452111Y-130276820D01*
X139500617Y-130295611D01*
X139555932Y-130312391D01*
X139587534Y-130329282D01*
X139615656Y-130340177D01*
X139664513Y-130370428D01*
X139720347Y-130400272D01*
X139743809Y-130419526D01*
X139764784Y-130432514D01*
X139811256Y-130474879D01*
X139864459Y-130518541D01*
X139880224Y-130537751D01*
X139894400Y-130550674D01*
X139935557Y-130605174D01*
X139982728Y-130662653D01*
X139991848Y-130679717D01*
X140000099Y-130690642D01*
X140032925Y-130756566D01*
X140070609Y-130827068D01*
X140074628Y-130840316D01*
X140078282Y-130847655D01*
X140099864Y-130923507D01*
X140124727Y-131005469D01*
X140125543Y-131013762D01*
X140126280Y-131016350D01*
X140133937Y-131098989D01*
X140143000Y-131191000D01*
X140133935Y-131283033D01*
X140126280Y-131365649D01*
X140125544Y-131368235D01*
X140124727Y-131376531D01*
X140099859Y-131458507D01*
X140078282Y-131534344D01*
X140074628Y-131541680D01*
X140070609Y-131554932D01*
X140032917Y-131625447D01*
X140000099Y-131691357D01*
X139991850Y-131702279D01*
X139982728Y-131719347D01*
X139935547Y-131776836D01*
X139894400Y-131831325D01*
X139880227Y-131844244D01*
X139864459Y-131863459D01*
X139811245Y-131907129D01*
X139764784Y-131949485D01*
X139743814Y-131962469D01*
X139720347Y-131981728D01*
X139664502Y-132011577D01*
X139615656Y-132041822D01*
X139587541Y-132052713D01*
X139555932Y-132069609D01*
X139500605Y-132086392D01*
X139452111Y-132105179D01*
X139417098Y-132111724D01*
X139377531Y-132123727D01*
X139325453Y-132128856D01*
X139279696Y-132137410D01*
X139238604Y-132137410D01*
X139192000Y-132142000D01*
X139145396Y-132137410D01*
X139104304Y-132137410D01*
X139058545Y-132128856D01*
X139006469Y-132123727D01*
X138966902Y-132111724D01*
X138931888Y-132105179D01*
X138883389Y-132086390D01*
X138828068Y-132069609D01*
X138796461Y-132052714D01*
X138768343Y-132041822D01*
X138719490Y-132011573D01*
X138663653Y-131981728D01*
X138640188Y-131962471D01*
X138619215Y-131949485D01*
X138572744Y-131907121D01*
X138519541Y-131863459D01*
X138503775Y-131844248D01*
X138489599Y-131831325D01*
X138448439Y-131776821D01*
X138401272Y-131719347D01*
X138392151Y-131702284D01*
X138383900Y-131691357D01*
X138351067Y-131625420D01*
X138313391Y-131554932D01*
X138309372Y-131541685D01*
X138305717Y-131534344D01*
X138284124Y-131458454D01*
X138259273Y-131376531D01*
X138258456Y-131368241D01*
X138257719Y-131365649D01*
X138250047Y-131282862D01*
X138241000Y-131191000D01*
X138250045Y-131099161D01*
X138257719Y-131016350D01*
X138258456Y-131013757D01*
X138259273Y-131005469D01*
X138284119Y-130923560D01*
X138305717Y-130847655D01*
X138309373Y-130840311D01*
X138313391Y-130827068D01*
X138351060Y-130756593D01*
X138383900Y-130690642D01*
X138392153Y-130679712D01*
X138401272Y-130662653D01*
X138448430Y-130605190D01*
X138489599Y-130550674D01*
X138503778Y-130537747D01*
X138519541Y-130518541D01*
X138572733Y-130474887D01*
X138619215Y-130432514D01*
X138640193Y-130419524D01*
X138663653Y-130400272D01*
X138719478Y-130370432D01*
X138768343Y-130340177D01*
X138796467Y-130329281D01*
X138828068Y-130312391D01*
X138883377Y-130295612D01*
X138931888Y-130276820D01*
X138966909Y-130270273D01*
X139006469Y-130258273D01*
X139058542Y-130253144D01*
X139104304Y-130244590D01*
X139145396Y-130244590D01*
X139192000Y-130240000D01*
X139238604Y-130244590D01*
G37*
G36*
X166159983Y-129786936D02*
G01*
X166210180Y-129786936D01*
X166253524Y-129796149D01*
X166291659Y-129799905D01*
X166339566Y-129814437D01*
X166394424Y-129826098D01*
X166429530Y-129841728D01*
X166460566Y-129851143D01*
X166509884Y-129877504D01*
X166566500Y-129902711D01*
X166592822Y-129921835D01*
X166616232Y-129934348D01*
X166663988Y-129973540D01*
X166718887Y-130013427D01*
X166736711Y-130033223D01*
X166752675Y-130046324D01*
X166795572Y-130098594D01*
X166844924Y-130153405D01*
X166855292Y-130171363D01*
X166864651Y-130182767D01*
X166899273Y-130247542D01*
X166939104Y-130316530D01*
X166943685Y-130330630D01*
X166947856Y-130338433D01*
X166970852Y-130414242D01*
X166997311Y-130495672D01*
X166998242Y-130504532D01*
X166999094Y-130507340D01*
X167007384Y-130591513D01*
X167017000Y-130683000D01*
X167007383Y-130774494D01*
X166999094Y-130858659D01*
X166998242Y-130861466D01*
X166997311Y-130870328D01*
X166970848Y-130951771D01*
X166947856Y-131027566D01*
X166943686Y-131035366D01*
X166939104Y-131049470D01*
X166899266Y-131118470D01*
X166864651Y-131183232D01*
X166855294Y-131194633D01*
X166844924Y-131212595D01*
X166795563Y-131267415D01*
X166752675Y-131319675D01*
X166736714Y-131332773D01*
X166718887Y-131352573D01*
X166663977Y-131392467D01*
X166616232Y-131431651D01*
X166592827Y-131444161D01*
X166566500Y-131463289D01*
X166509873Y-131488500D01*
X166460566Y-131514856D01*
X166429537Y-131524268D01*
X166394424Y-131539902D01*
X166339555Y-131551564D01*
X166291659Y-131566094D01*
X166253532Y-131569849D01*
X166210180Y-131579064D01*
X166159973Y-131579064D01*
X166116000Y-131583395D01*
X166072027Y-131579064D01*
X166021820Y-131579064D01*
X165978467Y-131569849D01*
X165940340Y-131566094D01*
X165892441Y-131551563D01*
X165837576Y-131539902D01*
X165802464Y-131524269D01*
X165771433Y-131514856D01*
X165722120Y-131488498D01*
X165665500Y-131463289D01*
X165639175Y-131444163D01*
X165615767Y-131431651D01*
X165568013Y-131392460D01*
X165513113Y-131352573D01*
X165495287Y-131332776D01*
X165479324Y-131319675D01*
X165436425Y-131267402D01*
X165387076Y-131212595D01*
X165376708Y-131194637D01*
X165367348Y-131183232D01*
X165332719Y-131118447D01*
X165292896Y-131049470D01*
X165288315Y-131035371D01*
X165284143Y-131027566D01*
X165261136Y-130951725D01*
X165234689Y-130870328D01*
X165233758Y-130861471D01*
X165232905Y-130858659D01*
X165224600Y-130774342D01*
X165215000Y-130683000D01*
X165224599Y-130591664D01*
X165232905Y-130507340D01*
X165233758Y-130504527D01*
X165234689Y-130495672D01*
X165261132Y-130414288D01*
X165284143Y-130338433D01*
X165288315Y-130330626D01*
X165292896Y-130316530D01*
X165332712Y-130247565D01*
X165367348Y-130182767D01*
X165376710Y-130171359D01*
X165387076Y-130153405D01*
X165436416Y-130098607D01*
X165479324Y-130046324D01*
X165495291Y-130033219D01*
X165513113Y-130013427D01*
X165568002Y-129973546D01*
X165615767Y-129934348D01*
X165639180Y-129921833D01*
X165665500Y-129902711D01*
X165722109Y-129877506D01*
X165771433Y-129851143D01*
X165802471Y-129841727D01*
X165837576Y-129826098D01*
X165892430Y-129814438D01*
X165940340Y-129799905D01*
X165978476Y-129796148D01*
X166021820Y-129786936D01*
X166072016Y-129786936D01*
X166116000Y-129782604D01*
X166159983Y-129786936D01*
G37*
G36*
X144313323Y-129521773D02*
G01*
X144351957Y-129521773D01*
X144395540Y-129531036D01*
X144446539Y-129536783D01*
X144483621Y-129549758D01*
X144515606Y-129556557D01*
X144561701Y-129577079D01*
X144615841Y-129596024D01*
X144644019Y-129613729D01*
X144668457Y-129624610D01*
X144714020Y-129657714D01*
X144767715Y-129691453D01*
X144787000Y-129710738D01*
X144803812Y-129722953D01*
X144845376Y-129769114D01*
X144894547Y-129818285D01*
X144905855Y-129836282D01*
X144915767Y-129847290D01*
X144949676Y-129906022D01*
X144989976Y-129970159D01*
X144995007Y-129984538D01*
X144999420Y-129992181D01*
X145022018Y-130061730D01*
X145049217Y-130139461D01*
X145050248Y-130148613D01*
X145051123Y-130151306D01*
X145059050Y-130226738D01*
X145069300Y-130317700D01*
X145059050Y-130408669D01*
X145051123Y-130484093D01*
X145050248Y-130486784D01*
X145049217Y-130495939D01*
X145022013Y-130573682D01*
X144999420Y-130643218D01*
X144995008Y-130650859D01*
X144989976Y-130665241D01*
X144949669Y-130729388D01*
X144915767Y-130788109D01*
X144905857Y-130799114D01*
X144894547Y-130817115D01*
X144845367Y-130866294D01*
X144803812Y-130912446D01*
X144787004Y-130924657D01*
X144767715Y-130943947D01*
X144714010Y-130977692D01*
X144668457Y-131010789D01*
X144644025Y-131021666D01*
X144615841Y-131039376D01*
X144561691Y-131058323D01*
X144515606Y-131078842D01*
X144483627Y-131085639D01*
X144446539Y-131098617D01*
X144395537Y-131104363D01*
X144351957Y-131113627D01*
X144313323Y-131113627D01*
X144268300Y-131118700D01*
X144223277Y-131113627D01*
X144184643Y-131113627D01*
X144141061Y-131104363D01*
X144090061Y-131098617D01*
X144052974Y-131085639D01*
X144020993Y-131078842D01*
X143974903Y-131058322D01*
X143920759Y-131039376D01*
X143892577Y-131021668D01*
X143868142Y-131010789D01*
X143822582Y-130977687D01*
X143768885Y-130943947D01*
X143749598Y-130924660D01*
X143732787Y-130912446D01*
X143691222Y-130866284D01*
X143642053Y-130817115D01*
X143630744Y-130799118D01*
X143620832Y-130788109D01*
X143586918Y-130729368D01*
X143546624Y-130665241D01*
X143541593Y-130650863D01*
X143537179Y-130643218D01*
X143514572Y-130573642D01*
X143487383Y-130495939D01*
X143486352Y-130486789D01*
X143485476Y-130484093D01*
X143477535Y-130408537D01*
X143467300Y-130317700D01*
X143477534Y-130226870D01*
X143485476Y-130151306D01*
X143486352Y-130148609D01*
X143487383Y-130139461D01*
X143514567Y-130061770D01*
X143537179Y-129992181D01*
X143541593Y-129984534D01*
X143546624Y-129970159D01*
X143586911Y-129906042D01*
X143620832Y-129847290D01*
X143630746Y-129836278D01*
X143642053Y-129818285D01*
X143691213Y-129769124D01*
X143732787Y-129722953D01*
X143749601Y-129710736D01*
X143768885Y-129691453D01*
X143822578Y-129657715D01*
X143868146Y-129624608D01*
X143892584Y-129613727D01*
X143920759Y-129596024D01*
X143974887Y-129577083D01*
X144020989Y-129556558D01*
X144052979Y-129549758D01*
X144090061Y-129536783D01*
X144141059Y-129531036D01*
X144184643Y-129521773D01*
X144223277Y-129521773D01*
X144268300Y-129516700D01*
X144313323Y-129521773D01*
G37*
G36*
X160478323Y-129521773D02*
G01*
X160516957Y-129521773D01*
X160560540Y-129531036D01*
X160611539Y-129536783D01*
X160648621Y-129549758D01*
X160680606Y-129556557D01*
X160726701Y-129577079D01*
X160780841Y-129596024D01*
X160809019Y-129613729D01*
X160833457Y-129624610D01*
X160879020Y-129657714D01*
X160932715Y-129691453D01*
X160952000Y-129710738D01*
X160968812Y-129722953D01*
X161010376Y-129769114D01*
X161059547Y-129818285D01*
X161070855Y-129836282D01*
X161080767Y-129847290D01*
X161114676Y-129906022D01*
X161154976Y-129970159D01*
X161160007Y-129984538D01*
X161164420Y-129992181D01*
X161187018Y-130061730D01*
X161214217Y-130139461D01*
X161215248Y-130148613D01*
X161216123Y-130151306D01*
X161224050Y-130226738D01*
X161234300Y-130317700D01*
X161224050Y-130408669D01*
X161216123Y-130484093D01*
X161215248Y-130486784D01*
X161214217Y-130495939D01*
X161187013Y-130573682D01*
X161164420Y-130643218D01*
X161160008Y-130650859D01*
X161154976Y-130665241D01*
X161114669Y-130729388D01*
X161080767Y-130788109D01*
X161070857Y-130799114D01*
X161059547Y-130817115D01*
X161010367Y-130866294D01*
X160968812Y-130912446D01*
X160952004Y-130924657D01*
X160932715Y-130943947D01*
X160879010Y-130977692D01*
X160833457Y-131010789D01*
X160809025Y-131021666D01*
X160780841Y-131039376D01*
X160726691Y-131058323D01*
X160680606Y-131078842D01*
X160648627Y-131085639D01*
X160611539Y-131098617D01*
X160560537Y-131104363D01*
X160516957Y-131113627D01*
X160478323Y-131113627D01*
X160433300Y-131118700D01*
X160388277Y-131113627D01*
X160349643Y-131113627D01*
X160306061Y-131104363D01*
X160255061Y-131098617D01*
X160217974Y-131085639D01*
X160185993Y-131078842D01*
X160139903Y-131058322D01*
X160085759Y-131039376D01*
X160057577Y-131021668D01*
X160033142Y-131010789D01*
X159987582Y-130977687D01*
X159933885Y-130943947D01*
X159914598Y-130924660D01*
X159897787Y-130912446D01*
X159856222Y-130866284D01*
X159807053Y-130817115D01*
X159795744Y-130799118D01*
X159785832Y-130788109D01*
X159751918Y-130729368D01*
X159711624Y-130665241D01*
X159706593Y-130650863D01*
X159702179Y-130643218D01*
X159679572Y-130573642D01*
X159652383Y-130495939D01*
X159651352Y-130486789D01*
X159650476Y-130484093D01*
X159642535Y-130408537D01*
X159632300Y-130317700D01*
X159642534Y-130226870D01*
X159650476Y-130151306D01*
X159651352Y-130148609D01*
X159652383Y-130139461D01*
X159679567Y-130061770D01*
X159702179Y-129992181D01*
X159706593Y-129984534D01*
X159711624Y-129970159D01*
X159751911Y-129906042D01*
X159785832Y-129847290D01*
X159795746Y-129836278D01*
X159807053Y-129818285D01*
X159856213Y-129769124D01*
X159897787Y-129722953D01*
X159914601Y-129710736D01*
X159933885Y-129691453D01*
X159987578Y-129657715D01*
X160033146Y-129624608D01*
X160057584Y-129613727D01*
X160085759Y-129596024D01*
X160139887Y-129577083D01*
X160185989Y-129556558D01*
X160217979Y-129549758D01*
X160255061Y-129536783D01*
X160306059Y-129531036D01*
X160349643Y-129521773D01*
X160388277Y-129521773D01*
X160433300Y-129516700D01*
X160478323Y-129521773D01*
G37*
G36*
X140111517Y-127449882D02*
G01*
X140128062Y-127460938D01*
X140139118Y-127477483D01*
X140143000Y-127497000D01*
X140143000Y-129297000D01*
X140139118Y-129316517D01*
X140128062Y-129333062D01*
X140111517Y-129344118D01*
X140092000Y-129348000D01*
X138292000Y-129348000D01*
X138272483Y-129344118D01*
X138255938Y-129333062D01*
X138244882Y-129316517D01*
X138241000Y-129297000D01*
X138241000Y-127497000D01*
X138244882Y-127477483D01*
X138255938Y-127460938D01*
X138272483Y-127449882D01*
X138292000Y-127446000D01*
X140092000Y-127446000D01*
X140111517Y-127449882D01*
G37*
G36*
X166159983Y-127246936D02*
G01*
X166210180Y-127246936D01*
X166253524Y-127256149D01*
X166291659Y-127259905D01*
X166339566Y-127274437D01*
X166394424Y-127286098D01*
X166429530Y-127301728D01*
X166460566Y-127311143D01*
X166509884Y-127337504D01*
X166566500Y-127362711D01*
X166592822Y-127381835D01*
X166616232Y-127394348D01*
X166663988Y-127433540D01*
X166718887Y-127473427D01*
X166736711Y-127493223D01*
X166752675Y-127506324D01*
X166795572Y-127558594D01*
X166844924Y-127613405D01*
X166855292Y-127631363D01*
X166864651Y-127642767D01*
X166899273Y-127707542D01*
X166939104Y-127776530D01*
X166943685Y-127790630D01*
X166947856Y-127798433D01*
X166970852Y-127874242D01*
X166997311Y-127955672D01*
X166998242Y-127964532D01*
X166999094Y-127967340D01*
X167007385Y-128051520D01*
X167017000Y-128143000D01*
X167007382Y-128234501D01*
X166999094Y-128318659D01*
X166998242Y-128321466D01*
X166997311Y-128330328D01*
X166970848Y-128411771D01*
X166947856Y-128487566D01*
X166943686Y-128495366D01*
X166939104Y-128509470D01*
X166899266Y-128578470D01*
X166864651Y-128643232D01*
X166855294Y-128654633D01*
X166844924Y-128672595D01*
X166795563Y-128727415D01*
X166752675Y-128779675D01*
X166736714Y-128792773D01*
X166718887Y-128812573D01*
X166663977Y-128852467D01*
X166616232Y-128891651D01*
X166592827Y-128904161D01*
X166566500Y-128923289D01*
X166509873Y-128948500D01*
X166460566Y-128974856D01*
X166429537Y-128984268D01*
X166394424Y-128999902D01*
X166339555Y-129011564D01*
X166291659Y-129026094D01*
X166253532Y-129029849D01*
X166210180Y-129039064D01*
X166159973Y-129039064D01*
X166116000Y-129043395D01*
X166072027Y-129039064D01*
X166021820Y-129039064D01*
X165978467Y-129029849D01*
X165940340Y-129026094D01*
X165892441Y-129011563D01*
X165837576Y-128999902D01*
X165802464Y-128984269D01*
X165771433Y-128974856D01*
X165722120Y-128948498D01*
X165665500Y-128923289D01*
X165639175Y-128904163D01*
X165615767Y-128891651D01*
X165568013Y-128852460D01*
X165513113Y-128812573D01*
X165495287Y-128792776D01*
X165479324Y-128779675D01*
X165436425Y-128727402D01*
X165387076Y-128672595D01*
X165376708Y-128654637D01*
X165367348Y-128643232D01*
X165332719Y-128578447D01*
X165292896Y-128509470D01*
X165288315Y-128495371D01*
X165284143Y-128487566D01*
X165261136Y-128411725D01*
X165234689Y-128330328D01*
X165233758Y-128321471D01*
X165232905Y-128318659D01*
X165224601Y-128234349D01*
X165215000Y-128143000D01*
X165224598Y-128051672D01*
X165232905Y-127967340D01*
X165233758Y-127964527D01*
X165234689Y-127955672D01*
X165261132Y-127874288D01*
X165284143Y-127798433D01*
X165288315Y-127790626D01*
X165292896Y-127776530D01*
X165332712Y-127707565D01*
X165367348Y-127642767D01*
X165376710Y-127631359D01*
X165387076Y-127613405D01*
X165436416Y-127558607D01*
X165479324Y-127506324D01*
X165495291Y-127493219D01*
X165513113Y-127473427D01*
X165568002Y-127433546D01*
X165615767Y-127394348D01*
X165639180Y-127381833D01*
X165665500Y-127362711D01*
X165722109Y-127337506D01*
X165771433Y-127311143D01*
X165802471Y-127301727D01*
X165837576Y-127286098D01*
X165892430Y-127274438D01*
X165940340Y-127259905D01*
X165978476Y-127256148D01*
X166021820Y-127246936D01*
X166072016Y-127246936D01*
X166116000Y-127242604D01*
X166159983Y-127246936D01*
G37*
G36*
X144313323Y-126981773D02*
G01*
X144351957Y-126981773D01*
X144395540Y-126991036D01*
X144446539Y-126996783D01*
X144483621Y-127009758D01*
X144515606Y-127016557D01*
X144561701Y-127037079D01*
X144615841Y-127056024D01*
X144644019Y-127073729D01*
X144668457Y-127084610D01*
X144714020Y-127117714D01*
X144767715Y-127151453D01*
X144787000Y-127170738D01*
X144803812Y-127182953D01*
X144845376Y-127229114D01*
X144894547Y-127278285D01*
X144905855Y-127296282D01*
X144915767Y-127307290D01*
X144949676Y-127366022D01*
X144989976Y-127430159D01*
X144995007Y-127444538D01*
X144999420Y-127452181D01*
X145022018Y-127521730D01*
X145049217Y-127599461D01*
X145050248Y-127608613D01*
X145051123Y-127611306D01*
X145059051Y-127686744D01*
X145069300Y-127777700D01*
X145059049Y-127868675D01*
X145051123Y-127944093D01*
X145050248Y-127946784D01*
X145049217Y-127955939D01*
X145022013Y-128033682D01*
X144999420Y-128103218D01*
X144995008Y-128110859D01*
X144989976Y-128125241D01*
X144949669Y-128189388D01*
X144915767Y-128248109D01*
X144905857Y-128259114D01*
X144894547Y-128277115D01*
X144845367Y-128326294D01*
X144803812Y-128372446D01*
X144787004Y-128384657D01*
X144767715Y-128403947D01*
X144714010Y-128437692D01*
X144668457Y-128470789D01*
X144644025Y-128481666D01*
X144615841Y-128499376D01*
X144561691Y-128518323D01*
X144515606Y-128538842D01*
X144483627Y-128545639D01*
X144446539Y-128558617D01*
X144395537Y-128564363D01*
X144351957Y-128573627D01*
X144313323Y-128573627D01*
X144268300Y-128578700D01*
X144223277Y-128573627D01*
X144184643Y-128573627D01*
X144141061Y-128564363D01*
X144090061Y-128558617D01*
X144052974Y-128545639D01*
X144020993Y-128538842D01*
X143974903Y-128518322D01*
X143920759Y-128499376D01*
X143892577Y-128481668D01*
X143868142Y-128470789D01*
X143822582Y-128437687D01*
X143768885Y-128403947D01*
X143749598Y-128384660D01*
X143732787Y-128372446D01*
X143691222Y-128326284D01*
X143642053Y-128277115D01*
X143630744Y-128259118D01*
X143620832Y-128248109D01*
X143586918Y-128189368D01*
X143546624Y-128125241D01*
X143541593Y-128110863D01*
X143537179Y-128103218D01*
X143514572Y-128033642D01*
X143487383Y-127955939D01*
X143486352Y-127946789D01*
X143485476Y-127944093D01*
X143477535Y-127868543D01*
X143467300Y-127777700D01*
X143477533Y-127686876D01*
X143485476Y-127611306D01*
X143486352Y-127608609D01*
X143487383Y-127599461D01*
X143514567Y-127521770D01*
X143537179Y-127452181D01*
X143541593Y-127444534D01*
X143546624Y-127430159D01*
X143586911Y-127366042D01*
X143620832Y-127307290D01*
X143630746Y-127296278D01*
X143642053Y-127278285D01*
X143691213Y-127229124D01*
X143732787Y-127182953D01*
X143749601Y-127170736D01*
X143768885Y-127151453D01*
X143822578Y-127117715D01*
X143868146Y-127084608D01*
X143892584Y-127073727D01*
X143920759Y-127056024D01*
X143974887Y-127037083D01*
X144020989Y-127016558D01*
X144052979Y-127009758D01*
X144090061Y-126996783D01*
X144141059Y-126991036D01*
X144184643Y-126981773D01*
X144223277Y-126981773D01*
X144268300Y-126976700D01*
X144313323Y-126981773D01*
G37*
G36*
X160478323Y-126981773D02*
G01*
X160516957Y-126981773D01*
X160560540Y-126991036D01*
X160611539Y-126996783D01*
X160648621Y-127009758D01*
X160680606Y-127016557D01*
X160726701Y-127037079D01*
X160780841Y-127056024D01*
X160809019Y-127073729D01*
X160833457Y-127084610D01*
X160879020Y-127117714D01*
X160932715Y-127151453D01*
X160952000Y-127170738D01*
X160968812Y-127182953D01*
X161010376Y-127229114D01*
X161059547Y-127278285D01*
X161070855Y-127296282D01*
X161080767Y-127307290D01*
X161114676Y-127366022D01*
X161154976Y-127430159D01*
X161160007Y-127444538D01*
X161164420Y-127452181D01*
X161187018Y-127521730D01*
X161214217Y-127599461D01*
X161215248Y-127608613D01*
X161216123Y-127611306D01*
X161224051Y-127686744D01*
X161234300Y-127777700D01*
X161224049Y-127868675D01*
X161216123Y-127944093D01*
X161215248Y-127946784D01*
X161214217Y-127955939D01*
X161187013Y-128033682D01*
X161164420Y-128103218D01*
X161160008Y-128110859D01*
X161154976Y-128125241D01*
X161114669Y-128189388D01*
X161080767Y-128248109D01*
X161070857Y-128259114D01*
X161059547Y-128277115D01*
X161010367Y-128326294D01*
X160968812Y-128372446D01*
X160952004Y-128384657D01*
X160932715Y-128403947D01*
X160879010Y-128437692D01*
X160833457Y-128470789D01*
X160809025Y-128481666D01*
X160780841Y-128499376D01*
X160726691Y-128518323D01*
X160680606Y-128538842D01*
X160648627Y-128545639D01*
X160611539Y-128558617D01*
X160560537Y-128564363D01*
X160516957Y-128573627D01*
X160478323Y-128573627D01*
X160433300Y-128578700D01*
X160388277Y-128573627D01*
X160349643Y-128573627D01*
X160306061Y-128564363D01*
X160255061Y-128558617D01*
X160217974Y-128545639D01*
X160185993Y-128538842D01*
X160139903Y-128518322D01*
X160085759Y-128499376D01*
X160057577Y-128481668D01*
X160033142Y-128470789D01*
X159987582Y-128437687D01*
X159933885Y-128403947D01*
X159914598Y-128384660D01*
X159897787Y-128372446D01*
X159856222Y-128326284D01*
X159807053Y-128277115D01*
X159795744Y-128259118D01*
X159785832Y-128248109D01*
X159751918Y-128189368D01*
X159711624Y-128125241D01*
X159706593Y-128110863D01*
X159702179Y-128103218D01*
X159679572Y-128033642D01*
X159652383Y-127955939D01*
X159651352Y-127946789D01*
X159650476Y-127944093D01*
X159642535Y-127868543D01*
X159632300Y-127777700D01*
X159642533Y-127686876D01*
X159650476Y-127611306D01*
X159651352Y-127608609D01*
X159652383Y-127599461D01*
X159679567Y-127521770D01*
X159702179Y-127452181D01*
X159706593Y-127444534D01*
X159711624Y-127430159D01*
X159751911Y-127366042D01*
X159785832Y-127307290D01*
X159795746Y-127296278D01*
X159807053Y-127278285D01*
X159856213Y-127229124D01*
X159897787Y-127182953D01*
X159914601Y-127170736D01*
X159933885Y-127151453D01*
X159987578Y-127117715D01*
X160033146Y-127084608D01*
X160057584Y-127073727D01*
X160085759Y-127056024D01*
X160139887Y-127037083D01*
X160185989Y-127016558D01*
X160217979Y-127009758D01*
X160255061Y-126996783D01*
X160306059Y-126991036D01*
X160349643Y-126981773D01*
X160388277Y-126981773D01*
X160433300Y-126976700D01*
X160478323Y-126981773D01*
G37*
G36*
X139238604Y-124910590D02*
G01*
X139279696Y-124910590D01*
X139325456Y-124919144D01*
X139377531Y-124924273D01*
X139417091Y-124936273D01*
X139452111Y-124942820D01*
X139500617Y-124961611D01*
X139555932Y-124978391D01*
X139587534Y-124995282D01*
X139615656Y-125006177D01*
X139664513Y-125036428D01*
X139720347Y-125066272D01*
X139743809Y-125085526D01*
X139764784Y-125098514D01*
X139811256Y-125140879D01*
X139864459Y-125184541D01*
X139880224Y-125203751D01*
X139894400Y-125216674D01*
X139935557Y-125271174D01*
X139982728Y-125328653D01*
X139991848Y-125345717D01*
X140000099Y-125356642D01*
X140032925Y-125422566D01*
X140070609Y-125493068D01*
X140074628Y-125506316D01*
X140078282Y-125513655D01*
X140099864Y-125589507D01*
X140124727Y-125671469D01*
X140125543Y-125679762D01*
X140126280Y-125682350D01*
X140133937Y-125764982D01*
X140143000Y-125857000D01*
X140133936Y-125949026D01*
X140126280Y-126031649D01*
X140125544Y-126034235D01*
X140124727Y-126042531D01*
X140099859Y-126124507D01*
X140078282Y-126200344D01*
X140074628Y-126207680D01*
X140070609Y-126220932D01*
X140032917Y-126291447D01*
X140000099Y-126357357D01*
X139991850Y-126368279D01*
X139982728Y-126385347D01*
X139935547Y-126442836D01*
X139894400Y-126497325D01*
X139880227Y-126510244D01*
X139864459Y-126529459D01*
X139811245Y-126573129D01*
X139764784Y-126615485D01*
X139743814Y-126628469D01*
X139720347Y-126647728D01*
X139664502Y-126677577D01*
X139615656Y-126707822D01*
X139587541Y-126718713D01*
X139555932Y-126735609D01*
X139500605Y-126752392D01*
X139452111Y-126771179D01*
X139417098Y-126777724D01*
X139377531Y-126789727D01*
X139325453Y-126794856D01*
X139279696Y-126803410D01*
X139238604Y-126803410D01*
X139192000Y-126808000D01*
X139145396Y-126803410D01*
X139104304Y-126803410D01*
X139058545Y-126794856D01*
X139006469Y-126789727D01*
X138966902Y-126777724D01*
X138931888Y-126771179D01*
X138883389Y-126752390D01*
X138828068Y-126735609D01*
X138796461Y-126718714D01*
X138768343Y-126707822D01*
X138719490Y-126677573D01*
X138663653Y-126647728D01*
X138640188Y-126628471D01*
X138619215Y-126615485D01*
X138572744Y-126573121D01*
X138519541Y-126529459D01*
X138503775Y-126510248D01*
X138489599Y-126497325D01*
X138448439Y-126442821D01*
X138401272Y-126385347D01*
X138392151Y-126368284D01*
X138383900Y-126357357D01*
X138351067Y-126291420D01*
X138313391Y-126220932D01*
X138309372Y-126207685D01*
X138305717Y-126200344D01*
X138284124Y-126124454D01*
X138259273Y-126042531D01*
X138258456Y-126034241D01*
X138257719Y-126031649D01*
X138250047Y-125948862D01*
X138241000Y-125857000D01*
X138250045Y-125765161D01*
X138257719Y-125682350D01*
X138258456Y-125679757D01*
X138259273Y-125671469D01*
X138284119Y-125589560D01*
X138305717Y-125513655D01*
X138309373Y-125506311D01*
X138313391Y-125493068D01*
X138351060Y-125422593D01*
X138383900Y-125356642D01*
X138392153Y-125345712D01*
X138401272Y-125328653D01*
X138448430Y-125271190D01*
X138489599Y-125216674D01*
X138503778Y-125203747D01*
X138519541Y-125184541D01*
X138572733Y-125140887D01*
X138619215Y-125098514D01*
X138640193Y-125085524D01*
X138663653Y-125066272D01*
X138719478Y-125036432D01*
X138768343Y-125006177D01*
X138796467Y-124995281D01*
X138828068Y-124978391D01*
X138883377Y-124961612D01*
X138931888Y-124942820D01*
X138966909Y-124936273D01*
X139006469Y-124924273D01*
X139058542Y-124919144D01*
X139104304Y-124910590D01*
X139145396Y-124910590D01*
X139192000Y-124906000D01*
X139238604Y-124910590D01*
G37*
G36*
X166985517Y-124705882D02*
G01*
X167002062Y-124716938D01*
X167013118Y-124733483D01*
X167017000Y-124753000D01*
X167017000Y-126453000D01*
X167013118Y-126472517D01*
X167002062Y-126489062D01*
X166985517Y-126500118D01*
X166966000Y-126504000D01*
X165266000Y-126504000D01*
X165246483Y-126500118D01*
X165229938Y-126489062D01*
X165218882Y-126472517D01*
X165215000Y-126453000D01*
X165215000Y-124753000D01*
X165218882Y-124733483D01*
X165229938Y-124716938D01*
X165246483Y-124705882D01*
X165266000Y-124702000D01*
X166966000Y-124702000D01*
X166985517Y-124705882D01*
G37*
G36*
X144313323Y-124441773D02*
G01*
X144351957Y-124441773D01*
X144395540Y-124451036D01*
X144446539Y-124456783D01*
X144483621Y-124469758D01*
X144515606Y-124476557D01*
X144561701Y-124497079D01*
X144615841Y-124516024D01*
X144644019Y-124533729D01*
X144668457Y-124544610D01*
X144714020Y-124577714D01*
X144767715Y-124611453D01*
X144787000Y-124630738D01*
X144803812Y-124642953D01*
X144845376Y-124689114D01*
X144894547Y-124738285D01*
X144905855Y-124756282D01*
X144915767Y-124767290D01*
X144949676Y-124826022D01*
X144989976Y-124890159D01*
X144995007Y-124904538D01*
X144999420Y-124912181D01*
X145022018Y-124981730D01*
X145049217Y-125059461D01*
X145050248Y-125068613D01*
X145051123Y-125071306D01*
X145059050Y-125146738D01*
X145069300Y-125237700D01*
X145059052Y-125328653D01*
X145051123Y-125404093D01*
X145050248Y-125406784D01*
X145049217Y-125415939D01*
X145022013Y-125493682D01*
X144999420Y-125563218D01*
X144995008Y-125570859D01*
X144989976Y-125585241D01*
X144949669Y-125649388D01*
X144915767Y-125708109D01*
X144905857Y-125719114D01*
X144894547Y-125737115D01*
X144845367Y-125786294D01*
X144803812Y-125832446D01*
X144787004Y-125844657D01*
X144767715Y-125863947D01*
X144714010Y-125897692D01*
X144668457Y-125930789D01*
X144644025Y-125941666D01*
X144615841Y-125959376D01*
X144561691Y-125978323D01*
X144515606Y-125998842D01*
X144483627Y-126005639D01*
X144446539Y-126018617D01*
X144395537Y-126024363D01*
X144351957Y-126033627D01*
X144313323Y-126033627D01*
X144268300Y-126038700D01*
X144223277Y-126033627D01*
X144184643Y-126033627D01*
X144141061Y-126024363D01*
X144090061Y-126018617D01*
X144052974Y-126005639D01*
X144020993Y-125998842D01*
X143974903Y-125978322D01*
X143920759Y-125959376D01*
X143892577Y-125941668D01*
X143868142Y-125930789D01*
X143822582Y-125897687D01*
X143768885Y-125863947D01*
X143749598Y-125844660D01*
X143732787Y-125832446D01*
X143691222Y-125786284D01*
X143642053Y-125737115D01*
X143630744Y-125719118D01*
X143620832Y-125708109D01*
X143586918Y-125649368D01*
X143546624Y-125585241D01*
X143541593Y-125570863D01*
X143537179Y-125563218D01*
X143514572Y-125493642D01*
X143487383Y-125415939D01*
X143486352Y-125406789D01*
X143485476Y-125404093D01*
X143477535Y-125328537D01*
X143467300Y-125237700D01*
X143477534Y-125146870D01*
X143485476Y-125071306D01*
X143486352Y-125068609D01*
X143487383Y-125059461D01*
X143514567Y-124981770D01*
X143537179Y-124912181D01*
X143541593Y-124904534D01*
X143546624Y-124890159D01*
X143586911Y-124826042D01*
X143620832Y-124767290D01*
X143630746Y-124756278D01*
X143642053Y-124738285D01*
X143691213Y-124689124D01*
X143732787Y-124642953D01*
X143749601Y-124630736D01*
X143768885Y-124611453D01*
X143822578Y-124577715D01*
X143868146Y-124544608D01*
X143892584Y-124533727D01*
X143920759Y-124516024D01*
X143974887Y-124497083D01*
X144020989Y-124476558D01*
X144052979Y-124469758D01*
X144090061Y-124456783D01*
X144141059Y-124451036D01*
X144184643Y-124441773D01*
X144223277Y-124441773D01*
X144268300Y-124436700D01*
X144313323Y-124441773D01*
G37*
G36*
X160478323Y-124441773D02*
G01*
X160516957Y-124441773D01*
X160560540Y-124451036D01*
X160611539Y-124456783D01*
X160648621Y-124469758D01*
X160680606Y-124476557D01*
X160726701Y-124497079D01*
X160780841Y-124516024D01*
X160809019Y-124533729D01*
X160833457Y-124544610D01*
X160879020Y-124577714D01*
X160932715Y-124611453D01*
X160952000Y-124630738D01*
X160968812Y-124642953D01*
X161010376Y-124689114D01*
X161059547Y-124738285D01*
X161070855Y-124756282D01*
X161080767Y-124767290D01*
X161114676Y-124826022D01*
X161154976Y-124890159D01*
X161160007Y-124904538D01*
X161164420Y-124912181D01*
X161187018Y-124981730D01*
X161214217Y-125059461D01*
X161215248Y-125068613D01*
X161216123Y-125071306D01*
X161224050Y-125146738D01*
X161234300Y-125237700D01*
X161224052Y-125328653D01*
X161216123Y-125404093D01*
X161215248Y-125406784D01*
X161214217Y-125415939D01*
X161187013Y-125493682D01*
X161164420Y-125563218D01*
X161160008Y-125570859D01*
X161154976Y-125585241D01*
X161114669Y-125649388D01*
X161080767Y-125708109D01*
X161070857Y-125719114D01*
X161059547Y-125737115D01*
X161010367Y-125786294D01*
X160968812Y-125832446D01*
X160952004Y-125844657D01*
X160932715Y-125863947D01*
X160879010Y-125897692D01*
X160833457Y-125930789D01*
X160809025Y-125941666D01*
X160780841Y-125959376D01*
X160726691Y-125978323D01*
X160680606Y-125998842D01*
X160648627Y-126005639D01*
X160611539Y-126018617D01*
X160560537Y-126024363D01*
X160516957Y-126033627D01*
X160478323Y-126033627D01*
X160433300Y-126038700D01*
X160388277Y-126033627D01*
X160349643Y-126033627D01*
X160306061Y-126024363D01*
X160255061Y-126018617D01*
X160217974Y-126005639D01*
X160185993Y-125998842D01*
X160139903Y-125978322D01*
X160085759Y-125959376D01*
X160057577Y-125941668D01*
X160033142Y-125930789D01*
X159987582Y-125897687D01*
X159933885Y-125863947D01*
X159914598Y-125844660D01*
X159897787Y-125832446D01*
X159856222Y-125786284D01*
X159807053Y-125737115D01*
X159795744Y-125719118D01*
X159785832Y-125708109D01*
X159751918Y-125649368D01*
X159711624Y-125585241D01*
X159706593Y-125570863D01*
X159702179Y-125563218D01*
X159679572Y-125493642D01*
X159652383Y-125415939D01*
X159651352Y-125406789D01*
X159650476Y-125404093D01*
X159642535Y-125328537D01*
X159632300Y-125237700D01*
X159642534Y-125146870D01*
X159650476Y-125071306D01*
X159651352Y-125068609D01*
X159652383Y-125059461D01*
X159679567Y-124981770D01*
X159702179Y-124912181D01*
X159706593Y-124904534D01*
X159711624Y-124890159D01*
X159751911Y-124826042D01*
X159785832Y-124767290D01*
X159795746Y-124756278D01*
X159807053Y-124738285D01*
X159856213Y-124689124D01*
X159897787Y-124642953D01*
X159914601Y-124630736D01*
X159933885Y-124611453D01*
X159987578Y-124577715D01*
X160033146Y-124544608D01*
X160057584Y-124533727D01*
X160085759Y-124516024D01*
X160139887Y-124497083D01*
X160185989Y-124476558D01*
X160217979Y-124469758D01*
X160255061Y-124456783D01*
X160306059Y-124451036D01*
X160349643Y-124441773D01*
X160388277Y-124441773D01*
X160433300Y-124436700D01*
X160478323Y-124441773D01*
G37*
G36*
X144313323Y-121901773D02*
G01*
X144351957Y-121901773D01*
X144395540Y-121911036D01*
X144446539Y-121916783D01*
X144483621Y-121929758D01*
X144515606Y-121936557D01*
X144561701Y-121957079D01*
X144615841Y-121976024D01*
X144644019Y-121993729D01*
X144668457Y-122004610D01*
X144714020Y-122037714D01*
X144767715Y-122071453D01*
X144787000Y-122090738D01*
X144803812Y-122102953D01*
X144845376Y-122149114D01*
X144894547Y-122198285D01*
X144905855Y-122216282D01*
X144915767Y-122227290D01*
X144949676Y-122286022D01*
X144989976Y-122350159D01*
X144995007Y-122364538D01*
X144999420Y-122372181D01*
X145022018Y-122441730D01*
X145049217Y-122519461D01*
X145050248Y-122528613D01*
X145051123Y-122531306D01*
X145059050Y-122606738D01*
X145069300Y-122697700D01*
X145059050Y-122788669D01*
X145051123Y-122864093D01*
X145050248Y-122866784D01*
X145049217Y-122875939D01*
X145022013Y-122953682D01*
X144999420Y-123023218D01*
X144995008Y-123030859D01*
X144989976Y-123045241D01*
X144949669Y-123109388D01*
X144915767Y-123168109D01*
X144905857Y-123179114D01*
X144894547Y-123197115D01*
X144845367Y-123246294D01*
X144803812Y-123292446D01*
X144787004Y-123304657D01*
X144767715Y-123323947D01*
X144714010Y-123357692D01*
X144668457Y-123390789D01*
X144644025Y-123401666D01*
X144615841Y-123419376D01*
X144561691Y-123438323D01*
X144515606Y-123458842D01*
X144483627Y-123465639D01*
X144446539Y-123478617D01*
X144395537Y-123484363D01*
X144351957Y-123493627D01*
X144313323Y-123493627D01*
X144268300Y-123498700D01*
X144223277Y-123493627D01*
X144184643Y-123493627D01*
X144141061Y-123484363D01*
X144090061Y-123478617D01*
X144052974Y-123465639D01*
X144020993Y-123458842D01*
X143974903Y-123438322D01*
X143920759Y-123419376D01*
X143892577Y-123401668D01*
X143868142Y-123390789D01*
X143822582Y-123357687D01*
X143768885Y-123323947D01*
X143749598Y-123304660D01*
X143732787Y-123292446D01*
X143691222Y-123246284D01*
X143642053Y-123197115D01*
X143630744Y-123179118D01*
X143620832Y-123168109D01*
X143586918Y-123109368D01*
X143546624Y-123045241D01*
X143541593Y-123030863D01*
X143537179Y-123023218D01*
X143514572Y-122953642D01*
X143487383Y-122875939D01*
X143486352Y-122866789D01*
X143485476Y-122864093D01*
X143477535Y-122788537D01*
X143467300Y-122697700D01*
X143477534Y-122606870D01*
X143485476Y-122531306D01*
X143486352Y-122528609D01*
X143487383Y-122519461D01*
X143514567Y-122441770D01*
X143537179Y-122372181D01*
X143541593Y-122364534D01*
X143546624Y-122350159D01*
X143586911Y-122286042D01*
X143620832Y-122227290D01*
X143630746Y-122216278D01*
X143642053Y-122198285D01*
X143691213Y-122149124D01*
X143732787Y-122102953D01*
X143749601Y-122090736D01*
X143768885Y-122071453D01*
X143822578Y-122037715D01*
X143868146Y-122004608D01*
X143892584Y-121993727D01*
X143920759Y-121976024D01*
X143974887Y-121957083D01*
X144020989Y-121936558D01*
X144052979Y-121929758D01*
X144090061Y-121916783D01*
X144141059Y-121911036D01*
X144184643Y-121901773D01*
X144223277Y-121901773D01*
X144268300Y-121896700D01*
X144313323Y-121901773D01*
G37*
G36*
X160478323Y-121901773D02*
G01*
X160516957Y-121901773D01*
X160560540Y-121911036D01*
X160611539Y-121916783D01*
X160648621Y-121929758D01*
X160680606Y-121936557D01*
X160726701Y-121957079D01*
X160780841Y-121976024D01*
X160809019Y-121993729D01*
X160833457Y-122004610D01*
X160879020Y-122037714D01*
X160932715Y-122071453D01*
X160952000Y-122090738D01*
X160968812Y-122102953D01*
X161010376Y-122149114D01*
X161059547Y-122198285D01*
X161070855Y-122216282D01*
X161080767Y-122227290D01*
X161114676Y-122286022D01*
X161154976Y-122350159D01*
X161160007Y-122364538D01*
X161164420Y-122372181D01*
X161187018Y-122441730D01*
X161214217Y-122519461D01*
X161215248Y-122528613D01*
X161216123Y-122531306D01*
X161224050Y-122606738D01*
X161234300Y-122697700D01*
X161224050Y-122788669D01*
X161216123Y-122864093D01*
X161215248Y-122866784D01*
X161214217Y-122875939D01*
X161187013Y-122953682D01*
X161164420Y-123023218D01*
X161160008Y-123030859D01*
X161154976Y-123045241D01*
X161114669Y-123109388D01*
X161080767Y-123168109D01*
X161070857Y-123179114D01*
X161059547Y-123197115D01*
X161010367Y-123246294D01*
X160968812Y-123292446D01*
X160952004Y-123304657D01*
X160932715Y-123323947D01*
X160879010Y-123357692D01*
X160833457Y-123390789D01*
X160809025Y-123401666D01*
X160780841Y-123419376D01*
X160726691Y-123438323D01*
X160680606Y-123458842D01*
X160648627Y-123465639D01*
X160611539Y-123478617D01*
X160560537Y-123484363D01*
X160516957Y-123493627D01*
X160478323Y-123493627D01*
X160433300Y-123498700D01*
X160388277Y-123493627D01*
X160349643Y-123493627D01*
X160306061Y-123484363D01*
X160255061Y-123478617D01*
X160217974Y-123465639D01*
X160185993Y-123458842D01*
X160139903Y-123438322D01*
X160085759Y-123419376D01*
X160057577Y-123401668D01*
X160033142Y-123390789D01*
X159987582Y-123357687D01*
X159933885Y-123323947D01*
X159914598Y-123304660D01*
X159897787Y-123292446D01*
X159856222Y-123246284D01*
X159807053Y-123197115D01*
X159795744Y-123179118D01*
X159785832Y-123168109D01*
X159751918Y-123109368D01*
X159711624Y-123045241D01*
X159706593Y-123030863D01*
X159702179Y-123023218D01*
X159679572Y-122953642D01*
X159652383Y-122875939D01*
X159651352Y-122866789D01*
X159650476Y-122864093D01*
X159642535Y-122788537D01*
X159632300Y-122697700D01*
X159642534Y-122606870D01*
X159650476Y-122531306D01*
X159651352Y-122528609D01*
X159652383Y-122519461D01*
X159679567Y-122441770D01*
X159702179Y-122372181D01*
X159706593Y-122364534D01*
X159711624Y-122350159D01*
X159751911Y-122286042D01*
X159785832Y-122227290D01*
X159795746Y-122216278D01*
X159807053Y-122198285D01*
X159856213Y-122149124D01*
X159897787Y-122102953D01*
X159914601Y-122090736D01*
X159933885Y-122071453D01*
X159987578Y-122037715D01*
X160033146Y-122004608D01*
X160057584Y-121993727D01*
X160085759Y-121976024D01*
X160139887Y-121957083D01*
X160185989Y-121936558D01*
X160217979Y-121929758D01*
X160255061Y-121916783D01*
X160306059Y-121911036D01*
X160349643Y-121901773D01*
X160388277Y-121901773D01*
X160433300Y-121896700D01*
X160478323Y-121901773D01*
G37*
G36*
X166159983Y-120642936D02*
G01*
X166210180Y-120642936D01*
X166253524Y-120652149D01*
X166291659Y-120655905D01*
X166339566Y-120670437D01*
X166394424Y-120682098D01*
X166429530Y-120697728D01*
X166460566Y-120707143D01*
X166509884Y-120733504D01*
X166566500Y-120758711D01*
X166592822Y-120777835D01*
X166616232Y-120790348D01*
X166663988Y-120829540D01*
X166718887Y-120869427D01*
X166736711Y-120889223D01*
X166752675Y-120902324D01*
X166795572Y-120954594D01*
X166844924Y-121009405D01*
X166855292Y-121027363D01*
X166864651Y-121038767D01*
X166899273Y-121103542D01*
X166939104Y-121172530D01*
X166943685Y-121186630D01*
X166947856Y-121194433D01*
X166970852Y-121270242D01*
X166997311Y-121351672D01*
X166998242Y-121360532D01*
X166999094Y-121363340D01*
X167007385Y-121447520D01*
X167017000Y-121539000D01*
X167007382Y-121630501D01*
X166999094Y-121714659D01*
X166998242Y-121717466D01*
X166997311Y-121726328D01*
X166970848Y-121807771D01*
X166947856Y-121883566D01*
X166943686Y-121891366D01*
X166939104Y-121905470D01*
X166899266Y-121974470D01*
X166864651Y-122039232D01*
X166855294Y-122050633D01*
X166844924Y-122068595D01*
X166795563Y-122123415D01*
X166752675Y-122175675D01*
X166736714Y-122188773D01*
X166718887Y-122208573D01*
X166663977Y-122248467D01*
X166616232Y-122287651D01*
X166592827Y-122300161D01*
X166566500Y-122319289D01*
X166509873Y-122344500D01*
X166460566Y-122370856D01*
X166429537Y-122380268D01*
X166394424Y-122395902D01*
X166339555Y-122407564D01*
X166291659Y-122422094D01*
X166253532Y-122425849D01*
X166210180Y-122435064D01*
X166159973Y-122435064D01*
X166116000Y-122439395D01*
X166072027Y-122435064D01*
X166021820Y-122435064D01*
X165978467Y-122425849D01*
X165940340Y-122422094D01*
X165892441Y-122407563D01*
X165837576Y-122395902D01*
X165802464Y-122380269D01*
X165771433Y-122370856D01*
X165722120Y-122344498D01*
X165665500Y-122319289D01*
X165639175Y-122300163D01*
X165615767Y-122287651D01*
X165568013Y-122248460D01*
X165513113Y-122208573D01*
X165495287Y-122188776D01*
X165479324Y-122175675D01*
X165436425Y-122123402D01*
X165387076Y-122068595D01*
X165376708Y-122050637D01*
X165367348Y-122039232D01*
X165332719Y-121974447D01*
X165292896Y-121905470D01*
X165288315Y-121891371D01*
X165284143Y-121883566D01*
X165261136Y-121807725D01*
X165234689Y-121726328D01*
X165233758Y-121717471D01*
X165232905Y-121714659D01*
X165224601Y-121630349D01*
X165215000Y-121539000D01*
X165224598Y-121447672D01*
X165232905Y-121363340D01*
X165233758Y-121360527D01*
X165234689Y-121351672D01*
X165261132Y-121270288D01*
X165284143Y-121194433D01*
X165288315Y-121186626D01*
X165292896Y-121172530D01*
X165332712Y-121103565D01*
X165367348Y-121038767D01*
X165376710Y-121027359D01*
X165387076Y-121009405D01*
X165436416Y-120954607D01*
X165479324Y-120902324D01*
X165495291Y-120889219D01*
X165513113Y-120869427D01*
X165568002Y-120829546D01*
X165615767Y-120790348D01*
X165639180Y-120777833D01*
X165665500Y-120758711D01*
X165722109Y-120733506D01*
X165771433Y-120707143D01*
X165802471Y-120697727D01*
X165837576Y-120682098D01*
X165892430Y-120670438D01*
X165940340Y-120655905D01*
X165978476Y-120652148D01*
X166021820Y-120642936D01*
X166072016Y-120642936D01*
X166116000Y-120638604D01*
X166159983Y-120642936D01*
G37*
G36*
X144313323Y-119361773D02*
G01*
X144351957Y-119361773D01*
X144395540Y-119371036D01*
X144446539Y-119376783D01*
X144483621Y-119389758D01*
X144515606Y-119396557D01*
X144561701Y-119417079D01*
X144615841Y-119436024D01*
X144644019Y-119453729D01*
X144668457Y-119464610D01*
X144714020Y-119497714D01*
X144767715Y-119531453D01*
X144787000Y-119550738D01*
X144803812Y-119562953D01*
X144845376Y-119609114D01*
X144894547Y-119658285D01*
X144905855Y-119676282D01*
X144915767Y-119687290D01*
X144949676Y-119746022D01*
X144989976Y-119810159D01*
X144995007Y-119824538D01*
X144999420Y-119832181D01*
X145022018Y-119901730D01*
X145049217Y-119979461D01*
X145050248Y-119988613D01*
X145051123Y-119991306D01*
X145059051Y-120066744D01*
X145069300Y-120157700D01*
X145059049Y-120248675D01*
X145051123Y-120324093D01*
X145050248Y-120326784D01*
X145049217Y-120335939D01*
X145022013Y-120413682D01*
X144999420Y-120483218D01*
X144995008Y-120490859D01*
X144989976Y-120505241D01*
X144949669Y-120569388D01*
X144915767Y-120628109D01*
X144905857Y-120639114D01*
X144894547Y-120657115D01*
X144845367Y-120706294D01*
X144803812Y-120752446D01*
X144787004Y-120764657D01*
X144767715Y-120783947D01*
X144714010Y-120817692D01*
X144668457Y-120850789D01*
X144644025Y-120861666D01*
X144615841Y-120879376D01*
X144561691Y-120898323D01*
X144515606Y-120918842D01*
X144483627Y-120925639D01*
X144446539Y-120938617D01*
X144395537Y-120944363D01*
X144351957Y-120953627D01*
X144313323Y-120953627D01*
X144268300Y-120958700D01*
X144223277Y-120953627D01*
X144184643Y-120953627D01*
X144141061Y-120944363D01*
X144090061Y-120938617D01*
X144052974Y-120925639D01*
X144020993Y-120918842D01*
X143974903Y-120898322D01*
X143920759Y-120879376D01*
X143892577Y-120861668D01*
X143868142Y-120850789D01*
X143822582Y-120817687D01*
X143768885Y-120783947D01*
X143749598Y-120764660D01*
X143732787Y-120752446D01*
X143691222Y-120706284D01*
X143642053Y-120657115D01*
X143630744Y-120639118D01*
X143620832Y-120628109D01*
X143586918Y-120569368D01*
X143546624Y-120505241D01*
X143541593Y-120490863D01*
X143537179Y-120483218D01*
X143514572Y-120413642D01*
X143487383Y-120335939D01*
X143486352Y-120326789D01*
X143485476Y-120324093D01*
X143477535Y-120248543D01*
X143467300Y-120157700D01*
X143477533Y-120066876D01*
X143485476Y-119991306D01*
X143486352Y-119988609D01*
X143487383Y-119979461D01*
X143514567Y-119901770D01*
X143537179Y-119832181D01*
X143541593Y-119824534D01*
X143546624Y-119810159D01*
X143586911Y-119746042D01*
X143620832Y-119687290D01*
X143630746Y-119676278D01*
X143642053Y-119658285D01*
X143691213Y-119609124D01*
X143732787Y-119562953D01*
X143749601Y-119550736D01*
X143768885Y-119531453D01*
X143822578Y-119497715D01*
X143868146Y-119464608D01*
X143892584Y-119453727D01*
X143920759Y-119436024D01*
X143974887Y-119417083D01*
X144020989Y-119396558D01*
X144052979Y-119389758D01*
X144090061Y-119376783D01*
X144141059Y-119371036D01*
X144184643Y-119361773D01*
X144223277Y-119361773D01*
X144268300Y-119356700D01*
X144313323Y-119361773D01*
G37*
G36*
X160478323Y-119361773D02*
G01*
X160516957Y-119361773D01*
X160560540Y-119371036D01*
X160611539Y-119376783D01*
X160648621Y-119389758D01*
X160680606Y-119396557D01*
X160726701Y-119417079D01*
X160780841Y-119436024D01*
X160809019Y-119453729D01*
X160833457Y-119464610D01*
X160879020Y-119497714D01*
X160932715Y-119531453D01*
X160952000Y-119550738D01*
X160968812Y-119562953D01*
X161010376Y-119609114D01*
X161059547Y-119658285D01*
X161070855Y-119676282D01*
X161080767Y-119687290D01*
X161114676Y-119746022D01*
X161154976Y-119810159D01*
X161160007Y-119824538D01*
X161164420Y-119832181D01*
X161187018Y-119901730D01*
X161214217Y-119979461D01*
X161215248Y-119988613D01*
X161216123Y-119991306D01*
X161224051Y-120066744D01*
X161234300Y-120157700D01*
X161224049Y-120248675D01*
X161216123Y-120324093D01*
X161215248Y-120326784D01*
X161214217Y-120335939D01*
X161187013Y-120413682D01*
X161164420Y-120483218D01*
X161160008Y-120490859D01*
X161154976Y-120505241D01*
X161114669Y-120569388D01*
X161080767Y-120628109D01*
X161070857Y-120639114D01*
X161059547Y-120657115D01*
X161010367Y-120706294D01*
X160968812Y-120752446D01*
X160952004Y-120764657D01*
X160932715Y-120783947D01*
X160879010Y-120817692D01*
X160833457Y-120850789D01*
X160809025Y-120861666D01*
X160780841Y-120879376D01*
X160726691Y-120898323D01*
X160680606Y-120918842D01*
X160648627Y-120925639D01*
X160611539Y-120938617D01*
X160560537Y-120944363D01*
X160516957Y-120953627D01*
X160478323Y-120953627D01*
X160433300Y-120958700D01*
X160388277Y-120953627D01*
X160349643Y-120953627D01*
X160306061Y-120944363D01*
X160255061Y-120938617D01*
X160217974Y-120925639D01*
X160185993Y-120918842D01*
X160139903Y-120898322D01*
X160085759Y-120879376D01*
X160057577Y-120861668D01*
X160033142Y-120850789D01*
X159987582Y-120817687D01*
X159933885Y-120783947D01*
X159914598Y-120764660D01*
X159897787Y-120752446D01*
X159856222Y-120706284D01*
X159807053Y-120657115D01*
X159795744Y-120639118D01*
X159785832Y-120628109D01*
X159751918Y-120569368D01*
X159711624Y-120505241D01*
X159706593Y-120490863D01*
X159702179Y-120483218D01*
X159679572Y-120413642D01*
X159652383Y-120335939D01*
X159651352Y-120326789D01*
X159650476Y-120324093D01*
X159642535Y-120248543D01*
X159632300Y-120157700D01*
X159642533Y-120066876D01*
X159650476Y-119991306D01*
X159651352Y-119988609D01*
X159652383Y-119979461D01*
X159679567Y-119901770D01*
X159702179Y-119832181D01*
X159706593Y-119824534D01*
X159711624Y-119810159D01*
X159751911Y-119746042D01*
X159785832Y-119687290D01*
X159795746Y-119676278D01*
X159807053Y-119658285D01*
X159856213Y-119609124D01*
X159897787Y-119562953D01*
X159914601Y-119550736D01*
X159933885Y-119531453D01*
X159987578Y-119497715D01*
X160033146Y-119464608D01*
X160057584Y-119453727D01*
X160085759Y-119436024D01*
X160139887Y-119417083D01*
X160185989Y-119396558D01*
X160217979Y-119389758D01*
X160255061Y-119376783D01*
X160306059Y-119371036D01*
X160349643Y-119361773D01*
X160388277Y-119361773D01*
X160433300Y-119356700D01*
X160478323Y-119361773D01*
G37*
G36*
X166159983Y-118102936D02*
G01*
X166210180Y-118102936D01*
X166253524Y-118112149D01*
X166291659Y-118115905D01*
X166339566Y-118130437D01*
X166394424Y-118142098D01*
X166429530Y-118157728D01*
X166460566Y-118167143D01*
X166509884Y-118193504D01*
X166566500Y-118218711D01*
X166592822Y-118237835D01*
X166616232Y-118250348D01*
X166663988Y-118289540D01*
X166718887Y-118329427D01*
X166736711Y-118349223D01*
X166752675Y-118362324D01*
X166795572Y-118414594D01*
X166844924Y-118469405D01*
X166855292Y-118487363D01*
X166864651Y-118498767D01*
X166899273Y-118563542D01*
X166939104Y-118632530D01*
X166943685Y-118646630D01*
X166947856Y-118654433D01*
X166970852Y-118730242D01*
X166997311Y-118811672D01*
X166998242Y-118820532D01*
X166999094Y-118823340D01*
X167007385Y-118907520D01*
X167017000Y-118999000D01*
X167007382Y-119090501D01*
X166999094Y-119174659D01*
X166998242Y-119177466D01*
X166997311Y-119186328D01*
X166970848Y-119267771D01*
X166947856Y-119343566D01*
X166943686Y-119351366D01*
X166939104Y-119365470D01*
X166899266Y-119434470D01*
X166864651Y-119499232D01*
X166855294Y-119510633D01*
X166844924Y-119528595D01*
X166795563Y-119583415D01*
X166752675Y-119635675D01*
X166736714Y-119648773D01*
X166718887Y-119668573D01*
X166663977Y-119708467D01*
X166616232Y-119747651D01*
X166592827Y-119760161D01*
X166566500Y-119779289D01*
X166509873Y-119804500D01*
X166460566Y-119830856D01*
X166429537Y-119840268D01*
X166394424Y-119855902D01*
X166339555Y-119867564D01*
X166291659Y-119882094D01*
X166253532Y-119885849D01*
X166210180Y-119895064D01*
X166159973Y-119895064D01*
X166116000Y-119899395D01*
X166072027Y-119895064D01*
X166021820Y-119895064D01*
X165978467Y-119885849D01*
X165940340Y-119882094D01*
X165892441Y-119867563D01*
X165837576Y-119855902D01*
X165802464Y-119840269D01*
X165771433Y-119830856D01*
X165722120Y-119804498D01*
X165665500Y-119779289D01*
X165639175Y-119760163D01*
X165615767Y-119747651D01*
X165568013Y-119708460D01*
X165513113Y-119668573D01*
X165495287Y-119648776D01*
X165479324Y-119635675D01*
X165436425Y-119583402D01*
X165387076Y-119528595D01*
X165376708Y-119510637D01*
X165367348Y-119499232D01*
X165332719Y-119434447D01*
X165292896Y-119365470D01*
X165288315Y-119351371D01*
X165284143Y-119343566D01*
X165261136Y-119267725D01*
X165234689Y-119186328D01*
X165233758Y-119177471D01*
X165232905Y-119174659D01*
X165224601Y-119090349D01*
X165215000Y-118999000D01*
X165224598Y-118907672D01*
X165232905Y-118823340D01*
X165233758Y-118820527D01*
X165234689Y-118811672D01*
X165261132Y-118730288D01*
X165284143Y-118654433D01*
X165288315Y-118646626D01*
X165292896Y-118632530D01*
X165332712Y-118563565D01*
X165367348Y-118498767D01*
X165376710Y-118487359D01*
X165387076Y-118469405D01*
X165436416Y-118414607D01*
X165479324Y-118362324D01*
X165495291Y-118349219D01*
X165513113Y-118329427D01*
X165568002Y-118289546D01*
X165615767Y-118250348D01*
X165639180Y-118237833D01*
X165665500Y-118218711D01*
X165722109Y-118193506D01*
X165771433Y-118167143D01*
X165802471Y-118157727D01*
X165837576Y-118142098D01*
X165892430Y-118130438D01*
X165940340Y-118115905D01*
X165978476Y-118112148D01*
X166021820Y-118102936D01*
X166072016Y-118102936D01*
X166116000Y-118098604D01*
X166159983Y-118102936D01*
G37*
G36*
X140045604Y-117544590D02*
G01*
X140086696Y-117544590D01*
X140132456Y-117553144D01*
X140184531Y-117558273D01*
X140224091Y-117570273D01*
X140259111Y-117576820D01*
X140307617Y-117595611D01*
X140362932Y-117612391D01*
X140394534Y-117629282D01*
X140422656Y-117640177D01*
X140471513Y-117670428D01*
X140527347Y-117700272D01*
X140550809Y-117719526D01*
X140571784Y-117732514D01*
X140618256Y-117774879D01*
X140671459Y-117818541D01*
X140687224Y-117837751D01*
X140701400Y-117850674D01*
X140742557Y-117905174D01*
X140789728Y-117962653D01*
X140798848Y-117979717D01*
X140807099Y-117990642D01*
X140839925Y-118056566D01*
X140877609Y-118127068D01*
X140881628Y-118140316D01*
X140885282Y-118147655D01*
X140906864Y-118223507D01*
X140931727Y-118305469D01*
X140932543Y-118313762D01*
X140933280Y-118316350D01*
X140940937Y-118398982D01*
X140950000Y-118491000D01*
X140940936Y-118583026D01*
X140933280Y-118665649D01*
X140932544Y-118668235D01*
X140931727Y-118676531D01*
X140906859Y-118758507D01*
X140885282Y-118834344D01*
X140881628Y-118841680D01*
X140877609Y-118854932D01*
X140839917Y-118925447D01*
X140807099Y-118991357D01*
X140798850Y-119002279D01*
X140789728Y-119019347D01*
X140742547Y-119076836D01*
X140701400Y-119131325D01*
X140687227Y-119144244D01*
X140671459Y-119163459D01*
X140618245Y-119207129D01*
X140571784Y-119249485D01*
X140550814Y-119262469D01*
X140527347Y-119281728D01*
X140471502Y-119311577D01*
X140422656Y-119341822D01*
X140394541Y-119352713D01*
X140362932Y-119369609D01*
X140307605Y-119386392D01*
X140259111Y-119405179D01*
X140224098Y-119411724D01*
X140184531Y-119423727D01*
X140132453Y-119428856D01*
X140086696Y-119437410D01*
X140045604Y-119437410D01*
X139999000Y-119442000D01*
X139952396Y-119437410D01*
X139911304Y-119437410D01*
X139865545Y-119428856D01*
X139813469Y-119423727D01*
X139773902Y-119411724D01*
X139738888Y-119405179D01*
X139690389Y-119386390D01*
X139635068Y-119369609D01*
X139603461Y-119352714D01*
X139575343Y-119341822D01*
X139526490Y-119311573D01*
X139470653Y-119281728D01*
X139447188Y-119262471D01*
X139426215Y-119249485D01*
X139379744Y-119207121D01*
X139326541Y-119163459D01*
X139310775Y-119144248D01*
X139296599Y-119131325D01*
X139255439Y-119076821D01*
X139208272Y-119019347D01*
X139199151Y-119002284D01*
X139190900Y-118991357D01*
X139158067Y-118925420D01*
X139120391Y-118854932D01*
X139116372Y-118841685D01*
X139112717Y-118834344D01*
X139091124Y-118758454D01*
X139066273Y-118676531D01*
X139065456Y-118668241D01*
X139064719Y-118665649D01*
X139057047Y-118582862D01*
X139048000Y-118491000D01*
X139057045Y-118399161D01*
X139064719Y-118316350D01*
X139065456Y-118313757D01*
X139066273Y-118305469D01*
X139091119Y-118223560D01*
X139112717Y-118147655D01*
X139116373Y-118140311D01*
X139120391Y-118127068D01*
X139158060Y-118056593D01*
X139190900Y-117990642D01*
X139199153Y-117979712D01*
X139208272Y-117962653D01*
X139255430Y-117905190D01*
X139296599Y-117850674D01*
X139310778Y-117837747D01*
X139326541Y-117818541D01*
X139379733Y-117774887D01*
X139426215Y-117732514D01*
X139447193Y-117719524D01*
X139470653Y-117700272D01*
X139526478Y-117670432D01*
X139575343Y-117640177D01*
X139603467Y-117629281D01*
X139635068Y-117612391D01*
X139690377Y-117595612D01*
X139738888Y-117576820D01*
X139773909Y-117570273D01*
X139813469Y-117558273D01*
X139865542Y-117553144D01*
X139911304Y-117544590D01*
X139952396Y-117544590D01*
X139999000Y-117540000D01*
X140045604Y-117544590D01*
G37*
G36*
X144313323Y-116821773D02*
G01*
X144351957Y-116821773D01*
X144395540Y-116831036D01*
X144446539Y-116836783D01*
X144483621Y-116849758D01*
X144515606Y-116856557D01*
X144561701Y-116877079D01*
X144615841Y-116896024D01*
X144644019Y-116913729D01*
X144668457Y-116924610D01*
X144714020Y-116957714D01*
X144767715Y-116991453D01*
X144787000Y-117010738D01*
X144803812Y-117022953D01*
X144845376Y-117069114D01*
X144894547Y-117118285D01*
X144905855Y-117136282D01*
X144915767Y-117147290D01*
X144949676Y-117206022D01*
X144989976Y-117270159D01*
X144995007Y-117284538D01*
X144999420Y-117292181D01*
X145022018Y-117361730D01*
X145049217Y-117439461D01*
X145050248Y-117448613D01*
X145051123Y-117451306D01*
X145059050Y-117526738D01*
X145069300Y-117617700D01*
X145059050Y-117708669D01*
X145051123Y-117784093D01*
X145050248Y-117786784D01*
X145049217Y-117795939D01*
X145022013Y-117873682D01*
X144999420Y-117943218D01*
X144995008Y-117950859D01*
X144989976Y-117965241D01*
X144949669Y-118029388D01*
X144915767Y-118088109D01*
X144905857Y-118099114D01*
X144894547Y-118117115D01*
X144845367Y-118166294D01*
X144803812Y-118212446D01*
X144787004Y-118224657D01*
X144767715Y-118243947D01*
X144714010Y-118277692D01*
X144668457Y-118310789D01*
X144644025Y-118321666D01*
X144615841Y-118339376D01*
X144561691Y-118358323D01*
X144515606Y-118378842D01*
X144483627Y-118385639D01*
X144446539Y-118398617D01*
X144395537Y-118404363D01*
X144351957Y-118413627D01*
X144313323Y-118413627D01*
X144268300Y-118418700D01*
X144223277Y-118413627D01*
X144184643Y-118413627D01*
X144141061Y-118404363D01*
X144090061Y-118398617D01*
X144052974Y-118385639D01*
X144020993Y-118378842D01*
X143974903Y-118358322D01*
X143920759Y-118339376D01*
X143892577Y-118321668D01*
X143868142Y-118310789D01*
X143822582Y-118277687D01*
X143768885Y-118243947D01*
X143749598Y-118224660D01*
X143732787Y-118212446D01*
X143691222Y-118166284D01*
X143642053Y-118117115D01*
X143630744Y-118099118D01*
X143620832Y-118088109D01*
X143586918Y-118029368D01*
X143546624Y-117965241D01*
X143541593Y-117950863D01*
X143537179Y-117943218D01*
X143514572Y-117873642D01*
X143487383Y-117795939D01*
X143486352Y-117786789D01*
X143485476Y-117784093D01*
X143477535Y-117708537D01*
X143467300Y-117617700D01*
X143477534Y-117526870D01*
X143485476Y-117451306D01*
X143486352Y-117448609D01*
X143487383Y-117439461D01*
X143514567Y-117361770D01*
X143537179Y-117292181D01*
X143541593Y-117284534D01*
X143546624Y-117270159D01*
X143586911Y-117206042D01*
X143620832Y-117147290D01*
X143630746Y-117136278D01*
X143642053Y-117118285D01*
X143691213Y-117069124D01*
X143732787Y-117022953D01*
X143749601Y-117010736D01*
X143768885Y-116991453D01*
X143822578Y-116957715D01*
X143868146Y-116924608D01*
X143892584Y-116913727D01*
X143920759Y-116896024D01*
X143974887Y-116877083D01*
X144020989Y-116856558D01*
X144052979Y-116849758D01*
X144090061Y-116836783D01*
X144141059Y-116831036D01*
X144184643Y-116821773D01*
X144223277Y-116821773D01*
X144268300Y-116816700D01*
X144313323Y-116821773D01*
G37*
G36*
X160478323Y-116821773D02*
G01*
X160516957Y-116821773D01*
X160560540Y-116831036D01*
X160611539Y-116836783D01*
X160648621Y-116849758D01*
X160680606Y-116856557D01*
X160726701Y-116877079D01*
X160780841Y-116896024D01*
X160809019Y-116913729D01*
X160833457Y-116924610D01*
X160879020Y-116957714D01*
X160932715Y-116991453D01*
X160952000Y-117010738D01*
X160968812Y-117022953D01*
X161010376Y-117069114D01*
X161059547Y-117118285D01*
X161070855Y-117136282D01*
X161080767Y-117147290D01*
X161114676Y-117206022D01*
X161154976Y-117270159D01*
X161160007Y-117284538D01*
X161164420Y-117292181D01*
X161187018Y-117361730D01*
X161214217Y-117439461D01*
X161215248Y-117448613D01*
X161216123Y-117451306D01*
X161224050Y-117526738D01*
X161234300Y-117617700D01*
X161224050Y-117708669D01*
X161216123Y-117784093D01*
X161215248Y-117786784D01*
X161214217Y-117795939D01*
X161187013Y-117873682D01*
X161164420Y-117943218D01*
X161160008Y-117950859D01*
X161154976Y-117965241D01*
X161114669Y-118029388D01*
X161080767Y-118088109D01*
X161070857Y-118099114D01*
X161059547Y-118117115D01*
X161010367Y-118166294D01*
X160968812Y-118212446D01*
X160952004Y-118224657D01*
X160932715Y-118243947D01*
X160879010Y-118277692D01*
X160833457Y-118310789D01*
X160809025Y-118321666D01*
X160780841Y-118339376D01*
X160726691Y-118358323D01*
X160680606Y-118378842D01*
X160648627Y-118385639D01*
X160611539Y-118398617D01*
X160560537Y-118404363D01*
X160516957Y-118413627D01*
X160478323Y-118413627D01*
X160433300Y-118418700D01*
X160388277Y-118413627D01*
X160349643Y-118413627D01*
X160306061Y-118404363D01*
X160255061Y-118398617D01*
X160217974Y-118385639D01*
X160185993Y-118378842D01*
X160139903Y-118358322D01*
X160085759Y-118339376D01*
X160057577Y-118321668D01*
X160033142Y-118310789D01*
X159987582Y-118277687D01*
X159933885Y-118243947D01*
X159914598Y-118224660D01*
X159897787Y-118212446D01*
X159856222Y-118166284D01*
X159807053Y-118117115D01*
X159795744Y-118099118D01*
X159785832Y-118088109D01*
X159751918Y-118029368D01*
X159711624Y-117965241D01*
X159706593Y-117950863D01*
X159702179Y-117943218D01*
X159679572Y-117873642D01*
X159652383Y-117795939D01*
X159651352Y-117786789D01*
X159650476Y-117784093D01*
X159642535Y-117708537D01*
X159632300Y-117617700D01*
X159642534Y-117526870D01*
X159650476Y-117451306D01*
X159651352Y-117448609D01*
X159652383Y-117439461D01*
X159679567Y-117361770D01*
X159702179Y-117292181D01*
X159706593Y-117284534D01*
X159711624Y-117270159D01*
X159751911Y-117206042D01*
X159785832Y-117147290D01*
X159795746Y-117136278D01*
X159807053Y-117118285D01*
X159856213Y-117069124D01*
X159897787Y-117022953D01*
X159914601Y-117010736D01*
X159933885Y-116991453D01*
X159987578Y-116957715D01*
X160033146Y-116924608D01*
X160057584Y-116913727D01*
X160085759Y-116896024D01*
X160139887Y-116877083D01*
X160185989Y-116856558D01*
X160217979Y-116849758D01*
X160255061Y-116836783D01*
X160306059Y-116831036D01*
X160349643Y-116821773D01*
X160388277Y-116821773D01*
X160433300Y-116816700D01*
X160478323Y-116821773D01*
G37*
G36*
X166159983Y-115562936D02*
G01*
X166210180Y-115562936D01*
X166253524Y-115572149D01*
X166291659Y-115575905D01*
X166339566Y-115590437D01*
X166394424Y-115602098D01*
X166429530Y-115617728D01*
X166460566Y-115627143D01*
X166509884Y-115653504D01*
X166566500Y-115678711D01*
X166592822Y-115697835D01*
X166616232Y-115710348D01*
X166663988Y-115749540D01*
X166718887Y-115789427D01*
X166736711Y-115809223D01*
X166752675Y-115822324D01*
X166795572Y-115874594D01*
X166844924Y-115929405D01*
X166855292Y-115947363D01*
X166864651Y-115958767D01*
X166899273Y-116023542D01*
X166939104Y-116092530D01*
X166943685Y-116106630D01*
X166947856Y-116114433D01*
X166970852Y-116190242D01*
X166997311Y-116271672D01*
X166998242Y-116280532D01*
X166999094Y-116283340D01*
X167007384Y-116367513D01*
X167017000Y-116459000D01*
X167007383Y-116550494D01*
X166999094Y-116634659D01*
X166998242Y-116637466D01*
X166997311Y-116646328D01*
X166970848Y-116727771D01*
X166947856Y-116803566D01*
X166943686Y-116811366D01*
X166939104Y-116825470D01*
X166899266Y-116894470D01*
X166864651Y-116959232D01*
X166855294Y-116970633D01*
X166844924Y-116988595D01*
X166795563Y-117043415D01*
X166752675Y-117095675D01*
X166736714Y-117108773D01*
X166718887Y-117128573D01*
X166663977Y-117168467D01*
X166616232Y-117207651D01*
X166592827Y-117220161D01*
X166566500Y-117239289D01*
X166509873Y-117264500D01*
X166460566Y-117290856D01*
X166429537Y-117300268D01*
X166394424Y-117315902D01*
X166339555Y-117327564D01*
X166291659Y-117342094D01*
X166253533Y-117345849D01*
X166210180Y-117355064D01*
X166159972Y-117355064D01*
X166115999Y-117359395D01*
X166072026Y-117355064D01*
X166021820Y-117355064D01*
X165978467Y-117345849D01*
X165940340Y-117342094D01*
X165892441Y-117327563D01*
X165837576Y-117315902D01*
X165802464Y-117300269D01*
X165771433Y-117290856D01*
X165722120Y-117264498D01*
X165665500Y-117239289D01*
X165639175Y-117220163D01*
X165615767Y-117207651D01*
X165568013Y-117168460D01*
X165513113Y-117128573D01*
X165495287Y-117108776D01*
X165479324Y-117095675D01*
X165436425Y-117043402D01*
X165387076Y-116988595D01*
X165376708Y-116970637D01*
X165367348Y-116959232D01*
X165332719Y-116894447D01*
X165292896Y-116825470D01*
X165288315Y-116811371D01*
X165284143Y-116803566D01*
X165261136Y-116727725D01*
X165234689Y-116646328D01*
X165233758Y-116637471D01*
X165232905Y-116634659D01*
X165224600Y-116550342D01*
X165215000Y-116459000D01*
X165224599Y-116367664D01*
X165232905Y-116283340D01*
X165233758Y-116280527D01*
X165234689Y-116271672D01*
X165261132Y-116190288D01*
X165284143Y-116114433D01*
X165288315Y-116106626D01*
X165292896Y-116092530D01*
X165332712Y-116023565D01*
X165367348Y-115958767D01*
X165376710Y-115947359D01*
X165387076Y-115929405D01*
X165436416Y-115874607D01*
X165479324Y-115822324D01*
X165495291Y-115809219D01*
X165513113Y-115789427D01*
X165568002Y-115749546D01*
X165615767Y-115710348D01*
X165639180Y-115697833D01*
X165665500Y-115678711D01*
X165722109Y-115653506D01*
X165771433Y-115627143D01*
X165802471Y-115617727D01*
X165837576Y-115602098D01*
X165892430Y-115590438D01*
X165940340Y-115575905D01*
X165978476Y-115572148D01*
X166021820Y-115562936D01*
X166072016Y-115562936D01*
X166115999Y-115558604D01*
X166159983Y-115562936D01*
G37*
G36*
X140045604Y-115004590D02*
G01*
X140086696Y-115004590D01*
X140132456Y-115013144D01*
X140184531Y-115018273D01*
X140224091Y-115030273D01*
X140259111Y-115036820D01*
X140307617Y-115055611D01*
X140362932Y-115072391D01*
X140394534Y-115089282D01*
X140422656Y-115100177D01*
X140471513Y-115130428D01*
X140527347Y-115160272D01*
X140550809Y-115179526D01*
X140571784Y-115192514D01*
X140618256Y-115234879D01*
X140671459Y-115278541D01*
X140687224Y-115297751D01*
X140701400Y-115310674D01*
X140742557Y-115365174D01*
X140789728Y-115422653D01*
X140798848Y-115439717D01*
X140807099Y-115450642D01*
X140839925Y-115516566D01*
X140877609Y-115587068D01*
X140881628Y-115600316D01*
X140885282Y-115607655D01*
X140906864Y-115683507D01*
X140931727Y-115765469D01*
X140932543Y-115773762D01*
X140933280Y-115776350D01*
X140940937Y-115858982D01*
X140950000Y-115951000D01*
X140940936Y-116043026D01*
X140933280Y-116125649D01*
X140932544Y-116128235D01*
X140931727Y-116136531D01*
X140906859Y-116218507D01*
X140885282Y-116294344D01*
X140881628Y-116301680D01*
X140877609Y-116314932D01*
X140839917Y-116385447D01*
X140807099Y-116451357D01*
X140798850Y-116462279D01*
X140789728Y-116479347D01*
X140742547Y-116536836D01*
X140701400Y-116591325D01*
X140687227Y-116604244D01*
X140671459Y-116623459D01*
X140618245Y-116667129D01*
X140571784Y-116709485D01*
X140550814Y-116722469D01*
X140527347Y-116741728D01*
X140471502Y-116771577D01*
X140422656Y-116801822D01*
X140394541Y-116812713D01*
X140362932Y-116829609D01*
X140307605Y-116846392D01*
X140259111Y-116865179D01*
X140224098Y-116871724D01*
X140184531Y-116883727D01*
X140132453Y-116888856D01*
X140086696Y-116897410D01*
X140045604Y-116897410D01*
X139999000Y-116902000D01*
X139952396Y-116897410D01*
X139911304Y-116897410D01*
X139865545Y-116888856D01*
X139813469Y-116883727D01*
X139773902Y-116871724D01*
X139738888Y-116865179D01*
X139690389Y-116846390D01*
X139635068Y-116829609D01*
X139603461Y-116812714D01*
X139575343Y-116801822D01*
X139526490Y-116771573D01*
X139470653Y-116741728D01*
X139447188Y-116722471D01*
X139426215Y-116709485D01*
X139379744Y-116667121D01*
X139326541Y-116623459D01*
X139310775Y-116604248D01*
X139296599Y-116591325D01*
X139255439Y-116536821D01*
X139208272Y-116479347D01*
X139199151Y-116462284D01*
X139190900Y-116451357D01*
X139158067Y-116385420D01*
X139120391Y-116314932D01*
X139116372Y-116301685D01*
X139112717Y-116294344D01*
X139091124Y-116218454D01*
X139066273Y-116136531D01*
X139065456Y-116128241D01*
X139064719Y-116125649D01*
X139057046Y-116042854D01*
X139048000Y-115951000D01*
X139057045Y-115859153D01*
X139064719Y-115776350D01*
X139065456Y-115773757D01*
X139066273Y-115765469D01*
X139091119Y-115683560D01*
X139112717Y-115607655D01*
X139116373Y-115600311D01*
X139120391Y-115587068D01*
X139158060Y-115516593D01*
X139190900Y-115450642D01*
X139199153Y-115439712D01*
X139208272Y-115422653D01*
X139255430Y-115365190D01*
X139296599Y-115310674D01*
X139310778Y-115297747D01*
X139326541Y-115278541D01*
X139379733Y-115234887D01*
X139426215Y-115192514D01*
X139447193Y-115179524D01*
X139470653Y-115160272D01*
X139526478Y-115130432D01*
X139575343Y-115100177D01*
X139603467Y-115089281D01*
X139635068Y-115072391D01*
X139690377Y-115055612D01*
X139738888Y-115036820D01*
X139773909Y-115030273D01*
X139813469Y-115018273D01*
X139865542Y-115013144D01*
X139911304Y-115004590D01*
X139952396Y-115004590D01*
X139999000Y-115000000D01*
X140045604Y-115004590D01*
G37*
G36*
X144313323Y-114281773D02*
G01*
X144351957Y-114281773D01*
X144395540Y-114291036D01*
X144446539Y-114296783D01*
X144483621Y-114309758D01*
X144515606Y-114316557D01*
X144561701Y-114337079D01*
X144615841Y-114356024D01*
X144644019Y-114373729D01*
X144668457Y-114384610D01*
X144714020Y-114417714D01*
X144767715Y-114451453D01*
X144787000Y-114470738D01*
X144803812Y-114482953D01*
X144845376Y-114529114D01*
X144894547Y-114578285D01*
X144905855Y-114596282D01*
X144915767Y-114607290D01*
X144949676Y-114666022D01*
X144989976Y-114730159D01*
X144995007Y-114744538D01*
X144999420Y-114752181D01*
X145022018Y-114821730D01*
X145049217Y-114899461D01*
X145050248Y-114908613D01*
X145051123Y-114911306D01*
X145059051Y-114986744D01*
X145069300Y-115077700D01*
X145059049Y-115168675D01*
X145051123Y-115244093D01*
X145050248Y-115246784D01*
X145049217Y-115255939D01*
X145022013Y-115333682D01*
X144999420Y-115403218D01*
X144995008Y-115410859D01*
X144989976Y-115425241D01*
X144949669Y-115489388D01*
X144915767Y-115548109D01*
X144905857Y-115559114D01*
X144894547Y-115577115D01*
X144845367Y-115626294D01*
X144803812Y-115672446D01*
X144787004Y-115684657D01*
X144767715Y-115703947D01*
X144714010Y-115737692D01*
X144668457Y-115770789D01*
X144644025Y-115781666D01*
X144615841Y-115799376D01*
X144561691Y-115818323D01*
X144515606Y-115838842D01*
X144483627Y-115845639D01*
X144446539Y-115858617D01*
X144395537Y-115864363D01*
X144351957Y-115873627D01*
X144313323Y-115873627D01*
X144268300Y-115878700D01*
X144223277Y-115873627D01*
X144184643Y-115873627D01*
X144141061Y-115864363D01*
X144090061Y-115858617D01*
X144052974Y-115845639D01*
X144020993Y-115838842D01*
X143974903Y-115818322D01*
X143920759Y-115799376D01*
X143892577Y-115781668D01*
X143868142Y-115770789D01*
X143822582Y-115737687D01*
X143768885Y-115703947D01*
X143749598Y-115684660D01*
X143732787Y-115672446D01*
X143691222Y-115626284D01*
X143642053Y-115577115D01*
X143630744Y-115559118D01*
X143620832Y-115548109D01*
X143586918Y-115489368D01*
X143546624Y-115425241D01*
X143541593Y-115410863D01*
X143537179Y-115403218D01*
X143514572Y-115333642D01*
X143487383Y-115255939D01*
X143486352Y-115246789D01*
X143485476Y-115244093D01*
X143477535Y-115168543D01*
X143467300Y-115077700D01*
X143477533Y-114986876D01*
X143485476Y-114911306D01*
X143486352Y-114908609D01*
X143487383Y-114899461D01*
X143514567Y-114821770D01*
X143537179Y-114752181D01*
X143541593Y-114744534D01*
X143546624Y-114730159D01*
X143586911Y-114666042D01*
X143620832Y-114607290D01*
X143630746Y-114596278D01*
X143642053Y-114578285D01*
X143691213Y-114529124D01*
X143732787Y-114482953D01*
X143749601Y-114470736D01*
X143768885Y-114451453D01*
X143822578Y-114417715D01*
X143868146Y-114384608D01*
X143892584Y-114373727D01*
X143920759Y-114356024D01*
X143974887Y-114337083D01*
X144020989Y-114316558D01*
X144052979Y-114309758D01*
X144090061Y-114296783D01*
X144141059Y-114291036D01*
X144184643Y-114281773D01*
X144223277Y-114281773D01*
X144268300Y-114276700D01*
X144313323Y-114281773D01*
G37*
G36*
X160478323Y-114281773D02*
G01*
X160516957Y-114281773D01*
X160560540Y-114291036D01*
X160611539Y-114296783D01*
X160648621Y-114309758D01*
X160680606Y-114316557D01*
X160726701Y-114337079D01*
X160780841Y-114356024D01*
X160809019Y-114373729D01*
X160833457Y-114384610D01*
X160879020Y-114417714D01*
X160932715Y-114451453D01*
X160952000Y-114470738D01*
X160968812Y-114482953D01*
X161010376Y-114529114D01*
X161059547Y-114578285D01*
X161070855Y-114596282D01*
X161080767Y-114607290D01*
X161114676Y-114666022D01*
X161154976Y-114730159D01*
X161160007Y-114744538D01*
X161164420Y-114752181D01*
X161187018Y-114821730D01*
X161214217Y-114899461D01*
X161215248Y-114908613D01*
X161216123Y-114911306D01*
X161224051Y-114986744D01*
X161234300Y-115077700D01*
X161224049Y-115168675D01*
X161216123Y-115244093D01*
X161215248Y-115246784D01*
X161214217Y-115255939D01*
X161187013Y-115333682D01*
X161164420Y-115403218D01*
X161160008Y-115410859D01*
X161154976Y-115425241D01*
X161114669Y-115489388D01*
X161080767Y-115548109D01*
X161070857Y-115559114D01*
X161059547Y-115577115D01*
X161010367Y-115626294D01*
X160968812Y-115672446D01*
X160952004Y-115684657D01*
X160932715Y-115703947D01*
X160879010Y-115737692D01*
X160833457Y-115770789D01*
X160809025Y-115781666D01*
X160780841Y-115799376D01*
X160726691Y-115818323D01*
X160680606Y-115838842D01*
X160648627Y-115845639D01*
X160611539Y-115858617D01*
X160560537Y-115864363D01*
X160516957Y-115873627D01*
X160478323Y-115873627D01*
X160433300Y-115878700D01*
X160388277Y-115873627D01*
X160349643Y-115873627D01*
X160306061Y-115864363D01*
X160255061Y-115858617D01*
X160217974Y-115845639D01*
X160185993Y-115838842D01*
X160139903Y-115818322D01*
X160085759Y-115799376D01*
X160057577Y-115781668D01*
X160033142Y-115770789D01*
X159987582Y-115737687D01*
X159933885Y-115703947D01*
X159914598Y-115684660D01*
X159897787Y-115672446D01*
X159856222Y-115626284D01*
X159807053Y-115577115D01*
X159795744Y-115559118D01*
X159785832Y-115548109D01*
X159751918Y-115489368D01*
X159711624Y-115425241D01*
X159706593Y-115410863D01*
X159702179Y-115403218D01*
X159679572Y-115333642D01*
X159652383Y-115255939D01*
X159651352Y-115246789D01*
X159650476Y-115244093D01*
X159642535Y-115168543D01*
X159632300Y-115077700D01*
X159642533Y-114986876D01*
X159650476Y-114911306D01*
X159651352Y-114908609D01*
X159652383Y-114899461D01*
X159679567Y-114821770D01*
X159702179Y-114752181D01*
X159706593Y-114744534D01*
X159711624Y-114730159D01*
X159751911Y-114666042D01*
X159785832Y-114607290D01*
X159795746Y-114596278D01*
X159807053Y-114578285D01*
X159856213Y-114529124D01*
X159897787Y-114482953D01*
X159914601Y-114470736D01*
X159933885Y-114451453D01*
X159987578Y-114417715D01*
X160033146Y-114384608D01*
X160057584Y-114373727D01*
X160085759Y-114356024D01*
X160139887Y-114337083D01*
X160185989Y-114316558D01*
X160217979Y-114309758D01*
X160255061Y-114296783D01*
X160306059Y-114291036D01*
X160349643Y-114281773D01*
X160388277Y-114281773D01*
X160433300Y-114276700D01*
X160478323Y-114281773D01*
G37*
G36*
X166985517Y-113021882D02*
G01*
X167002062Y-113032938D01*
X167013118Y-113049483D01*
X167017000Y-113069000D01*
X167017000Y-114769000D01*
X167013118Y-114788517D01*
X167002062Y-114805062D01*
X166985517Y-114816118D01*
X166966000Y-114820000D01*
X165266000Y-114820000D01*
X165246483Y-114816118D01*
X165229938Y-114805062D01*
X165218882Y-114788517D01*
X165215000Y-114769000D01*
X165215000Y-113069000D01*
X165218882Y-113049483D01*
X165229938Y-113032938D01*
X165246483Y-113021882D01*
X165266000Y-113018000D01*
X166966000Y-113018000D01*
X166985517Y-113021882D01*
G37*
G36*
X140719148Y-112467953D02*
G01*
X140734904Y-112474910D01*
X140742638Y-112476135D01*
X140774848Y-112492547D01*
X140819802Y-112512396D01*
X140897604Y-112590198D01*
X140917456Y-112635158D01*
X140933864Y-112667361D01*
X140935088Y-112675092D01*
X140942047Y-112690852D01*
X140950000Y-112759400D01*
X140950000Y-114062600D01*
X140942047Y-114131148D01*
X140935088Y-114146908D01*
X140933864Y-114154638D01*
X140917459Y-114186833D01*
X140897604Y-114231802D01*
X140819802Y-114309604D01*
X140774833Y-114329459D01*
X140742638Y-114345864D01*
X140734908Y-114347088D01*
X140719148Y-114354047D01*
X140650600Y-114362000D01*
X139347400Y-114362000D01*
X139278852Y-114354047D01*
X139263092Y-114347088D01*
X139255361Y-114345864D01*
X139223158Y-114329456D01*
X139178198Y-114309604D01*
X139100396Y-114231802D01*
X139080547Y-114186848D01*
X139064135Y-114154638D01*
X139062910Y-114146904D01*
X139055953Y-114131148D01*
X139048000Y-114062600D01*
X139048000Y-112759400D01*
X139055953Y-112690852D01*
X139062909Y-112675096D01*
X139064135Y-112667361D01*
X139080550Y-112635143D01*
X139100396Y-112590198D01*
X139178198Y-112512396D01*
X139223143Y-112492550D01*
X139255361Y-112476135D01*
X139263096Y-112474909D01*
X139278852Y-112467953D01*
X139347400Y-112460000D01*
X140650600Y-112460000D01*
X140719148Y-112467953D01*
G37*
G36*
X140440389Y-106080553D02*
G01*
X140757336Y-106155671D01*
X141063419Y-106267077D01*
X141354500Y-106413263D01*
X141626641Y-106592253D01*
X141876163Y-106801626D01*
X142099690Y-107038552D01*
X142294201Y-107299825D01*
X142457065Y-107581913D01*
X142586079Y-107881002D01*
X142679499Y-108193045D01*
X142736061Y-108513824D01*
X142755000Y-108839000D01*
X142736061Y-109164176D01*
X142679499Y-109484955D01*
X142586079Y-109796998D01*
X142457065Y-110096087D01*
X142294201Y-110378175D01*
X142099690Y-110639448D01*
X141876163Y-110876374D01*
X141626641Y-111085747D01*
X141354500Y-111264737D01*
X141063419Y-111410923D01*
X140757336Y-111522329D01*
X140440389Y-111597447D01*
X140116864Y-111635261D01*
X139791136Y-111635261D01*
X139467611Y-111597447D01*
X139150664Y-111522329D01*
X138844581Y-111410923D01*
X138553500Y-111264737D01*
X138281359Y-111085747D01*
X138031837Y-110876374D01*
X137808310Y-110639448D01*
X137613799Y-110378175D01*
X137450935Y-110096087D01*
X137321921Y-109796998D01*
X137228501Y-109484955D01*
X137171939Y-109164176D01*
X137153000Y-108839000D01*
X137171939Y-108513824D01*
X137228501Y-108193045D01*
X137321921Y-107881002D01*
X137450935Y-107581913D01*
X137613799Y-107299825D01*
X137808310Y-107038552D01*
X138031837Y-106801626D01*
X138281359Y-106592253D01*
X138553500Y-106413263D01*
X138844581Y-106267077D01*
X139150664Y-106155671D01*
X139467611Y-106080553D01*
X139791136Y-106042739D01*
X140116864Y-106042739D01*
X140440389Y-106080553D01*
G37*
G36*
X166348389Y-106080553D02*
G01*
X166665336Y-106155671D01*
X166971419Y-106267077D01*
X167262500Y-106413263D01*
X167534641Y-106592253D01*
X167784163Y-106801626D01*
X168007690Y-107038552D01*
X168202201Y-107299825D01*
X168365065Y-107581913D01*
X168494079Y-107881002D01*
X168587499Y-108193045D01*
X168644061Y-108513824D01*
X168663000Y-108839000D01*
X168644061Y-109164176D01*
X168587499Y-109484955D01*
X168494079Y-109796998D01*
X168365065Y-110096087D01*
X168202201Y-110378175D01*
X168007690Y-110639448D01*
X167784163Y-110876374D01*
X167534641Y-111085747D01*
X167262500Y-111264737D01*
X166971419Y-111410923D01*
X166665336Y-111522329D01*
X166348389Y-111597447D01*
X166024864Y-111635261D01*
X165699136Y-111635261D01*
X165375611Y-111597447D01*
X165058664Y-111522329D01*
X164752581Y-111410923D01*
X164461500Y-111264737D01*
X164189359Y-111085747D01*
X163939837Y-110876374D01*
X163716310Y-110639448D01*
X163521799Y-110378175D01*
X163358935Y-110096087D01*
X163229921Y-109796998D01*
X163136501Y-109484955D01*
X163079939Y-109164176D01*
X163061000Y-108839000D01*
X163079939Y-108513824D01*
X163136501Y-108193045D01*
X163229921Y-107881002D01*
X163358935Y-107581913D01*
X163521799Y-107299825D01*
X163716310Y-107038552D01*
X163939837Y-106801626D01*
X164189359Y-106592253D01*
X164461500Y-106413263D01*
X164752581Y-106267077D01*
X165058664Y-106155671D01*
X165375611Y-106080553D01*
X165699136Y-106042739D01*
X166024864Y-106042739D01*
X166348389Y-106080553D01*
G37*
G36*
X148961517Y-103172882D02*
G01*
X148978062Y-103183938D01*
X148989118Y-103200483D01*
X148993000Y-103220000D01*
X148993000Y-104920000D01*
X148989118Y-104939517D01*
X148978062Y-104956062D01*
X148961517Y-104967118D01*
X148942000Y-104971000D01*
X147242000Y-104971000D01*
X147222483Y-104967118D01*
X147205938Y-104956062D01*
X147194882Y-104939517D01*
X147191000Y-104920000D01*
X147191000Y-103220000D01*
X147194882Y-103200483D01*
X147205938Y-103183938D01*
X147222483Y-103172882D01*
X147242000Y-103169000D01*
X148942000Y-103169000D01*
X148961517Y-103172882D01*
G37*
G36*
X150675983Y-103173936D02*
G01*
X150726180Y-103173936D01*
X150769524Y-103183149D01*
X150807659Y-103186905D01*
X150855566Y-103201437D01*
X150910424Y-103213098D01*
X150945530Y-103228728D01*
X150976566Y-103238143D01*
X151025884Y-103264504D01*
X151082500Y-103289711D01*
X151108822Y-103308835D01*
X151132232Y-103321348D01*
X151179988Y-103360540D01*
X151234887Y-103400427D01*
X151252711Y-103420223D01*
X151268675Y-103433324D01*
X151311572Y-103485594D01*
X151360924Y-103540405D01*
X151371292Y-103558363D01*
X151380651Y-103569767D01*
X151415273Y-103634542D01*
X151455104Y-103703530D01*
X151459685Y-103717630D01*
X151463856Y-103725433D01*
X151486852Y-103801242D01*
X151513311Y-103882672D01*
X151514242Y-103891532D01*
X151515094Y-103894340D01*
X151523384Y-103978513D01*
X151533000Y-104070000D01*
X151523383Y-104161494D01*
X151515094Y-104245659D01*
X151514242Y-104248466D01*
X151513311Y-104257328D01*
X151486848Y-104338771D01*
X151463856Y-104414566D01*
X151459686Y-104422366D01*
X151455104Y-104436470D01*
X151415266Y-104505470D01*
X151380651Y-104570232D01*
X151371294Y-104581633D01*
X151360924Y-104599595D01*
X151311563Y-104654415D01*
X151268675Y-104706675D01*
X151252714Y-104719773D01*
X151234887Y-104739573D01*
X151179977Y-104779467D01*
X151132232Y-104818651D01*
X151108827Y-104831161D01*
X151082500Y-104850289D01*
X151025873Y-104875500D01*
X150976566Y-104901856D01*
X150945537Y-104911268D01*
X150910424Y-104926902D01*
X150855555Y-104938564D01*
X150807659Y-104953094D01*
X150769532Y-104956849D01*
X150726180Y-104966064D01*
X150675973Y-104966064D01*
X150632000Y-104970395D01*
X150588027Y-104966064D01*
X150537820Y-104966064D01*
X150494467Y-104956849D01*
X150456340Y-104953094D01*
X150408441Y-104938563D01*
X150353576Y-104926902D01*
X150318464Y-104911269D01*
X150287433Y-104901856D01*
X150238120Y-104875498D01*
X150181500Y-104850289D01*
X150155175Y-104831163D01*
X150131767Y-104818651D01*
X150084013Y-104779460D01*
X150029113Y-104739573D01*
X150011287Y-104719776D01*
X149995324Y-104706675D01*
X149952425Y-104654402D01*
X149903076Y-104599595D01*
X149892708Y-104581637D01*
X149883348Y-104570232D01*
X149848719Y-104505447D01*
X149808896Y-104436470D01*
X149804315Y-104422371D01*
X149800143Y-104414566D01*
X149777136Y-104338725D01*
X149750689Y-104257328D01*
X149749758Y-104248471D01*
X149748905Y-104245659D01*
X149740600Y-104161342D01*
X149731000Y-104070000D01*
X149740599Y-103978664D01*
X149748905Y-103894340D01*
X149749758Y-103891527D01*
X149750689Y-103882672D01*
X149777132Y-103801288D01*
X149800143Y-103725433D01*
X149804315Y-103717626D01*
X149808896Y-103703530D01*
X149848712Y-103634565D01*
X149883348Y-103569767D01*
X149892710Y-103558359D01*
X149903076Y-103540405D01*
X149952416Y-103485607D01*
X149995324Y-103433324D01*
X150011291Y-103420219D01*
X150029113Y-103400427D01*
X150084002Y-103360546D01*
X150131767Y-103321348D01*
X150155180Y-103308833D01*
X150181500Y-103289711D01*
X150238109Y-103264506D01*
X150287433Y-103238143D01*
X150318471Y-103228727D01*
X150353576Y-103213098D01*
X150408430Y-103201438D01*
X150456340Y-103186905D01*
X150494476Y-103183148D01*
X150537820Y-103173936D01*
X150588016Y-103173936D01*
X150632000Y-103169604D01*
X150675983Y-103173936D01*
G37*
G36*
X153215983Y-103173936D02*
G01*
X153266180Y-103173936D01*
X153309524Y-103183149D01*
X153347659Y-103186905D01*
X153395566Y-103201437D01*
X153450424Y-103213098D01*
X153485530Y-103228728D01*
X153516566Y-103238143D01*
X153565884Y-103264504D01*
X153622500Y-103289711D01*
X153648822Y-103308835D01*
X153672232Y-103321348D01*
X153719988Y-103360540D01*
X153774887Y-103400427D01*
X153792711Y-103420223D01*
X153808675Y-103433324D01*
X153851572Y-103485594D01*
X153900924Y-103540405D01*
X153911292Y-103558363D01*
X153920651Y-103569767D01*
X153955273Y-103634542D01*
X153995104Y-103703530D01*
X153999685Y-103717630D01*
X154003856Y-103725433D01*
X154026852Y-103801242D01*
X154053311Y-103882672D01*
X154054242Y-103891532D01*
X154055094Y-103894340D01*
X154063384Y-103978513D01*
X154073000Y-104070000D01*
X154063383Y-104161494D01*
X154055094Y-104245659D01*
X154054242Y-104248466D01*
X154053311Y-104257328D01*
X154026848Y-104338771D01*
X154003856Y-104414566D01*
X153999686Y-104422366D01*
X153995104Y-104436470D01*
X153955266Y-104505470D01*
X153920651Y-104570232D01*
X153911294Y-104581633D01*
X153900924Y-104599595D01*
X153851563Y-104654415D01*
X153808675Y-104706675D01*
X153792714Y-104719773D01*
X153774887Y-104739573D01*
X153719977Y-104779467D01*
X153672232Y-104818651D01*
X153648827Y-104831161D01*
X153622500Y-104850289D01*
X153565873Y-104875500D01*
X153516566Y-104901856D01*
X153485537Y-104911268D01*
X153450424Y-104926902D01*
X153395555Y-104938564D01*
X153347659Y-104953094D01*
X153309533Y-104956849D01*
X153266180Y-104966064D01*
X153215972Y-104966064D01*
X153171999Y-104970395D01*
X153128026Y-104966064D01*
X153077820Y-104966064D01*
X153034467Y-104956849D01*
X152996340Y-104953094D01*
X152948441Y-104938563D01*
X152893576Y-104926902D01*
X152858464Y-104911269D01*
X152827433Y-104901856D01*
X152778120Y-104875498D01*
X152721500Y-104850289D01*
X152695175Y-104831163D01*
X152671767Y-104818651D01*
X152624013Y-104779460D01*
X152569113Y-104739573D01*
X152551287Y-104719776D01*
X152535324Y-104706675D01*
X152492425Y-104654402D01*
X152443076Y-104599595D01*
X152432708Y-104581637D01*
X152423348Y-104570232D01*
X152388719Y-104505447D01*
X152348896Y-104436470D01*
X152344315Y-104422371D01*
X152340143Y-104414566D01*
X152317136Y-104338725D01*
X152290689Y-104257328D01*
X152289758Y-104248471D01*
X152288905Y-104245659D01*
X152280600Y-104161342D01*
X152271000Y-104070000D01*
X152280599Y-103978664D01*
X152288905Y-103894340D01*
X152289758Y-103891527D01*
X152290689Y-103882672D01*
X152317132Y-103801288D01*
X152340143Y-103725433D01*
X152344315Y-103717626D01*
X152348896Y-103703530D01*
X152388712Y-103634565D01*
X152423348Y-103569767D01*
X152432710Y-103558359D01*
X152443076Y-103540405D01*
X152492416Y-103485607D01*
X152535324Y-103433324D01*
X152551291Y-103420219D01*
X152569113Y-103400427D01*
X152624002Y-103360546D01*
X152671767Y-103321348D01*
X152695180Y-103308833D01*
X152721500Y-103289711D01*
X152778109Y-103264506D01*
X152827433Y-103238143D01*
X152858471Y-103228727D01*
X152893576Y-103213098D01*
X152948430Y-103201438D01*
X152996340Y-103186905D01*
X153034476Y-103183148D01*
X153077820Y-103173936D01*
X153128016Y-103173936D01*
X153171999Y-103169604D01*
X153215983Y-103173936D01*
G37*
G36*
X155755983Y-103173936D02*
G01*
X155806180Y-103173936D01*
X155849524Y-103183149D01*
X155887659Y-103186905D01*
X155935566Y-103201437D01*
X155990424Y-103213098D01*
X156025530Y-103228728D01*
X156056566Y-103238143D01*
X156105884Y-103264504D01*
X156162500Y-103289711D01*
X156188822Y-103308835D01*
X156212232Y-103321348D01*
X156259988Y-103360540D01*
X156314887Y-103400427D01*
X156332711Y-103420223D01*
X156348675Y-103433324D01*
X156391572Y-103485594D01*
X156440924Y-103540405D01*
X156451292Y-103558363D01*
X156460651Y-103569767D01*
X156495273Y-103634542D01*
X156535104Y-103703530D01*
X156539685Y-103717630D01*
X156543856Y-103725433D01*
X156566852Y-103801242D01*
X156593311Y-103882672D01*
X156594242Y-103891532D01*
X156595094Y-103894340D01*
X156603384Y-103978513D01*
X156613000Y-104070000D01*
X156603383Y-104161494D01*
X156595094Y-104245659D01*
X156594242Y-104248466D01*
X156593311Y-104257328D01*
X156566848Y-104338771D01*
X156543856Y-104414566D01*
X156539686Y-104422366D01*
X156535104Y-104436470D01*
X156495266Y-104505470D01*
X156460651Y-104570232D01*
X156451294Y-104581633D01*
X156440924Y-104599595D01*
X156391563Y-104654415D01*
X156348675Y-104706675D01*
X156332714Y-104719773D01*
X156314887Y-104739573D01*
X156259977Y-104779467D01*
X156212232Y-104818651D01*
X156188827Y-104831161D01*
X156162500Y-104850289D01*
X156105873Y-104875500D01*
X156056566Y-104901856D01*
X156025537Y-104911268D01*
X155990424Y-104926902D01*
X155935555Y-104938564D01*
X155887659Y-104953094D01*
X155849532Y-104956849D01*
X155806180Y-104966064D01*
X155755973Y-104966064D01*
X155712000Y-104970395D01*
X155668027Y-104966064D01*
X155617820Y-104966064D01*
X155574467Y-104956849D01*
X155536340Y-104953094D01*
X155488441Y-104938563D01*
X155433576Y-104926902D01*
X155398464Y-104911269D01*
X155367433Y-104901856D01*
X155318120Y-104875498D01*
X155261500Y-104850289D01*
X155235175Y-104831163D01*
X155211767Y-104818651D01*
X155164013Y-104779460D01*
X155109113Y-104739573D01*
X155091287Y-104719776D01*
X155075324Y-104706675D01*
X155032425Y-104654402D01*
X154983076Y-104599595D01*
X154972708Y-104581637D01*
X154963348Y-104570232D01*
X154928719Y-104505447D01*
X154888896Y-104436470D01*
X154884315Y-104422371D01*
X154880143Y-104414566D01*
X154857136Y-104338725D01*
X154830689Y-104257328D01*
X154829758Y-104248471D01*
X154828905Y-104245659D01*
X154820600Y-104161342D01*
X154811000Y-104070000D01*
X154820599Y-103978664D01*
X154828905Y-103894340D01*
X154829758Y-103891527D01*
X154830689Y-103882672D01*
X154857132Y-103801288D01*
X154880143Y-103725433D01*
X154884315Y-103717626D01*
X154888896Y-103703530D01*
X154928712Y-103634565D01*
X154963348Y-103569767D01*
X154972710Y-103558359D01*
X154983076Y-103540405D01*
X155032416Y-103485607D01*
X155075324Y-103433324D01*
X155091291Y-103420219D01*
X155109113Y-103400427D01*
X155164002Y-103360546D01*
X155211767Y-103321348D01*
X155235180Y-103308833D01*
X155261500Y-103289711D01*
X155318109Y-103264506D01*
X155367433Y-103238143D01*
X155398471Y-103228727D01*
X155433576Y-103213098D01*
X155488430Y-103201438D01*
X155536340Y-103186905D01*
X155574476Y-103183148D01*
X155617820Y-103173936D01*
X155668016Y-103173936D01*
X155712000Y-103169604D01*
X155755983Y-103173936D01*
G37*
M02*
